<svg width="102" height="106" viewBox="0 0 102 106" fill="none" xmlns="http://www.w3.org/2000/svg">
<path d="M49.0903 0.118224C49.3215 1.1558 49.6118 2.11274 49.7623 3.09118C50.2138 7.8866 50.8051 12.6605 51.0363 17.4183C51.5791 34.4335 52.1219 51.4486 52.7238 68.3831C53.1216 79.3395 53.5193 90.2959 53.917 101.252C53.9224 101.752 53.9277 102.252 53.9922 102.671C54.0621 103.591 53.9116 104.472 52.7342 104.725C51.6967 104.956 51.0085 104.204 50.7397 103.386C50.2882 102.311 49.9549 101.075 49.7828 99.9565C49.3152 95.5213 48.7669 91.0269 48.6594 86.6078C48.0468 59.3728 47.574 32.1164 48.4613 4.86525C48.4452 3.36534 48.5688 1.84392 48.6925 0.322505C48.6925 0.322505 48.8323 0.301009 49.0903 0.118224Z" fill="black"/>
</svg>
