<svg width="219" height="350" viewBox="0 0 219 350" fill="none" xmlns="http://www.w3.org/2000/svg">
<path d="M-36.1312 270.749C-42.378 259.667 -48.5846 248.658 -54.6444 237.569C-59.099 229.417 -63.1863 221.065 -66.2789 212.265C-71.821 196.888 -74.3113 180.987 -73.6695 164.71C-73.0345 148.246 -69.6141 132.167 -63.8489 116.714C-58.2903 101.755 -49.4306 88.9984 -38.426 77.5487C-27.061 65.7114 -13.8371 56.5777 0.804154 49.3396C14.6376 42.543 29.4624 39.3055 44.7558 37.6238C54.2658 36.5277 63.5306 37.9498 72.6963 40.7612C92.8115 47.0303 108.83 59.0667 121.713 75.4868C127.684 83.0961 133.768 90.7388 139.484 98.5821C145.047 106.319 150.243 114.256 155.512 122.153C158.641 126.832 161.697 131.552 164.68 136.312C172.792 149.236 179.842 162.835 186.191 176.723C190.506 186.19 194.007 195.912 197.401 205.787C198.787 209.894 200.433 213.953 201.965 217.98C202.253 218.681 202.427 219.348 202.642 220.09C203.478 222.493 202.959 224.684 201.385 226.689C198.662 230.084 195.585 233.006 192.001 235.346C185.933 239.425 180.018 243.61 173.516 247.069C172.194 247.791 171.066 248.693 169.784 249.489C166.78 251.322 164.188 251.117 161.555 248.741C159.002 246.512 156.956 243.815 155.351 240.878C152.381 235.444 149.518 229.856 146.842 224.261C139.423 208.765 131.156 193.637 122.522 178.709C117.727 170.458 113.045 162.24 107.923 154.262C100.373 142.366 92.1691 131.019 82.0695 121.088C77.2502 116.283 72.004 112.093 66.0771 108.751C58.7738 104.636 51.0247 102.672 42.6428 102.865C33.927 103.146 25.533 105.063 17.5276 108.388C11.9191 110.69 6.58465 113.319 1.69849 116.943C-1.07165 119.029 -3.68125 121.409 -5.7495 124.256C-16.7244 139.599 -23.1497 156.462 -22.9411 175.517C-22.821 183.939 -21.0981 192.153 -18.7809 200.232C-14.5016 214.869 -9.96192 229.459 -4.46069 243.714C2.73367 262.29 11.6171 279.942 22.6703 296.504C25.88 301.33 28.9761 306.123 31.9654 311.07C33.2027 313.159 34.1795 315.296 35.1964 317.506C35.5644 318.354 35.859 319.242 36.0067 320.21C36.2218 322 36.4702 323.676 37.7271 325.278C38.9439 326.807 38.4912 328.771 37.1967 330.241C34.1071 333.837 30.8639 337.326 26.21 339.106C24.3272 339.849 22.6449 340.959 20.8825 341.922C20.1481 342.323 19.3403 342.765 18.6059 343.166C15.5882 344.624 12.7361 344.466 10.2898 342.084C8.03725 339.882 5.78472 337.679 3.9327 335.163C-0.0855961 329.729 -3.95702 324.215 -7.64825 318.508C-11.3395 312.8 -14.924 306.939 -18.3215 301.071C-24.1934 291.023 -29.992 280.936 -35.7905 270.849C-36.0577 270.709 -36.1312 270.749 -36.1312 270.749Z" fill="#F7D046"/>
<path d="M51.1741 313.757C51.3679 313.938 51.4482 314.085 51.6019 314.191C53.6742 316.587 53.5691 318.838 51.407 321.164C48.3772 324.346 44.8727 326.833 41.2546 329.287C39.5724 330.397 37.85 331.434 36.1678 332.544C33.4976 334.289 30.9393 333.97 28.2598 332.383C23.6292 329.668 20.1198 325.864 17.2978 321.398C14.0745 316.198 10.9579 310.843 7.84131 305.489C3.89564 298.967 0.0234074 292.405 -3.9957 285.923C-8.2889 279.113 -12.7623 272.498 -16.982 265.649C-26.2976 250.522 -33.9908 234.698 -38.5526 217.45C-43.6438 198.012 -45.2621 178.297 -42.2455 158.338C-38.1663 130.55 -24.7593 107.965 -2.11742 91.1097C9.69748 82.3644 22.8768 76.1159 37.0731 72.0774C42.6688 70.4501 48.4925 69.9379 54.3571 70.5478C73.5271 72.4698 79.1064 75.5244 92.7062 85.9262C102.183 93.1454 110.144 101.955 117.812 110.926C125.439 119.823 131.785 129.516 137.477 139.757C143.931 151.393 150.312 163.07 156.399 174.907C164.379 190.382 171.144 206.427 176.727 222.926C178.234 227.253 179.519 231.7 180.805 236.147C181.067 237.149 181.294 238.264 181.369 239.272C181.625 242.184 180.551 244.583 178.101 246.208C175.545 247.986 173.102 249.798 170.344 251.21C165.237 253.905 160.123 256.414 154.855 258.816C151.944 260.12 148.913 261.205 145.881 262.289C142.149 263.661 139.497 262.822 137.464 259.45C136.033 257.181 134.748 254.831 133.611 252.4C130.239 245.183 126.794 238.006 123.716 230.628C121.949 226.348 120.664 221.901 119.304 217.494C117.644 212.012 115.542 206.771 112.813 201.777C108.513 193.732 103.991 185.808 99.5839 177.917C97.5773 174.245 94.95 171.008 92.2893 167.884C88.8798 163.739 85.6906 159.474 82.2811 155.329C78.4037 150.676 74.4195 146.178 70.5822 141.599C67.6876 138.222 64.9732 134.651 61.9317 131.354C56.4302 125.3 49.4949 122.033 41.3726 121.131C36.4097 120.601 31.9156 121.626 27.7365 124.1C23.1902 126.775 19.3057 130.138 16.17 134.522C13.6415 138.097 11.0327 141.525 8.42393 144.954C5.60165 148.689 3.50774 152.886 1.90823 157.288C-1.39753 166.247 -3.60775 175.466 -4.83598 184.911C-6.03772 194.055 -4.62823 202.917 -2.02326 211.698C1.47906 223.517 6.56368 234.567 12.7567 245.201C20.1869 257.926 28.1646 270.255 36.476 282.498C40.9093 289.04 45.1222 295.702 49.4086 302.324C51.6688 305.762 52.5132 309.402 51.087 313.424C51.2006 313.457 51.2407 313.53 51.1741 313.757Z" fill="#EE8DB9"/>
<path d="M105.066 217.27C99.1266 206.402 93.4076 195.413 87.1744 184.704C80.8141 173.589 73.686 162.988 65.7169 152.943C62.8889 149.338 59.8807 145.928 56.8725 142.517C54.1785 139.507 50.9841 137.152 47.1758 135.418C44.3964 134.172 41.5708 133.713 38.5523 134.123C31.8474 135.116 26.0655 137.799 21.187 142.659C14.3265 149.65 10.0652 158.082 7.6014 167.535C4.6448 178.878 5.13456 190.245 7.75481 201.497C9.8389 210.372 13.3251 218.671 17.4389 226.723C25.8203 242.933 34.9694 258.628 44.7794 273.962C48.2768 279.489 51.594 285.21 55.0914 290.738C56.6027 293.154 58.2276 295.604 59.8858 297.941C61.0693 299.583 62.3595 301.071 63.6164 302.673C65.348 304.969 65.096 307.3 62.9202 309.252C62.2661 309.801 61.612 310.349 60.8443 310.864C59.4225 311.927 58.0409 313.063 56.9333 314.527C55.1785 316.725 52.8421 318.384 50.3052 319.675C48.0286 320.919 45.7308 320.553 43.7592 318.865C42.6363 317.857 41.6202 316.696 40.6041 315.535C33.4512 307.332 26.5921 298.968 20.3136 290.097C15.894 283.929 11.728 277.527 7.56207 271.125C2.19898 262.707 -2.87037 254.129 -7.27877 245.189C-15.0454 229.406 -19.5466 212.793 -19.9277 195.167C-20.3208 179.265 -18.3025 163.762 -12.1761 148.97C-10.6227 145.355 -8.95579 141.774 -6.90802 138.366C-3.97981 133.428 -0.897914 128.597 2.41113 123.832C7.10782 117.069 13.0811 111.421 19.8032 106.794C30.0631 99.5658 41.4166 98.702 53.1679 102.58C57.9446 104.166 62.1944 106.707 66.1239 109.71C72.8269 114.821 78.5154 120.867 83.9571 127.335C99.2662 145.576 111.978 165.523 122.715 186.741C127.638 196.448 131.9 206.516 136.53 216.384C139.734 223.121 143.126 229.851 146.477 236.507C148.457 240.479 150.731 244.291 152.744 248.15C153.226 249.031 153.708 249.913 154.042 250.874C155.28 254.012 154.588 256.584 151.771 258.41C147.712 261.104 143.573 263.652 139.32 266.167C135.101 268.568 131.768 267.529 129.4 263.196C127.393 259.524 125.574 255.845 123.641 252.133C117.52 240.41 111.367 228.8 105.246 217.077C105.139 217.23 105.139 217.23 105.066 217.27Z" fill="#EA552B"/>
<path d="M171.2 161.091C171.8 163.691 172.4 165.791 172.9 167.991C173 168.491 173.2 169.091 173.3 169.591C173.5 170.491 173.3 171.391 172.4 171.891C171.5 172.391 170.7 171.991 170.1 171.291C168.3 169.191 166.5 166.991 164.7 164.891C164.3 164.391 163.9 163.991 163.2 163.291C162.6 165.391 162 167.191 161.4 168.991C160.9 170.491 160.5 172.091 159.8 173.491C159.6 174.091 158.8 174.691 158.3 174.791C157.3 174.891 157 173.991 156.9 173.191C156.7 170.991 156.6 168.691 156.4 166.491C156.3 165.091 156.2 163.691 156 161.891C155 162.291 154.3 162.491 153.6 162.791C151.5 163.591 149.4 164.491 147.4 165.291C146.7 165.591 146 165.791 145.3 165.891C144.2 166.091 143 166.091 142.3 164.991C141.7 164.091 142 162.891 143.2 161.791C145.2 159.991 147.2 158.391 149.3 156.691C149.9 156.191 150.5 155.691 151.2 155.091C149.1 154.091 147 153.091 145.1 152.091C143.1 151.091 142.5 150.091 142.9 148.891C143.3 147.691 144.4 147.091 146.5 147.291C148.8 147.491 151.1 147.791 153.4 147.991C154.4 148.091 155.4 147.991 156.7 147.991C156.5 146.491 156.5 145.291 156.3 144.091C155.9 142.091 155.4 140.191 155 138.191C154.9 137.491 154.8 136.791 154.8 136.091C154.9 135.091 155.3 134.191 156.4 133.891C157.4 133.591 158.2 133.991 158.7 134.791C160.2 136.691 161.4 138.591 162.7 140.391C163.2 141.191 163.7 141.991 164.7 142.691C165.1 140.491 165.4 138.391 165.8 136.191C166 135.291 166.1 134.291 166.4 133.391C166.8 132.091 167.6 131.491 168.6 131.591C169.7 131.791 170.2 132.591 170.4 133.591C170.7 136.091 170.9 138.491 171.1 140.991C171.2 141.591 171.2 142.291 171.2 143.191C172 142.891 172.6 142.591 173.2 142.291C174.7 141.491 176.2 140.691 177.7 139.991C179.5 139.091 180.5 139.091 181.2 140.091C181.8 140.991 181.6 141.991 180.3 143.491C179.1 144.891 177.9 146.291 176.7 147.691C175.8 148.691 175 149.791 174 150.991C174.4 151.491 174.8 151.991 175.3 152.391C177.5 154.791 179.8 157.191 182 159.591C182.7 160.391 183.1 161.191 182.5 162.191C181.9 163.191 181 163.191 180 162.991C177.2 162.391 174.4 161.791 171.2 161.091Z" fill="black"/>
</svg>
