<svg width="118" height="21" viewBox="0 0 118 21" fill="none" xmlns="http://www.w3.org/2000/svg">
<g clip-path="url(#clip0_299_273)">
<path d="M108.501 0.764999H99.002V19.763H118V10.264C118 5.013 113.752 0.764999 108.501 0.764999ZM3.34333 19.7433H0.0196667V8.33667L0 5.15067H3.068V6.665H3.08767C3.67767 5.70133 5.15267 4.718 7.23733 4.718C10.797 4.718 13.511 7.05833 13.511 11.739V19.7237H10.1677V11.68C10.1677 9.28067 9.06633 7.68767 6.74567 7.68767C4.44467 7.68767 3.34333 9.30033 3.34333 11.68V19.7433V19.7433Z" fill="white"/>
<path d="M30.68 15.397C29.795 18.1307 27.3564 20.176 23.541 20.176C19.2537 20.176 16.1267 17.108 16.1267 12.388C16.1267 7.727 19.3717 4.718 23.482 4.718C27.5727 4.718 30.5424 7.68767 30.5424 12.3683V13.2927H19.5094C19.765 15.869 21.3384 17.403 23.718 17.403C25.606 17.403 26.668 16.5573 27.1007 15.397H30.68V15.397ZM19.5094 10.7557H27.0614C26.8647 8.88733 25.665 7.314 23.3837 7.314C21.2204 7.314 19.8044 8.92667 19.5094 10.7557V10.7557ZM40.5724 20.176C36.521 20.176 33.0204 17.5013 33.0204 12.447C33.0204 7.432 36.639 4.718 40.6904 4.718C44.3877 4.718 47.0427 6.96 47.6524 9.89033H44.132C43.719 8.69067 42.5784 7.727 40.6904 7.727C38.1534 7.727 36.3637 9.59533 36.3637 12.447C36.3637 15.2987 38.1534 17.2063 40.651 17.2063C42.6374 17.2063 43.8567 16.164 44.2304 14.9643H47.7704C47.1607 17.875 44.25 20.176 40.5724 20.176V20.176ZM57.7414 19.8613C54.339 19.8613 52.1364 18.111 52.1364 14.1187V8.081H49.2257V5.17033H52.1364V0.764999H53.6507C54.6537 0.764999 55.46 1.57133 55.46 2.57433V5.17033H59.5114V8.081H55.46V13.9417C55.46 16.282 56.8564 16.8523 58.3707 16.8523C58.8127 16.8545 59.2538 16.815 59.6884 16.7343V19.645C59.236 19.7827 58.469 19.8613 57.7414 19.8613V19.8613ZM62.0877 12.4863C62.0877 7.904 64.9787 4.73767 69.4627 4.73767C71.213 4.73767 73.573 5.76033 74.1827 7.196H74.2024V5.19H77.408L77.3884 8.376V19.7827H74.1827V17.7373H74.163C73.5534 19.173 71.2524 20.1957 69.4627 20.1957C64.9787 20.176 62.0877 17.0687 62.0877 12.4863ZM74.163 12.4863C74.163 9.51667 72.2357 7.786 69.8167 7.786C67.3387 7.786 65.4704 9.51667 65.4704 12.4863C65.4704 15.456 67.3387 17.1277 69.8167 17.1277C72.1374 17.1277 74.163 15.456 74.163 12.4863V12.4863ZM89.3457 8.081C86.5727 8.081 84.8814 9.65433 84.8814 12.624V19.7433H81.5577V8.33667L81.5184 5.15067H84.724V7.55H84.783C85.3337 5.91767 86.966 4.718 89.0507 4.718C89.6407 4.718 89.9947 4.777 89.9947 4.777V8.081H89.3457V8.081Z" fill="white"/>
</g>
<defs>
<clipPath id="clip0_299_273">
<rect width="118" height="19.47" fill="white" transform="translate(0 0.764999)"/>
</clipPath>
</defs>
</svg>
