<svg width="179" height="26" viewBox="0 0 179 26" fill="none" xmlns="http://www.w3.org/2000/svg">
<g clip-path="url(#clip0_2_172)">
<path fill-rule="evenodd" clip-rule="evenodd" d="M31.4486 10.5415L35.7712 20.2453C36.6458 22.2089 35.7623 24.5095 33.7977 25.3838C31.833 26.258 29.5311 25.3749 28.6565 23.4114L25.1623 15.567L23.6221 19.193V10.5415H31.4486Z" fill="white"/>
<path fill-rule="evenodd" clip-rule="evenodd" d="M31.9171 11.5931L32.8113 13.6008C32.2711 13.4133 31.6908 13.3113 31.0866 13.3113C28.591 13.3113 26.5022 15.0504 25.9701 17.3807L25.1623 15.5669L24.3059 17.5832V11.5931H31.9171Z" fill="black" fill-opacity="0.2"/>
<path fill-rule="evenodd" clip-rule="evenodd" d="M18.9082 10.3711V17.2427H11.707L10.9604 15.5669L10.2487 17.2427H2.28329V16.0767L7.27564 4.32155C7.90708 2.83481 9.35474 1.94398 10.8754 1.9493C12.3712 1.94409 13.8008 2.80559 14.4483 4.25924L18.0603 12.3675L18.9082 10.3711Z" fill="white"/>
<path fill-rule="evenodd" clip-rule="evenodd" d="M18.0551 12.3558L18.0603 12.3675L21.4774 4.32155C22.1088 2.83481 23.5565 1.94398 25.0771 1.9493C26.5729 1.94409 28.0025 2.80559 28.65 4.25924L32.8077 13.5927C31.9693 12.869 30.877 12.4314 29.6822 12.4314C27.6064 12.4314 25.8394 13.7526 25.1768 15.5998L25.1623 15.5669L21.8054 23.4707C20.9651 25.4494 18.6791 26.3726 16.6994 25.5326C16.5088 25.4518 16.3249 25.3562 16.1494 25.2462C15.4234 24.8518 14.8168 24.224 14.4548 23.4113L10.9739 15.5973C11.4979 15.7473 12.0513 15.8276 12.6235 15.8276C15.0311 15.8276 17.1065 14.4055 18.055 12.3558H18.0551Z" fill="white"/>
<path fill-rule="evenodd" clip-rule="evenodd" d="M10.9388 15.6178L8.43215 21.5201C7.82085 21.8006 7.13967 21.9566 6.42151 21.9566C3.90241 21.9566 1.83787 20.0346 1.6496 17.5689L3.36982 13.5184C4.19817 12.8329 5.26166 12.4208 6.42151 12.4208C8.50923 12.4208 10.2848 13.7558 10.9388 15.6178Z" fill="white"/>
<path fill-rule="evenodd" clip-rule="evenodd" d="M10.2031 17.3502L7.60367 23.4707C6.7634 25.4494 4.47734 26.3726 2.49771 25.5328C0.518058 24.6927 -0.405524 22.408 0.434753 20.4294L3.32115 13.633C3.93216 13.3626 4.60795 13.2125 5.31866 13.2125C7.77237 13.2125 9.80938 15.0017 10.2031 17.3502V17.3502Z" fill="white"/>
<path d="M46.1024 20.5377H48.7943V10.3245L53.3663 16.579H53.683L58.2354 10.5224V20.5377H60.9469V5.79193H58.3739L53.584 12.4423L48.6755 5.79193H46.1024V20.5377Z" fill="white"/>
<path d="M68.6579 20.7751C69.7532 20.7751 70.7098 20.531 71.5279 20.0428C72.3593 19.5414 72.9398 18.908 73.2696 18.1427L71.1717 17.1135C70.9341 17.5225 70.6043 17.859 70.1819 18.1229C69.7729 18.3736 69.2716 18.499 68.6778 18.499C67.8992 18.499 67.246 18.2615 66.7183 17.7864C66.1903 17.3114 65.8869 16.678 65.8078 15.8863H73.5666C73.6193 15.7412 73.6523 15.5762 73.6654 15.3915C73.6918 15.1936 73.7051 14.9956 73.7051 14.7977C73.7051 13.8345 73.5005 12.957 73.0916 12.1653C72.6824 11.3735 72.0887 10.7402 71.3102 10.2651C70.5316 9.77692 69.5817 9.53281 68.4599 9.53281C67.4572 9.53281 66.5467 9.77692 65.7286 10.2651C64.9236 10.7534 64.2837 11.4197 63.8088 12.2642C63.3469 13.0955 63.1159 14.0522 63.1159 15.1342C63.1159 16.1766 63.3469 17.1267 63.8088 17.9844C64.2704 18.8421 64.917 19.5216 65.7484 20.023C66.5797 20.5244 67.5494 20.7751 68.6579 20.7751ZM68.4599 11.6704C69.1461 11.6704 69.7135 11.8816 70.1621 12.3038C70.624 12.7129 70.8814 13.2473 70.9341 13.907H65.8672C66.0123 13.1945 66.3158 12.6469 66.7777 12.2642C67.2526 11.8684 67.8134 11.6704 68.4599 11.6704Z" fill="white"/>
<path d="M75.6707 20.5377H78.2634V14.2237C78.2634 13.5244 78.4547 12.9636 78.8375 12.5413C79.2201 12.1191 79.7216 11.9079 80.3418 11.9079C80.975 11.9079 81.4766 12.1191 81.8461 12.5413C82.2286 12.9504 82.4199 13.5112 82.4199 14.2237V20.5377H85.0129V14.2237C85.0129 13.5244 85.2042 12.9636 85.5869 12.5413C85.9695 12.1191 86.4709 11.9079 87.091 11.9079C87.7245 11.9079 88.2258 12.1191 88.5953 12.5413C88.9781 12.9504 89.1694 13.5112 89.1694 14.2237V20.5377H91.7621V13.6101C91.7621 12.8052 91.5841 12.0993 91.2277 11.4923C90.8846 10.8721 90.4163 10.3905 89.8225 10.0474C89.2287 9.70434 88.5492 9.53281 87.7839 9.53281C87.0713 9.53281 86.4247 9.67796 85.8441 9.96825C85.2769 10.2586 84.8083 10.694 84.4388 11.2746C84.1221 10.7468 83.6669 10.3245 83.0731 10.0078C82.4926 9.69115 81.8394 9.53281 81.1137 9.53281C80.4406 9.53281 79.8404 9.66475 79.3125 9.92866C78.7847 10.1926 78.3822 10.5884 78.1052 11.1162V9.77032H75.6707V20.5377Z" fill="white"/>
<path d="M99.8342 20.7751C100.877 20.7751 101.807 20.531 102.625 20.0428C103.443 19.5414 104.09 18.8684 104.565 18.0239C105.04 17.1662 105.277 16.2096 105.277 15.154C105.277 14.0983 105.04 13.1483 104.565 12.3038C104.09 11.4461 103.443 10.7731 102.625 10.2849C101.807 9.78349 100.883 9.53279 99.8542 9.53279C98.4554 9.53279 97.3536 9.97483 96.5486 10.8589V5.79193H93.9558V20.5377H96.3903V19.3303C96.7862 19.7921 97.2811 20.1485 97.8749 20.3991C98.4817 20.6498 99.1349 20.7751 99.8342 20.7751ZM99.5374 18.4C98.97 18.4 98.4554 18.2614 97.9935 17.9843C97.5449 17.7073 97.1887 17.3246 96.9247 16.8364C96.674 16.3481 96.5486 15.7873 96.5486 15.154C96.5486 14.5206 96.674 13.9598 96.9247 13.4716C97.1887 12.9833 97.5449 12.6007 97.9935 12.3236C98.4554 12.0465 98.97 11.9079 99.5374 11.9079C100.131 11.9079 100.652 12.0531 101.101 12.3434C101.563 12.6205 101.926 13.0031 102.19 13.4914C102.454 13.9796 102.585 14.5338 102.585 15.154C102.585 15.7742 102.454 16.3349 102.19 16.8364C101.926 17.3246 101.563 17.7073 101.101 17.9843C100.652 18.2614 100.131 18.4 99.5374 18.4Z" fill="white"/>
<path d="M112.361 20.7751C113.456 20.7751 114.413 20.531 115.231 20.0428C116.062 19.5414 116.643 18.908 116.973 18.1427L114.874 17.1135C114.637 17.5225 114.307 17.859 113.885 18.1229C113.476 18.3736 112.974 18.499 112.381 18.499C111.602 18.499 110.949 18.2615 110.421 17.7864C109.893 17.3114 109.59 16.678 109.511 15.8863H117.269C117.322 15.7412 117.355 15.5762 117.368 15.3915C117.395 15.1936 117.408 14.9956 117.408 14.7977C117.408 13.8345 117.203 12.957 116.794 12.1653C116.385 11.3735 115.791 10.7402 115.013 10.2651C114.234 9.77692 113.284 9.53281 112.163 9.53281C111.16 9.53281 110.249 9.77692 109.431 10.2651C108.626 10.7534 107.986 11.4197 107.512 12.2642C107.05 13.0955 106.819 14.0522 106.819 15.1342C106.819 16.1766 107.05 17.1267 107.512 17.9844C107.973 18.8421 108.62 19.5216 109.451 20.023C110.282 20.5244 111.252 20.7751 112.361 20.7751ZM112.163 11.6704C112.849 11.6704 113.416 11.8816 113.865 12.3038C114.327 12.7129 114.584 13.2473 114.637 13.907H109.57C109.715 13.1945 110.019 12.6469 110.48 12.2642C110.955 11.8684 111.516 11.6704 112.163 11.6704Z" fill="white"/>
<path d="M119.373 20.5377H121.966V14.5404C121.966 13.7223 122.191 13.0889 122.639 12.6403C123.101 12.1784 123.695 11.9475 124.421 11.9475H125.351V9.65155H124.717C124.058 9.65155 123.477 9.77031 122.976 10.0078C122.474 10.2453 122.085 10.6742 121.808 11.2944V9.77031H119.373V20.5377Z" fill="white"/>
<path d="M130.874 20.7751C131.692 20.7751 132.404 20.6365 133.011 20.3595C133.618 20.0824 134.093 19.6997 134.436 19.2115C134.779 18.7101 134.951 18.1361 134.951 17.4895C134.951 16.7374 134.713 16.0908 134.238 15.5498C133.763 15.0088 133.077 14.613 132.18 14.3623L130.458 13.8477C130.088 13.7421 129.785 13.6035 129.547 13.432C129.31 13.2605 129.191 13.0229 129.191 12.7194C129.191 12.4028 129.316 12.1455 129.567 11.9475C129.818 11.7496 130.161 11.6506 130.596 11.6506C131.138 11.6506 131.626 11.7958 132.061 12.0861C132.51 12.3764 132.82 12.7656 132.991 13.2539L134.971 12.3236C134.641 11.4527 134.087 10.7732 133.308 10.2849C132.53 9.78351 131.632 9.53281 130.616 9.53281C129.838 9.53281 129.145 9.67135 128.538 9.94845C127.944 10.2255 127.476 10.6148 127.133 11.1162C126.803 11.6045 126.638 12.1784 126.638 12.8382C126.638 13.5771 126.869 14.2171 127.331 14.7581C127.806 15.2991 128.498 15.7016 129.409 15.9655L131.171 16.4603C131.514 16.5527 131.804 16.6912 132.041 16.876C132.292 17.0475 132.417 17.285 132.417 17.5885C132.417 17.9448 132.272 18.2285 131.982 18.4396C131.705 18.6375 131.335 18.7365 130.874 18.7365C130.267 18.7365 129.719 18.565 129.231 18.2219C128.742 17.8788 128.353 17.4038 128.063 16.7968L126.123 17.7271C126.44 18.6507 127.021 19.3897 127.865 19.9439C128.723 20.498 129.726 20.7751 130.874 20.7751Z" fill="white"/>
<path d="M141.852 20.6565C142.288 20.6565 142.716 20.6235 143.139 20.5574V18.3208C142.888 18.3604 142.657 18.3802 142.446 18.3802C141.812 18.3802 141.351 18.2351 141.06 17.9448C140.77 17.6545 140.625 17.2388 140.625 16.6978V12.0861H143.099V9.77032H140.625V7.31601H138.032V8.1473C138.032 8.67512 137.887 9.07758 137.597 9.35468C137.306 9.63177 136.897 9.77032 136.37 9.77032H136.172V12.0861H138.032V16.8364C138.032 18.0371 138.362 18.974 139.022 19.647C139.695 20.32 140.638 20.6565 141.852 20.6565Z" fill="white"/>
<path d="M148.328 20.7751C149.726 20.7751 150.848 20.3134 151.692 19.3897V20.5377H154.147V13.3726C154.147 12.6205 153.955 11.9541 153.572 11.3735C153.19 10.793 152.662 10.3443 151.989 10.0276C151.329 9.69775 150.557 9.53281 149.673 9.53281C148.591 9.53281 147.628 9.79011 146.784 10.3047C145.939 10.8193 145.359 11.4989 145.042 12.3434L147.16 13.3726C147.358 12.8844 147.668 12.4951 148.09 12.2048C148.512 11.9013 149.007 11.7496 149.574 11.7496C150.168 11.7496 150.643 11.9079 150.999 12.2246C151.369 12.5281 151.554 12.9108 151.554 13.3726V13.7289L148.347 14.2435C147.081 14.4546 146.144 14.8571 145.537 15.4509C144.93 16.0447 144.626 16.7902 144.626 17.6875C144.626 18.6375 144.963 19.3897 145.636 19.9439C146.309 20.498 147.206 20.7751 148.328 20.7751ZM147.318 17.5885C147.318 16.8364 147.826 16.3613 148.842 16.1634L151.554 15.7082V16.1436C151.554 16.8826 151.296 17.5093 150.782 18.024C150.28 18.5386 149.621 18.7959 148.802 18.7959C148.367 18.7959 148.011 18.6903 147.734 18.4792C147.457 18.2549 147.318 17.958 147.318 17.5885Z" fill="white"/>
<path d="M161.729 20.7751C162.507 20.7751 163.226 20.6432 163.886 20.3792C164.546 20.1022 165.114 19.7261 165.588 19.2511C166.063 18.7629 166.407 18.2153 166.618 17.6083L164.342 16.5791C164.13 17.1465 163.794 17.5951 163.332 17.925C162.883 18.2417 162.349 18.4 161.729 18.4C161.161 18.4 160.653 18.2615 160.205 17.9844C159.769 17.7073 159.426 17.3246 159.175 16.8364C158.925 16.3349 158.8 15.7742 158.8 15.154C158.8 14.5206 158.925 13.9598 159.175 13.4716C159.426 12.9834 159.769 12.6007 160.205 12.3236C160.653 12.0465 161.161 11.9079 161.729 11.9079C162.349 11.9079 162.883 12.0729 163.332 12.4028C163.794 12.7327 164.13 13.1681 164.342 13.7091L166.618 12.7194C166.393 12.0861 166.044 11.5319 165.569 11.0569C165.094 10.5686 164.526 10.1926 163.867 9.92866C163.207 9.66475 162.494 9.53281 161.729 9.53281C160.66 9.53281 159.697 9.77692 158.839 10.2651C157.995 10.7534 157.328 11.4197 156.84 12.2642C156.352 13.1087 156.108 14.0654 156.108 15.1342C156.108 16.203 156.352 17.1663 156.84 18.024C157.328 18.8685 157.995 19.5414 158.839 20.0428C159.697 20.531 160.66 20.7751 161.729 20.7751Z" fill="white"/>
<path d="M168.585 20.5377H171.178V17.252L172.563 15.7478L175.592 20.5377H178.561L174.503 14.105L178.482 9.77032H175.255L171.178 14.0456V5.73257H168.585V20.5377Z" fill="white"/>
</g>
<defs>
<clipPath id="clip0_2_172">
<rect width="179" height="25.9741" fill="white"/>
</clipPath>
</defs>
</svg>
