<svg width="134" height="55" viewBox="0 0 134 55" fill="none" xmlns="http://www.w3.org/2000/svg">
<path d="M56.9504 40.0704V34.223H64.6853V30.4572H56.9504V27.6739H65.5032V23.6976H52.417V40.0704H56.9504ZM70.9246 40.3511C71.7659 40.3511 72.4864 40.2068 73.0862 39.9184C73.686 39.6299 74.204 39.244 74.6402 38.7606V40.0704H79.0334V32.7962C79.0334 31.9074 78.9282 31.1316 78.7179 30.4689C78.5076 29.8062 78.161 29.241 77.678 28.7732C77.1795 28.2742 76.5369 27.8922 75.7502 27.6271C74.9634 27.362 74.0014 27.2295 72.8642 27.2295C71.7737 27.2295 70.8273 27.3191 70.025 27.4985C69.2226 27.6778 68.4632 27.9156 67.7465 28.2118L68.6579 31.3461C69.2187 31.1277 69.7718 30.9562 70.3171 30.8315C70.8623 30.7067 71.4699 30.6444 72.1398 30.6444C72.9966 30.6444 73.6314 30.8237 74.0443 31.1823C74.4571 31.541 74.6635 32.0477 74.6635 32.7027V32.9132C74.3052 32.7884 73.8573 32.6754 73.3199 32.574C72.7824 32.4727 72.2177 32.422 71.6257 32.422C70.8779 32.422 70.2002 32.5077 69.5926 32.6793C68.9851 32.8508 68.4671 33.1003 68.0386 33.4277C67.6102 33.7552 67.2753 34.1684 67.0338 34.6674C66.7923 35.1664 66.6716 35.7433 66.6716 36.3982V36.445C66.6716 37.0843 66.7807 37.6457 66.9988 38.1291C67.2169 38.6124 67.5168 39.0179 67.8984 39.3453C68.2801 39.6728 68.728 39.9223 69.2421 40.0938C69.7562 40.2653 70.3171 40.3511 70.9246 40.3511ZM72.5137 37.5677C72.0619 37.5677 71.688 37.4469 71.392 37.2052C71.096 36.9635 70.948 36.6243 70.948 36.1877V36.1409C70.948 35.6731 71.1233 35.295 71.4738 35.0065C71.8243 34.7181 72.3267 34.5738 72.981 34.5738C73.3082 34.5738 73.6237 34.605 73.9274 34.6674C74.2312 34.7298 74.4922 34.8077 74.7103 34.9013V35.486C74.7103 36.1253 74.5078 36.6321 74.1027 37.0064C73.6977 37.3806 73.168 37.5677 72.5137 37.5677ZM85.927 26.2705V22.9959H81.3001V26.2705H85.927ZM85.8335 40.0704V27.4166H81.3936V40.0704H85.8335ZM92.844 40.0704V22.9959H88.4041V40.0704H92.844ZM101.771 40.3745C102.783 40.3745 103.718 40.199 104.575 39.8482C105.432 39.4973 106.172 39.0218 106.795 38.4214C107.418 37.8211 107.905 37.1194 108.255 36.3164C108.606 35.5133 108.781 34.6596 108.781 33.7552V33.7084C108.781 32.804 108.61 31.9542 108.267 31.1589C107.924 30.3637 107.441 29.6698 106.818 29.0773C106.195 28.4847 105.459 28.013 104.61 27.6622C103.761 27.3113 102.83 27.1359 101.817 27.1359C100.805 27.1359 99.8701 27.3113 99.0132 27.6622C98.1564 28.013 97.4164 28.4886 96.7933 29.0889C96.1701 29.6893 95.6833 30.391 95.3327 31.194C94.9822 31.9971 94.8069 32.8508 94.8069 33.7552V33.802C94.8069 34.7064 94.9783 35.5562 95.321 36.3514C95.6638 37.1467 96.1467 37.8445 96.7699 38.4448C97.393 39.0451 98.1291 39.5168 98.9782 39.8599C99.8272 40.2029 100.758 40.3745 101.771 40.3745ZM101.817 36.6087C101.428 36.6087 101.07 36.5308 100.742 36.3748C100.415 36.2189 100.131 36.0123 99.8895 35.755C99.6481 35.4977 99.4611 35.1975 99.3287 34.8545C99.1963 34.5115 99.1301 34.145 99.1301 33.7552V33.7084C99.1301 33.3342 99.1924 32.9755 99.317 32.6325C99.4416 32.2894 99.6169 31.9893 99.8428 31.732C100.069 31.4747 100.345 31.272 100.672 31.1238C101 30.9757 101.366 30.9016 101.771 30.9016C102.16 30.9016 102.518 30.9796 102.846 31.1355C103.173 31.2915 103.457 31.4981 103.699 31.7554C103.94 32.0127 104.127 32.3128 104.259 32.6559C104.392 32.9989 104.458 33.3654 104.458 33.7552V33.802C104.458 34.1762 104.396 34.5348 104.271 34.8779C104.146 35.2209 103.971 35.5211 103.745 35.7784C103.519 36.0357 103.243 36.2384 102.916 36.3865C102.589 36.5347 102.222 36.6087 101.817 36.6087ZM115.091 40.0704V36.1409C115.091 34.6752 115.402 33.5993 116.025 32.9132C116.648 32.2271 117.544 31.884 118.713 31.884H119.087V27.2061C118.027 27.1593 117.186 27.3932 116.563 27.9078C115.94 28.4223 115.449 29.1084 115.091 29.9661V27.4166H110.651V40.0704H115.091ZM124.391 43.8829C125.014 43.8829 125.567 43.8049 126.05 43.649C126.533 43.4931 126.962 43.2514 127.336 42.9239C127.709 42.5965 128.044 42.1716 128.34 41.6492C128.636 41.1268 128.925 40.4992 129.205 39.7663L133.832 27.4166H129.275L126.892 35.0416L124.368 27.4166H119.717L124.672 39.8365C124.531 40.0392 124.379 40.1756 124.216 40.2458C124.052 40.316 123.861 40.3511 123.643 40.3511C123.394 40.3511 123.098 40.2926 122.755 40.1756C122.413 40.0587 122.062 39.8911 121.704 39.6728L120.325 42.7836C120.917 43.1111 121.544 43.3761 122.206 43.5788C122.868 43.7816 123.597 43.8829 124.391 43.8829Z" fill="white"/>
<path d="M39.7813 18.9202H1V48.5305H39.7813V18.9202Z" fill="white"/>
<path fill-rule="evenodd" clip-rule="evenodd" d="M1.62158 19.3534V47.6991L29.9618 39.3561V8.86505L1.62158 19.3534Z" fill="white" stroke="black" stroke-width="2"/>
<path fill-rule="evenodd" clip-rule="evenodd" d="M1.49731 19.1465V47.5807L19.8936 34.8331V3.09406L1.49731 19.1465Z" fill="white" stroke="black" stroke-width="2"/>
<path fill-rule="evenodd" clip-rule="evenodd" d="M27.1028 48.0328L33.9404 54.8767V48.1414" fill="white"/>
</svg>
