<svg width="889" height="129" viewBox="0 0 889 129" fill="none" xmlns="http://www.w3.org/2000/svg">
<g clip-path="url(#clip0)">
<path fill-rule="evenodd" clip-rule="evenodd" d="M156.189 52.354L177.657 100.548C182.001 110.3 177.613 121.726 167.856 126.068C158.098 130.41 146.666 126.024 142.322 116.272L124.968 77.3131L117.319 95.3216V52.354H156.189Z" fill="white"/>
<path fill-rule="evenodd" clip-rule="evenodd" d="M158.516 57.5771L162.957 67.5483C160.274 66.6168 157.392 66.1105 154.391 66.1105C141.997 66.1105 131.623 74.7474 128.98 86.3209L124.968 77.3128L120.715 87.3264V57.5771H158.516Z" fill="white" fill-opacity="0.2"/>
<path fill-rule="evenodd" clip-rule="evenodd" d="M93.9073 51.5078V85.6356H58.1425L54.435 77.3129L50.9003 85.6357H11.3401V79.8448L36.1345 21.463C39.2705 14.0791 46.4603 9.65482 54.0125 9.68127C61.4417 9.65536 68.5418 13.934 71.7576 21.1535L89.6962 61.4232L93.9073 51.5078Z" fill="white"/>
<path fill-rule="evenodd" clip-rule="evenodd" d="M89.6703 61.3649L89.6962 61.4232L106.667 21.463C109.803 14.0791 116.993 9.65482 124.545 9.68127C131.974 9.65536 139.074 13.934 142.29 21.1535L162.939 67.508C158.775 63.9138 153.35 61.7402 147.416 61.7402C137.107 61.7402 128.331 68.3022 125.04 77.4761L124.968 77.3129L108.296 116.567C104.123 126.394 92.7696 130.979 82.9376 126.807C81.9909 126.406 81.0775 125.931 80.2058 125.385C76.6002 123.426 73.5875 120.308 71.7895 116.272L54.502 77.4637C57.1041 78.2086 59.8528 78.6075 62.6944 78.6075C74.652 78.6075 84.9595 71.5448 89.6701 61.3649H89.6703Z" fill="white"/>
<path fill-rule="evenodd" clip-rule="evenodd" d="M54.3275 77.5654L41.8783 106.879C38.8423 108.272 35.4592 109.047 31.8925 109.047C19.3814 109.047 9.12792 99.5015 8.19287 87.2556L16.7363 67.1387C20.8503 63.7342 26.1321 61.6875 31.8925 61.6875C42.2611 61.6875 51.0792 68.3181 54.3275 77.5654Z" fill="white"/>
<path fill-rule="evenodd" clip-rule="evenodd" d="M50.6737 86.1692L37.7637 116.567C33.5905 126.394 22.2368 130.979 12.405 126.808C2.57312 122.636 -2.01383 111.289 2.15939 101.462L16.4946 67.7078C19.5292 66.3652 22.8855 65.6196 26.4152 65.6196C38.6015 65.6196 48.7183 74.5058 50.6737 86.1694V86.1692Z" fill="white"/>
<path d="M228.967 102H242.336V51.2765L265.043 82.3396H266.616L289.225 52.2595V102H302.692V28.7656H289.913L266.124 61.7947L241.746 28.7656H228.967V102Z" fill="white"/>
<path d="M340.988 103.179C346.428 103.179 351.179 101.967 355.242 99.5423C359.371 97.052 362.254 93.9064 363.892 90.1054L353.473 84.9938C352.293 87.0253 350.655 88.6964 348.557 90.0071C346.526 91.2522 344.036 91.8748 341.087 91.8748C337.22 91.8748 333.976 90.6952 331.355 88.336C328.733 85.9768 327.226 82.8311 326.833 78.8991H365.367C365.629 78.1782 365.793 77.359 365.858 76.4416C365.989 75.4586 366.055 74.4755 366.055 73.4925C366.055 68.7086 365.039 64.3506 363.008 60.4185C360.976 56.4865 358.027 53.3408 354.161 50.9816C350.294 48.5569 345.576 47.3445 340.005 47.3445C335.025 47.3445 330.503 48.5569 326.44 50.9816C322.442 53.4064 319.264 56.7158 316.905 60.91C314.611 65.0387 313.464 69.7899 313.464 75.1637C313.464 80.3408 314.611 85.0593 316.905 89.319C319.198 93.5787 322.409 96.9537 326.538 99.444C330.667 101.934 335.483 103.179 340.988 103.179ZM340.005 57.961C343.413 57.961 346.231 59.0095 348.459 61.1066C350.753 63.1382 352.031 65.7923 352.293 69.069H327.128C327.849 65.5302 329.356 62.8105 331.65 60.91C334.009 58.944 336.794 57.961 340.005 57.961Z" fill="white"/>
<path d="M375.817 102H388.694V70.6418C388.694 67.1685 389.644 64.3833 391.545 62.2862C393.445 60.1891 395.936 59.1406 399.016 59.1406C402.161 59.1406 404.652 60.1891 406.487 62.2862C408.387 64.3178 409.337 67.103 409.337 70.6418V102H422.215V70.6418C422.215 67.1685 423.165 64.3833 425.066 62.2862C426.966 60.1891 429.456 59.1406 432.536 59.1406C435.682 59.1406 438.172 60.1891 440.007 62.2862C441.908 64.3178 442.858 67.103 442.858 70.6418V102H455.735V67.5945C455.735 63.5969 454.851 60.0908 453.081 57.0763C451.377 53.9962 449.051 51.6042 446.102 49.9003C443.153 48.1964 439.778 47.3445 435.977 47.3445C432.438 47.3445 429.227 48.0654 426.343 49.5071C423.526 50.9489 421.199 53.1115 419.364 55.995C417.791 53.3736 415.53 51.2765 412.581 49.7037C409.698 48.1309 406.454 47.3445 402.85 47.3445C399.507 47.3445 396.526 47.9998 393.904 49.3105C391.283 50.6212 389.284 52.5872 387.908 55.2086V48.5241H375.817V102Z" fill="white"/>
<path d="M495.825 103.179C501.003 103.179 505.623 101.967 509.686 99.5423C513.749 97.052 516.96 93.7098 519.319 89.5156C521.678 85.2559 522.858 80.5047 522.858 75.262C522.858 70.0192 521.678 65.3008 519.319 61.1066C516.96 56.8469 513.749 53.5047 509.686 51.0799C505.623 48.5896 501.035 47.3445 495.924 47.3445C488.977 47.3445 483.505 49.5399 479.507 53.9306V28.7656H466.63V102H478.721V96.0035C480.687 98.2971 483.145 100.067 486.094 101.312C489.108 102.557 492.352 103.179 495.825 103.179ZM494.351 91.3833C491.533 91.3833 488.977 90.6952 486.683 89.319C484.455 87.9428 482.686 86.0423 481.375 83.6175C480.13 81.1928 479.507 78.4076 479.507 75.262C479.507 72.1163 480.13 69.3311 481.375 66.9064C482.686 64.4816 484.455 62.5811 486.683 61.2049C488.977 59.8287 491.533 59.1406 494.351 59.1406C497.3 59.1406 499.888 59.8615 502.117 61.3032C504.41 62.6794 506.212 64.5799 507.523 67.0047C508.834 69.4294 509.489 72.1819 509.489 75.262C509.489 78.3421 508.834 81.1272 507.523 83.6175C506.212 86.0423 504.41 87.9428 502.117 89.319C499.888 90.6952 497.3 91.3833 494.351 91.3833Z" fill="white"/>
<path d="M558.038 103.179C563.477 103.179 568.228 101.967 572.291 99.5423C576.42 97.052 579.303 93.9064 580.942 90.1054L570.522 84.9938C569.342 87.0253 567.704 88.6964 565.607 90.0071C563.575 91.2522 561.085 91.8748 558.136 91.8748C554.269 91.8748 551.025 90.6952 548.404 88.336C545.783 85.9768 544.275 82.8311 543.882 78.8991H582.416C582.678 78.1782 582.842 77.359 582.908 76.4416C583.039 75.4586 583.104 74.4755 583.104 73.4925C583.104 68.7086 582.088 64.3506 580.057 60.4185C578.025 56.4865 575.076 53.3408 571.21 50.9816C567.343 48.5569 562.625 47.3445 557.055 47.3445C552.074 47.3445 547.552 48.5569 543.489 50.9816C539.491 53.4064 536.313 56.7158 533.954 60.91C531.66 65.0387 530.513 69.7899 530.513 75.1637C530.513 80.3408 531.66 85.0593 533.954 89.319C536.247 93.5787 539.459 96.9537 543.587 99.444C547.716 101.934 552.533 103.179 558.038 103.179ZM557.055 57.961C560.462 57.961 563.28 59.0095 565.508 61.1066C567.802 63.1382 569.08 65.7923 569.342 69.069H544.177C544.898 65.5302 546.405 62.8105 548.699 60.91C551.058 58.944 553.843 57.961 557.055 57.961Z" fill="white"/>
<path d="M592.866 102H605.743V72.2146C605.743 68.1515 606.858 65.0059 609.086 62.7777C611.379 60.484 614.328 59.3372 617.933 59.3372H622.553V47.9343H619.407C616.131 47.9343 613.247 48.5241 610.757 49.7037C608.267 50.8833 606.333 53.0132 604.957 56.0933V48.5241H592.866V102Z" fill="white"/>
<path d="M649.981 103.179C654.044 103.179 657.583 102.491 660.598 101.115C663.612 99.7389 665.971 97.8384 667.675 95.4137C669.379 92.9234 670.231 90.0726 670.231 86.8615C670.231 83.126 669.052 79.9149 666.692 77.228C664.333 74.5411 660.925 72.5751 656.469 71.3299L647.917 68.7741C646.082 68.2498 644.575 67.5617 643.395 66.7098C642.215 65.8578 641.626 64.6782 641.626 63.1709C641.626 61.5981 642.248 60.3202 643.493 59.3372C644.738 58.3542 646.442 57.8627 648.605 57.8627C651.292 57.8627 653.717 58.5836 655.879 60.0253C658.107 61.4671 659.647 63.4003 660.499 65.8251L670.329 61.2049C668.691 56.8797 665.939 53.5047 662.072 51.0799C658.206 48.5896 653.749 47.3445 648.703 47.3445C644.837 47.3445 641.396 48.0326 638.382 49.4088C635.433 50.785 633.106 52.7183 631.402 55.2086C629.764 57.6333 628.945 60.484 628.945 63.7607C628.945 67.4306 630.092 70.609 632.385 73.2959C634.745 75.9828 638.185 77.9816 642.707 79.2923L651.456 81.7498C653.16 82.2086 654.601 82.8967 655.781 83.8141C657.026 84.6661 657.649 85.8457 657.649 87.353C657.649 89.1224 656.928 90.5314 655.486 91.5799C654.11 92.5629 652.275 93.0544 649.981 93.0544C646.967 93.0544 644.247 92.2025 641.822 90.4986C639.397 88.7947 637.464 86.4355 636.022 83.4209L626.389 88.0411C627.962 92.6285 630.845 96.2984 635.039 99.0508C639.299 101.803 644.28 103.179 649.981 103.179Z" fill="white"/>
<path d="M704.506 102.59C706.669 102.59 708.798 102.426 710.896 102.098V90.9901C709.65 91.1867 708.504 91.285 707.455 91.285C704.309 91.285 702.016 90.5641 700.574 89.1224C699.132 87.6806 698.411 85.6163 698.411 82.9294V60.0253H710.699V48.5241H698.411V36.3348H685.534V40.4634C685.534 43.0848 684.813 45.0836 683.371 46.4598C681.93 47.836 679.898 48.5241 677.277 48.5241H676.294V60.0253H685.534V83.6175C685.534 89.5811 687.172 94.234 690.449 97.5763C693.791 100.919 698.477 102.59 704.506 102.59Z" fill="white"/>
<path d="M736.666 103.179C743.612 103.179 749.183 100.886 753.377 96.2984V102H765.566V66.4149C765.566 62.6794 764.616 59.37 762.715 56.4865C760.815 53.603 758.194 51.3748 754.851 49.802C751.575 48.1637 747.741 47.3445 743.35 47.3445C737.976 47.3445 733.192 48.6224 728.998 51.1782C724.804 53.734 721.921 57.109 720.348 61.3032L730.866 66.4149C731.849 63.9901 733.389 62.0569 735.486 60.6151C737.583 59.1078 740.041 58.3542 742.859 58.3542C745.808 58.3542 748.167 59.1406 749.936 60.7134C751.771 62.2207 752.689 64.1212 752.689 66.4149V68.1843L736.764 70.7401C730.473 71.7887 725.82 73.7874 722.805 76.7365C719.791 79.6855 718.283 83.3882 718.283 87.8445C718.283 92.5629 719.955 96.2984 723.297 99.0508C726.639 101.803 731.095 103.179 736.666 103.179ZM731.652 87.353C731.652 83.6175 734.175 81.2583 739.222 80.2753L752.689 78.0144V80.177C752.689 83.8469 751.411 86.9598 748.855 89.5156C746.365 92.0714 743.088 93.3493 739.025 93.3493C736.862 93.3493 735.093 92.8251 733.717 91.7765C732.341 90.6624 731.652 89.1879 731.652 87.353Z" fill="white"/>
<path d="M803.223 103.179C807.09 103.179 810.661 102.524 813.938 101.213C817.215 99.8372 820.033 97.9695 822.392 95.6103C824.751 93.1855 826.455 90.4658 827.503 87.4513L816.199 82.3396C815.15 85.1576 813.479 87.3857 811.185 89.0241C808.957 90.5969 806.303 91.3833 803.223 91.3833C800.405 91.3833 797.882 90.6952 795.654 89.319C793.491 87.9428 791.787 86.0423 790.542 83.6175C789.297 81.1272 788.675 78.3421 788.675 75.262C788.675 72.1163 789.297 69.3311 790.542 66.9064C791.787 64.4816 793.491 62.5811 795.654 61.2049C797.882 59.8287 800.405 59.1406 803.223 59.1406C806.303 59.1406 808.957 59.9598 811.185 61.5981C813.479 63.2365 815.15 65.3991 816.199 68.086L827.503 63.1709C826.389 60.0253 824.653 57.2729 822.294 54.9137C819.934 52.4889 817.116 50.6212 813.84 49.3105C810.563 47.9998 807.024 47.3445 803.223 47.3445C797.915 47.3445 793.131 48.5569 788.871 50.9816C784.677 53.4064 781.368 56.7158 778.943 60.91C776.518 65.1042 775.306 69.8554 775.306 75.1637C775.306 80.4719 776.518 85.2559 778.943 89.5156C781.368 93.7098 784.677 97.052 788.871 99.5423C793.131 101.967 797.915 103.179 803.223 103.179Z" fill="white"/>
<path d="M837.274 102H850.152V85.6819L857.033 78.211L872.073 102H886.818L866.666 70.052L886.425 48.5241H870.402L850.152 69.7571V28.4707H837.274V102Z" fill="white"/>
</g>
<defs>
<clipPath id="clip0">
<rect width="887.782" height="128.349" fill="white" transform="translate(0.617065)"/>
</clipPath>
</defs>
</svg>
