<svg width="420" height="397" viewBox="0 0 420 397" fill="none" xmlns="http://www.w3.org/2000/svg">
<g clip-path="url(#clip0)">
<path d="M327.9 221.5C328.9 219.4 330 217.4 331 215.3C356.5 163.8 381 111.8 404.5 59.3001C409.9 47.3001 414.9 35.1001 418.7 22.4001C418.9 21.9001 419.1 21.4001 419.4 20.8001C420.4 21.5001 420 22.3001 419.9 23.0001C418.5 32.6001 415.8 41.9001 412.7 51.0001C405.3 73.1001 396.4 94.6001 387.1 115.9C368.7 158 349.1 199.6 328.5 240.7C328.3 241.1 328.2 241.4 328 241.8C324.2 247.5 322.8 254 321.9 260.7C319.9 275.8 317.4 290.9 315.4 306C313.8 318.2 312.6 330.5 311.3 342.7C311 345.2 310.8 347.6 310.6 350.1C310.2 354.6 309.8 359 310.2 363.5C310.8 369.9 309.7 376 307.6 382.1C306.7 384.6 306.6 387.4 306.1 390.1C305.9 391.3 305.8 392.5 305.5 393.6C305.1 395.6 304.4 395.8 302.3 394.6C301 396.2 299.2 396.5 297.2 396.2C296.5 396.1 295.8 396.4 295.1 396.5C294.6 396.5 293.8 396.7 293.5 396.4C292.2 395.4 290.8 395.6 289.4 395.6C278.2 395.4 267 395.3 255.8 395.2C252 395.1 248.1 394.9 244.3 394.7C241.8 394.6 239.4 394 237.2 392.8C233.3 390.8 229.3 388.9 225.4 386.8C195.5 371 165.8 354.7 135 340.8C110.8 329.9 86.3999 319.4 62.0999 308.9C45.6999 301.8 29.2999 295 12.7999 288.1C10.7999 287.3 8.79994 286.6 6.69994 285.8C5.69994 285.4 4.59994 285 3.59994 284.6C-0.200058 283 -0.800058 280.1 2.09994 277.1C2.99994 276.2 3.99994 275.4 5.09994 274.7C7.89994 272.8 10.7999 270.9 13.6999 269C16.2999 267.3 18.5999 265.4 20.3999 262.9C23.1999 259.2 23.4999 255.3 21.3999 251.2C20.7999 250 19.9999 248.9 19.2999 247.7C18.6999 246.8 17.9999 245.9 17.3999 245C13.2999 238.8 13.7999 231.3 18.4999 225.7C22.1999 221.2 25.7999 216.6 29.4999 212C31.5999 209.4 32.5999 206.6 32.3999 203.2C31.8999 196 35.1999 190.4 40.8999 186.1C42.8999 184.6 45.0999 183.5 47.1999 182.2C48.3999 181.4 49.6999 180.8 50.7999 179.9C52.5999 178.6 52.7999 177.6 51.9999 175.5C51.5999 174.5 51.0999 173.6 50.5999 172.7C49.5999 171.2 48.6999 169.8 47.5999 168.4C42.8999 162.3 40.3999 155.5 39.4999 147.9C39.1999 145.2 38.5999 142.5 38.0999 139.9C37.3999 136.3 36.3999 132.9 34.5999 129.7C30.0999 122 29.5999 113.8 31.4999 105.3C32.0999 102.7 32.4999 100.1 33.0999 97.6001C34.1999 92.5001 34.6999 87.4001 34.8999 82.1001C35.1999 73.2001 39.2999 66.0001 46.1999 60.5001C50.8999 56.7001 56.3999 55.5001 62.2999 56.9001C64.0999 57.3001 65.6999 58.2001 67.6999 58.9001C67.9999 57.9001 68.3999 56.8001 68.6999 55.7001C70.2999 48.9001 71.7999 42.0001 73.5999 35.2001C75.6999 27.0001 77.9999 18.8001 80.2999 10.7001C80.7999 8.9001 81.4999 7.2001 82.1999 5.5001C84.2999 0.700099 86.7999 -0.7999 92.0999 9.98229e-05C96.0999 0.6001 100.2 1.2001 104.2 2.1001C123.1 6.3001 141.9 10.6001 160.8 15.0001C184.6 20.5001 208.6 24.8001 232.8 27.6001C248.7 29.4001 264.6 30.7001 280.6 31.1001C291.5 31.4001 302.4 31.6001 313.2 32.1001C318.6 32.3001 324 32.9001 329.4 33.4001C330.2 33.5001 331 33.7001 331.7 33.9001C335.2 34.8001 337.3 37.2001 338 40.7001C338.3 42.3001 338.5 44.0001 338.5 45.7001C338.8 65.5001 338.3 85.4001 337.3 105.2C336.6 119.2 336 133.2 335.1 147.1C334.4 157.6 333.5 168.1 332.5 178.7C331.4 189.8 330.1 201 328.9 212.1C328.7 214.3 328.4 216.5 328.1 218.8C328 219.6 327.9 220.5 327.9 221.3C327.6 221.5 327.7 221.5 327.9 221.5ZM275.1 305.3C275.7 304.6 276.3 303.9 276.8 303.3C282.8 296.7 288.3 289.6 293.4 282.2C302.4 269.2 310.1 255.5 317.5 241.6C318.2 240.4 318.5 238.9 318.7 237.5C320.1 227.2 321.5 216.9 322.7 206.6C324.5 190.7 326.4 174.8 327.7 158.9C329.2 139.4 330.4 119.8 331.3 100.3C332.1 82.8001 332.3 65.3001 331.7 47.8001C331.7 46.2001 331.4 44.6001 331.2 43.0001C331 41.2001 330 40.3001 328.3 40.0001C325.9 39.6001 323.4 39.1001 320.9 39.0001C313.4 38.7001 305.9 38.4001 298.4 38.3001C277.3 38.0001 256.2 37.2001 235.2 34.8001C213.3 32.3001 191.7 28.6001 170.2 23.8001C150 19.4001 129.8 14.8001 109.5 10.4001C103.4 9.0001 96.9999 8.1001 90.6999 7.1001C88.2999 6.7001 88.2999 6.8001 87.3999 9.1001C86.6999 10.8001 85.9999 12.5001 85.4999 14.3001C82.8999 23.3001 80.3999 32.3001 77.8999 41.3001C76.2999 47.2001 74.7999 53.2001 73.0999 59.1001C72.6999 60.6001 71.9999 62.1001 71.1999 63.5001C69.9999 65.4001 67.9999 65.8001 65.9999 64.8001C65.4999 64.5001 64.9999 64.2001 64.5999 63.9001C60.4999 61.0001 56.0999 60.9001 51.8999 63.2001C44.2999 67.6001 39.6999 74.1001 39.4999 83.2001C39.3999 86.7001 39.4999 90.2001 39.0999 93.7001C38.4999 98.8001 37.6999 103.8 36.7999 108.9C35.7999 114.9 36.2999 120.6 39.2999 126.1C42.7999 132.4 44.6999 139.3 45.6999 146.3C46.7999 154.1 49.3999 161.2 54.4999 167.2C55.5999 168.5 56.4999 169.9 57.2999 171.4C57.9999 172.6 58.5999 174 58.8999 175.4C59.7999 179 58.8999 182.1 55.9999 184.4C54.4999 185.6 52.7999 186.6 51.1999 187.5C49.0999 188.7 46.9999 189.8 44.9999 191.1C40.4999 194.1 37.9999 198.3 38.3999 203.8C38.6999 207.9 37.4999 211.5 34.8999 214.7C30.9999 219.7 26.9999 224.8 22.9999 229.7C21.7999 231.2 21.0999 232.8 20.7999 234.6C20.3999 237.6 21.1999 240.3 22.7999 242.8C24.1999 245.1 25.6999 247.4 26.7999 249.9C29.3999 256 28.4999 261.7 23.9999 266.6C21.9999 268.7 19.5999 270.6 17.1999 272.2C13.6999 274.5 9.89994 276.6 6.29994 278.7C5.79994 279 5.29994 279.4 4.59994 279.8C5.69994 280.2 6.49994 280.6 7.29994 280.9C14.3999 283.5 21.5999 285.7 28.4999 288.6C47.7999 296.6 66.8999 304.8 86.0999 313.1C115.7 326 145.3 339 174.2 353.4C195 363.8 215.5 374.9 236.7 384.5C240.8 386.4 244.9 387.6 249.4 387.2C249.9 387.2 250.4 387.2 250.8 387.2C262 387.5 273.2 387.8 284.4 388.3C288.4 388.5 292.4 389 296.3 389.3C297.1 389.4 298.1 389.4 298.6 388.9C300.3 387.3 302.1 385.6 302.1 382.9C302.1 381 302.3 379.1 302.4 377.2C303 369.3 303.6 361.4 304.1 353.5C304.2 352.3 304.1 351.1 303.8 350C299.9 335.3 292 323.2 280 313.8C279.5 313.4 279 313.1 278.4 312.8C277.7 313.4 277.1 314 276.6 314.5C269.8 321 262.6 327 254.8 332.1C246.9 337.3 238.6 341.7 229.5 344.5C220.8 347.2 211.9 348.4 202.8 346.7C196.5 345.5 190.9 343 186.5 338.2C181.2 332.4 179.9 325.8 182.5 318.4C183.8 314.7 186 311.6 188.7 308.8C192 305.4 195.8 302.8 199.9 300.6C209.8 295.3 220.5 292.7 231.7 292.5C246.4 292.3 260.2 296.1 272.9 303.6C273.4 304.3 274.2 304.7 275.1 305.3ZM271.7 308.4C270.9 307.9 270.3 307.5 269.7 307.2C250.4 297.2 230.5 296 210.1 303.7C204.2 305.9 198.9 309.1 194.4 313.6C192.2 315.8 190.5 318.2 189.4 321.2C187.9 325.6 188.6 329.5 191.7 333C193.5 335.1 195.8 336.6 198.3 337.6C202.2 339.3 206.3 340 210.5 340C219.1 340.1 227.1 338 234.9 334.6C248.8 328.6 260.5 319.7 271.2 309.1C271.4 309.1 271.4 308.8 271.7 308.4ZM304.8 340.3C307 316.3 310.3 292.6 313.9 268.9C314 268.4 313.9 267.9 313.9 267.4C304.2 282.5 293.7 296.8 281.3 309.8C291.8 318.1 299.5 328.3 304.8 340.3Z" fill="white"/>
</g>
<defs>
<clipPath id="clip0">
<rect width="420" height="396.7" fill="white"/>
</clipPath>
</defs>
</svg>
