<svg width="441" height="91" viewBox="0 0 441 91" fill="none" xmlns="http://www.w3.org/2000/svg">
<path d="M28.0524 2.97H0.962402V65.97C3.9324 65.97 24.7224 65.97 28.0524 65.97C54.3324 65.97 59.1024 46.71 59.1024 34.56C59.1024 22.41 54.6924 2.97 28.0524 2.97ZM28.0524 53.55C21.7524 53.55 17.0724 53.55 14.6424 53.55V15.48C14.6424 15.48 22.2924 15.48 28.0524 15.48C42.1824 15.48 44.8824 27.45 44.8824 34.56C44.8824 41.31 42.0924 53.55 28.0524 53.55Z" fill="white"/>
<path d="M115.684 43.92H116.224C116.944 36.99 116.044 26.37 106.324 19.71V19.8C102.094 16.83 96.3343 15.03 89.2243 15.03C72.2143 15.03 62.1343 24.03 62.1343 40.5C62.1343 57.33 71.9443 65.97 89.2243 65.97C105.784 65.97 114.604 59.31 115.954 48.42H102.724C101.464 51.75 97.4143 54 89.2243 54C80.4043 54 76.3543 50.67 75.3643 43.92H115.684ZM89.2243 27C98.9443 27 101.464 31.14 102.544 34.92H75.9043C77.5243 29.79 81.6643 27 89.2243 27Z" fill="white"/>
<path d="M145.116 35.37L143.946 35.28C135.126 33.93 133.596 32.67 133.596 30.42C133.596 28.89 135.216 26.1 142.866 26.1C150.786 26.1 154.206 28.26 154.206 32.22V32.67H168.156V32.22C168.156 24.48 163.746 15.21 142.866 15.21C123.426 15.21 119.376 23.58 119.376 30.6C119.376 40.68 128.376 43.92 142.866 45.81C143.586 45.9 144.306 45.99 145.026 46.08C150.516 46.71 155.376 47.43 155.376 51.21C155.376 54.54 150.156 55.26 144.666 55.26C135.576 55.26 132.336 53.28 132.336 48.96V48.51H118.296V49.5C118.206 52.11 118.206 56.34 121.716 59.85C125.766 63.9 133.596 65.97 145.026 65.97C160.506 65.97 169.506 63.54 169.506 51.03C169.506 39.06 156.546 37.08 145.116 35.37Z" fill="white"/>
<path d="M187.082 65.97V15.84H173.492V65.97H187.082ZM187.082 12.24V0H173.492V12.24H187.082Z" fill="white"/>
<path d="M234.437 16.02V23.49H233.627C230.207 18.99 224.537 16.02 215.177 16.02C193.847 16.02 191.597 33.93 191.597 41.31C191.597 48.15 193.937 66.6 215.087 66.6C224.627 66.6 230.387 63.9 233.807 59.58H234.437V63.18C234.437 72.45 230.297 78.48 221.027 78.48C210.317 78.48 207.977 73.26 207.617 70.56C205.367 70.56 197.627 70.56 194.027 70.56C194.027 78.03 198.437 90.27 221.117 90.27C246.227 90.27 248.117 71.55 248.117 61.11V16.02H234.437ZM219.137 54.81C206.087 54.81 204.647 45 204.647 41.31C204.647 37.35 205.997 27.81 219.137 27.81C230.927 27.81 233.357 34.47 233.357 41.31C233.357 48.96 230.927 54.81 219.137 54.81Z" fill="white"/>
<path d="M284.263 15.48C275.173 15.48 270.583 18.45 267.343 22.95H266.713V15.48H253.033V65.97H266.713V41.67C266.713 34.83 268.423 27.27 280.303 27.27C293.353 27.27 292.543 36.81 292.543 40.77V65.97H306.133V40.77C306.133 33.39 305.593 15.48 284.263 15.48Z" fill="white"/>
<path d="M312.099 64.35C312.099 73.35 308.409 77.67 299.409 77.76H293.199V90.9H299.409C322.539 90.9 325.419 78.12 325.509 64.89V16.65H312.099V64.35ZM325.509 12.96V0.899999H312.099V12.96H325.509Z" fill="white"/>
<path d="M358.105 14.58C342.805 14.58 330.025 22.95 330.025 40.32C330.025 57.78 342.805 65.97 358.105 65.97C373.495 65.97 386.275 58.05 386.275 40.32C386.275 22.77 373.495 14.58 358.105 14.58ZM358.105 53.55C349.555 53.55 343.435 49.77 343.435 40.32C343.435 30.78 349.555 27.09 358.105 27.09C366.745 27.09 372.865 30.96 372.865 40.32C372.865 49.41 366.745 53.55 358.105 53.55Z" fill="white"/>
<path d="M425.53 15.57L410.95 53.55L396.28 15.57H381.88L401.32 66.06H406.18L398.8 85.23H413.29L440.02 15.57H425.53Z" fill="white"/>
<path d="M386 62.97C386 62.97 376.487 73.6557 358.683 73.6557C340.879 73.6557 331 62.97 331 62.97V77.2569C331 77.2569 342.738 84.9831 358.493 84.9831C374.248 84.9831 385.986 77.2569 385.986 77.2569V62.97H386Z" fill="white"/>
</svg>
