<svg width="4000" height="879" viewBox="0 0 4000 879" fill="none" xmlns="http://www.w3.org/2000/svg">
<g clip-path="url(#clip0)">
<path d="M290.993 214.277C290.993 186.102 300.756 158.797 318.62 137.006C336.484 115.214 361.348 100.282 388.981 94.7488L644.92 43.6204C662.599 40.0928 680.841 40.5298 698.332 44.9C715.822 49.2701 732.125 57.4646 746.065 68.893C760.006 80.3214 771.237 94.699 778.95 110.99C786.663 127.281 790.665 145.079 790.667 163.103V164.565C790.621 192.697 780.836 219.946 762.974 241.685C745.112 263.423 720.275 278.31 692.68 283.818L540.807 314.203V414.084C540.807 442.259 531.045 469.563 513.18 491.355C495.316 513.146 470.453 528.078 442.819 533.612L139.121 594.335C111.487 599.851 86.6203 614.772 68.7539 636.558C50.8876 658.343 41.1267 685.646 41.1331 713.817V715.051C41.1345 733.079 45.1372 750.882 52.8525 767.177C60.5678 783.472 71.8035 797.853 85.7495 809.282C99.6956 820.711 116.004 828.904 133.501 833.271C150.997 837.637 169.244 838.069 186.927 834.533L192.959 833.345C220.601 827.821 245.475 812.893 263.348 791.101C281.222 769.309 290.991 741.999 290.993 713.817V214.277Z" stroke="#FFFFFF" stroke-width="82.2589" stroke-miterlimit="10"/>
<path d="M1136.09 494.5V686.356H1042.81V191.797H1353.6V279.477H1137.69H1135.41V281.762V405.128V407.413H1137.69H1329.74V492.215H1138.38H1136.09V494.5Z" fill="#FFFFFF" stroke="#FFFFFF" stroke-width="4.56994"/>
<path d="M1399.02 686.356V191.797H1488.1V686.356H1399.02Z" fill="#FFFFFF" stroke="#FFFFFF" stroke-width="4.56994"/>
<path d="M1891.57 515.427C1891.57 620.499 1814.43 696.911 1712.18 696.911C1609.94 696.911 1532.8 620.499 1532.8 515.427C1532.8 410.355 1609.94 334.033 1712.18 334.033C1814.44 334.033 1891.57 409.721 1891.57 515.427ZM1802.49 515.427C1802.49 482.201 1791.75 456.965 1774.98 440.028C1758.22 423.105 1735.61 414.632 1712.18 414.632C1688.76 414.632 1666.15 423.105 1649.39 440.028C1632.62 456.965 1621.87 482.201 1621.87 515.427C1621.87 548.652 1632.62 573.899 1649.39 590.848C1666.15 607.782 1688.76 616.267 1712.18 616.267C1735.61 616.267 1758.22 607.794 1774.98 590.865C1791.75 573.922 1802.49 548.675 1802.49 515.427Z" fill="#FFFFFF" stroke="#FFFFFF" stroke-width="4.56994"/>
<path d="M2296.5 566.042L2360.01 344.588H2448.1L2341.12 686.356H2251.06L2170.6 451.359L2168.42 444.989L2166.27 451.37L2087.23 686.356H1995.48L1886.38 344.588H1980.11L2043.62 565.359L2045.64 572.369L2047.98 565.461L2122.91 344.588H2218.21L2292.14 566.136L2294.47 573.126L2296.5 566.042Z" fill="#FFFFFF" stroke="#FFFFFF" stroke-width="4.56994"/>
<path d="M2565.19 646.377V686.356H2478.35V191.797H2566.24V380.272V388.195L2570.46 381.489C2585.44 357.671 2622.64 335.404 2673.64 335.404C2723.69 335.404 2763.03 354.677 2789.89 386.526C2816.79 418.418 2831.32 463.092 2831.32 514.056C2831.32 566.139 2815.27 611.326 2787.18 643.457C2759.11 675.561 2718.91 694.764 2670.26 694.764C2623.04 694.764 2587.23 673.969 2569.42 645.175L2565.19 638.338V646.377ZM2653.49 414.632C2629.34 414.632 2607.08 423.473 2590.87 440.505C2574.65 457.54 2564.64 482.594 2564.64 514.741C2564.64 546.55 2574.65 571.777 2590.85 589.072C2607.05 606.367 2629.31 615.582 2653.49 615.582C2678.02 615.582 2700.12 606.562 2716.09 589.337C2732.04 572.119 2741.7 546.887 2741.7 514.741C2741.7 482.594 2732.04 457.539 2716.08 440.501C2700.11 423.458 2678 414.632 2653.49 414.632Z" fill="#FFFFFF" stroke="#FFFFFF" stroke-width="4.56994"/>
<path d="M3116.23 641.443L3111.86 640.512C3097.51 672.674 3062.47 696.18 3016.78 696.18C2966.36 696.18 2924.58 676.556 2895.37 644.056C2866.15 611.535 2849.42 566 2849.42 514.056C2849.42 413.672 2914.82 334.719 3014 334.719C3075.03 334.719 3103.06 367.229 3111.16 386.109L3115.55 385.207V344.588H3201.79V626.045C3201.79 654.354 3203.58 676.731 3204.42 686.448H3119.47C3117.39 672.99 3116.31 659.395 3116.23 645.776C3116.23 645.774 3116.23 645.773 3116.23 645.771L3116.23 641.443ZM3028.07 619.831C3053.04 619.831 3074.97 609.495 3090.63 591.027C3106.27 572.581 3115.55 546.152 3115.55 514.056C3115.55 481.968 3106.44 456.259 3090.86 438.539C3075.26 420.795 3053.31 411.251 3028.07 411.251C3002.48 411.251 2980.19 420.81 2964.32 438.559C2948.46 456.289 2939.18 482.002 2939.18 514.056C2939.18 545.804 2948.29 572.235 2964.02 590.771C2979.78 609.334 3002.07 619.831 3028.07 619.831Z" fill="#FFFFFF" stroke="#FFFFFF" stroke-width="4.56994"/>
<path d="M3347.55 546.326L3347.54 546.324L3347.53 546.322C3314.45 538.997 3290.63 525.482 3275.09 507.986C3259.57 490.509 3252.16 468.895 3252.16 445.062C3252.16 384.603 3305.73 334.033 3379.44 334.033C3428.21 334.033 3460.54 349.511 3481.19 369.377C3501.12 388.556 3510.31 411.964 3512.79 429.901L3439.04 446.501C3437.25 436.551 3432.7 425.562 3424.01 416.804C3414.56 407.271 3400.4 400.559 3380.13 400.559C3354.82 400.559 3333.51 415.819 3333.51 437.34C3333.51 446.405 3336.94 453.862 3342.94 459.478C3348.88 465.042 3357.24 468.7 3367.02 470.514L3416.3 481.062L3416.31 481.064L3416.32 481.066C3450.1 488.052 3475.34 501.778 3492.1 519.837C3508.85 537.876 3517.28 560.364 3517.28 585.151C3517.28 612.71 3506.6 640.663 3484.8 661.731C3463.02 682.782 3429.99 697.094 3385.06 697.094C3333.49 697.094 3299.05 680.391 3276.99 659.02C3255.64 638.343 3245.75 613.173 3243.25 594.154L3318.92 577.385C3320.49 590.661 3326.27 603.362 3336.54 612.935C3347.5 623.151 3363.41 629.655 3384.33 629.655C3400.21 629.655 3412.2 625.509 3420.27 618.743C3428.36 611.955 3432.32 602.679 3432.32 592.873C3432.32 584.555 3429.46 576.912 3423 570.649C3416.61 564.445 3406.84 559.738 3393.23 556.876L3347.55 546.326Z" fill="#FFFFFF" stroke="#FFFFFF" stroke-width="4.56994"/>
<path d="M3871.53 537.769H3625.83H3623.44L3623.55 540.159C3625.71 587.219 3665.57 621.156 3713.12 621.156C3735.34 621.156 3752.73 615.603 3766.03 605.951C3778.76 596.719 3787.58 583.855 3793.35 568.899L3867.31 591.024C3849.27 648.941 3795.57 696.865 3712.44 696.865C3618.56 696.865 3535.84 629.504 3535.84 514.01C3535.84 404.728 3616.5 333.988 3703.98 333.988C3756.98 333.988 3799.1 350.881 3827.98 381.308C3856.87 411.751 3872.76 456.003 3872.76 511.177C3872.76 517.801 3872.42 524.6 3872.08 529.942C3871.91 532.61 3871.74 534.909 3871.61 536.638L3871.59 536.906C3871.57 537.209 3871.55 537.497 3871.53 537.769ZM3782.82 478.463H3785.2L3785.1 476.084C3784.37 458.387 3778.23 440.678 3765.23 427.376C3752.2 414.043 3732.5 405.356 3705.12 405.356C3655.18 405.356 3627.59 443.001 3625.42 476.028L3625.26 478.463H3627.7H3782.82Z" fill="#FFFFFF" stroke="#FFFFFF" stroke-width="4.56994"/>
<path d="M3906.67 142.404H3904.39V144.689V187.227H3893.92V144.689V142.404H3891.64H3877.33V133.586H3920.8V142.404H3906.67ZM3968.16 166.285L3981.3 133.586H3997.58V187.227H3987.61V154.101L3983.21 153.25L3969.57 187.227H3961.82L3948.05 153.735L3943.65 154.604V187.227H3933.69V133.586H3950.31L3963.93 166.311L3966.08 171.468L3968.16 166.285Z" fill="#FFFFFF" stroke="#FFFFFF" stroke-width="4.56994"/>
</g>
<defs>
<clipPath id="clip0">
<rect width="4000" height="878" fill="white" transform="translate(0 0.0769043)"/>
</clipPath>
</defs>
</svg>
