<svg width="137" height="23" viewBox="0 0 137 23" fill="none" xmlns="http://www.w3.org/2000/svg">
<path fill-rule="evenodd" clip-rule="evenodd" d="M123.905 8.46783V4.21792H120.105V8.46783H117.803V11.0727H120.105V19.4354C120.105 20.1483 120.221 20.724 120.453 21.1628C120.685 21.6015 121.001 21.9396 121.403 22.1773C121.804 22.4148 122.268 22.5748 122.794 22.6571C123.321 22.7394 123.878 22.7805 124.467 22.7805C124.842 22.7805 125.225 22.7713 125.618 22.753C126.01 22.7347 126.367 22.6982 126.688 22.6434V19.6273C126.51 19.6638 126.322 19.6913 126.126 19.7096C125.93 19.7278 125.725 19.7371 125.511 19.7371C124.868 19.7371 124.44 19.6273 124.226 19.408C124.012 19.1887 123.905 18.7499 123.905 18.0919V11.0727H126.688V8.46783H123.905ZM112.762 15.7065C112.602 15.8527 112.401 15.9669 112.16 16.0492C111.919 16.1315 111.661 16.2 111.384 16.2548C111.108 16.3097 110.818 16.3553 110.514 16.3919C110.211 16.4284 109.908 16.4742 109.604 16.5291C109.319 16.5839 109.038 16.6569 108.761 16.7484C108.485 16.8397 108.244 16.9631 108.039 17.1186C107.834 17.2739 107.669 17.4703 107.544 17.7081C107.419 17.9456 107.356 18.2472 107.356 18.6128C107.356 18.9601 107.419 19.2526 107.544 19.4903C107.669 19.7278 107.838 19.9152 108.052 20.0523C108.266 20.1895 108.516 20.2854 108.802 20.3402C109.087 20.395 109.381 20.4225 109.685 20.4225C110.434 20.4225 111.014 20.2944 111.424 20.0386C111.834 19.7827 112.138 19.4766 112.334 19.1201C112.53 18.7637 112.651 18.4026 112.695 18.037C112.74 17.6714 112.762 17.379 112.762 17.1597V15.7065ZM103.985 12.8275C104.038 11.9135 104.261 11.155 104.653 10.5518C105.046 9.94843 105.546 9.46406 106.152 9.09852C106.759 8.73289 107.441 8.47248 108.199 8.31703C108.958 8.16166 109.72 8.08402 110.488 8.08402C111.183 8.08402 111.888 8.13426 112.602 8.23482C113.315 8.33538 113.966 8.53185 114.555 8.82423C115.144 9.11679 115.626 9.52352 116 10.0445C116.375 10.5655 116.562 11.2554 116.562 12.1146V19.4903C116.562 20.13 116.598 20.7423 116.669 21.3273C116.741 21.9122 116.866 22.3509 117.044 22.6434H113.19C113.119 22.4241 113.061 22.2001 113.016 21.9716C112.972 21.7431 112.941 21.5101 112.923 21.2724C112.316 21.9122 111.603 22.36 110.782 22.6159C109.961 22.8719 109.123 22.9998 108.266 22.9998C107.606 22.9998 106.991 22.9176 106.42 22.753C105.849 22.5886 105.349 22.3326 104.921 21.9853C104.493 21.638 104.159 21.1993 103.918 20.6693C103.677 20.1391 103.556 19.5085 103.556 18.7774C103.556 17.973 103.695 17.3105 103.971 16.7895C104.248 16.2685 104.605 15.8527 105.042 15.5419C105.479 15.2311 105.978 14.9981 106.54 14.8427C107.102 14.6874 107.669 14.564 108.24 14.4727C108.81 14.3812 109.373 14.3082 109.926 14.2532C110.479 14.1984 110.969 14.1162 111.397 14.0065C111.826 13.8968 112.165 13.7369 112.414 13.5267C112.664 13.3165 112.78 13.0103 112.762 12.6081C112.762 12.1877 112.695 11.8541 112.562 11.6074C112.428 11.3606 112.249 11.1687 112.026 11.0316C111.803 10.8945 111.545 10.803 111.25 10.7573C110.956 10.7117 110.639 10.6889 110.3 10.6889C109.551 10.6889 108.962 10.8534 108.534 11.1823C108.106 11.5114 107.856 12.0598 107.785 12.8275H103.985ZM88.6938 3.06641V22.6434H92.4939V15.2129C92.4939 13.7688 92.7258 12.7315 93.1897 12.1009C93.6535 11.4702 94.4028 11.155 95.4376 11.155C96.3475 11.155 96.9808 11.4429 97.3376 12.0186C97.6945 12.5945 97.8729 13.4672 97.8729 14.6372V22.6434H101.673V13.9243C101.673 13.0469 101.597 12.2471 101.446 11.5252C101.294 10.803 101.031 10.1907 100.656 9.68802C100.281 9.18529 99.7685 8.79226 99.1173 8.50902C98.4661 8.22568 97.632 8.08402 96.6151 8.08402C95.9015 8.08402 95.17 8.27144 94.4207 8.64603C93.6714 9.02088 93.0559 9.61943 92.5742 10.4421H92.4939V3.06641H88.6938ZM83.1709 13.4582H86.8908C86.8372 12.5441 86.6231 11.7535 86.2484 11.0864C85.8738 10.4192 85.3876 9.86157 84.79 9.41382C84.1922 8.9659 83.5143 8.63242 82.756 8.41302C81.9978 8.19363 81.2084 8.08402 80.3877 8.08402C79.2638 8.08402 78.2647 8.27592 77.3905 8.65982C76.5163 9.04371 75.7758 9.57823 75.1693 10.2639C74.5627 10.9494 74.1033 11.7627 73.791 12.7042C73.4788 13.6454 73.3227 14.6645 73.3227 15.7613C73.3227 16.8214 73.4922 17.7947 73.8312 18.6814C74.1702 19.5679 74.6429 20.331 75.2495 20.9708C75.8561 21.6106 76.5921 22.1087 77.4574 22.4652C78.3227 22.8216 79.2727 22.9998 80.3075 22.9998C82.145 22.9998 83.6526 22.5063 84.8301 21.5192C86.0076 20.5322 86.7213 19.0972 86.971 17.2145H83.3047C83.1798 18.0919 82.8721 18.791 82.3814 19.3121C81.8908 19.833 81.1906 20.0934 80.2807 20.0934C79.6919 20.0934 79.1924 19.9564 78.7821 19.6821C78.3717 19.408 78.0461 19.056 77.8052 18.6265C77.5643 18.197 77.3905 17.7171 77.2834 17.187C77.1764 16.6569 77.1228 16.136 77.1228 15.6242C77.1228 15.0941 77.1764 14.5594 77.2834 14.0202C77.3905 13.4809 77.5733 12.9875 77.832 12.5396C78.0908 12.0917 78.4252 11.7262 78.8355 11.4429C79.2459 11.1595 79.7544 11.0179 80.361 11.0179C81.9845 11.0179 82.9211 11.8313 83.1709 13.4582ZM69.1647 8.46783V4.21792H66.89V8.46783H64.535V10.5244H66.89V19.5451C66.89 20.2032 66.9525 20.7332 67.0773 21.1354C67.2022 21.5374 67.394 21.8483 67.6526 22.0676C67.9114 22.2869 68.2504 22.4377 68.6696 22.52C69.0888 22.6023 69.5928 22.6434 70.1817 22.6434H71.9211V20.587H70.8774C70.5206 20.587 70.2306 20.5733 70.0077 20.5459C69.7846 20.5184 69.6107 20.459 69.4859 20.3677C69.3609 20.2762 69.2762 20.1483 69.2316 19.9838C69.187 19.8193 69.1647 19.6 69.1647 19.3257V10.5244H71.9211V8.46783H69.1647ZM63.8559 18.1467H61.608C61.4117 19.0789 61.0058 19.7736 60.3903 20.2305C59.7748 20.6875 58.9853 20.9161 58.0219 20.9161C57.2726 20.9161 56.6214 20.788 56.0684 20.5322C55.5153 20.2762 55.0603 19.9334 54.7035 19.5039C54.3467 19.0743 54.088 18.5809 53.9274 18.0234C53.7669 17.4657 53.6955 16.8762 53.7134 16.2548H64.07C64.1057 15.3956 64.0298 14.4909 63.8425 13.5404C63.6551 12.5898 63.3163 11.7124 62.8255 10.9082C62.335 10.1039 61.6837 9.44122 60.872 8.92032C60.0603 8.39923 59.0389 8.13882 57.8078 8.13882C56.8623 8.13882 55.9925 8.32159 55.1986 8.68722C54.4047 9.05276 53.7178 9.56462 53.1379 10.2228C52.5581 10.8808 52.1076 11.6576 51.7865 12.5533C51.4655 13.4489 51.3048 14.4359 51.3048 15.5145C51.3405 16.593 51.4966 17.5891 51.7732 18.5031C52.0497 19.4171 52.4645 20.2032 53.0176 20.8611C53.5706 21.5192 54.2531 22.031 55.0648 22.3966C55.8766 22.7622 56.8355 22.945 57.9416 22.945C59.5117 22.945 60.8141 22.5428 61.8488 21.7386C62.8836 20.9342 63.5526 19.7371 63.8559 18.1467ZM61.6615 14.1984H53.7134C53.749 13.65 53.8649 13.1337 54.0612 12.6492C54.2575 12.1649 54.5252 11.7399 54.8641 11.3743C55.2031 11.0087 55.6089 10.7207 56.0817 10.5107C56.5545 10.3004 57.0852 10.1953 57.674 10.1953C58.2449 10.1953 58.7668 10.3004 59.2396 10.5107C59.7124 10.7207 60.1227 11.0041 60.4706 11.3606C60.8185 11.717 61.095 12.142 61.3002 12.6356C61.5054 13.1292 61.6258 13.65 61.6615 14.1984ZM29.6449 8.46783V22.6434H31.9196V13.8146C31.9196 13.5404 31.9865 13.1976 32.1203 12.7864C32.2541 12.3751 32.4682 11.9775 32.7626 11.5937C33.0569 11.2098 33.4405 10.8808 33.9133 10.6066C34.3861 10.3324 34.9525 10.1953 35.6127 10.1953C36.1301 10.1953 36.5537 10.273 36.8838 10.4284C37.2139 10.5837 37.477 10.803 37.6733 11.0864C37.8695 11.3697 38.0078 11.7034 38.0881 12.0872C38.1683 12.471 38.2085 12.8914 38.2085 13.3485V22.6434H40.4832V13.8146C40.4832 12.7178 40.8044 11.8404 41.4466 11.1823C42.0889 10.5244 42.972 10.1953 44.0961 10.1953C44.6491 10.1953 45.0996 10.2776 45.4475 10.4421C45.7954 10.6066 46.0674 10.8305 46.2637 11.1138C46.4599 11.3971 46.5937 11.7308 46.665 12.1146C46.7364 12.4985 46.7721 12.9098 46.7721 13.3485V22.6434H49.0468V12.2517C49.0468 11.5205 48.9353 10.8945 48.7123 10.3735C48.4893 9.85252 48.1771 9.42752 47.7757 9.09852C47.3743 8.76943 46.8926 8.52729 46.3306 8.37192C45.7685 8.21646 45.1397 8.13882 44.4439 8.13882C43.534 8.13882 42.7 8.34908 41.9417 8.76943C41.1835 9.18986 40.5724 9.78393 40.1086 10.5518C39.8231 9.67432 39.3325 9.05276 38.6367 8.68722C37.9408 8.32159 37.1648 8.13882 36.3085 8.13882C34.3637 8.13882 32.8741 8.94315 31.8393 10.5518H31.7857V8.46783H29.6449ZM13.9527 15.5694C13.9527 16.6113 14.0954 17.58 14.3809 18.4758C14.6663 19.3714 15.0945 20.1528 15.6654 20.82C16.2363 21.4873 16.941 22.0081 17.7796 22.383C18.6181 22.7576 19.5815 22.945 20.6698 22.945C21.7759 22.945 22.7438 22.7576 23.5734 22.383C24.403 22.0081 25.1032 21.4873 25.6742 20.82C26.245 20.1528 26.6732 19.3714 26.9587 18.4758C27.2442 17.58 27.3869 16.6113 27.3869 15.5694C27.3869 14.5275 27.2442 13.5541 26.9587 12.6492C26.6732 11.7445 26.245 10.9584 25.6742 10.2912C25.1032 9.62399 24.403 9.09852 23.5734 8.71462C22.7438 8.33082 21.7759 8.13882 20.6698 8.13882C19.5815 8.13882 18.6181 8.33082 17.7796 8.71462C16.941 9.09852 16.2363 9.62399 15.6654 10.2912C15.0945 10.9584 14.6663 11.7445 14.3809 12.6492C14.0954 13.5541 13.9527 14.5275 13.9527 15.5694ZM16.3612 15.5694C16.3612 14.7102 16.4727 13.9471 16.6957 13.2799C16.9188 12.6126 17.2265 12.0506 17.6189 11.5937C18.0115 11.1367 18.4709 10.7893 18.9972 10.5518C19.5235 10.3141 20.081 10.1953 20.6698 10.1953C21.2585 10.1953 21.8161 10.3141 22.3424 10.5518C22.8687 10.7893 23.3281 11.1367 23.7206 11.5937C24.113 12.0506 24.4208 12.6126 24.6439 13.2799C24.8668 13.9471 24.9784 14.7102 24.9784 15.5694C24.9784 16.4284 24.8668 17.1916 24.6439 17.8588C24.4208 18.526 24.113 19.0835 23.7206 19.5314C23.3281 19.9792 22.8687 20.3219 22.3424 20.5596C21.8161 20.7972 21.2585 20.9161 20.6698 20.9161C20.081 20.9161 19.5235 20.7972 18.9972 20.5596C18.4709 20.3219 18.0115 19.9792 17.6189 19.5314C17.2265 19.0835 16.9188 18.526 16.6957 17.8588C16.4727 17.1916 16.3612 16.4284 16.3612 15.5694ZM10.1425 13.0194H12.4976C12.4083 12.1786 12.1943 11.452 11.8553 10.8396C11.5163 10.2272 11.0837 9.7199 10.5573 9.31782C10.031 8.91575 9.42444 8.61872 8.73754 8.42672C8.05064 8.23473 7.31479 8.13882 6.5298 8.13882C5.44144 8.13882 4.48696 8.33538 3.66628 8.72832C2.84559 9.12135 2.1632 9.66053 1.61902 10.3462C1.07493 11.0316 0.669046 11.8358 0.401374 12.759C0.133792 13.682 0 14.6737 0 15.7339C0 16.794 0.13821 17.7674 0.414807 18.654C0.691315 19.5404 1.1017 20.3036 1.64579 20.9434C2.18997 21.5832 2.86795 22.0767 3.67971 22.4241C4.49147 22.7713 5.42359 22.945 6.47625 22.945C8.24249 22.945 9.63855 22.4697 10.6644 21.5192C11.6902 20.5687 12.3281 19.216 12.5778 17.4613H10.2495C10.1069 18.5581 9.71879 19.408 9.08545 20.0112C8.45211 20.6144 7.57345 20.9161 6.44947 20.9161C5.7358 20.9161 5.12031 20.7697 4.6029 20.4773C4.08559 20.1848 3.66628 19.7964 3.34514 19.3121C3.02401 18.8276 2.78762 18.2747 2.63598 17.6532C2.48433 17.0317 2.40851 16.3919 2.40851 15.7339C2.40851 15.021 2.47983 14.331 2.62263 13.6637C2.76535 12.9965 3.00174 12.407 3.3318 11.8952C3.66186 11.3835 4.10344 10.9722 4.65646 10.6614C5.20956 10.3506 5.89646 10.1953 6.71706 10.1953C7.68055 10.1953 8.44769 10.4421 9.01855 10.9356C9.58951 11.4291 9.96411 12.1237 10.1425 13.0194Z" fill="white"/>
<mask id="mask0" mask-type="alpha" maskUnits="userSpaceOnUse" x="128" y="0" width="9" height="10">
<path d="M136.973 0.0351562H128.188V9.16387H136.973V0.0351562Z" fill="white"/>
</mask>
<g mask="url(#mask0)">
<path fill-rule="evenodd" clip-rule="evenodd" d="M132.617 4.34329C132.768 4.34329 132.914 4.33718 133.053 4.32498C133.193 4.31278 133.315 4.27823 133.418 4.22115C133.522 4.16445 133.606 4.08503 133.67 3.98327C133.734 3.8816 133.766 3.73721 133.766 3.55002C133.766 3.3955 133.732 3.27346 133.664 3.1838C133.596 3.09443 133.51 3.02525 133.407 2.97634C133.303 2.92761 133.187 2.8971 133.06 2.8849C132.932 2.87269 132.808 2.86659 132.688 2.86659H131.707V4.34329H132.617ZM131.707 7.21125H130.893V2.15866H132.772C133.371 2.15866 133.821 2.27272 134.125 2.50047C134.428 2.72831 134.579 3.09838 134.579 3.61095C134.579 4.06682 134.456 4.40027 134.208 4.61168C133.961 4.82338 133.654 4.94945 133.287 4.9901L134.675 7.21125H133.754L132.473 5.05112H131.707V7.21125ZM136.016 4.59948C136.016 4.04635 135.928 3.53782 135.753 3.07397C135.577 2.61031 135.334 2.2117 135.022 1.87797C134.711 1.54451 134.348 1.28616 133.933 1.10301C133.518 0.919953 133.071 0.828516 132.593 0.828516C132.106 0.828516 131.653 0.919953 131.234 1.10301C130.815 1.28616 130.45 1.54451 130.139 1.87797C129.828 2.2117 129.584 2.61031 129.409 3.07397C129.233 3.53782 129.146 4.04635 129.146 4.59948C129.146 5.12031 129.225 5.60847 129.385 6.06406C129.544 6.51984 129.774 6.91835 130.073 7.25997C130.372 7.60178 130.733 7.87233 131.156 8.07163C131.579 8.27103 132.058 8.37054 132.593 8.37054C133.071 8.37054 133.518 8.2791 133.933 8.09604C134.348 7.91289 134.711 7.65472 135.022 7.32108C135.334 6.98754 135.577 6.5909 135.753 6.13118C135.928 5.67156 136.016 5.16096 136.016 4.59948ZM136.973 4.59948C136.973 5.283 136.855 5.90541 136.62 6.4668C136.385 7.02818 136.066 7.50827 135.663 7.90688C135.26 8.30558 134.793 8.61472 134.262 8.83439C133.732 9.05406 133.175 9.1639 132.593 9.1639C131.946 9.1639 131.354 9.04787 130.815 8.81608C130.277 8.58422 129.814 8.26493 129.427 7.85797C129.04 7.45129 128.737 6.96923 128.517 6.41179C128.298 5.85472 128.188 5.25052 128.188 4.59948C128.188 3.91605 128.306 3.29364 128.541 2.73235C128.776 2.17087 129.096 1.69096 129.499 1.29227C129.902 0.893667 130.37 0.584434 130.905 0.364761C131.44 0.144993 132.002 0.0351562 132.593 0.0351562C133.175 0.0351562 133.732 0.144993 134.262 0.364761C134.793 0.584434 135.26 0.893667 135.663 1.29227C136.066 1.69096 136.385 2.17087 136.62 2.73235C136.855 3.29364 136.973 3.91605 136.973 4.59948Z" fill="white"/>
</g>
</svg>
