<?xml version="1.0" encoding="UTF-8"?>
<svg width="112px" height="37px" viewBox="0 0 112 37" version="1.1" xmlns="http://www.w3.org/2000/svg" xmlns:xlink="http://www.w3.org/1999/xlink">
    <!-- Generator: Sketch 63.1 (92452) - https://sketch.com -->
    <title>lapa-logo</title>
    <desc>Created with Sketch.</desc>
    <g id="Page-1" stroke="none" stroke-width="1" fill="none" fill-rule="evenodd">
        <g id="lapa-logo" fill="#000000" fill-rule="nonzero">
            <g id="logo-1.0">
                <path d="M16.7459457,0.0793665114 C22.1803659,0.0793665114 26.4704122,1.94995686 29.2331803,5.27189535 C29.6079492,5.11081523 30.0017006,4.95027746 30.3981638,4.79136677 C31.1132619,4.50532753 31.8485682,4.2105021 32.266825,3.97687247 L32.3940387,3.90135844 L33.6181391,3.11982156 L33.0020212,4.43720745 C32.3810221,5.76381342 32.1163517,6.93096634 32.0550653,7.86327855 C32.6687728,7.72009622 33.0952129,7.49506481 33.6867321,7.09409834 L33.916978,6.9353052 L34.9338979,6.22319006 L34.5672644,7.40335955 C34.5081474,7.5958964 34.4446916,7.95439458 34.3725581,8.36929791 C34.1566999,9.61292321 33.8258619,11.4775476 32.9635138,12.8182549 C33.2558444,13.8861564 33.4467542,15.3499788 33.1690672,17.2634154 C33.1457459,17.4201566 33.0486639,17.5535765 32.9065663,17.6235406 C32.8387716,17.6571668 32.7644687,17.6745222 32.6923352,17.6745222 C32.679861,17.6745222 32.6690138,17.663675 32.6565396,17.663675 C32.0805561,28.8139989 25.6058946,36.4682875 16.4894107,36.4682875 C7.94565608,36.4682875 1.216629,28.017276 0.820708165,17.0578619 C0.687288268,17.0302017 0.56417316,16.9515599 0.494209068,16.8203094 L0.479736359,16.7919771 C0.332344547,16.4925855 -0.721090388,14.0802464 1.20632421,10.1493146 C1.26327173,10.0348772 1.36089604,9.9459306 1.48346879,9.9052538 C1.49214651,9.90091494 1.61905812,9.8607805 1.8441364,9.79081641 C4.03471755,3.80373412 9.47727311,0.0793665114 16.7459457,0.0793665114 Z M16.8072321,16.3565939 C10.6802216,16.3565939 2.37781599,15.0619871 3.79499562,21.8691136 C5.79303993,31.4682955 11.1000062,25.6043283 17.2270166,25.6043283 C23.3540271,25.6043283 27.5399408,30.6677761 29.8200109,21.8691136 C31.5061998,15.3543176 22.9320731,16.3565939 16.8072321,16.3565939 Z M1.63858298,10.3586645 C-0.298174954,14.305941 0.916163051,16.5957735 0.916163051,16.5957735 C18.5042681,9.32059263 32.6901657,17.1956207 32.6901657,17.1956207 C33.2835046,13.1170938 31.6797541,11.078915 31.6797541,11.078915 C18.7353123,4.60262643 1.63858298,10.3586645 1.63858298,10.3586645 Z M34.1604964,7.28241388 C33.2433702,7.92239549 32.7308425,8.22123437 31.624976,8.38231449 C30.6970027,8.51573439 29.7072006,8.86121599 28.8453948,9.36940478 C29.9046186,9.74254661 30.923708,10.1661277 31.8939852,10.6509951 C31.9465939,10.6764859 31.9932366,10.7144509 32.0339134,10.7594666 C32.0339134,10.7610936 32.0355405,10.7632631 32.0355405,10.7654325 L32.0463876,10.7732967 L32.0572348,10.7827879 L32.0632007,10.7909233 C32.0653701,10.7909233 32.0653701,10.7930927 32.0675396,10.7952621 C32.1375037,10.890717 32.4851547,11.3907705 32.7942983,12.2677622 C33.7455931,10.5305918 33.9234863,8.0455106 34.1604964,7.28241388 Z M32.6185746,4.25931426 C31.7117532,4.8380095 28.9153589,5.70415412 28.0573496,6.35064403 C27.2307971,6.97110078 26.6228146,7.78246731 26.4004481,8.64915428 C27.0485651,8.81620033 27.696682,8.98161931 28.3176812,9.18717273 C29.1247088,8.65132371 30.0760035,8.2678771 31.0294677,8.06015425 C31.0316371,8.06666254 31.0338065,8.0710014 31.035976,8.0747979 L31.1152279,8.05601878 L31.1948867,8.03683289 L31.1948867,8.02598574 C31.3174594,8.00266438 31.4427439,7.97988537 31.5653167,7.96252994 C31.5864686,7.96036051 31.5994852,7.95439458 31.6206371,7.95222515 C31.6694493,6.94560999 31.9487633,5.68951047 32.6185746,4.25931426 Z" id="Combined-Shape"></path>
                <path d="M11.1699703,22.4114709 C11.1699703,23.3052757 10.4453809,22.5324166 9.5510337,22.5324166 C8.65722886,22.5324166 7.9326395,23.3052757 7.9326395,22.4114709 C7.9326395,21.5171237 8.65722886,20.7930767 9.5510337,20.7930767 C10.4453809,20.7930767 11.1699703,21.5171237 11.1699703,22.4114709 L11.1699703,22.4114709 L11.1699703,22.4114709 Z" id="eye"></path>
                <path d="M25.5614213,22.4114709 C25.5614213,23.3052757 24.836832,22.5324166 23.9430271,22.5324166 C23.0486799,22.5324166 22.3240906,23.3052757 22.3240906,22.4114709 C22.3240906,21.5171237 23.0486799,20.7930767 23.9430271,20.7930767 C24.836832,20.7930767 25.5614213,21.5171237 25.5614213,22.4114709 L25.5614213,22.4114709 L25.5614213,22.4114709 Z" id="eye"></path>
            </g>
            <g id="lapa" transform="translate(47.000000, 7.000000)">
                <path d="M0.94568,-0.0048391 L2.98568,-0.0048391 L2.98568,22.0751609 L0.94568,22.0751609 L0.94568,-0.0048391 Z M23.11568,6.1451609 L23.11568,22.0751609 L21.10568,22.0751609 L21.10568,19.3451609 C19.2856709,21.5251718 17.2056917,22.6151609 14.86568,22.6151609 C12.5256683,22.6151609 10.5506881,21.7801693 8.94068,20.1101609 C7.33067195,18.4401526 6.52568,16.4501725 6.52568,14.1401609 C6.52568,11.8301494 7.3356719,9.8501692 8.95568,8.2001609 C10.5756881,6.55015265 12.5156687,5.7251609 14.77568,5.7251609 C17.375693,5.7251609 19.4856719,6.8351498 21.10568,9.0551609 L21.10568,6.1451609 L23.11568,6.1451609 Z M21.22568,14.1851609 C21.22568,12.3651518 20.6156861,10.8301671 19.39568,9.5801609 C18.1756739,8.33015465 16.6806889,7.7051609 14.91068,7.7051609 C13.1406712,7.7051609 11.6456861,8.35015445 10.42568,9.6401609 C9.2056739,10.9301673 8.59568,12.4551521 8.59568,14.2151609 C8.59568,15.9751697 9.2156738,17.5001544 10.45568,18.7901609 C11.6956862,20.0801673 13.1806714,20.7251609 14.91068,20.7251609 C16.6406887,20.7251609 18.1256738,20.1051671 19.36568,18.8651609 C20.6056862,17.6251547 21.22568,16.0651703 21.22568,14.1851609 L21.22568,14.1851609 Z M27.76568,6.1451609 L29.80568,6.1451609 L29.80568,9.0551609 C31.4256881,6.8351498 33.535667,5.7251609 36.13568,5.7251609 C38.3756912,5.7251609 40.3056719,6.55015265 41.92568,8.2001609 C43.5456881,9.8501692 44.35568,11.8351493 44.35568,14.1551609 C44.35568,16.4751725 43.555688,18.4651526 41.95568,20.1251609 C40.355672,21.7851692 38.4356912,22.6151609 36.19568,22.6151609 C33.7556678,22.6151609 31.6256891,21.5251718 29.80568,19.3451609 L29.80568,27.8951609 L27.76568,27.8951609 L27.76568,6.1451609 Z M42.31568,14.1851609 C42.31568,12.405152 41.7006862,10.8801672 40.47068,9.6101609 C39.2406739,8.34015455 37.7356889,7.7051609 35.95568,7.7051609 C34.1756711,7.7051609 32.6806861,8.33015465 31.47068,9.5801609 C30.260674,10.8301671 29.65568,12.3751517 29.65568,14.2151609 C29.65568,16.0551701 30.2756738,17.6001547 31.51568,18.8501609 C32.7556862,20.1001671 34.2406714,20.7251609 35.97068,20.7251609 C37.7006887,20.7251609 39.1906738,20.0901673 40.44068,18.8201609 C41.6906863,17.5501545 42.31568,16.00517 42.31568,14.1851609 L42.31568,14.1851609 Z M64.06568,6.1451609 L64.06568,22.0751609 L62.05568,22.0751609 L62.05568,19.3451609 C60.2356709,21.5251718 58.1556917,22.6151609 55.81568,22.6151609 C53.4756683,22.6151609 51.5006881,21.7801693 49.89068,20.1101609 C48.280672,18.4401526 47.47568,16.4501725 47.47568,14.1401609 C47.47568,11.8301494 48.2856719,9.8501692 49.90568,8.2001609 C51.5256881,6.55015265 53.4656687,5.7251609 55.72568,5.7251609 C58.325693,5.7251609 60.4356719,6.8351498 62.05568,9.0551609 L62.05568,6.1451609 L64.06568,6.1451609 Z M62.17568,14.1851609 C62.17568,12.3651518 61.5656861,10.8301671 60.34568,9.5801609 C59.1256739,8.33015465 57.6306889,7.7051609 55.86068,7.7051609 C54.0906712,7.7051609 52.5956861,8.35015445 51.37568,9.6401609 C50.1556739,10.9301673 49.54568,12.4551521 49.54568,14.2151609 C49.54568,15.9751697 50.1656738,17.5001544 51.40568,18.7901609 C52.6456862,20.0801673 54.1306714,20.7251609 55.86068,20.7251609 C57.5906887,20.7251609 59.0756738,20.1051671 60.31568,18.8651609 C61.5556862,17.6251547 62.17568,16.0651703 62.17568,14.1851609 L62.17568,14.1851609 Z" id="Shape"></path>
            </g>
        </g>
    </g>
</svg>