<svg width="441" height="91" viewBox="0 0 441 91" fill="none" xmlns="http://www.w3.org/2000/svg">
<path d="M28.0524 3.00003H0.962402V66C3.9324 66 24.7224 66 28.0524 66C54.3324 66 59.1024 46.74 59.1024 34.59C59.1024 22.44 54.6924 3.00003 28.0524 3.00003ZM28.0524 53.58C21.7524 53.58 17.0724 53.58 14.6424 53.58V15.51C14.6424 15.51 22.2924 15.51 28.0524 15.51C42.1824 15.51 44.8824 27.48 44.8824 34.59C44.8824 41.34 42.0924 53.58 28.0524 53.58Z" fill="black"/>
<path d="M115.684 43.95H116.224C116.944 37.02 116.044 26.4 106.324 19.74V19.83C102.094 16.86 96.3343 15.06 89.2243 15.06C72.2143 15.06 62.1343 24.06 62.1343 40.53C62.1343 57.36 71.9443 66 89.2243 66C105.784 66 114.604 59.34 115.954 48.45H102.724C101.464 51.78 97.4143 54.03 89.2243 54.03C80.4043 54.03 76.3543 50.7 75.3643 43.95H115.684ZM89.2243 27.03C98.9443 27.03 101.464 31.17 102.544 34.95H75.9043C77.5243 29.82 81.6643 27.03 89.2243 27.03Z" fill="black"/>
<path d="M145.116 35.4L143.946 35.31C135.126 33.96 133.596 32.7 133.596 30.45C133.596 28.92 135.216 26.13 142.866 26.13C150.786 26.13 154.206 28.29 154.206 32.25V32.7H168.156V32.25C168.156 24.51 163.746 15.24 142.866 15.24C123.426 15.24 119.376 23.61 119.376 30.63C119.376 40.71 128.376 43.95 142.866 45.84C143.586 45.93 144.306 46.02 145.026 46.11C150.516 46.74 155.376 47.46 155.376 51.24C155.376 54.57 150.156 55.29 144.666 55.29C135.576 55.29 132.336 53.31 132.336 48.99V48.54H118.296V49.53C118.206 52.14 118.206 56.37 121.716 59.88C125.766 63.93 133.596 66 145.026 66C160.506 66 169.506 63.57 169.506 51.06C169.506 39.09 156.546 37.11 145.116 35.4Z" fill="black"/>
<path d="M187.082 66V15.87H173.492V66H187.082ZM187.082 12.27V0.0300293H173.492V12.27H187.082Z" fill="black"/>
<path d="M234.437 16.05V23.52H233.627C230.207 19.02 224.537 16.05 215.177 16.05C193.847 16.05 191.597 33.96 191.597 41.34C191.597 48.18 193.937 66.63 215.087 66.63C224.627 66.63 230.387 63.93 233.807 59.61H234.437V63.21C234.437 72.48 230.297 78.51 221.027 78.51C210.317 78.51 207.977 73.29 207.617 70.59C205.367 70.59 197.627 70.59 194.027 70.59C194.027 78.06 198.437 90.3 221.117 90.3C246.227 90.3 248.117 71.58 248.117 61.14V16.05H234.437ZM219.137 54.84C206.087 54.84 204.647 45.03 204.647 41.34C204.647 37.38 205.997 27.84 219.137 27.84C230.927 27.84 233.357 34.5 233.357 41.34C233.357 48.99 230.927 54.84 219.137 54.84Z" fill="black"/>
<path d="M284.263 15.51C275.173 15.51 270.583 18.48 267.343 22.98H266.713V15.51H253.033V66H266.713V41.7C266.713 34.86 268.423 27.3 280.303 27.3C293.353 27.3 292.543 36.84 292.543 40.8V66H306.133V40.8C306.133 33.42 305.593 15.51 284.263 15.51Z" fill="black"/>
<path d="M312.099 64.38C312.099 73.38 308.409 77.7 299.409 77.79H293.199V90.93H299.409C322.539 90.93 325.419 78.15 325.509 64.92V16.68H312.099V64.38ZM325.509 12.99V0.930028H312.099V12.99H325.509Z" fill="black"/>
<path d="M358.105 14.61C342.805 14.61 330.025 22.98 330.025 40.35C330.025 57.81 342.805 66 358.105 66C373.495 66 386.275 58.08 386.275 40.35C386.275 22.8 373.495 14.61 358.105 14.61ZM358.105 53.58C349.555 53.58 343.435 49.8 343.435 40.35C343.435 30.81 349.555 27.12 358.105 27.12C366.745 27.12 372.865 30.99 372.865 40.35C372.865 49.44 366.745 53.58 358.105 53.58Z" fill="black"/>
<path d="M425.53 15.6L410.95 53.58L396.28 15.6H381.88L401.32 66.09H406.18L398.8 85.26H413.29L440.02 15.6H425.53Z" fill="black"/>
<path d="M386 63C386 63 376.487 73.6857 358.683 73.6857C340.879 73.6857 331 63 331 63V77.2869C331 77.2869 342.738 85.0131 358.493 85.0131C374.248 85.0131 385.986 77.2869 385.986 77.2869V63H386Z" fill="black"/>
</svg>
