<svg width="15" height="150" viewBox="0 0 15 150" fill="none" xmlns="http://www.w3.org/2000/svg">
<path d="M2.65206 0.24996C2.64847 1.05617 2.73149 1.91239 2.7279 2.71861C2.87572 19.6626 3.38334 36.5834 4.56059 53.5443C6.23135 79.4505 8.34853 105.383 12.0049 131.05C12.703 135.841 13.4511 140.546 14.1992 145.25C14.3322 146.019 14.4286 146.652 14.475 147.372C14.5946 148.365 14.4544 149.208 13.4482 149.551C12.442 149.893 11.676 149.22 11.3197 148.437C10.7537 147.417 10.2377 146.311 9.99487 145.132C9.25301 141.817 8.47455 138.365 8.0925 135.027C3.37392 97.1997 0.354372 59.4297 0.982898 21.341C1.06162 14.8047 1.58674 8.29515 1.88867 1.7722C1.96546 1.23919 2.04226 0.706168 2.06905 0.259757C2.20566 0.223155 2.42886 0.236561 2.65206 0.24996Z" fill="black"/>
</svg>
