<svg width="252" height="423" viewBox="0 0 252 423" fill="none" xmlns="http://www.w3.org/2000/svg">
<path d="M-80.1659 1.99844C-63.9727 2.47933 -48.6159 6.73263 -33.9488 13.4628C-17.9969 20.6394 -3.52698 30.0642 9.87879 41.2521C27.5557 56.0954 43.9865 72.1948 59.8961 88.876C81.8819 111.879 102.015 136.317 121.419 161.529C142.355 188.697 162.672 216.343 181.551 245.038C199.392 271.995 214.48 300.354 225.999 330.587C230.656 342.962 234.706 355.515 236.637 368.593C237.937 376.945 238.834 385.382 237.924 393.955C237.287 400.536 235.068 406.561 231.369 412.032C227.241 418.288 221.522 421.485 214.112 421.619C209.804 421.765 205.411 421.507 201.242 420.557C187.349 417.357 173.68 413.464 160.683 407.594C146.012 400.964 131.988 393.056 118.496 384.267C90.2408 365.842 63.6643 345.276 38.1447 323.147C2.33807 292.143 -30.7694 258.434 -60.3566 221.45C-84.5851 191.262 -104.519 158.526 -119.644 122.861C-126.563 106.602 -131.765 89.9049 -134.636 72.3907C-136.271 62.2256 -136.803 51.9999 -135.237 41.8496C-134.328 36.0784 -132.724 30.4323 -130.035 25.2254C-125.395 15.8857 -118.162 9.54099 -108.424 5.88778C-101.424 3.23705 -94.1785 2.09611 -86.8652 1.85817C-84.4595 1.74433 -82.3645 1.91957 -80.1659 1.99844Z" fill="#F7D046"/>
<mask id="mask0" mask-type="alpha" maskUnits="userSpaceOnUse" x="-137" y="1" width="376" height="421">
<path d="M-80.1659 1.99844C-63.9727 2.47933 -48.6159 6.73263 -33.9488 13.4628C-17.9969 20.6394 -3.52698 30.0642 9.87879 41.2521C27.5557 56.0954 43.9865 72.1948 59.8961 88.876C81.8819 111.879 102.015 136.317 121.419 161.529C142.355 188.697 162.672 216.343 181.551 245.038C199.392 271.995 214.48 300.354 225.999 330.587C230.656 342.962 234.706 355.515 236.637 368.593C237.937 376.945 238.834 385.382 237.924 393.955C237.287 400.536 235.068 406.561 231.369 412.032C227.241 418.288 221.522 421.485 214.112 421.619C209.804 421.765 205.411 421.507 201.242 420.557C187.349 417.357 173.68 413.464 160.683 407.594C146.012 400.964 131.988 393.056 118.496 384.267C90.2408 365.842 63.6643 345.276 38.1447 323.147C2.33807 292.143 -30.7694 258.434 -60.3566 221.45C-84.5851 191.262 -104.519 158.526 -119.644 122.861C-126.563 106.602 -131.765 89.9049 -134.636 72.3907C-136.271 62.2256 -136.803 51.9999 -135.237 41.8496C-134.328 36.0784 -132.724 30.4323 -130.035 25.2254C-125.395 15.8857 -118.162 9.54099 -108.424 5.88778C-101.424 3.23705 -94.1785 2.09611 -86.8652 1.85817C-84.4595 1.74433 -82.3645 1.91957 -80.1659 1.99844Z" fill="black"/>
</mask>
<g mask="url(#mask0)">
<path d="M200.962 367.795C203.946 368.303 206.926 368.91 209.91 369.418C229.896 372.938 249.29 379.039 268.126 386.721C269.703 387.378 271.174 388.231 272.54 389.181C273.029 389.499 273.493 390.516 273.275 391.009C273.154 391.605 272.24 391.972 271.208 392.836C271.605 390.148 270.12 389.695 268.736 389.244C252.244 383.148 235.638 377.448 218.361 373.724C211.608 372.281 204.845 371.137 198.089 369.793C196.597 369.54 195.291 369.693 193.87 370.242C177.318 376.952 160.221 382.141 142.406 385.002C131.634 386.816 120.891 387.831 109.916 386.936C108.021 386.768 106.133 386.4 104.355 385.735C101.293 384.625 100.591 381.898 102.779 379.475C104.236 377.926 106.185 376.595 108.127 375.464C113.135 372.542 118.6 370.838 124.257 369.34C133.652 366.876 143.203 365.618 152.933 364.968C161.057 364.459 169.062 364.447 177.15 364.938C181.743 365.203 186.426 365.772 191.008 366.337C192.604 366.494 194.11 366.348 195.634 365.702C204.476 361.918 213.132 357.726 221.221 352.613C225.623 349.87 229.835 346.819 233.569 343.151C236.161 340.643 238.56 337.927 240.274 334.787C242.849 329.976 243.224 325.086 241.306 320.014C240.029 316.566 238.134 313.596 235.833 310.811C231.901 306.067 227.337 302.201 222.362 298.62C210.265 289.979 196.978 283.798 182.931 279.29C178.877 277.944 174.808 276.997 170.751 275.75C169.858 275.518 169.055 275.589 168.238 276.06C152.199 285.19 134.691 290.664 116.919 295.128C99.6544 299.411 82.1399 302.283 64.5542 304.353C51.7941 305.795 38.9449 306.934 26.0956 308.073C17.9649 308.781 9.75226 308.986 1.66827 308.396C-0.726581 308.209 -3.11067 307.723 -5.39122 307.141C-6.48333 306.902 -7.46112 306.266 -8.33897 305.634C-10.191 304.267 -10.915 302.139 -9.94016 300.073C-9.17953 298.399 -8.11549 296.636 -6.76962 295.384C-4.39204 293.268 -1.81821 291.259 0.841203 289.654C9.13361 284.448 18.2679 280.874 27.4878 277.703C43.8966 272.19 60.8294 268.796 78.0082 266.912C95.9901 264.957 113.918 264.501 131.885 265.747C143.663 266.571 155.409 268.294 167.022 270.913C168.014 271.149 169.01 271.285 170.034 270.621C175.46 267.214 180.601 263.396 184.682 258.44C186.038 256.887 187.202 255.128 188.266 253.365C192.105 246.799 192.453 239.907 189.403 232.893C187.369 228.217 184.208 224.301 180.533 220.766C176.179 216.607 171.301 213.13 166.109 210.041C154.157 202.907 141.228 197.939 127.962 193.96C105.688 187.255 82.8112 183.431 59.5442 182.094C58.4449 182.054 57.1349 182.307 56.1176 182.771C27.6966 196.759 -2.33994 205.585 -33.2788 211.677C-40.5353 213.117 -47.9772 214.151 -55.394 214.484C-59.4022 214.64 -63.3996 214.497 -67.2612 213.357C-68.3497 213.018 -69.5309 212.475 -70.5087 211.84C-73.6384 209.826 -74.4228 206.596 -72.3127 203.569C-71.1559 202.01 -69.7993 200.458 -68.1572 199.316C-65.387 197.414 -62.4242 195.72 -59.4722 194.325C-49.7023 189.773 -39.3903 186.842 -28.9964 184.414C-10.0289 180.092 9.26654 177.784 28.7971 177.286C37.4095 177.095 46.1075 177.308 54.7127 177.317C55.712 177.353 56.8185 177.193 57.7359 176.725C66.5064 172.137 75.0023 166.839 82.153 159.992C87.2295 155.171 91.4245 149.818 93.9602 143.305C95.7245 138.766 96.493 134.09 95.9695 129.168C95.2785 123.34 92.7491 118.546 88.7991 114.301C85.3308 110.574 81.3341 107.629 76.9232 105.068C67.9052 99.841 58.2265 96.2909 48.3192 93.5331C30.8815 88.7033 13.1649 86.065 -4.90186 84.815C-7.99627 84.6037 -11.0943 84.4923 -14.2886 84.2774C-15.4878 84.2342 -16.4016 84.6017 -17.2334 85.4723C-36.9183 104.177 -60.331 115.243 -87.1899 119.18C-98.9578 120.858 -110.765 120.834 -122.471 118.012C-125.547 117.301 -128.606 116.09 -131.461 114.787C-133.134 114.026 -134.79 112.766 -136.043 111.42C-138.551 108.828 -138.825 105.316 -136.719 102.39C-135.351 100.538 -133.687 98.7963 -131.746 97.6653C-128.269 95.5889 -124.596 93.6196 -120.84 92.1536C-111.092 88.2014 -100.805 85.9696 -90.5328 84.1375C-67.5715 80.06 -44.5073 78.6879 -21.2115 79.2253C-19.3128 79.2936 -17.992 78.7407 -16.639 77.2884C-8.09211 67.7894 -2.98551 56.5656 -0.137888 44.1599C2.11662 34.3346 3.07917 24.2627 3.74192 14.18C4.20051 6.99183 4.45923 -0.203501 4.51809 -7.40605C4.5511 -11.1073 4.28792 -14.9192 3.92119 -18.6348C3.70044 -20.8441 3.17989 -23.0643 1.14233 -24.8386C2.84123 -24.7775 3.7155 -24.0456 4.17565 -22.9284C5.01038 -21.0972 5.84511 -19.266 6.27652 -17.3493C7.67067 -11.5955 7.85481 -5.58496 7.84267 0.31841C7.8788 13.228 7.0155 26.1053 5.5562 38.8611C3.83234 53.4086 -1.04634 66.6418 -10.4645 78.1108C-10.7787 78.4998 -10.993 78.8923 -11.4179 79.5775C-10.3222 79.717 -9.42275 79.7493 -8.62685 79.878C5.95294 80.7024 20.4004 82.4227 34.6014 85.4349C46.6181 87.9684 58.4062 91.2941 69.5336 96.2972C74.3586 98.472 79.0764 100.843 83.3658 103.999C86.192 106.102 88.9148 108.301 91.3233 110.89C100.098 120.111 102.308 130.997 98.5716 143.071C96.6427 149.406 93.1472 154.783 88.7703 159.629C82.6225 166.413 75.3259 171.754 67.5547 176.378C66.9407 176.756 66.3268 177.134 65.7128 177.512C65.6092 177.609 65.6021 177.809 65.3914 178.101C68.5822 178.416 71.7729 178.731 74.8637 179.042C100.975 181.982 126.493 187.503 150.743 197.681C158.434 200.859 165.799 204.726 172.737 209.379C177.818 212.763 182.586 216.537 186.414 221.378C188.523 223.955 190.425 226.726 191.916 229.781C196.493 238.851 195.87 247.835 190.557 256.449C187.158 261.931 182.495 266.366 177.355 270.184C176.327 270.947 175.299 271.711 174.063 272.667C175.152 273.007 175.941 273.335 176.733 273.564C192.186 277.922 206.979 283.957 220.468 292.848C226.331 296.761 231.88 301.063 236.698 306.24C239.681 309.549 242.257 313.044 244.008 317.209C247.151 324.427 246.599 331.412 242.458 338.067C240.119 341.886 237.102 345.079 233.796 347.962C228.631 352.48 222.991 356.279 217.072 359.469C212.478 362.005 207.695 364.235 203.004 366.668C202.29 367.043 201.58 367.317 200.866 367.692C200.873 367.492 200.87 367.592 200.962 367.795ZM163.202 274.178C162.513 273.853 162.217 273.742 161.921 273.632C153.28 271.82 144.618 270.608 135.842 269.792C119.385 268.3 102.967 268.51 86.5093 269.819C69.045 271.293 51.9267 274.279 35.2361 279.283C24.5136 282.5 14.0621 286.527 4.35264 292.181C1.9003 293.594 -0.462916 295.31 -2.72977 297.13C-3.75787 297.894 -4.7004 299.061 -5.43947 300.135C-6.38919 301.502 -6.21449 302.208 -4.63349 302.765C-3.15242 303.319 -1.56425 303.676 0.031132 303.834C9.49625 304.975 19.0189 304.516 28.5558 303.659C42.1046 302.545 55.6642 301.131 69.131 299.514C86.5168 297.437 103.739 294.354 120.711 289.861C134.55 286.256 148.017 281.837 160.853 275.494C161.364 275.213 162.078 274.838 163.202 274.178ZM-23.7861 84.0359C-24.8818 83.8965 -25.4814 83.8749 -26.1809 83.8497C-48.2882 83.6552 -70.2603 85.2667 -92.0224 89.3874C-101.592 91.1446 -111.079 93.4052 -120.121 97.1827C-123.169 98.474 -126.132 100.169 -128.995 101.867C-130.219 102.523 -131.262 103.687 -132.101 104.757C-133.043 105.924 -132.979 106.927 -132.016 107.962C-131.438 108.583 -130.66 109.212 -129.971 109.537C-127.905 110.512 -125.738 111.49 -123.558 112.069C-113.847 114.72 -103.857 115.179 -93.8166 114.239C-68.418 111.95 -45.8622 102.455 -26.2672 86.2482C-25.4461 85.6773 -24.8213 84.9993 -23.7861 84.0359ZM47.145 181.848C47.1486 181.748 47.0558 181.545 47.0594 181.445C46.7596 181.434 46.4634 181.323 46.1636 181.312C21.5615 180.928 -2.82699 182.953 -26.9344 188.29C-37.1213 190.526 -47.1298 193.368 -56.5891 197.631C-59.6411 199.022 -62.504 200.72 -65.3704 202.518C-66.5984 203.275 -67.6445 204.538 -68.587 205.705C-69.3225 206.679 -69.1514 207.486 -68.0737 208.125C-66.896 208.767 -65.6112 209.214 -64.2193 209.464C-58.7552 210.561 -53.23 209.959 -47.7048 209.357C-36.1475 207.972 -24.6543 205.583 -13.3429 202.688C6.54916 197.699 25.9811 191.594 44.7962 183.164C45.4138 182.686 46.2312 182.215 47.145 181.848ZM104.271 382.53C105.926 383.791 107.822 383.959 109.617 384.123C115.706 384.542 121.92 384.266 128.044 383.685C148.129 381.706 167.428 376.496 186.293 369.469C186.8 369.287 187.314 368.906 188.231 368.438C185.64 368.145 183.748 367.877 181.753 367.705C168.583 366.631 155.37 366.756 142.296 368.588C133.045 369.856 123.875 371.628 115.137 375.316C112.395 376.418 109.84 377.927 107.287 379.337C105.967 379.89 104.831 380.849 104.271 382.53Z" fill="black"/>
</g>
</svg>
