<svg width="247" height="111" viewBox="0 0 247 111" fill="none" xmlns="http://www.w3.org/2000/svg">
<path d="M52.5744 61.1511C51.9927 56.7378 51.1201 52.3968 50.9019 48.0559C50.6838 44.5831 49.3749 41.5444 48.1387 38.5057C46.8298 35.3223 45.5209 32.0666 44.2847 28.8109C43.9211 27.9427 43.8484 26.9298 43.703 25.9169C43.6303 25.0487 43.7757 24.2529 44.7937 23.9635C45.6663 23.6741 46.2481 24.1082 46.7571 24.7593C46.9752 25.0487 47.1934 25.2658 47.4115 25.6275C47.9206 23.9635 48.3568 22.4441 48.8659 20.9248C49.0113 20.4907 49.2295 20.0566 49.3749 19.6225C50.2475 17.8138 51.0474 17.5967 52.8653 18.8266C53.1561 18.4649 53.3743 18.1032 53.6652 17.7414C54.3196 16.9456 54.9741 16.0774 55.7739 15.4262C57.9554 13.5451 60.0642 14.1239 61.0822 16.8732C61.3004 17.5244 61.5185 18.1755 61.5913 18.899C61.7367 22.01 61.8094 25.1211 61.8821 28.2321C61.8821 28.6662 61.8821 29.1726 61.8821 29.8238C62.3184 29.5344 62.682 29.245 63.0456 29.0279C64.6453 28.0874 66.1724 27.0021 67.7722 26.134C69.3719 25.3381 71.0444 25.5552 72.5715 26.4957C74.4621 27.6533 76.28 28.8109 78.3161 30.1132C78.5342 29.1003 78.8251 28.0874 79.0432 27.1468C79.1887 26.4957 79.2614 25.7722 79.4068 25.1211C79.6977 23.6017 80.134 23.3123 81.661 23.6017C85.0787 24.3252 88.4964 24.9764 91.914 25.6999C107.548 29.245 123.182 32.7901 138.743 36.4799C143.906 37.7099 148.924 39.3016 154.014 40.6762C154.378 40.7486 154.741 40.8209 155.25 40.9656C154.959 39.808 154.741 38.8675 154.523 37.8546C154.159 35.467 154.741 33.2966 156.341 31.4155C158.377 28.9556 160.995 27.4362 163.976 26.4234C164.921 26.0616 165.939 25.7722 167.103 25.3381C166.376 24.687 165.867 24.1805 165.358 23.7464C163.031 21.7206 161.649 19.1884 161.286 16.1497C161.213 15.4262 161.213 14.6304 161.358 13.9069C161.867 11.5917 163.831 10.4341 166.085 11.0129C166.957 11.2299 167.757 11.5917 168.703 11.9534C169.43 11.0129 170.157 10 171.611 10C172.993 10 174.011 10.7958 175.029 11.5917C175.174 11.5193 175.393 11.5193 175.465 11.3746C177.429 9.7106 178.738 9.7106 180.628 11.5193C181.21 12.0981 181.864 12.8216 182.228 13.5451C184.046 16.6562 185.791 19.7672 187.609 22.8782C189.281 25.7722 190.881 28.7385 192.481 31.7049C193.717 33.8754 194.881 36.0458 196.19 38.2163C197.426 40.3868 198.735 42.485 199.971 44.4384C207.824 43.8596 215.459 43.2808 223.095 42.702C230.73 42.1232 238.365 41.6891 246 42.1956C246 42.3403 246.073 42.485 246.073 42.702C245.491 42.8467 244.91 43.0638 244.255 43.1361C239.165 43.7149 234.075 44.366 228.985 44.8725C222.077 45.5236 215.241 46.1748 208.333 46.7536C205.643 46.9706 202.879 47.26 200.189 47.4047C198.226 47.5494 198.153 47.4771 197.28 45.7407C197.062 45.3066 196.771 44.9448 196.553 44.5831C195.68 43.2808 194.735 41.9785 194.081 40.6039C191.39 35.467 186.955 32.139 181.864 29.6791C180.846 29.1726 179.683 28.9556 178.519 28.7385C176.774 28.3768 174.956 28.0874 173.211 27.8703C172.848 27.798 172.411 27.7256 171.975 27.8703C169.503 28.5215 167.03 29.1726 164.631 29.9685C162.376 30.692 160.558 32.2113 159.031 33.9477C157.722 35.3947 157.577 38.8675 158.741 40.4592C159.322 41.255 159.977 41.3997 160.849 40.8209C161.431 40.4592 161.867 39.8804 162.376 39.4463C163.758 38.2163 165.14 36.9864 166.594 35.8288C168.557 34.3818 170.739 34.0924 172.993 35.1776C174.011 35.6841 175.102 36.1905 176.047 36.8417C178.447 38.5781 179.174 41.9785 177.72 44.6554C176.847 46.2471 175.465 46.9706 173.72 47.043C172.193 47.1153 170.739 46.9706 169.212 46.8983C167.903 46.8259 166.521 46.6812 165.212 46.6812C164.631 46.6812 163.903 46.8259 163.394 47.1153C162.158 47.7665 162.013 48.9241 163.104 49.7199C164.558 50.8052 166.012 51.8181 167.685 52.5415C171.757 54.2779 175.902 55.7973 180.046 57.3166C181.137 57.6784 182.301 57.6784 183.464 57.8231C185.937 58.1125 188.409 58.3295 190.881 58.6913C202.152 60.3553 213.205 63.1769 224.331 65.6368C229.639 66.7944 234.947 68.2414 240.183 69.616C241.346 69.9054 242.51 70.3395 243.673 70.7736C244.255 70.9907 244.764 71.3524 245.273 71.6418C245.2 71.7865 245.2 71.9312 245.128 72.0036C243.819 71.8589 242.583 71.7142 241.274 71.4971C233.348 70.0501 225.349 68.6755 217.423 67.1562C207.097 65.1304 196.844 62.9599 186.518 60.9341C179.319 59.4871 172.557 56.9549 165.794 54.2779C164.122 53.6268 162.667 52.6139 160.995 51.6733C160.849 52.1074 160.704 52.4692 160.631 52.9033C158.741 60.0659 156.777 67.2285 154.887 74.3188C154.741 74.8976 154.523 75.5487 154.305 76.1275C153.796 77.2127 153.141 77.3574 152.123 76.7063C151.76 76.4893 151.323 76.2722 150.887 76.1275C144.634 74.8976 138.307 74.0294 132.054 72.4377C116.783 68.6755 101.367 65.5645 85.8786 62.5258C81.9519 61.7299 78.0252 61.0064 74.0985 60.2106C73.0805 59.9936 72.4987 60.2829 71.917 61.0064C67.9176 65.9986 63.9182 70.9907 59.9188 75.9105C50.7565 87.197 41.5942 98.4835 32.3592 109.77C32.0684 110.132 31.7775 110.566 31.4139 110.783C31.0503 111 30.3959 111.072 30.1777 110.855C29.8141 110.566 29.596 109.987 29.6687 109.553C29.8141 108.974 30.1777 108.395 30.5413 107.889C31.9229 106.08 33.3773 104.344 34.7589 102.607C42.7577 92.9126 50.7565 83.1454 58.6826 73.4506C63.6273 67.4456 68.572 61.4405 73.3713 55.3632C76.1346 51.8904 78.6069 48.1282 81.2247 44.5107C81.7337 43.7872 82.0973 42.9914 82.3882 42.1956C82.5336 41.8338 82.3882 41.1827 82.17 40.9656C81.8792 40.7486 81.2974 40.8209 80.9339 41.038C80.3521 41.3274 79.8431 41.6891 79.4068 42.1956C76.8617 44.8001 74.3894 47.4771 71.8443 50.154C70.8263 51.2393 69.8809 51.4563 68.4993 50.9499C66.536 50.2264 65.2998 48.7794 64.9362 46.8259C64.5726 44.8725 64.4272 42.9191 64.4272 40.9656C64.4272 39.1569 65.2271 37.5652 66.536 36.3352C68.063 34.8883 69.8809 34.3095 71.9897 35.1053C73.2986 35.6117 74.4621 35.3947 75.5528 34.4542C76.3527 33.7307 76.4254 33.2966 75.6255 32.5731C75.0438 31.9943 74.3166 31.4878 73.5895 30.9814C73.0078 30.5473 72.2806 30.1855 71.6989 29.6791C70.3172 28.5215 69.0083 28.6662 67.554 29.5344C64.5726 31.2708 62.173 33.586 59.9188 36.1182C58.0281 38.144 56.4284 40.3868 54.6832 42.5573C53.5197 44.0043 53.0834 45.596 53.3743 47.4047C53.7379 50.3711 54.1015 53.4097 54.465 56.3761C54.6105 57.606 54.6832 58.9083 54.6832 60.2106C54.6832 61.0788 54.5378 61.8023 53.447 61.947C53.0834 62.0193 52.7926 62.3811 52.5017 62.6705C50.8292 64.3345 49.1567 66.0709 47.4115 67.6626C35.1952 78.515 23.2697 89.5122 10.3988 99.6411C8.21734 101.378 5.96312 102.969 3.70891 104.633C3.1999 104.995 2.61816 105.429 2.03643 105.574C1.52742 105.718 0.872968 105.574 0.436669 105.284C-0.145064 104.85 0.000369441 104.127 0.436669 103.548C0.872968 102.969 1.38198 102.463 1.891 102.029C4.21793 100.148 6.61757 98.2665 8.9445 96.3854C14.471 91.8274 19.9247 87.2693 25.4511 82.7837C34.2498 75.6211 42.9031 68.1691 52.1381 61.5852C52.2108 61.5129 52.3563 61.4405 52.5744 61.1511ZM49.084 35.0329C49.3022 35.6841 49.4476 36.2629 49.6658 36.914C50.2475 38.6504 50.8292 40.4592 51.5564 42.3403C51.8472 41.9785 52.0654 41.7615 52.0654 41.7615C51.2655 40.1698 50.4656 38.5781 49.6658 36.914C49.4476 36.2629 49.2295 35.6841 49.084 35.0329C48.8659 34.6712 48.7204 34.2371 48.575 33.803C48.5023 33.8754 48.3569 33.9477 48.2841 33.9477C48.575 34.3095 48.7932 34.6712 49.084 35.0329ZM79.7704 59.3424C101.367 63.4663 122.673 67.8797 143.906 73.1612C144.997 71.4248 146.306 70.1225 148.051 69.399C149.724 68.6755 151.542 68.3138 153.432 67.735C154.596 63.4663 155.832 59.1254 157.068 54.7844C152.996 51.384 151.105 47.1153 151.178 41.8338C131.835 36.4076 112.275 32.139 92.7139 28.2321C89.8053 32.9348 84.2061 36.1182 79.625 36.0458C79.3341 37.1311 78.9705 38.2887 78.6069 39.6633C79.4068 39.3016 79.9885 38.9398 80.5703 38.7228C81.8792 38.361 83.1153 38.361 84.1334 39.3739C85.0787 40.3868 85.2241 41.5444 84.7151 42.7744C84.1334 44.149 83.4062 45.5236 82.679 46.7536C81.5883 48.5623 80.4248 50.2264 79.2614 52.0351C80.643 54.2779 80.0612 56.7378 79.7704 59.3424ZM58.3917 16.7285C57.6646 17.1626 57.2283 17.3073 57.0101 17.5967C54.9741 19.6225 53.8106 22.0824 53.956 25.0487C54.1015 28.5938 54.2469 32.0666 54.3923 35.6117C54.3923 36.3352 54.465 37.0587 54.465 38.144C55.0468 37.4928 55.3376 37.2034 55.6285 36.8417C56.6465 35.6841 57.6646 34.4542 58.7553 33.2966C59.4098 32.6454 59.6279 31.9943 59.5552 31.1261C59.4098 27.8703 59.337 24.5423 59.1189 21.2865C58.9735 19.8395 58.6826 18.4649 58.3917 16.7285ZM176.847 25.4828C175.902 24.3976 174.956 23.457 174.011 22.3718C173.066 21.2865 172.12 20.2013 171.248 19.0437C170.521 18.1032 169.721 17.1626 169.43 16.1497C168.921 14.558 167.685 13.9069 166.303 13.5451C164.485 13.0387 163.831 13.6175 163.831 15.4986C163.831 15.788 163.831 16.0774 163.903 16.3668C164.412 19.7672 168.485 24.0358 171.829 24.8317C171.975 24.8317 172.048 24.904 172.193 24.904C173.72 25.0487 175.32 25.2658 176.847 25.4828ZM76.9344 37.4205C74.0258 38.7951 74.0258 38.7951 70.9717 38.361C69.4446 38.144 68.572 38.6504 68.1357 40.1698C67.4813 42.3403 67.8449 44.5107 68.572 46.6089C68.8629 47.5494 69.7355 47.9835 70.7535 48.0559C72.3533 46.2471 73.8803 44.5107 75.4801 42.702C75.6255 42.5573 75.6983 42.4126 75.771 42.2679C76.2073 40.7486 76.5709 39.1569 76.9344 37.4205ZM160.631 44.2937C160.704 44.366 160.704 44.5107 160.777 44.5831C163.104 42.7744 165.721 43.1361 168.339 43.4255C168.703 43.4978 168.994 43.5702 169.357 43.6425C170.666 43.7872 171.975 43.9319 173.357 44.0766C174.084 44.149 174.738 43.8596 175.102 43.2085C175.829 41.9785 175.465 40.0251 174.375 39.0845C171.902 36.8417 169.648 36.7693 167.103 38.9398C166.594 39.3739 166.158 39.808 165.649 40.2421C164.122 41.6168 162.667 43.2085 160.704 44.0043C160.704 44.0043 160.704 44.2213 160.631 44.2937ZM91.1142 27.8703C87.7692 27.2915 84.7878 26.7851 81.5883 26.2063C81.0793 28.8832 80.2067 31.4155 80.0612 34.1648C84.7151 33.6583 87.9146 31.1984 91.1142 27.8703ZM177.647 13.1834C177.865 13.9069 177.938 14.4857 178.156 14.9921C179.392 17.7414 180.628 20.4907 181.937 23.1676C182.737 24.7593 183.755 26.2063 184.773 27.7256C185.282 28.5215 186.082 29.1726 187.318 29.245C186.373 27.2915 185.646 25.4828 184.7 23.7464C183.101 20.8524 181.501 18.0308 179.828 15.1368C179.392 14.4133 178.883 13.6175 177.647 13.1834ZM158.013 52.3968C158.522 50.6605 159.031 49.2135 159.25 47.7665C159.468 46.3918 159.104 45.0895 157.941 44.2213C156.704 43.3531 155.323 42.8467 153.65 42.702C154.087 46.3918 155.614 49.2858 158.013 52.3968ZM171.611 12.2428C171.102 13.9069 171.757 15.1368 172.484 16.3668C174.156 19.116 176.265 21.5759 178.665 23.8188C178.956 24.1082 179.319 24.3252 179.683 24.6146C178.81 22.5165 177.792 20.563 176.702 18.5372C176.12 17.3797 175.393 16.2221 175.029 14.9198C174.447 13.2557 173.284 12.6046 171.611 12.2428ZM50.9019 22.2994C50.7565 22.2994 50.6838 22.2994 50.5383 22.2994C50.3929 22.9506 50.1748 23.6017 50.0293 24.2529C49.7385 25.7722 49.5203 27.2915 49.3022 28.8832C49.2295 29.5344 49.2295 30.2579 49.4476 30.909C50.3929 34.0201 51.4109 37.0587 52.429 40.0974C52.5017 40.2421 52.5744 40.3145 52.7198 40.4592C52.1381 34.3818 51.5564 28.3044 50.9019 22.2994ZM152.923 69.399C150.087 70.1225 147.76 71.063 146.161 73.5953C148.051 74.1017 149.796 74.5358 151.614 75.0423C152.123 73.1612 152.487 71.4248 152.923 69.399ZM78.0252 59.053C77.8798 57.4613 77.7343 56.0867 77.5162 54.4226C76.1346 55.6526 75.262 56.8825 74.3166 58.2572C75.6255 58.4742 76.7163 58.7636 78.0252 59.053Z" fill="black"/>
<path d="M124.2 48.1275C123.836 49.7916 123.618 51.528 122.964 53.1197C120.709 58.7629 113.583 60.2099 109.148 55.9413C107.839 54.639 107.33 52.975 107.33 51.2386C107.33 47.0423 109.075 43.5695 112.565 41.182C114.819 39.5903 117.219 39.5179 119.546 41.182C120.273 41.6884 120.928 42.1949 121.655 42.7013C123.473 44.1483 124.127 45.9571 124.2 48.1275ZM121.946 49.4298C122.091 47.3317 121.509 45.6677 119.764 44.4377C119.328 44.1483 118.892 43.8589 118.528 43.4972C117.146 42.2672 115.619 42.3396 114.238 43.2801C111.038 45.4506 109.511 48.5616 109.802 52.3238C110.02 56.1583 115.328 58.7629 118.528 56.303C120.855 54.4943 122.018 52.3238 121.946 49.4298Z" fill="black"/>
<path d="M147.288 10.8697C146.731 10.9193 146.175 10.9441 145.63 11.0186C144.821 11.1426 144.201 11.5645 143.821 12.2841C143.568 12.7679 143.34 13.2642 143.15 13.7853C142.644 15.1377 142.34 16.5521 141.961 17.9292C141.91 18.1153 141.897 18.3263 141.86 18.5124C141.847 18.5868 141.834 18.6737 141.796 18.7357C141.708 18.9218 141.543 19.0211 141.353 18.9962C141.164 18.9714 141.012 18.8225 140.999 18.6116C140.986 18.5 140.986 18.3759 141.012 18.2518C141.088 17.7804 141.062 17.3213 141.012 16.8622C140.91 15.9565 140.771 15.0508 140.48 14.1823C140.113 13.1526 139.556 12.2468 138.683 11.5396C138.24 11.1798 137.785 10.8325 137.329 10.4727C136.633 9.92674 135.836 9.56694 135.014 9.24436C134.887 9.19473 134.735 9.18232 134.583 9.1327C134.482 9.10788 134.368 9.08307 134.267 9.03344C134.052 8.93419 133.963 8.72327 134.014 8.51235C134.064 8.31384 134.254 8.18977 134.482 8.21458C134.647 8.22699 134.824 8.26421 134.988 8.31384C135.925 8.5992 136.886 8.53716 137.848 8.45031C138.202 8.4255 138.557 8.38828 138.898 8.31384C139.696 8.12773 140.316 7.69349 140.683 6.96148C140.974 6.39076 141.176 5.79522 141.315 5.16247C141.543 4.18232 141.86 3.21457 141.986 2.20961C142.049 1.70092 142.125 1.19224 142.189 0.671143C142.214 0.534666 142.226 0.398189 142.264 0.261713C142.34 0.125236 142.454 0.0135732 142.619 0.0011662C142.783 -0.0112408 142.935 0.075608 142.986 0.249306C143.049 0.43541 143.1 0.633922 143.112 0.832433C143.176 1.75055 143.239 2.66866 143.302 3.59919C143.365 4.44286 143.403 5.28654 143.492 6.1178C143.568 6.80019 143.808 7.44535 144.201 8.02848C144.555 8.56198 145.048 8.89696 145.63 9.1327C146.01 9.28158 146.377 9.44287 146.757 9.56694C146.959 9.64138 147.187 9.6662 147.402 9.71583C147.82 9.81508 148.25 9.90193 148.667 10.0136C148.857 10.0632 148.984 10.1997 148.997 10.3982C149.022 10.5843 148.908 10.7704 148.705 10.8449C148.566 10.8945 148.414 10.9317 148.263 10.9317C147.934 10.9441 147.592 10.9317 147.263 10.9317C147.288 10.9069 147.288 10.8821 147.288 10.8697Z" fill="black"/>
<path fill-rule="evenodd" clip-rule="evenodd" d="M95.4241 80.991C95.452 80.4602 95.5079 79.9295 95.5638 79.3987C95.5549 79.2749 95.5489 79.1538 95.543 79.0356C95.5302 78.7804 95.5181 78.5383 95.48 78.3093C95.452 78.1417 95.2844 77.8623 95.1727 77.8623C95.0051 77.8623 94.7257 78.002 94.6419 78.1417C94.4184 78.5048 94.195 78.9238 94.0832 79.3428C93.7201 80.6558 93.4128 81.9687 93.1334 83.3096C92.9658 84.0917 92.9379 84.8739 93.2172 85.6281C93.3849 86.0472 93.6363 86.3824 94.1391 86.3824C94.6419 86.3824 94.9213 86.0472 95.0609 85.6281C95.2006 85.2371 95.2565 84.818 95.2844 84.399C95.3123 83.8264 95.3333 83.2607 95.3542 82.695C95.3752 82.1293 95.3962 81.5637 95.4241 80.991ZM91.6529 99.6515C91.7088 99.9029 91.7926 100.182 92.1836 100.238C92.2115 100.093 92.2405 99.9471 92.2697 99.7999L92.27 99.7984L92.2701 99.7982L92.2701 99.7981C92.3871 99.2084 92.5077 98.6009 92.5747 97.9754C92.8261 96.1597 93.0217 94.344 93.2172 92.5282L93.2172 92.5282C93.2452 92.2768 93.2172 91.9974 93.1614 91.746C92.9937 91.1873 92.5468 90.88 92.0719 90.9638C91.597 91.0476 91.3735 91.4108 91.3735 92.0254C91.4015 92.7517 91.4015 93.5059 91.4015 94.2322C91.4015 94.6242 91.3983 95.0163 91.3952 95.4073V95.4074V95.4075C91.389 96.1866 91.3829 96.9615 91.4015 97.724C91.4015 98.2594 91.4985 98.7949 91.5955 99.3303C91.6149 99.4373 91.6343 99.5444 91.6529 99.6515ZM103.589 89.6375L103.589 89.6375C103.213 89.7308 102.831 89.8257 102.464 89.8462L102.196 89.8712L102.196 89.8712C100.192 90.0583 98.212 90.2432 96.2064 90.3769C95.8711 90.4049 95.4801 90.321 95.1728 90.1814C94.7538 90.0138 94.7817 89.5668 95.1728 89.3713C95.3963 89.2595 95.6477 89.2037 95.8711 89.2037C98.5249 89.1199 101.179 89.0919 103.833 89.3154C103.888 89.3154 103.944 89.3433 104 89.3713V89.5389C103.865 89.569 103.727 89.6031 103.589 89.6375ZM90.1724 87.9652C90.4983 87.9373 90.8242 87.9093 91.1501 87.8907C91.1501 87.8349 91.1501 87.779 91.178 87.6952C91.0663 87.6812 90.9615 87.6603 90.8568 87.6393C90.752 87.6184 90.6473 87.5974 90.5355 87.5834C89.5437 87.4717 88.5589 87.3599 87.574 87.2482C86.5895 87.1365 85.6049 87.0247 84.6134 86.913C84.4458 86.899 84.2782 86.8781 84.1106 86.8571C83.9429 86.8362 83.7753 86.8152 83.6077 86.8013C83.3284 86.8013 83.1049 86.913 83.049 87.1924C82.9932 87.4996 83.1608 87.7231 83.4401 87.8069C83.6357 87.8628 83.8591 87.9187 84.0826 87.9187C84.4168 87.9323 84.7527 87.9476 85.0895 87.9629C86.1318 88.0105 87.1824 88.0583 88.2169 88.0583C88.8688 88.077 89.5206 88.0211 90.1724 87.9652Z" fill="black"/>
<path d="M106 12.2274C106.056 11.4993 106.336 10.8273 106.859 10.286C107.251 9.89396 108.128 9.91263 108.613 10.3606C109.173 10.8647 109.453 11.518 109.285 12.2834C109.211 12.6194 109.061 12.9367 108.893 13.2167C108.539 13.8327 107.96 14.0941 107.363 13.9821C106.691 13.8514 106.149 13.31 106.037 12.638C106.019 12.5074 106.019 12.3767 106 12.2274Z" fill="black"/>
<path d="M166 82.2278C166.056 81.4998 166.336 80.8278 166.859 80.2865C167.251 79.8944 168.128 79.9131 168.613 80.3611C169.173 80.8651 169.453 81.5185 169.285 82.2838C169.211 82.6198 169.061 82.9372 168.893 83.2172C168.539 83.8332 167.96 84.0946 167.363 83.9825C166.691 83.8519 166.149 83.3105 166.037 82.6385C166.019 82.5078 166.019 82.3772 166 82.2278Z" fill="black"/>
</svg>
