<svg width="178" height="143" viewBox="0 0 178 143" fill="none" xmlns="http://www.w3.org/2000/svg">
<path d="M32.6225 142.118C27.6105 142.303 22.1653 141.439 16.9677 139.339C7.3149 135.386 2.11724 127.912 0.19906 117.906C-0.172201 115.806 0.013429 113.644 0.446567 111.544C1.12721 108.456 2.11724 105.553 3.72604 102.835C6.20111 98.6348 9.04745 94.6818 12.6363 91.4082C15.7301 88.5669 18.9477 85.8492 22.2891 83.3168C27.7342 79.2402 33.365 75.349 38.8721 71.3342C41.3472 69.543 43.8841 67.8135 46.7304 66.5782C47.0398 66.4547 47.3492 66.2694 47.6586 66.0841C62.3853 57.1898 77.112 48.2955 91.8386 39.3394C101.615 33.4099 111.33 27.3568 120.983 21.3655C130.45 15.4977 140.164 10.1241 150.56 5.98579C156.438 3.63868 162.502 1.72393 168.752 0.612146C174.815 -0.437876 180.756 -0.129046 186.696 1.47687C197.524 4.37987 204.888 11.1124 208.786 21.6126C212.622 31.9893 211.075 41.8101 205.445 51.1367C203.341 54.5956 200.556 57.6222 197.586 60.3399C193.75 63.8605 189.542 66.9488 185.335 69.9136C172.959 78.5608 160.089 86.4051 146.785 93.57C132.306 101.352 117.951 109.32 103.533 117.165C95.675 121.426 87.8785 125.812 79.587 129.332C73.7706 131.803 67.8923 134.088 62.014 136.559C52.8562 140.45 43.1416 141.933 32.6225 142.118Z" fill="black"/>
<mask id="mask0" mask-type="alpha" maskUnits="userSpaceOnUse" x="0" y="0" width="211" height="143">
<path d="M32.6225 142.118C27.6105 142.303 22.1653 141.439 16.9677 139.339C7.3149 135.386 2.11724 127.912 0.19906 117.906C-0.172201 115.806 0.013429 113.644 0.446567 111.544C1.12721 108.456 2.11724 105.553 3.72604 102.835C6.20111 98.6348 9.04745 94.6818 12.6363 91.4082C15.7301 88.5669 18.9477 85.8492 22.2891 83.3168C27.7342 79.2402 33.365 75.349 38.8721 71.3342C41.3472 69.543 43.8841 67.8135 46.7304 66.5782C47.0398 66.4547 47.3492 66.2694 47.6586 66.0841C62.3853 57.1898 77.112 48.2955 91.8386 39.3394C101.615 33.4099 111.33 27.3568 120.983 21.3655C130.45 15.4977 140.164 10.1241 150.56 5.98579C156.438 3.63868 162.502 1.72393 168.752 0.612146C174.815 -0.437876 180.756 -0.129046 186.696 1.47687C197.524 4.37987 204.888 11.1124 208.786 21.6126C212.622 31.9893 211.075 41.8101 205.445 51.1367C203.341 54.5956 200.556 57.6222 197.586 60.3399C193.75 63.8605 189.542 66.9488 185.335 69.9136C172.959 78.5608 160.089 86.4051 146.785 93.57C132.306 101.352 117.951 109.32 103.533 117.165C95.675 121.426 87.8785 125.812 79.587 129.332C73.7706 131.803 67.8923 134.088 62.014 136.559C52.8562 140.45 43.1416 141.933 32.6225 142.118Z" fill="black"/>
</mask>
<g mask="url(#mask0)">
<path d="M-22.9866 120.026C-22.7283 105.945 -18.9194 94.2004 -10.9787 83.8832C-5.62037 76.9401 0.38356 70.5811 7.16219 65.0007C21.1714 53.3208 35.3742 41.9654 50.0289 31.129C54.7417 27.6251 59.5836 24.3807 64.3609 21.0714C66.0394 19.9683 67.7825 18.9949 69.5901 18.0865C70.6231 17.5674 71.7206 17.3078 72.8181 17.1781C74.7548 16.9185 76.4979 17.5025 77.9182 18.93C78.6283 19.6438 79.2093 20.4225 79.7258 21.266C80.9524 23.1478 82.0499 25.0295 83.212 26.9762C90.8944 39.5645 98.5769 52.1528 106.195 64.806C110.456 71.8788 114.587 79.0814 118.977 86.1543C124.077 94.3951 129.5 102.441 135.375 110.163C135.569 110.422 135.762 110.682 135.956 110.942C137.376 113.018 137.376 114.77 135.892 116.846C135.375 117.625 134.73 118.339 134.149 118.988C127.37 126.774 119.687 133.458 110.843 138.844C99.5452 145.722 88.1829 152.47 76.2396 158.245C64.1027 164.15 51.4492 168.497 38.1502 170.963C31.2425 172.261 24.3347 172.65 17.3624 171.158C16.0712 170.898 14.8446 170.639 13.618 170.12C-6.07228 162.528 -18.6612 148.901 -22.2764 127.553C-22.7283 124.763 -22.7929 121.843 -22.9866 120.026Z" fill="#4CA96D"/>
<mask id="mask1" mask-type="alpha" maskUnits="userSpaceOnUse" x="-23" y="17" width="161" height="156">
<path d="M-22.9866 120.026C-22.7283 105.945 -18.9194 94.2004 -10.9787 83.8832C-5.62037 76.9401 0.38356 70.5811 7.16219 65.0007C21.1714 53.3208 35.3742 41.9654 50.0289 31.129C54.7417 27.6251 59.5836 24.3807 64.3609 21.0714C66.0394 19.9683 67.7825 18.9949 69.5901 18.0865C70.6231 17.5674 71.7206 17.3078 72.8181 17.1781C74.7548 16.9185 76.4979 17.5025 77.9182 18.93C78.6283 19.6438 79.2093 20.4225 79.7258 21.266C80.9524 23.1478 82.0499 25.0295 83.212 26.9762C90.8944 39.5645 98.5769 52.1528 106.195 64.806C110.456 71.8788 114.587 79.0814 118.977 86.1543C124.077 94.3951 129.5 102.441 135.375 110.163C135.569 110.422 135.762 110.682 135.956 110.942C137.376 113.018 137.376 114.77 135.892 116.846C135.375 117.625 134.73 118.339 134.149 118.988C127.37 126.774 119.687 133.458 110.843 138.844C99.5452 145.722 88.1829 152.47 76.2396 158.245C64.1027 164.15 51.4492 168.497 38.1502 170.963C31.2425 172.261 24.3347 172.65 17.3624 171.158C16.0712 170.898 14.8446 170.639 13.618 170.12C-6.07228 162.528 -18.6612 148.901 -22.2764 127.553C-22.7283 124.763 -22.7929 121.843 -22.9866 120.026Z" fill="#EA552B"/>
</mask>
<g mask="url(#mask1)">
</g>
<g clip-path="url(#clip0)">
<path d="M88.2656 127.324C88.6175 126.043 88.3242 125.112 88.0309 124.181C87.151 121.561 86.2711 119 85.2738 116.438C82.3994 109.162 79.4076 101.944 76.6505 94.6088C73.3068 85.5277 70.9603 76.2138 69.7284 66.6088C69.2005 62.3593 68.7312 58.1099 69.3765 53.8022C69.6111 52.114 69.9631 50.3677 70.6084 48.7959C71.8989 45.6525 74.2454 45.245 76.5919 47.6899C77.7651 48.9124 78.821 50.3094 79.7596 51.7647C81.8714 55.2575 83.9832 58.8084 85.9777 62.4176C92.5479 74.2346 100.174 85.2949 109.384 95.3074C114.077 100.43 118.711 105.611 123.463 110.734C126.865 114.343 130.385 117.777 133.904 121.27C134.902 122.26 136.016 123.191 136.955 124.297C136.486 124.006 136.016 123.715 135.664 123.366C132.849 120.862 129.915 118.418 127.217 115.798C117.538 106.426 108.387 96.5298 99.7633 86.2263C94.8357 80.2887 90.6707 73.8271 86.8577 67.0745C84.6285 63.1161 82.3994 59.0995 80.1116 55.141C79.173 53.5111 78.1171 51.9976 77.0612 50.4259C76.5919 49.7855 76.0639 49.2034 75.5359 48.6213C73.9521 47.1078 72.9548 47.2824 72.0162 49.3198C71.7229 49.9602 71.4883 50.6005 71.3123 51.299C70.491 54.4425 70.4324 57.6442 70.667 60.8458C71.6643 74.6421 75.4186 87.7398 80.5222 100.546C82.81 106.309 85.2738 112.014 87.5616 117.777C88.5002 120.106 89.0868 122.551 89.7908 124.996C89.9667 125.636 89.9667 126.393 89.9081 127.091C89.7321 128.314 88.7935 128.896 87.6789 128.43C86.7404 128.023 85.8018 127.499 85.0978 126.8C83.162 124.996 81.2261 123.133 79.4663 121.154C73.7174 114.517 69.0832 107.124 65.0355 99.3822C61.3398 92.3968 57.8788 85.2367 54.2417 78.193C52.5405 74.9331 50.722 71.7315 48.8448 68.588C48.0822 67.3074 47.085 66.1431 46.0877 65.0953C44.6212 63.5818 43.6239 63.8729 42.9787 65.8521C42.0987 68.4716 42.1574 71.1494 42.3334 73.8853C43.096 83.6067 45.7944 92.8043 49.0795 101.885C51.5433 108.696 54.2417 115.449 56.7055 122.318C58.348 126.917 59.9319 131.573 60.8705 136.347C61.1052 137.453 61.1638 138.675 61.0465 139.84C60.8705 141.819 59.5213 142.75 57.6441 142.226C56.5295 141.935 55.4736 141.411 54.4764 140.771C52.0712 139.316 49.9594 137.395 47.9649 135.474C41.9814 129.536 37.0538 122.842 32.6542 115.682C28.9585 109.686 25.8494 103.341 22.7403 97.0537C21.5085 94.5506 20.2179 92.0475 18.81 89.6608C18.1647 88.5548 17.4021 87.4487 16.5222 86.4591C14.8797 84.6546 13.4718 84.8292 12.4159 87.0413C11.8879 88.1473 11.4773 89.3697 11.184 90.5922C10.3627 94.0849 10.1867 97.6941 10.2454 101.303C10.3627 111.257 12.8852 120.746 16.6982 129.885C18.634 134.542 20.8632 139.141 22.9163 143.798C24.3242 146.883 25.6734 150.027 26.2601 153.403C26.436 154.334 26.436 155.266 26.3774 156.197C26.3187 156.954 25.9667 157.652 25.2041 158.002C24.5589 158.351 24.2656 158.235 23.8549 157.478C24.2656 157.361 24.7935 157.361 25.0282 157.129C25.3215 156.721 25.5561 156.081 25.5561 155.615C25.4388 154.276 25.2628 152.937 24.8522 151.657C24.0309 149.212 23.0337 146.767 22.0364 144.38C19.6313 138.85 17.0502 133.436 14.821 127.848C12.2986 121.619 10.48 115.158 9.71743 108.463C8.95483 102.176 8.89617 95.9477 10.4214 89.719C10.656 88.6712 11.0667 87.6816 11.5359 86.692C13.0025 83.7232 15.2903 83.3739 17.5195 85.8188C18.2821 86.6338 18.9273 87.5652 19.514 88.4966C20.8632 90.825 22.1537 93.2117 23.4443 95.5984C26.3187 101.07 29.0172 106.601 32.0089 111.956C35.9979 119.116 40.7495 125.869 46.2637 131.981C48.5515 134.542 50.898 136.987 53.7724 138.908C54.887 139.723 56.1776 140.422 57.4681 140.887C59.1107 141.528 59.9319 140.946 59.8733 139.199C59.8733 137.86 59.6386 136.522 59.2866 135.183C57.8201 129.187 55.8256 123.424 53.7138 117.603C50.9567 110.734 48.3169 103.865 45.9118 96.9373C43.8586 90.9415 42.2747 84.8292 41.3948 78.5423C40.9255 75.3406 40.5735 72.0808 40.9255 68.8209C41.1015 67.4238 41.3361 66.0267 41.8054 64.746C42.6854 62.4176 44.5625 62.0101 46.4984 63.64C47.437 64.455 48.3169 65.4446 48.9622 66.4924C50.6047 69.0537 52.2472 71.6151 53.5964 74.2928C57.0575 80.9872 60.3425 87.6816 63.6863 94.4342C67.3233 101.652 71.2536 108.696 76.0052 115.216C78.2344 118.301 80.5809 121.27 83.338 123.89C84.3352 124.879 85.4498 125.752 86.5644 126.567C87.0337 126.8 87.6203 126.975 88.2656 127.324Z" fill="#FBE8DE"/>
</g>
</g>
<defs>
<clipPath id="clip0">
<rect width="128" height="112" fill="white" transform="translate(9.01343 46.1182)"/>
</clipPath>
</defs>
</svg>
