<svg width="158" height="111" viewBox="0 0 158 111" fill="none" xmlns="http://www.w3.org/2000/svg">
<g clip-path="url(#clip0)">
<path d="M131.941 76.7712C131.682 78.8409 132.005 80.7812 132.135 82.7215C132.329 85.7613 132.587 88.8011 132.782 91.8409C132.846 92.7464 132.717 93.6519 132.652 94.7514C121.075 93.7165 109.692 95.1394 98.05 95.3335C98.2441 95.8509 98.3734 96.1743 98.5674 96.433C100.184 99.1494 101.284 101.995 101.866 105.1C101.995 105.746 102.06 106.458 101.995 107.105C101.931 108.075 101.219 108.334 100.508 107.751C99.9903 107.299 99.6023 106.781 99.2789 106.134C98.7615 105.1 98.2441 104.065 97.9207 103.03C96.3684 98.632 93.7167 94.9454 90.6122 91.6469C89.254 90.224 87.8311 88.8658 86.4082 87.5076C85.1147 86.214 83.6918 85.1145 82.0102 84.5324C80.7166 85.4379 79.4878 86.4727 78.0649 87.2488C74.7017 89.1245 71.0151 89.9653 67.2639 90.224C57.1096 90.8708 47.0847 89.9006 37.3832 86.8608C34.0847 85.826 30.8508 84.5324 27.617 83.3682C26.9702 83.1095 26.2588 82.9155 25.5473 82.7215C24.0597 82.3981 23.2189 81.4926 22.8956 80.0051C22.4428 77.9354 22.6369 75.8657 23.413 73.9254C24.1891 71.9204 25.1593 69.9801 26.1941 68.0398C27.0996 66.3582 28.1344 64.7413 29.2339 63.1891C33.3732 57.3035 36.413 50.9005 38.418 43.9801C38.8707 42.3631 39.3882 40.6815 39.9702 39.1293C40.4877 37.6417 41.0698 36.0895 41.7812 34.6666C43.8509 30.6566 46.5026 27.0994 50.9006 25.0944C50.9006 24.5123 50.9006 23.9949 50.9006 23.4128C50.7713 17.2039 50.7066 10.9949 50.5126 4.7859C50.4479 3.29833 50.9653 2.06947 51.8061 0.905291C52.3235 0.193846 52.9056 -0.258892 53.8758 -0.000184938C54.5225 0.193846 55.234 0.0644919 55.8807 0.129169C65.6469 0.581906 75.4131 0.775937 85.1793 0.71126C95.7863 0.646583 106.393 0.775937 117 0.71126C125.99 0.646583 134.981 0.452553 143.971 0.387876C146.364 0.387876 148.757 0.51723 151.085 0.840614C154.06 1.22867 156.13 2.8456 156.971 5.82073C157.1 6.20879 157.165 6.59685 157.165 7.04959C157.1 11.8357 156.971 16.5571 156.971 21.3432C156.971 23.4128 157.1 25.4825 157.035 27.5521C156.906 32.6616 156.841 37.7711 156.518 42.8806C156.195 47.5373 156.13 52.194 156.259 56.8507C156.389 59.8906 156.453 62.9304 156.518 66.0349C156.583 67.199 156.647 68.2985 156.777 69.4627C157.035 71.9204 156.906 74.3135 156.324 76.7065C156.13 77.5473 155.677 77.9354 154.642 77.9354C153.09 77.9354 151.538 77.8707 149.986 77.806C144.035 77.418 138.085 77.0946 131.941 76.7712ZM78.647 63.3831C79.0997 63.3831 79.6818 63.4478 80.2639 63.4478C95.1396 63.5125 110.015 63.5771 124.956 63.5125C131.294 63.4478 137.632 63.0597 144.035 62.801C145.652 62.7363 147.204 62.607 148.821 62.413C150.244 62.2189 150.309 62.0896 150.05 60.602C149.986 60.1493 149.856 59.6965 149.792 59.2438C149.339 52.6468 149.403 45.985 149.986 39.388C150.568 32.3382 150.568 25.3531 150.309 18.3034C150.18 14.8755 150.115 11.5123 149.986 8.08442C149.986 7.76103 149.921 7.50233 149.856 7.17894C147.787 7.04959 145.782 6.85556 143.777 6.85556C135.951 6.72621 128.189 6.66153 120.364 6.59685C114.413 6.53217 108.463 6.53217 102.513 6.59685C97.1446 6.66153 91.7764 7.04959 86.4082 7.04959C77.2241 7.11427 67.9753 6.98491 58.7912 6.92024C58.2091 6.92024 57.6917 6.92024 57.1743 6.92024C57.1743 12.8705 57.1743 18.6267 57.1743 24.4477C61.2489 25.0944 63.7713 27.6168 65.4529 30.98C66.0997 32.2089 66.6171 33.5671 66.9405 34.8606C67.5872 37.6417 67.9753 40.4228 68.4927 43.2686C68.7514 44.6268 69.0101 46.0497 69.5276 47.2786C70.8858 50.4477 73.2141 52.9701 75.4131 55.6219C75.6072 55.4279 75.8012 55.3632 75.8659 55.2985C78.3236 52.7114 80.652 50.0597 83.1744 47.4726C84.1445 46.5025 85.3087 45.6617 86.4082 44.8209C86.7963 44.5622 87.3784 44.4328 87.8311 44.3034C87.6371 45.0796 87.249 45.597 86.8609 46.0497C85.1147 48.0547 83.3037 49.9303 81.6221 51.9353C80.2639 53.5522 78.9057 55.2338 77.6122 56.8507C77.2241 57.3035 77.0301 57.7562 77.2888 58.403C77.7415 59.9552 78.1296 61.5722 78.647 63.3831ZM154.384 75.8657C154.254 72.5025 154.06 69.3334 154.06 66.2289C154.06 53.1642 154.125 40.0348 154.254 26.9701C154.319 20.8904 154.448 14.8755 154.578 8.79586C154.578 8.01974 154.578 7.24362 154.772 6.4675C155.16 5.04461 154.513 4.07446 153.413 3.49236C152.249 2.91027 150.956 2.39286 149.662 2.19883C147.592 1.94012 145.523 1.87544 143.453 1.87544C134.916 2.0048 126.378 2.32818 117.841 2.32818C105.747 2.39286 93.652 2.39286 81.5574 2.32818C73.8609 2.32818 66.1644 2.06947 58.4678 1.94012C56.7215 1.87544 54.9753 1.94012 52.9703 1.94012C52.8409 2.78092 52.5822 3.62172 52.5822 4.52719C52.7116 10.8008 52.9056 17.0098 53.0996 23.2835C53.0996 23.6069 53.229 23.9949 53.2937 24.383C53.9404 24.3183 54.4579 24.2536 55.0399 24.1889C55.1046 23.8009 55.1046 23.4775 55.1693 23.1541C55.234 20.6317 55.2987 18.1093 55.2987 15.5223C55.2987 13.1939 55.1693 10.8655 55.0399 8.53716C54.9753 7.50233 55.234 6.59685 55.8161 5.75605C56.2041 5.23864 56.6569 5.04461 57.239 5.04461C60.6668 5.17396 64.1594 5.36799 67.5872 5.36799C78.647 5.23864 89.7067 5.04461 100.766 4.91525C106.846 4.85058 112.99 4.7859 119.07 4.7859C127.995 4.7859 136.985 4.7859 145.911 4.7859C147.398 4.7859 148.886 4.97993 150.374 5.23864C151.796 5.43267 151.926 5.69138 151.926 7.11427C151.926 9.05457 151.991 10.9302 152.055 12.8705C152.185 21.6019 152.249 30.3332 151.926 39.0646C151.732 42.9452 151.926 46.8258 151.861 50.7065C151.796 54.3284 152.637 57.9503 151.732 61.5075C151.667 61.7015 151.796 61.8955 151.796 62.0896C151.926 62.995 151.473 63.5125 150.697 63.7065C149.986 63.9005 149.209 64.0946 148.433 64.1592C145.588 64.3533 142.742 64.4826 139.896 64.612C133.946 64.8707 127.995 65.1941 122.045 65.1941C107.946 65.2587 93.7814 65.0647 79.6818 65C79.1644 65 78.647 65.0647 78.1943 65.0647C77.4828 67.2637 77.6768 69.204 79.2291 70.9503C80.0052 71.7911 80.5873 72.7612 81.1047 73.7961C81.4928 74.5075 82.0102 74.7662 82.851 74.7016C84.5973 74.5722 86.3435 74.6369 88.0898 74.5075C102.383 73.6667 116.742 73.9254 131.035 74.4428C136.339 74.6369 141.642 75.0896 147.01 75.413C149.533 75.6717 151.926 75.7364 154.384 75.8657ZM130.647 93.4578C130.841 87.7663 129.612 82.2687 129.483 76.5772C117.194 75.9951 105.1 75.607 92.8759 76.3185C93.0699 80.3284 93.264 84.0797 93.3286 87.8309C93.3933 89.3832 93.7814 90.6767 94.9455 91.6469C95.2043 91.8409 95.463 92.1643 95.657 92.4877C96.1097 93.2638 96.7565 93.3932 97.5973 93.3932C107.105 93.3932 116.612 93.3932 126.12 93.4578C127.607 93.4578 129.095 93.4578 130.647 93.4578ZM90.7416 76.3185C87.9604 76.4478 85.3734 76.5772 82.851 76.7065C82.9803 78.6468 83.045 80.3931 83.1744 82.3334C86.4082 82.9802 88.5425 85.5673 91.259 87.8956C91.0649 83.8857 90.8709 80.1991 90.7416 76.3185Z" fill="black"/>
<path d="M19.3385 83.1092C18.239 84.3381 17.2041 85.6316 16.1046 86.7958C14.423 88.5421 12.6768 90.2237 11.0598 92.0346C7.826 95.5918 5.43296 99.6665 4.13942 104.388C3.81604 105.552 3.3633 106.652 2.97524 107.751C2.84589 108.074 2.78121 108.527 2.5225 108.721C2.13444 109.045 1.61703 109.368 1.22896 109.303C0.840903 109.239 0.323489 108.786 0.194135 108.333C0.000104524 107.751 0.000104524 106.975 0.129458 106.328C0.90558 100.507 3.23395 95.3331 7.30859 91.1938C9.83098 88.6067 12.6768 86.4077 15.4579 84.0794C16.1693 83.4973 17.1395 83.1092 18.0449 82.7212C18.3683 82.5918 18.7564 82.6565 19.1444 82.5918C19.2091 82.7858 19.2738 82.9799 19.3385 83.1092Z" fill="black"/>
<path d="M15.7166 109.045C15.1345 108.204 15.1345 107.169 15.0698 106.264C14.8758 102.383 15.1345 98.5674 15.7166 94.6868C15.8459 93.9107 16.1046 93.0699 16.428 92.3585C16.5574 92.0998 17.0101 91.9704 17.3335 91.7764C17.3982 92.0998 17.6569 92.4231 17.5922 92.6818C17.0101 98.1147 16.3633 103.483 15.7166 109.045Z" fill="black"/>
<path d="M82.3983 110.015C82.269 109.692 82.2043 109.368 82.0749 109.11C81.2341 106.523 80.5227 103.871 79.5525 101.284C79.0998 99.9903 78.3883 98.7614 77.7416 97.5326C77.4829 97.0798 77.0948 96.6271 77.6122 96.1743C78.1943 95.7216 78.647 96.1743 79.0351 96.6271C79.2938 96.9505 79.4878 97.3385 79.6819 97.6619C81.0401 100.896 82.0102 104.259 82.657 107.687C82.7864 108.398 82.657 109.174 82.657 109.886C82.5923 109.951 82.463 109.951 82.3983 110.015Z" fill="black"/>
<path d="M119.717 39.1942C121.916 40.423 123.791 41.5872 125.667 42.5574C128.189 43.7862 130.13 45.5325 131.488 48.0549C133.105 51.0947 134.657 54.1345 135.498 57.4331C135.692 58.1445 135.757 58.7913 135.692 59.5674C133.105 54.7813 130.841 49.8012 127.478 45.3385C126.896 45.8559 126.378 46.3733 125.796 46.826C122.757 49.3484 119.07 50.3833 115.254 50.836C110.274 51.4181 105.423 50.7713 100.702 49.4131C97.9207 48.637 95.2042 47.7315 92.4231 46.7614C91.3883 46.438 90.4182 45.9206 89.5127 45.3385C88.6072 44.7564 88.7366 44.1096 89.7067 43.6569C90.8062 43.1395 91.9704 42.6867 93.1346 42.1693C93.9754 41.7813 94.8809 41.4579 95.7217 41.0698C96.4331 40.7464 96.9505 40.2937 96.8858 39.3235C94.4928 37.9653 93.7814 35.5723 93.1993 33.0499C92.4231 29.2986 91.647 25.5474 90.8062 21.6668C90.6122 21.6668 90.4182 21.7314 90.1594 21.6668C89.3186 21.5374 89.1246 21.1493 89.3833 20.3732C89.5774 19.8558 89.7714 19.3384 89.7714 18.821C89.642 14.7463 91.9704 11.3185 95.851 9.8309C97.856 9.05478 99.9903 8.92543 102.125 8.99011C104.259 9.05478 106.458 9.31349 108.592 9.5722C110.662 9.8309 112.214 10.9304 112.99 12.806C114.219 15.8458 116.418 18.2389 118.423 20.6966C121.528 24.3832 122.757 28.6519 122.692 33.3086C122.692 34.3434 122.433 35.3783 122.174 36.3484C121.98 37.5773 121.528 38.7414 119.717 39.1942ZM92.4878 24.1245C93.2639 26.5175 93.9754 28.9752 94.8162 31.3683C95.3336 32.8559 95.851 34.2787 96.4978 35.7016C96.9505 36.8011 97.856 37.3186 99.0849 37.2539C100.766 37.1892 102.319 36.8011 103.871 36.0897C104.194 35.9603 104.518 35.7016 104.841 35.7016C105.164 35.7016 105.617 35.831 105.747 36.025C105.941 36.2837 105.941 36.7365 105.747 36.9952C105.488 37.3832 105.164 37.7713 104.776 37.9006C103.612 38.4181 102.448 38.9355 101.219 39.3235C100.378 39.5822 99.5376 39.6469 98.6968 39.7763C98.1794 41.7166 97.7266 42.3633 95.9804 43.1395C95.1396 43.5275 94.2341 43.7862 93.3933 44.1096C93.0699 44.239 92.8112 44.3683 92.2938 44.627C94.8162 45.4678 97.0152 46.244 99.2789 47.0201C102.383 48.1196 105.617 48.9604 108.916 49.3484C112.279 49.7365 115.642 49.6072 118.941 48.7664C121.398 48.1196 123.468 46.6967 125.408 44.8211C124.632 44.433 124.05 44.1743 123.403 43.9156C121.075 42.9454 119.005 41.7166 117.065 40.035C114.931 38.224 113.637 36.025 113.508 33.1146C113.378 29.4927 112.214 26.0648 110.403 22.9603C108.657 19.9852 106.005 18.0449 102.383 18.4329C99.3436 18.7563 96.3038 19.4031 93.1993 19.9852C92.6819 20.0498 92.2291 20.3085 91.7764 20.5673C91.5823 20.6966 91.5823 21.0847 91.453 21.4727" fill="black"/>
</g>
<defs>
<clipPath id="clip0">
<rect width="157.1" height="110.015" fill="white"/>
</clipPath>
</defs>
</svg>
