<?xml version="1.0" encoding="UTF-8"?>
<svg width="200px" height="68px" viewBox="0 0 200 68" version="1.1" xmlns="http://www.w3.org/2000/svg" xmlns:xlink="http://www.w3.org/1999/xlink">
    <!-- Generator: Sketch 61.2 (89653) - https://sketch.com -->
    <title>Group 4</title>
    <desc>Created with Sketch.</desc>
    <defs>
        <polygon id="path-1" points="0.000164383562 0 200 0 200 67.0487671 0.000164383562 67.0487671"></polygon>
    </defs>
    <g id="Page-1" stroke="none" stroke-width="1" fill="none" fill-rule="evenodd">
        <g id="Artboard" transform="translate(-768.000000, -715.000000)">
            <g id="Group-4" transform="translate(768.000000, 715.000000)">
                <mask id="mask-2" fill="white">
                    <use xlink:href="#path-1"></use>
                </mask>
                <g id="Clip-2"></g>
                <path d="M130.527123,52.0509589 L136.945205,52.0509589 L136.945205,24.049863 L130.527123,24.049863 L130.527123,52.0509589 Z M190.029589,23.4657534 C185.68,23.4657534 183.082192,25.7463014 181.278904,28.3978082 L181.278904,24.050411 L174.862466,24.050411 L174.862466,52.0509589 L181.278904,52.0509589 L181.278904,36.2465753 C181.278904,31.8980822 183.877808,29.299726 187.590685,29.299726 C191.409315,29.299726 193.583014,31.7912329 193.583014,36.139726 L193.583014,52.0509589 L200,52.0509589 L200,34.2317808 C200,27.7090411 196.340274,23.4657534 190.029589,23.4657534 L190.029589,23.4657534 Z M156.089315,47.1189041 C151.103562,47.1189041 147.550137,43.0350685 147.550137,38.049863 C147.550137,33.1189041 150.838356,29.0871233 155.983014,29.0871233 C161.020274,29.0871233 164.574795,33.170411 164.574795,38.1561644 C164.574795,43.0882192 161.286027,47.1189041 156.089315,47.1189041 L156.089315,47.1189041 Z M156.089315,23.4657534 C147.49863,23.4657534 141.133151,30.0942466 141.133151,38.1561644 C141.133151,46.1632877 147.444384,52.6865753 155.983014,52.6865753 C164.628493,52.6865753 170.992877,46.0580822 170.992877,38.049863 C170.992877,29.989589 164.68,23.4657534 156.089315,23.4657534 L156.089315,23.4657534 Z M76.6487671,44.6263014 L69.1183562,24.050411 L62.2235616,24.050411 L73.7326027,52.2624658 L79.5128767,52.2624658 L90.9682192,24.050411 L84.2328767,24.050411 L76.6487671,44.6263014 Z M117.589041,35.5046575 C114.300274,34.4427397 111.276712,33.5950685 111.276712,31.580274 L111.276712,31.4739726 C111.276712,29.830137 112.708493,28.6630137 115.201096,28.6630137 C116.416986,28.6630137 117.777534,28.9419178 119.18411,29.4350685 L119.183562,29.4317808 C119.183562,29.4317808 119.196712,29.4389041 119.223562,29.4509589 C119.344658,29.4936986 119.466849,29.5419178 119.590137,29.5879452 C120.604932,29.9090411 123.343014,30.3375342 125.650411,26.7545205 C122.68,24.7917808 118.862466,23.5715068 115.36,23.5715068 C109.792329,23.5715068 105.390685,26.8065753 105.390685,32.1106849 L105.390685,32.2169863 C105.390685,37.5726027 110.004384,39.269589 114.140822,40.4367123 C117.429589,41.4443836 120.399452,42.1863014 120.399452,44.3605479 L120.399452,44.4663014 C120.399452,46.3227397 118.808219,47.489863 116.050411,47.489863 C114.216986,47.489863 112.208767,47.0054795 110.208219,46.0630137 C109.632329,45.819726 106.63726,44.7956164 104.075616,48.4383562 C107.566027,51.1627397 111.936986,52.5813699 115.892055,52.5813699 C121.723836,52.5813699 126.286027,49.6657534 126.286027,43.7775342 L126.286027,43.6712329 C126.286027,38.6339726 121.672329,36.7769863 117.589041,35.5046575 L117.589041,35.5046575 Z M94.1479452,52.0509589 L100.564932,52.0509589 L100.564932,24.049863 L94.1479452,24.049863 L94.1479452,52.0509589 Z" id="Fill-1" fill="#000000" mask="url(#mask-2)"></path>
                <path d="M49.8100274,51.6321644 C45.653863,51.6321644 43.6670137,49.1642192 43.6670137,45.7899726 C43.6670137,44.8272329 43.7864658,43.8020274 44.0878356,42.7784658 L46.0757808,35.6710685 C46.3168767,34.8875068 46.3771507,34.1653151 46.3771507,33.5023014 C46.3771507,31.2146301 44.9919452,29.8283288 42.7629041,29.8283288 C39.9316712,29.8283288 38.064274,31.8606575 37.1009863,35.776274 L33.2456438,51.2387397 L26.4998904,51.2387397 L27.7108493,46.3795616 C25.7278356,49.6365479 22.973863,51.6540822 19.5771507,51.6540822 C15.4812603,51.6540822 13.553589,49.2946301 13.553589,45.7401096 C13.553589,44.8381918 13.674137,43.7324384 13.9152329,42.7083288 L16.9870137,30.1592877 L12.2286575,30.1592877 L13.674137,24.825589 L25.1185205,24.825589 L20.6007123,42.746137 C20.2993425,43.8918904 20.1787945,44.8414795 20.1787945,45.5028493 C20.1787945,46.6491507 20.7431781,46.9844932 21.6248219,47.1828493 C22.1618082,47.3033973 26.4423562,47.2190137 28.7733151,42.0392877 L31.7398904,30.1592877 L26.9218082,30.1592877 L28.3672877,24.825589 L38.6670137,24.825589 L37.3420822,30.8803836 C39.1486575,27.5072329 42.7629041,24.3017534 46.3168767,24.3017534 C50.1113973,24.3017534 53.244,27.0053151 53.244,32.1850411 C53.244,33.5099726 53.0631781,34.9521644 52.5809863,36.5773699 L50.6533151,43.5017534 C50.4730411,44.226137 50.3519452,44.8283288 50.3519452,45.3696986 C50.3519452,46.5746301 50.834137,47.176274 51.7376986,47.176274 C52.6412603,47.176274 53.7853699,46.5121644 55.1108493,42.8398356 L57.7607123,43.8628493 C56.1946849,49.3444932 53.364,51.6321644 49.8100274,51.6321644 M22.4078356,13.0239452 C24.6368767,13.0239452 26.503726,14.7707945 26.503726,17.0584658 C26.503726,19.3483288 24.6368767,21.0951781 22.4078356,21.0951781 C20.1787945,21.0951781 18.3124932,19.3483288 18.3124932,17.0584658 C18.3124932,14.7707945 20.1787945,13.0239452 22.4078356,13.0239452 M60.9711233,-0.000164383562 L6.0779726,-0.000164383562 C2.72126027,-0.000164383562 0.000164383562,2.72093151 0.000164383562,6.07764384 L0.000164383562,60.9707945 C0.000164383562,64.3275068 2.72126027,67.0491507 6.0779726,67.0491507 L60.9711233,67.0491507 C64.3278356,67.0491507 67.0489315,64.3275068 67.0489315,60.9707945 L67.0489315,6.07764384 C67.0489315,2.72093151 64.3278356,-0.000164383562 60.9711233,-0.000164383562" id="Fill-3" fill="#000000" mask="url(#mask-2)"></path>
            </g>
        </g>
    </g>
</svg>