<?xml version="1.0" encoding="UTF-8"?>
<svg width="210px" height="55px" viewBox="0 0 210 55" version="1.1" xmlns="http://www.w3.org/2000/svg" xmlns:xlink="http://www.w3.org/1999/xlink">
    <!-- Generator: Sketch 61.2 (89653) - https://sketch.com -->
    <title>Group 19</title>
    <desc>Created with Sketch.</desc>
    <defs>
        <polygon id="path-1" points="0.356953215 0.062123412 44.9208675 0.062123412 44.9208675 41.3041797 0.356953215 41.3041797"></polygon>
        <polygon id="path-3" points="0 0.0858294011 37.2474978 0.0858294011 37.2474978 41.2526897 0 41.2526897"></polygon>
    </defs>
    <g id="Page-1" stroke="none" stroke-width="1" fill="none" fill-rule="evenodd">
        <g id="Artboard" transform="translate(-1024.000000, -728.000000)">
            <g id="Group-19" transform="translate(1024.000000, 728.000000)">
                <g id="Group-3" transform="translate(60.217786, 0.319002)">
                    <mask id="mask-2" fill="white">
                        <use xlink:href="#path-1"></use>
                    </mask>
                    <g id="Clip-2"></g>
                    <path d="M19.2025372,21.6769927 C19.0699056,24.170314 17.795804,28.9370472 15.5483085,32.8538711 C13.6739347,36.1418385 11.8818838,37.7822015 9.73043194,37.7822015 C8.13999637,37.7822015 6.96155717,36.4890436 7.08389837,34.2125826 C7.22834483,31.3815844 8.27910708,27.5783358 10.4115027,23.8322559 C12.5404682,20.0347241 14.624461,18.1054682 16.6146969,18.1054682 C18.3133721,18.1054682 19.3229728,19.4062486 19.2025372,21.6769927 M34.7436806,37.0462486 C34.0610853,37.0462486 33.6346062,36.4890436 33.6723376,35.8011125 C33.6986352,35.2953593 33.8617568,34.3844701 34.3377822,32.9670653 L44.9208675,0.0618566243 C41.3234265,0.514252269 37.3383811,0.798190563 32.9623013,0.912528131 L32.4588348,2.8368294 L33.0293793,2.8368294 C35.7513757,2.8368294 36.6969474,3.24005989 36.6077641,4.9383539 C36.5338258,6.30049546 36.0524646,7.89207441 35.3866388,9.82209256 L29.583245,27.2963031 C28.953245,29.2400417 28.4192886,30.9169927 28.0050054,32.3378276 L28.0046243,32.3378276 C27.2980181,34.5784628 24.2593067,37.3389528 23.0160762,37.3389528 C22.2713575,37.3389528 21.8433539,36.8229093 21.8982359,35.9116388 C21.9306316,35.1749238 22.3776915,33.2487169 23.3823376,30.3033811 L28.4246243,15.4939982 L22.2938439,15.4939982 L21.0811034,19.0144519 C20.5444791,16.3480998 18.474588,14.7534719 15.4701779,14.7534719 C12.0084174,14.7534719 8.32598548,16.8519474 5.03992377,20.9970653 C2.24551361,24.4546334 0.596384755,28.9370472 0.374188748,33.0223285 C0.116166969,37.902637 2.78175681,41.1909855 6.58271869,41.1909855 C10.2708675,41.1909855 13.2585082,39.488118 16.1161851,35.8014936 C15.9671652,36.4890436 15.8810309,37.0462486 15.8444428,37.6206044 C15.7160036,40.1726189 16.8990163,41.3041797 19.4540799,41.3041797 C22.0769837,41.3041797 24.7029365,39.7381361 27.0586715,36.5599328 C27.0552414,36.6106225 27.0491434,36.66398 27.0468566,36.7123829 C26.8936443,39.6051234 28.3945154,41.1909855 31.2392341,41.1909855 C34.7543521,41.1909855 38.8034265,38.1880998 41.565441,32.1141071 L40.1827187,31.4398966 C38.1711397,35.1196606 35.9899601,37.0462486 34.7436806,37.0462486" id="Fill-1" fill="#000000" mask="url(#mask-2)"></path>
                </g>
                <path d="M53.9005971,20.58 C53.5735917,26.8136842 50.4628475,31.9790744 47.7419946,31.9790744 C45.755951,31.9790744 45.138147,30.7892015 45.2757332,28.1228494 C45.597784,22.046951 48.5263503,17.171216 51.3055154,17.171216 C53.1162414,17.171216 54.0210327,18.3641379 53.9005971,20.58 M62.0117042,14.7186751 C60.6918675,14.7186751 59.223392,15.5258984 57.8208512,17.1525408 C57.7876933,17.1239564 57.7507241,17.0915608 57.719853,17.0641198 C55.9800163,15.6444283 53.9074574,15.0723593 51.2414864,15.0723593 C44.2116316,15.0723593 39.1243721,20.0677677 38.8133739,26.024755 C38.6605426,28.8603267 39.5184555,30.9008711 41.537657,32.3746824 C37.9825209,32.997441 35.1507604,35.7175318 34.9887822,38.60951 C34.7982196,41.9146279 37.7538457,43.2760073 42.9219038,44.1186751 L47.4188004,44.8504356 C50.844735,45.3718149 52.3837187,46.3200544 52.2735735,48.2637931 C52.1222668,50.9328131 48.0667132,52.8250998 43.0194719,52.8250998 C37.9120127,52.8250998 35.292539,51.0372414 35.4133557,48.8907441 C35.5406515,46.6886025 37.71802,46.3200544 37.7366951,46.0048639 C37.7660417,45.4293648 36.5754065,44.4845554 35.0421397,44.4845554 C33.107167,44.4845554 31.3787641,46.0559347 31.2583285,48.2096733 C31.0487096,51.8231216 35.1309419,54.8199093 42.3932831,54.8199093 C51.3036098,54.8199093 57.2472577,51.5624319 57.5601615,46.0559347 C57.8574392,40.9153176 54.63998,39.6050091 47.6078385,38.4978403 L43.905588,37.9189111 C41.5959691,37.5560799 40.1137731,37.2984392 40.1755154,36.1409619 C40.3165318,33.7261525 44.2116316,34.4178947 49.2775481,33.9704537 C55.7235191,33.396098 59.9433376,28.687677 60.2478566,22.9627949 C60.3339909,21.2610708 59.9056062,19.7255172 58.9581289,18.3111615 C58.9489819,18.2982033 58.9375481,18.2867695 58.9276388,18.2738113 C59.3019038,17.9197459 59.6620672,17.7699637 60.0668221,17.7699637 C60.9807604,17.7699637 61.2841361,18.9381125 62.6493267,18.9381125 C63.8201434,18.9381125 64.6715771,18.1800544 64.7405608,16.9036661 C64.8057332,15.6318512 63.8361506,14.7186751 62.0117042,14.7186751" id="Fill-4" fill="#000000"></path>
                <polygon id="Fill-6" fill="#000000" points="124.037319 20.3752976 109.758463 36.181323 119.994724 36.181323 118.793036 40.6938457 101.587519 40.6938457 102.914597 35.6786189 117.044053 19.8813593 107.462946 19.8813593 108.661966 15.3623575 125.364397 15.3623575"></polygon>
                <path d="M131.277212,36.6816261 C128.66498,36.6816261 128.45155,35.0271615 130.507339,27.3009909 C131.90645,22.0346025 132.857739,19.375873 135.868247,19.375873 C138.881423,19.375873 138.422929,22.0346025 137.029154,27.3009909 C134.974127,35.0271615 133.883728,36.6816261 131.277212,36.6816261 M130.078192,41.1968167 C139.207285,41.1968167 141.886595,35.6304828 143.994599,27.7007913 C145.830098,20.7795572 146.399118,14.8622069 137.065742,14.8622069 C127.735416,14.8622069 125.164345,20.7795572 123.320461,27.7007913 C121.218936,35.6304828 120.948719,41.1968167 130.078192,41.1968167" id="Fill-8" fill="#000000"></path>
                <path d="M153.826486,36.6816261 C151.217303,36.6816261 151.010352,35.0271615 153.052802,27.3009909 C154.457249,22.0346025 155.411586,19.375873 158.420951,19.375873 C161.431459,19.375873 160.977158,22.0346025 159.583002,27.3009909 C157.526831,35.0271615 156.4391,36.6816261 153.826486,36.6816261 M152.627085,41.1968167 C161.759227,41.1968167 164.441586,35.6304828 166.540443,27.7007913 C168.383946,20.7795572 168.95106,14.8622069 159.618828,14.8622069 C150.286214,14.8622069 147.711332,20.7795572 145.87469,27.7007913 C143.770116,35.6304828 143.499517,41.1968167 152.627085,41.1968167" id="Fill-10" fill="#000000"></path>
                <path d="M178.138846,17.9210417 L178.245561,17.9210417 C180.251423,15.6670672 182.365525,14.8621307 185.025016,14.8621307 C187.531296,14.8621307 189.215107,16.0638185 189.83939,18.0685372 C192.081169,15.8618221 194.358011,14.8621307 197.269045,14.8621307 C200.624091,14.8621307 203.054145,16.8672305 202.121913,20.3751071 L196.732421,40.6936552 L189.65302,40.6936552 L194.285216,23.2354519 C194.890062,20.9776661 194.95371,19.2229655 192.69478,19.2229655 C190.440425,19.2229655 189.573746,20.9776661 188.970806,23.2354519 L184.336323,40.6936552 L177.416232,40.6936552 L182.047285,23.2354519 C182.652131,20.9776661 182.71616,19.2229655 180.458374,19.2229655 C178.199064,19.2229655 177.332385,20.9776661 176.732113,23.2354519 L172.094581,40.6936552 L165.022802,40.6936552 L171.746232,15.3625481 L178.819154,15.3625481 L178.138846,17.9210417 Z" id="Fill-12" fill="#000000"></path>
                <g id="Group-16" transform="translate(0.000000, 0.319002)">
                    <mask id="mask-4" fill="white">
                        <use xlink:href="#path-3"></use>
                    </mask>
                    <g id="Clip-15"></g>
                    <path d="M30.03,16.8519093 C31.3921416,16.8519093 32.3015064,17.8809474 32.2226134,19.3486606 C32.0434846,22.7536334 28.630127,26.1578439 22.2584755,28.6591688 C24.3786751,20.8278076 27.080853,16.8519093 30.03,16.8519093 M21.8236116,30.4698947 C31.7564973,28.261274 37.0152632,24.3429256 37.2393648,20.0834701 C37.407441,16.9712015 34.9617604,14.8128893 30.7076407,14.8128893 C27.0774229,14.8128893 23.3507804,16.5675898 20.1744828,19.8639419 C17.9753902,22.1175354 16.352559,24.6573539 15.381833,27.305412 L13.147677,31.4646316 L13.1465336,31.4638693 C11.1349546,35.1436334 8.95415608,37.0702214 7.70787659,37.0702214 C7.02528131,37.0702214 6.59880218,36.5130163 6.63615245,35.8247042 C6.66245009,35.3193321 6.82595281,34.4080617 7.30197822,32.9910381 L17.8846824,0.0858294011 C14.2872414,0.53784392 10.3025771,0.821782214 5.92611615,0.936119782 L5.42264973,2.86080218 L5.99357532,2.86080218 C8.71557169,2.86080218 9.66076225,3.26365154 9.57157895,4.96194555 C9.49764065,6.32408711 9.01627949,7.91566606 8.35083485,9.84606534 L2.54705989,27.3202759 C1.05914701,31.9113103 0.0998548094,35.0304392 0.0106715064,36.7363557 C-0.142540835,39.6290962 1.35833031,41.2149583 4.203049,41.2149583 C7.64270417,41.2149583 11.5907804,38.3309837 14.3466969,32.5161561 C14.1706171,38.012363 17.2089474,41.2526897 22.3308893,41.2526897 C26.8742831,41.2526897 31.4721779,38.8108203 34.9789111,33.7578621 L33.5653176,32.5131071 C30.7602359,36.2035426 27.3849909,38.0234156 24.8882396,38.0234156 C22.3926316,38.0234156 21.2336298,36.368951 21.4058984,33.0771724 C21.4363884,32.4547949 21.5911252,31.6086969 21.8236116,30.4698947" id="Fill-14" fill="#000000" mask="url(#mask-4)"></path>
                </g>
                <path d="M206.811811,15.3384229 C208.44722,15.3384229 209.819652,16.6300563 209.819652,18.3211089 C209.819652,20.0453194 208.44722,21.3350472 206.811811,21.3350472 C205.169162,21.3350472 203.79025,20.0453194 203.79025,18.3211089 C203.79025,16.6300563 205.169162,15.3384229 206.811811,15.3384229 L206.811811,15.3384229 Z M206.811811,20.8940853 C208.197964,20.8940853 209.272737,19.7880599 209.272737,18.3211089 C209.272737,16.8854102 208.197964,15.7793848 206.811811,15.7793848 C205.408127,15.7793848 204.33526,16.8854102 204.33526,18.3211089 C204.33526,19.7880599 205.408127,20.8940853 206.811811,20.8940853 L206.811811,20.8940853 Z M205.642519,16.5808911 L206.995514,16.5808911 C207.829797,16.5808911 208.22388,16.9101833 208.22388,17.5836316 C208.22388,18.2170617 207.821031,18.4811815 207.300033,18.5368258 L208.302773,20.0849564 L207.718127,20.0849564 L206.763789,18.5776062 L206.185623,18.5776062 L206.185623,20.0849564 L205.642519,20.0849564 L205.642519,16.5808911 Z M206.185623,18.1374065 L206.756548,18.1374065 C207.236385,18.1374065 207.676966,18.1122523 207.676966,17.5596207 C207.676966,17.095029 207.276022,17.021853 206.908236,17.021853 L206.185623,17.021853 L206.185623,18.1374065 Z" id="Fill-17" fill="#000000"></path>
            </g>
        </g>
    </g>
</svg>