<svg width="171" height="240" viewBox="0 0 171 240" fill="none" xmlns="http://www.w3.org/2000/svg">
<path d="M99.0633 239.018C93.8521 238.728 89.2199 236.991 85.4563 233.228C83.1402 230.912 80.9689 228.306 79.087 225.411C72.573 215.423 65.7695 205.724 57.5184 197.039C57.3737 196.894 57.3737 196.894 57.2289 196.749C42.0295 177.497 26.2511 158.678 12.2098 138.557C7.28812 131.464 3.95874 123.792 1.06362 115.541C-0.818204 110.04 -0.239181 104.684 3.0902 99.9075C5.11679 97.0124 7.57764 94.2621 10.328 92.0907C29.291 76.8913 46.8065 60.0997 64.7562 43.5975C77.0605 32.4513 89.6542 21.7394 102.248 11.0274C105.288 8.42183 108.617 5.96098 112.091 3.9344C121.645 -1.85584 131.199 -1.27681 139.74 5.81622C143.503 8.8561 146.833 12.475 149.728 16.3834C161.308 31.5828 171.731 47.5059 181.429 64.0081C187.22 73.8515 193.299 83.6949 199.379 93.2488C206.038 103.671 212.118 114.528 217.329 125.674C219.645 130.596 221.672 135.662 222.685 141.018C223.843 147.243 222.685 153.033 218.776 158.099C216.171 161.284 213.276 164.469 210.091 166.93C202.419 173.009 194.313 178.655 186.351 184.59C177.376 191.104 168.257 197.473 159.427 204.132C146.398 214.12 132.502 222.95 118.605 231.78C114.697 234.241 110.354 235.833 106.012 237.57C103.985 238.439 101.379 238.584 99.0633 239.018Z" fill="#55BBDA"/>
<mask id="mask0" mask-type="alpha" maskUnits="userSpaceOnUse" x="0" y="0" width="224" height="240">
<path d="M99.0633 239.018C93.8521 238.728 89.2199 236.991 85.4563 233.228C83.1402 230.912 80.9689 228.306 79.087 225.411C72.573 215.423 65.7695 205.724 57.5184 197.039C57.3737 196.894 57.3737 196.894 57.2289 196.749C42.0295 177.497 26.2511 158.678 12.2098 138.557C7.28812 131.464 3.95874 123.792 1.06362 115.541C-0.818204 110.04 -0.239181 104.684 3.0902 99.9075C5.11679 97.0124 7.57764 94.2621 10.328 92.0907C29.291 76.8913 46.8065 60.0997 64.7562 43.5975C77.0605 32.4513 89.6542 21.7394 102.248 11.0274C105.288 8.42183 108.617 5.96098 112.091 3.9344C121.645 -1.85584 131.199 -1.27681 139.74 5.81622C143.503 8.8561 146.833 12.475 149.728 16.3834C161.308 31.5828 171.731 47.5059 181.429 64.0081C187.22 73.8515 193.299 83.6949 199.379 93.2488C206.038 103.671 212.118 114.528 217.329 125.674C219.645 130.596 221.672 135.662 222.685 141.018C223.843 147.243 222.685 153.033 218.776 158.099C216.171 161.284 213.276 164.469 210.091 166.93C202.419 173.009 194.313 178.655 186.351 184.59C177.376 191.104 168.257 197.473 159.427 204.132C146.398 214.12 132.502 222.95 118.605 231.78C114.697 234.241 110.354 235.833 106.012 237.57C103.985 238.439 101.379 238.584 99.0633 239.018Z" fill="#55BBDA"/>
</mask>
<g mask="url(#mask0)">
<path d="M236.292 248.572C234.41 247.993 232.962 246.545 231.66 244.953C229.054 241.768 227.462 238.005 226.159 234.241C222.974 224.832 221.237 214.988 220.079 205.145C219.211 197.473 218.632 189.656 217.763 181.984C217.763 181.405 217.618 180.971 217.329 179.668C216.171 181.405 215.592 182.418 214.868 183.432C206.617 196.315 197.642 208.619 186.496 219.331C182.443 223.24 177.955 226.858 173.323 230.043C170.573 231.925 167.243 233.372 163.914 234.241C156.531 236.268 150.307 233.228 146.977 226.424C144.661 221.792 143.793 216.726 143.793 211.659C143.793 205.724 144.227 199.934 144.517 193.999C144.517 193.275 144.661 192.551 144.806 190.959C143.648 192.407 142.924 193.275 142.201 194.144C136.266 202.105 129.896 209.777 122.803 216.726C118.026 221.358 113.105 225.7 107.314 229.03C103.985 231.056 100.511 232.504 96.7472 233.228C90.378 234.241 85.022 231.635 82.1269 225.845C80.1003 221.792 79.3765 217.305 79.087 212.817C78.3632 201.526 79.8108 190.38 81.4031 179.234C81.9821 175.615 82.5611 171.996 82.7059 168.088C81.9821 169.101 81.2583 170.114 80.6793 171.127C74.0205 181.839 67.217 192.117 58.8212 201.526C55.2023 205.579 51.2939 209.343 47.0959 212.817C44.6351 214.844 41.5952 216.436 38.7001 217.449C32.4756 219.621 26.9749 217.594 23.356 212.093C21.0399 208.619 20.0266 204.711 19.3028 200.802C17.8553 192.117 17.7105 183.432 18.579 174.891C19.4476 165.048 20.7504 155.06 21.7637 145.216C21.9084 144.058 22.0532 142.9 21.6189 141.452C20.8951 142.321 20.1714 143.19 19.4476 144.203C11.9203 154.481 3.66919 164.179 -6.02945 172.575C-9.64835 175.615 -13.5568 178.365 -17.4652 180.971C-18.6232 181.695 -20.0708 182.708 -21.6631 180.971C-21.2288 180.392 -20.9393 179.813 -20.3603 179.523C-13.8463 175.325 -8.20079 169.825 -2.84482 164.324C6.70906 154.481 15.1049 143.769 22.6322 132.333C23.6455 130.741 24.3693 128.859 24.8035 126.977C31.028 95.7096 39.2791 65.0214 51.8729 35.636C55.6365 26.9506 59.6897 18.5548 65.0457 10.8827C67.217 7.69808 69.6779 4.80296 72.2835 2.0526C73.8758 0.0260162 76.0471 -1.5663 78.508 -0.408252C81.1136 0.894551 81.2583 3.64491 80.8241 5.96101C79.5213 12.6198 78.3632 19.4233 76.3366 25.9373C65.7695 61.4025 50.7148 94.8411 31.1728 126.253C29.1462 129.438 27.8434 132.767 27.2644 136.531C24.9483 150.283 22.777 164.179 22.1979 178.221C21.9084 185.893 21.7637 193.565 23.5007 201.092C24.0798 203.553 24.9483 206.014 26.1063 208.185C28.8567 213.396 33.3441 215.133 38.5554 212.383C41.5952 210.935 44.6351 208.909 47.0959 206.448C52.1624 201.381 56.9394 196.025 61.4268 190.38C71.1254 177.931 79.087 164.324 86.4695 150.427C87.0486 149.269 87.6276 147.822 87.9171 146.519C94.1416 119.16 102.827 92.3803 111.223 65.6004C117.447 45.9136 123.817 26.0821 131.778 6.9743C133.37 3.06589 135.252 -0.84252 137.279 -4.60617C137.858 -5.76422 138.726 -6.92227 139.884 -7.7908C141.622 -9.23836 143.938 -8.51458 144.372 -6.19849C144.661 -4.60617 144.661 -3.01386 144.661 -1.42154C143.938 8.56661 141.477 18.2653 139.161 27.9639C129.028 70.9564 112.67 111.778 92.2598 150.862C90.957 153.322 89.9437 155.928 89.5094 158.678C87.3381 170.114 85.3115 181.405 83.5744 192.841C82.5611 199.934 82.1269 207.172 83.1402 214.265C83.5744 217.015 84.1535 219.765 85.1667 222.371C87.3381 227.872 91.536 229.898 97.1815 228.451C100.077 227.727 102.972 226.424 105.433 224.832C109.63 221.937 113.684 218.897 117.447 215.567C128.449 205.579 137.424 193.999 145.675 181.839C146.398 180.826 146.833 179.523 147.122 178.365C154.071 142.755 164.203 108.014 176.073 73.7068C182.443 55.178 189.246 36.9388 197.208 18.989C198.8 15.5149 200.537 12.0408 202.419 8.71137C203.432 6.82954 204.735 4.94771 207.341 5.67149C209.946 6.39527 210.091 8.71137 209.946 10.7379C209.512 17.252 209.223 23.766 208.209 30.1352C201.695 73.2725 188.378 114.238 168.112 152.888C163.48 161.863 157.979 170.259 153.057 179.089C152.333 180.537 151.465 181.984 151.175 183.432C149.583 192.841 148.136 202.25 148.859 211.804C149.149 215.278 149.728 218.897 150.886 222.371C153.202 229.03 157.979 231.201 164.638 228.74C167.533 227.727 170.428 226.279 172.889 224.398C177.521 220.779 182.008 217.015 186.206 212.817C198.076 200.658 207.775 186.906 216.316 172.141C217.184 170.548 217.474 168.956 217.474 167.219C217.329 148.98 221.382 131.609 228.041 114.817C229.488 111.343 231.37 107.869 233.397 104.685C234.41 102.947 236.002 101.5 237.739 100.342C240.635 98.46 243.819 99.6181 244.543 102.947C245.122 105.698 245.267 108.738 244.977 111.488C244.253 119.305 242.082 126.977 239.476 134.359C235.279 146.808 229.633 158.534 223.409 170.114C222.685 171.417 221.961 173.154 221.961 174.602C222.685 194.578 223.988 214.409 228.909 233.807C229.488 236.412 230.357 239.018 231.515 241.334C232.528 243.65 234.41 245.966 236.292 248.572ZM205.314 12.6198C193.444 29.8457 153.926 150.862 154.36 167.074C163.769 154.77 182.587 111.488 191.707 80.7998C198.366 58.5074 203.288 35.9255 205.314 12.6198ZM77.6394 3.50016C77.3499 3.3554 76.9157 3.21065 76.6261 3.06589C75.7576 3.93442 74.5996 4.51345 73.8758 5.52674C71.7044 8.2771 69.3884 10.8827 67.6513 13.9226C64.1771 19.8576 60.8478 25.7926 58.0974 32.0171C47.8197 54.4542 40.4372 78.1942 34.5022 102.368C33.1994 107.435 32.1861 112.357 31.028 117.423C31.1728 117.568 31.4623 117.568 31.6071 117.713C32.3308 116.555 33.0546 115.396 33.7784 114.238C47.0959 91.5117 58.0974 67.7718 67.0723 43.0185C71.1254 31.8723 75.0338 20.8709 77.0604 9.14564C77.4947 7.40857 77.4947 5.38198 77.6394 3.50016ZM96.892 129.727C98.9185 125.529 100.8 121.331 102.827 117.278C118.895 82.5369 131.199 46.4926 139.016 9.00088C139.74 5.81625 140.174 2.63162 140.753 -0.553008C133.805 7.69808 101.09 105.408 96.892 129.727ZM240.345 104.54C232.528 108.738 221.961 145.506 222.395 158.968C222.685 158.678 222.974 158.534 223.119 158.244C230.067 144.203 235.858 129.872 239.042 114.528C239.766 111.343 239.911 108.303 240.345 104.54Z" fill="black"/>
</g>
</svg>
