<svg width="275" height="550" viewBox="0 0 275 550" fill="none" xmlns="http://www.w3.org/2000/svg">
<path d="M111.196 486.416C105.96 497.327 99.3828 507.343 90.7931 515.794C85.6482 520.936 79.922 525.229 73.0333 527.822C69.4548 529.164 65.8316 529.924 62.0297 529.924C58.1384 529.879 54.3812 529.79 50.4898 529.745C44.9436 529.656 39.6212 528.448 34.6121 526.392C29.8713 524.469 25.1305 522.546 20.703 519.998C12.8766 515.526 6.03444 509.758 -0.0023803 503.051C-4.25051 498.356 -7.78291 493.124 -11.1363 487.759C-13.5061 484.003 -15.7864 480.291 -18.1562 476.535C-25.1313 465.67 -29.199 453.686 -31.7457 441.122C-34.0243 430.033 -35.0059 418.809 -36.1216 407.631C-38.888 377.18 -41.6991 346.819 -44.2418 316.368C-46.3832 291.149 -50.5821 266.244 -57.107 241.74C-61.889 224.033 -66.7157 206.416 -71.4977 188.709C-75.6093 173.461 -79.2736 157.99 -81.2381 142.251C-83.3812 124.633 -84.406 107.016 -82.7471 89.3981C-81.9848 80.4999 -80.2384 71.87 -76.6583 63.5978C-73.2125 55.5938 -68.3803 48.6183 -62.0723 42.716C-54.3774 35.3827 -44.8943 32.0738 -34.6512 30.8217C-23.0663 29.346 -11.5712 29.6142 0.0130495 31.2685C15.4438 33.5041 29.9346 38.7356 43.7988 45.6662C51.5806 49.5563 58.1992 55.1009 64.3703 61.3161C72.0619 68.9622 78.5008 77.5474 84.0003 86.8927C94.8652 105.404 102.643 125.168 107.962 146.05C112.52 164.204 115.065 182.581 116.045 201.183C117.025 221.125 117.289 241.157 117.284 261.055C117.324 281.982 117.588 302.908 119.059 323.879C120.664 347.488 121.911 371.142 123.427 394.707C123.65 398.507 124.051 402.398 124.408 406.154C125.479 419.434 125.789 432.669 123.773 445.86C122.295 455.518 120.325 465.043 116.566 474.12C114.865 478.412 112.986 482.392 111.196 486.416Z" fill="black"/>
<mask id="mask0" mask-type="alpha" maskUnits="userSpaceOnUse" x="-84" y="29" width="210" height="501">
<path d="M111.196 486.416C105.96 497.327 99.3828 507.343 90.7931 515.794C85.6482 520.936 79.922 525.229 73.0333 527.822C69.4548 529.164 65.8316 529.924 62.0297 529.924C58.1384 529.879 54.3812 529.79 50.4898 529.745C44.9436 529.656 39.6212 528.448 34.6121 526.392C29.8713 524.469 25.1305 522.546 20.703 519.998C12.8766 515.526 6.03444 509.758 -0.0023803 503.051C-4.25051 498.356 -7.78291 493.124 -11.1363 487.759C-13.5061 484.003 -15.7864 480.291 -18.1562 476.535C-25.1313 465.67 -29.199 453.686 -31.7457 441.122C-34.0243 430.033 -35.0059 418.809 -36.1216 407.631C-38.888 377.18 -41.6991 346.819 -44.2418 316.368C-46.3832 291.149 -50.5821 266.244 -57.107 241.74C-61.889 224.033 -66.7157 206.416 -71.4977 188.709C-75.6093 173.461 -79.2736 157.99 -81.2381 142.251C-83.3812 124.633 -84.406 107.016 -82.7471 89.3981C-81.9848 80.4999 -80.2384 71.87 -76.6583 63.5978C-73.2125 55.5938 -68.3803 48.6183 -62.0723 42.716C-54.3774 35.3827 -44.8943 32.0738 -34.6512 30.8217C-23.0663 29.346 -11.5712 29.6142 0.0130495 31.2685C15.4438 33.5041 29.9346 38.7356 43.7988 45.6662C51.5806 49.5563 58.1992 55.1009 64.3703 61.3161C72.0619 68.9622 78.5008 77.5474 84.0003 86.8927C94.8652 105.404 102.643 125.168 107.962 146.05C112.52 164.204 115.065 182.581 116.045 201.183C117.025 221.125 117.289 241.157 117.284 261.055C117.324 281.982 117.588 302.908 119.059 323.879C120.664 347.488 121.911 371.142 123.427 394.707C123.65 398.507 124.051 402.398 124.408 406.154C125.479 419.434 125.789 432.669 123.773 445.86C122.295 455.518 120.325 465.043 116.566 474.12C114.865 478.412 112.986 482.392 111.196 486.416Z" fill="black"/>
</mask>
<g mask="url(#mask0)">
<path d="M88.8 -6.27077C88.2184 -4.88447 87.9053 -3.81116 87.3238 -2.8721C85.4898 0.571272 83.5665 3.96981 81.7326 7.41318C71.6682 26.8659 64.6447 47.3923 60.9305 68.9028C55.7844 99.0892 53.0979 129.499 55.7779 160.134C60.1554 208.836 72.583 255.303 95.0284 298.953C109.783 327.576 125.701 355.663 142.648 383.034C157.582 407.275 171.577 432.052 183.739 457.813C187.137 464.879 190.401 471.99 192.681 479.504C193.798 483.082 194.513 486.793 195.139 490.461C195.452 492.294 195.318 494.351 195.049 496.23C194.288 500.881 191.202 503.698 186.462 503.563C183.913 503.518 181.14 503.026 178.77 502.176C175.058 500.879 171.481 499.313 168.082 497.39C140.356 481.063 116.075 460.534 95.9083 435.353C83.5222 419.878 73.3275 402.928 64.2509 385.307C48.6464 355.029 37.1564 323.231 28.4392 290.36C16.9058 247.023 12.0358 202.883 12.622 158.117C12.9376 134.012 13.7451 110.041 14.2843 85.9367C14.6888 67.9141 14.7354 49.936 13.1721 32.0473C11.9661 18.1389 9.77617 4.40923 5.35018 -8.87351C3.51719 -14.3744 1.32643 -19.8307 -1.62464 -24.8845C-4.2627 -29.4464 -7.39276 -33.6952 -11.7304 -36.8709C-14.1899 -38.66 -16.873 -40.002 -20.0929 -40.2706C-23.1786 -40.584 -25.9515 -39.7346 -28.3666 -37.8118C-30.7371 -35.9785 -32.4814 -33.6085 -34.0022 -31.0148C-38.3858 -23.1443 -40.5333 -14.6028 -41.5181 -5.7033C-42.8164 6.50549 -42.3257 18.7145 -41.6115 30.9235C-40.183 55.1179 -36.8762 79.1336 -32.496 103.015C-27.2666 131.235 -23.4236 159.544 -20.9222 188.077C-19.5375 203.64 -17.8845 219.113 -16.5892 234.632C-13.7307 268.486 -6.62348 301.447 4.68759 333.603C14.3892 361.152 26.1481 387.718 39.6065 413.568C46.8051 427.567 54.451 441.342 62.0521 455.206C75.1529 479.312 87.7617 503.731 98.4922 529C104.93 544.072 110.653 559.457 114.497 575.467C117.09 586.156 118.967 596.934 119.19 607.891C119.279 611.961 119.099 615.896 118.026 619.831C117.265 622.47 116.236 624.974 114.492 627.121C111.629 630.609 107.917 632.442 103.535 632.71C99.0177 633.022 94.7693 631.904 90.7446 630.114C83.2318 626.804 77.1502 621.526 71.6949 615.444C64.9875 608.064 59.6665 599.701 54.9717 590.979C49.2485 580.29 44.6434 569.154 40.888 557.66C27.5207 516.873 11.9172 476.98 -4.62551 437.4C-15.6688 410.745 -24.968 383.508 -31.7627 355.512C-37.7974 330.691 -41.596 305.423 -44.366 280.111C-49.3699 233.555 -52.4507 186.955 -53.2954 140.132C-53.6955 117.905 -54.677 95.7233 -57.0449 73.6307C-58.6086 59.5433 -60.6643 45.5453 -64.4195 31.8155C-66.4311 24.4362 -69.0242 17.3253 -72.467 10.572C-76.5358 2.61114 -81.678 -4.54483 -88.4303 -10.4935C-93.2598 -14.6978 -98.6708 -17.5158 -105.066 -18.5898C-114.189 -20.4691 -121.389 -17.2499 -126.265 -9.51365C-130.29 -3.2531 -132.303 3.67851 -132.975 11.0575C-133.826 20.1358 -132.709 29.0802 -130.921 38.0247C-128.507 50.1891 -124.931 62.0407 -121.131 73.8922C-114.201 95.5828 -105.796 116.782 -97.3904 137.98C-92.07 151.487 -86.6602 165.038 -81.5187 178.679C-72.264 203.768 -65.3797 229.573 -59.9265 255.781C-52.3278 292.453 -45.9365 329.304 -40.3056 366.334C-37.7583 382.926 -36.8656 399.696 -35.8835 416.512C-34.9013 431.985 -34.0532 447.504 -31.9083 462.888C-29.8079 477.468 -26.7237 491.868 -21.1797 505.598C-16.217 518.031 -9.7336 529.659 -0.656226 539.678C3.50235 544.33 8.10823 548.534 13.6534 551.531C16.4706 553.052 19.4668 554.215 22.6867 554.707C24.565 554.975 26.3986 554.886 28.0981 553.5C27.8745 553.947 27.8744 554.394 27.5613 554.797C26.5774 555.87 25.191 556.183 23.8046 556.049C21.3897 555.735 18.8853 555.377 16.6046 554.572C10.8358 552.47 6.14042 548.891 1.75819 544.687C-7.00631 536.279 -13.6687 526.35 -18.9894 515.527C-26.7693 499.784 -31.0607 483.102 -33.6974 465.795C-36.0213 450.545 -37.1377 435.116 -37.941 419.731C-39.1016 398.802 -40.7541 377.961 -44.2848 357.3C-46.5642 343.749 -48.9777 330.243 -51.3465 316.647C-55.4583 293.123 -59.7938 269.599 -65.1131 246.254C-72.2652 214.501 -82.3689 183.732 -94.5299 153.499C-102.712 133.418 -110.357 113.159 -117.957 92.8097C-123.77 77.3802 -128.508 61.5931 -132.308 45.493C-134.096 37.8901 -135.437 30.2874 -135.928 22.5505C-136.374 14.5006 -135.882 6.58502 -133.153 -1.10677C-131.676 -5.17624 -129.842 -9.06682 -127.204 -12.5548C-121.97 -19.4413 -114.994 -22.4369 -106.452 -21.4074C-98.0891 -20.4674 -91.1129 -16.7547 -85.0315 -11.0298C-78.1898 -4.58915 -72.9582 3.05873 -68.8894 11.4668C-64.463 20.7246 -61.6019 30.4294 -59.4116 40.3578C-55.8803 56.5473 -54.0485 73.005 -52.7086 89.552C-51.1008 109.364 -50.6557 129.265 -50.2106 149.166C-49.1868 194.513 -46.1953 239.727 -41.1466 284.851C-38.4212 309.359 -34.5331 333.777 -28.543 357.793C-22.1059 383.598 -13.522 408.688 -3.50706 433.375C5.1666 454.708 13.7061 476.086 22.2009 497.553C29.6226 516.247 35.7027 535.389 42.0511 554.441C45.6277 565.174 49.6962 575.818 54.7486 586.06C60.0693 596.66 66.2398 606.678 74.5123 615.399C78.7157 619.738 83.2321 623.674 88.4642 626.626C91.505 628.37 94.7696 629.668 98.2578 630.294C107.56 632.039 114.268 627.791 116.103 618.534C116.774 615.18 116.953 611.692 116.954 608.338C116.821 595.861 114.273 583.741 111.01 571.71C106.271 553.911 99.4304 537.184 92.0532 520.637C80.6967 495.278 67.5512 470.814 54.0926 446.529C41.9307 424.793 30.3503 402.789 20.1115 380.114C7.72664 352.565 -2.46685 324.21 -9.93218 294.872C-15.2965 273.629 -18.1116 251.984 -20.2112 230.249C-22.8468 202.879 -25.6167 175.554 -28.6995 148.184C-30.1293 136.065 -32.2299 123.945 -34.3753 111.915C-37.9955 91.2083 -41.4815 70.4572 -43.4023 49.4827C-44.5637 36.1556 -45.4566 22.7391 -45.321 9.27796C-45.2307 0.602031 -44.7378 -7.98441 -42.635 -16.4365C-41.0691 -23.1446 -38.7429 -29.5842 -34.5385 -35.3081C-34.0912 -35.9788 -33.5544 -36.6049 -33.0624 -37.1415C-26.0403 -45.3695 -17.5881 -43.9375 -11.3276 -39.9119C-6.76631 -36.9598 -3.23375 -32.8451 -0.327341 -28.3727C4.23346 -21.172 7.36313 -13.3455 9.73249 -5.11648C13.4877 7.71894 15.4988 20.912 16.6154 34.3285C17.9999 51.9042 17.9533 69.4349 17.5489 87.0104C16.9648 112.099 16.2466 137.232 15.9309 162.232C15.6596 190.495 17.3112 218.715 22.1382 246.621C29.602 290.27 41.9406 332.444 61.1218 372.561C68.1415 387.141 75.9215 401.318 84.6854 414.87C99.2622 437.366 117.193 456.732 138.121 473.461C146.573 480.259 155.293 486.745 164.684 492.336C169.916 495.512 175.103 498.553 181.096 500.208C182.974 500.701 184.807 501.059 186.73 501.014C190.219 500.97 192.321 499.226 192.724 495.738C193.037 493.77 192.948 491.713 192.68 489.79C192.054 485.004 190.713 480.308 188.835 476.015C185.035 467.294 181.234 458.573 176.987 450.075C164.914 425.477 150.964 401.952 136.521 378.74C121.14 353.829 106.742 328.292 93.1945 302.396C75.4437 268.585 63.9541 232.762 56.9816 195.285C48.5789 149.489 50.1937 104.008 59.6347 58.5274C62.5878 44.351 67.2403 30.8009 73.458 17.6982C77.3944 9.38047 82.1357 1.46528 87.8608 -5.73425C87.9055 -5.82367 88.1291 -5.82362 88.8 -6.27077Z" fill="#FBE8DE"/>
</g>
<path d="M108.591 190.415C106.691 190.615 104.891 190.915 102.991 191.115C89.6914 192.615 76.4914 194.715 63.7914 198.815C59.9914 200.015 56.2914 201.515 52.6914 203.215C50.3914 204.315 48.1914 205.715 46.2914 207.415C40.6914 212.315 41.2914 219.215 47.7914 222.915C50.5914 224.515 53.7914 225.515 56.7914 226.715C57.6914 227.115 58.5914 227.315 59.4914 228.015C58.7914 228.215 58.0914 228.415 57.3914 228.615C51.5914 230.015 45.6914 231.415 40.1914 233.915C37.4914 235.115 34.8914 236.515 32.3914 238.115C30.8914 239.015 29.5914 240.315 28.4914 241.615C25.2914 245.515 25.1914 250.315 28.0914 254.515C29.5914 256.715 31.6914 258.415 33.8914 259.815C37.7914 262.315 41.8914 264.115 46.1914 265.615C56.4914 269.315 67.1914 271.915 77.8914 274.215C88.9914 276.515 100.191 278.615 111.291 280.815C111.991 280.915 112.591 281.115 113.291 281.715C112.391 282.115 111.591 282.415 110.691 282.815C103.991 285.515 97.4914 288.615 91.6914 292.915C88.9914 294.915 86.4914 297.215 84.1914 299.615C82.0914 301.815 80.7914 304.715 80.4914 307.815C79.9914 312.215 81.5914 316.015 84.5914 319.215C87.0914 321.915 90.1914 323.715 93.4914 325.215C99.1914 327.715 105.191 329.115 111.291 330.015C127.991 332.415 144.791 332.315 161.491 330.715C173.791 329.515 185.891 327.415 197.691 323.815C202.091 322.415 206.491 320.815 210.491 318.515C213.391 316.915 215.991 315.015 218.291 312.515C223.991 306.015 224.591 298.215 220.091 291.015C218.291 288.215 216.091 285.915 213.491 283.815C209.891 280.915 206.091 278.515 201.891 276.615C197.091 274.415 192.191 272.415 187.391 270.315C186.691 270.015 185.991 269.715 184.791 269.215C185.791 268.715 186.291 268.415 186.891 268.115C192.291 265.615 197.691 263.215 202.891 260.515C208.091 257.815 212.891 254.515 216.991 250.215C218.991 248.115 220.791 245.815 222.191 243.415C225.991 236.815 226.191 229.915 222.891 222.915C220.791 218.515 217.691 214.915 214.091 211.615C210.191 208.015 205.791 205.115 201.291 202.415C200.591 202.015 199.791 201.515 198.891 200.915C199.691 200.415 200.291 200.115 200.891 199.815C207.391 196.615 212.491 191.915 216.191 185.615C219.091 180.615 221.391 175.315 222.391 169.615C223.391 164.815 222.191 160.515 219.191 156.615C215.791 152.215 211.491 148.915 206.291 147.015C202.891 145.715 199.391 144.515 195.791 143.715C186.891 141.815 177.891 140.015 168.991 138.615C150.291 135.615 131.491 133.815 112.591 134.015C101.891 134.115 91.1914 134.915 80.6914 137.315C76.1914 138.315 71.7914 139.515 67.7914 141.715C65.0914 143.215 62.2914 144.815 60.0914 146.915C53.2914 153.015 53.1914 161.115 59.6914 167.515C61.5914 169.415 63.7914 171.215 66.0914 172.515C70.6914 175.115 75.3914 177.615 80.1914 179.515C88.8914 183.015 97.7914 186.015 106.491 189.115C107.191 189.415 107.891 189.615 108.591 189.915C108.591 190.115 108.591 190.215 108.591 190.415Z" fill="#F7D046"/>
<path d="M160.938 71.125C160.138 70.625 159.538 70.325 159.038 69.825C157.538 68.225 156.138 66.625 154.738 64.925C152.838 62.725 151.138 60.525 149.238 58.325C147.738 56.625 147.638 56.125 148.738 54.125C151.638 48.525 155.638 43.625 159.338 38.525C159.838 37.825 160.538 37.225 161.238 36.625C162.638 35.625 163.938 35.825 164.938 37.225C168.138 42.225 171.238 47.225 174.338 52.225C175.738 54.525 175.538 54.925 173.738 56.825C171.238 59.425 168.738 62.025 166.438 64.725C165.138 66.225 164.038 67.925 162.838 69.425C162.238 70.125 161.638 70.525 160.938 71.125ZM162.738 39.625C158.538 45.025 155.438 50.625 152.038 55.825C155.038 59.725 157.838 63.425 160.738 67.125C164.738 62.625 168.438 58.325 172.438 53.825C169.238 49.225 166.138 44.625 162.738 39.625Z" fill="black"/>
</svg>
