<svg width="211" height="143" viewBox="0 0 211 143" fill="none" xmlns="http://www.w3.org/2000/svg">
<path d="M178.277 142.118C183.289 142.303 188.734 141.439 193.931 139.339C203.584 135.386 208.782 127.912 210.7 117.906C211.071 115.806 210.886 113.644 210.453 111.544C209.772 108.456 208.782 105.553 207.173 102.835C204.698 98.6348 201.852 94.6818 198.263 91.4082C195.169 88.5669 191.951 85.8492 188.61 83.3168C183.165 79.2402 177.534 75.349 172.027 71.3342C169.552 69.543 167.015 67.8135 164.169 66.5782C163.859 66.4547 163.55 66.2694 163.241 66.0841C148.514 57.1898 133.787 48.2955 119.061 39.3394C109.284 33.4099 99.5693 27.3568 89.9165 21.3655C80.4494 15.4977 70.7347 10.1241 60.3394 5.98579C54.4611 3.63868 48.3972 1.72393 42.1476 0.612146C36.0837 -0.437876 30.1435 -0.129046 24.2033 1.47687C13.3749 4.37987 6.01155 11.1124 2.11331 21.6126C-1.72305 31.9893 -0.176132 41.8101 5.45465 51.1367C7.55847 54.5956 10.3429 57.6222 13.313 60.3399C17.1494 63.8605 21.357 66.9488 25.5646 69.9136C37.94 78.5608 50.8104 86.4051 64.1139 93.57C78.5931 101.352 92.9485 109.32 107.366 117.165C115.224 121.426 123.021 125.812 131.312 129.332C137.129 131.803 143.007 134.088 148.885 136.559C158.043 140.45 167.758 141.933 178.277 142.118Z" fill="#EE8DB9"/>
<mask id="mask0" mask-type="alpha" maskUnits="userSpaceOnUse" x="0" y="0" width="211" height="143">
<path d="M178.277 142.118C183.289 142.303 188.734 141.439 193.931 139.339C203.584 135.386 208.782 127.912 210.7 117.906C211.071 115.806 210.886 113.644 210.453 111.544C209.772 108.456 208.782 105.553 207.173 102.835C204.698 98.6348 201.852 94.6818 198.263 91.4082C195.169 88.5669 191.951 85.8492 188.61 83.3168C183.165 79.2402 177.534 75.349 172.027 71.3342C169.552 69.543 167.015 67.8135 164.169 66.5782C163.859 66.4547 163.55 66.2694 163.241 66.0841C148.514 57.1898 133.787 48.2955 119.061 39.3394C109.284 33.4099 99.5693 27.3568 89.9165 21.3655C80.4494 15.4977 70.7347 10.1241 60.3394 5.98579C54.4611 3.63868 48.3972 1.72393 42.1476 0.612146C36.0837 -0.437876 30.1435 -0.129046 24.2033 1.47687C13.3749 4.37987 6.01155 11.1124 2.11331 21.6126C-1.72305 31.9893 -0.176132 41.8101 5.45465 51.1367C7.55847 54.5956 10.3429 57.6222 13.313 60.3399C17.1494 63.8605 21.357 66.9488 25.5646 69.9136C37.94 78.5608 50.8104 86.4051 64.1139 93.57C78.5931 101.352 92.9485 109.32 107.366 117.165C115.224 121.426 123.021 125.812 131.312 129.332C137.129 131.803 143.007 134.088 148.885 136.559C158.043 140.45 167.758 141.933 178.277 142.118Z" fill="black"/>
</mask>
<g mask="url(#mask0)">
<path d="M233.886 120.026C233.628 105.945 229.819 94.2003 221.878 83.883C216.52 76.94 210.516 70.581 203.737 65.0006C189.728 53.3207 175.525 41.9652 160.87 31.1289C156.157 27.6249 151.316 24.3805 146.538 21.0712C144.86 19.9681 143.117 18.9948 141.309 18.0864C140.276 17.5673 139.179 17.3077 138.081 17.1779C136.144 16.9184 134.401 17.5024 132.981 18.9299C132.271 19.6437 131.69 20.4224 131.173 21.2659C129.947 23.1477 128.849 25.0294 127.687 26.9761C120.005 39.5644 112.322 52.1527 104.704 64.8059C100.444 71.8787 96.3118 79.0813 91.9219 86.1541C86.8218 94.3949 81.3989 102.441 75.524 110.163C75.3304 110.422 75.1367 110.682 74.943 110.941C73.5227 113.018 73.5227 114.77 75.0076 116.846C75.524 117.625 76.1696 118.339 76.7507 118.988C83.5293 126.774 91.2117 133.458 100.056 138.843C111.354 145.722 122.716 152.47 134.66 158.245C146.796 164.15 159.45 168.497 172.749 170.963C179.657 172.261 186.564 172.65 193.537 171.158C194.828 170.898 196.055 170.639 197.281 170.12C216.971 162.528 229.56 148.901 233.176 127.553C233.628 124.763 233.692 121.843 233.886 120.026Z" fill="#F7D046"/>
<mask id="mask1" mask-type="alpha" maskUnits="userSpaceOnUse" x="73" y="17" width="161" height="156">
<path d="M233.886 120.026C233.628 105.945 229.819 94.2003 221.878 83.883C216.52 76.94 210.516 70.581 203.737 65.0006C189.728 53.3207 175.525 41.9652 160.87 31.1289C156.157 27.6249 151.316 24.3805 146.538 21.0712C144.86 19.9681 143.117 18.9948 141.309 18.0864C140.276 17.5673 139.179 17.3077 138.081 17.1779C136.144 16.9184 134.401 17.5024 132.981 18.9299C132.271 19.6437 131.69 20.4224 131.173 21.2659C129.947 23.1477 128.849 25.0294 127.687 26.9761C120.005 39.5644 112.322 52.1527 104.704 64.8059C100.444 71.8787 96.3118 79.0813 91.9219 86.1541C86.8218 94.3949 81.3989 102.441 75.524 110.163C75.3304 110.422 75.1367 110.682 74.943 110.941C73.5227 113.018 73.5227 114.77 75.0076 116.846C75.524 117.625 76.1696 118.339 76.7507 118.988C83.5293 126.774 91.2117 133.458 100.056 138.843C111.354 145.722 122.716 152.47 134.66 158.245C146.796 164.15 159.45 168.497 172.749 170.963C179.657 172.261 186.564 172.65 193.537 171.158C194.828 170.898 196.055 170.639 197.281 170.12C216.971 162.528 229.56 148.901 233.176 127.553C233.628 124.763 233.692 121.843 233.886 120.026Z" fill="#EA552B"/>
</mask>
<g mask="url(#mask1)">
<path d="M68.0356 75.7686C66.9839 76.2021 65.9135 76.6031 64.8619 77.0367C57.7936 79.9025 50.3994 81.828 42.8673 83.1389C42.2338 83.2442 41.5952 83.2657 40.9704 83.2359C40.7513 83.2322 40.4006 83.0007 40.3718 82.8004C40.2916 82.5863 40.5093 82.287 40.6657 81.8061C41.0754 82.7413 41.6388 82.5896 42.1697 82.4567C48.6387 81.1086 55.0652 79.6116 61.3111 77.3508C63.7499 76.4636 66.1323 75.4787 68.5523 74.5589C69.0781 74.3421 69.4636 74.0327 69.8066 73.5743C73.7401 68.1353 78.1508 63.0717 83.2541 58.6064C86.3234 55.8796 89.5429 53.4132 93.2172 51.5089C93.8544 51.1844 94.5292 50.925 95.2278 50.782C96.4247 50.525 97.1925 51.2535 96.9787 52.4618C96.8237 53.2456 96.4684 54.0583 96.0755 54.806C95.0632 56.7358 93.6626 58.3689 92.1594 59.9746C89.6586 62.6335 86.8672 64.9395 83.8979 67.0878C81.4118 68.8703 78.8644 70.4713 76.1904 71.9283C74.6744 72.7602 73.0695 73.5132 71.4971 74.2474C70.9575 74.5155 70.5069 74.8625 70.1502 75.3722C68.089 78.3416 66.168 81.4035 64.6115 84.6457C63.7568 86.3976 63.0237 88.2096 62.566 90.1229C62.2409 91.439 62.0185 92.7825 62.099 94.1247C62.2387 96.1706 63.0944 97.803 64.7175 99.0358C65.8121 99.8794 67.008 100.447 68.2965 100.875C70.4954 101.602 72.7205 101.923 75.0193 102.071C80.5962 102.41 86.0613 101.728 91.4348 100.362C92.9948 99.9821 94.4796 99.472 96.0208 99.0596C96.3513 98.9556 96.5929 98.7727 96.7593 98.4596C100.047 92.3522 104.531 87.1158 109.301 82.1485C113.946 77.3402 118.952 72.9313 124.14 68.764C127.917 65.759 131.782 62.8329 135.648 59.9068C138.096 58.0592 140.671 56.3555 143.364 54.9311C144.164 54.5126 145.02 54.1918 145.863 53.9223C146.259 53.7807 146.697 53.7881 147.103 53.8142C147.965 53.8803 148.62 54.4135 148.722 55.2661C148.814 55.951 148.826 56.7248 148.648 57.3922C148.312 58.5405 147.893 59.6938 147.366 60.7357C145.764 64.048 143.567 67.0086 141.263 69.8578C137.136 74.8875 132.42 79.3464 127.324 83.3735C121.987 87.5835 116.367 91.3052 110.396 94.4924C106.48 96.5796 102.395 98.3739 98.1734 99.8565C97.8103 99.9793 97.4661 100.135 97.2721 100.55C96.2236 102.718 95.3478 104.96 95.0368 107.352C94.9144 108.118 94.8946 108.91 94.9074 109.684C94.9947 112.541 96.2587 114.806 98.6295 116.431C100.21 117.515 101.998 118.132 103.874 118.524C106.09 118.981 108.338 119.115 110.608 119.063C115.838 118.951 120.947 117.954 125.966 116.575C134.398 114.268 142.448 110.922 150.126 106.706C150.484 106.5 150.851 106.158 151.082 105.807C157.344 95.6819 165.151 86.8785 173.79 78.766C175.814 76.8597 177.978 75.0459 180.274 73.4601C181.52 72.6108 182.822 71.8591 184.279 71.4517C184.693 71.3426 185.178 71.2799 185.616 71.2873C187.015 71.3043 187.909 72.1767 187.84 73.5616C187.783 74.289 187.661 75.0541 187.365 75.7454C186.862 76.9037 186.257 78.0345 185.595 79.0677C183.391 82.4666 180.691 85.4574 177.865 88.3043C172.685 93.4645 167 98.049 160.878 102.104C158.173 103.883 155.36 105.55 152.618 107.264C152.292 107.452 151.972 107.724 151.773 108.055C149.894 111.266 148.245 114.649 147.334 118.256C146.678 120.805 146.41 123.346 146.902 125.927C147.245 127.725 147.933 129.367 149.082 130.83C150.465 132.549 152.227 133.572 154.332 134.136C156.18 134.631 158.04 134.772 159.956 134.707C163.871 134.573 167.662 133.773 171.368 132.675C177.886 130.735 184.055 128.041 190.059 124.835C191.087 124.285 192.096 123.702 193.156 123.134C193.547 122.908 193.765 122.609 193.856 122.166C196.395 112.281 201.644 104.085 209.414 97.4732C212.827 94.5911 216.593 92.2435 220.885 90.8072C222.006 90.4199 223.222 90.1954 224.391 90.041C225.076 89.9494 225.855 90.0205 226.523 90.1994C227.839 90.5245 228.627 91.5885 228.539 92.9408C228.473 93.8035 228.291 94.69 227.898 95.4377C227.205 96.7926 226.427 98.1526 225.524 99.3687C223.207 102.572 220.376 105.335 217.469 107.968C210.969 113.847 203.897 118.886 196.369 123.362C195.751 123.719 195.44 124.158 195.299 124.891C194.472 129.621 195.084 134.215 196.652 138.735C197.894 142.314 199.597 145.714 201.397 149.058C202.685 151.439 204.038 153.782 205.456 156.088C206.184 157.274 207.028 158.435 207.886 159.546C208.397 160.205 209.006 160.809 210.009 160.967C209.456 161.287 209.031 161.228 208.662 160.964C208.031 160.547 207.399 160.131 206.88 159.606C205.288 158.052 204.03 156.174 202.856 154.291C200.269 150.186 197.975 145.912 195.896 141.558C193.543 136.581 192.457 131.393 193.168 125.861C193.191 125.674 193.181 125.506 193.18 125.203C192.803 125.377 192.51 125.547 192.231 125.664C187.422 128.31 182.477 130.645 177.353 132.518C173.02 134.108 168.602 135.401 164.06 136.027C162.089 136.297 160.113 136.483 158.117 136.333C156.798 136.227 155.492 136.07 154.208 135.726C149.574 134.539 146.698 131.512 145.479 126.921C144.83 124.519 144.871 122.109 145.298 119.692C145.903 116.305 147.162 113.148 148.715 110.125C148.835 109.882 148.955 109.639 149.075 109.396C149.089 109.345 149.051 109.28 149.06 109.144C147.981 109.681 146.902 110.217 145.855 110.734C136.952 115.007 127.722 118.339 117.968 119.935C114.884 120.457 111.766 120.694 108.629 120.596C106.335 120.532 104.063 120.281 101.878 119.503C100.692 119.103 99.5342 118.6 98.4496 117.924C95.1823 115.948 93.5887 112.962 93.5625 109.158C93.5517 106.734 94.1519 104.392 95.0276 102.15C95.2028 101.702 95.3779 101.253 95.5806 100.702C95.1662 100.812 94.8494 100.864 94.5515 100.949C88.7599 102.644 82.8441 103.673 76.774 103.532C74.1258 103.455 71.5001 103.192 68.9331 102.504C67.3228 102.045 65.8051 101.446 64.4162 100.468C61.9753 98.7963 60.7576 96.4616 60.7491 93.5154C60.7323 91.8326 61.0561 90.2136 61.5339 88.6358C62.2781 86.1665 63.3165 83.831 64.5654 81.6344C65.5227 79.91 66.6015 78.2456 67.6101 76.535C67.7628 76.2732 67.9342 76.0441 68.0869 75.7823C68.1245 75.8474 68.1057 75.8149 68.0356 75.7686ZM98.7388 98.0546C99.023 98.0207 99.1394 97.9968 99.2558 97.973C102.369 96.8264 105.37 95.4844 108.328 93.9935C113.868 91.1858 119.056 87.8436 124.036 84.1433C129.305 80.1901 134.162 75.8238 138.48 70.9004C141.254 67.7368 143.779 64.3691 145.744 60.631C146.243 59.6918 146.653 58.6737 147.012 57.6419C147.188 57.1936 147.255 56.6339 147.276 56.1443C147.306 55.5195 147.109 55.3293 146.495 55.4672C145.912 55.5863 145.335 55.7893 144.796 56.0575C141.553 57.5823 138.612 59.6279 135.745 61.8037C131.652 64.8613 127.615 68.0166 123.648 71.2182C118.524 75.348 113.654 79.7656 109.144 84.5826C105.456 88.4915 102.048 92.5857 99.2243 97.1667C99.1179 97.3583 98.9652 97.62 98.7388 98.0546ZM196.23 121.316C196.606 121.142 196.802 121.029 197.03 120.897C204.11 116.549 210.787 111.653 216.897 105.999C219.594 103.53 222.165 100.917 224.291 97.9104C225.005 96.891 225.61 95.7602 226.183 94.6481C226.442 94.1948 226.542 93.6163 226.596 93.1079C226.664 92.5482 226.443 92.2416 225.93 92.104C225.622 92.0215 225.249 91.9765 224.964 92.0104C224.112 92.1121 223.226 92.2326 222.416 92.4832C218.795 93.5762 215.521 95.4228 212.51 97.7251C204.877 103.521 199.587 111.045 196.579 120.116C196.431 120.462 196.367 120.802 196.23 121.316ZM154.124 104.311C154.143 104.344 154.213 104.39 154.232 104.422C154.33 104.366 154.446 104.342 154.544 104.286C162.456 99.5003 169.821 93.9901 176.435 87.4809C179.233 84.7367 181.854 81.8348 184.017 78.5899C184.711 77.5379 185.285 76.4259 185.839 75.2813C186.079 74.7954 186.16 74.1844 186.228 73.6247C186.268 73.1677 186.052 72.9449 185.581 72.9563C185.078 72.9865 184.58 73.1006 184.087 73.2986C182.127 74.0392 180.487 75.3331 178.848 76.627C175.443 79.374 172.259 82.4276 169.233 85.6063C163.892 91.1635 158.921 96.9848 154.61 103.423C154.508 103.699 154.342 104.012 154.124 104.311ZM95.8942 51.786C95.1154 51.7149 94.4782 52.0394 93.8735 52.3451C91.8505 53.4263 89.9265 54.7541 88.0914 56.1608C82.0891 60.7979 76.9812 66.3075 72.3742 72.3089C72.249 72.468 72.1614 72.6921 71.9625 73.024C72.8463 72.6005 73.5023 72.3086 74.172 71.9653C78.5811 69.6801 82.7647 67.0043 86.5638 63.8127C89.2576 61.5631 91.8248 59.1696 93.8723 56.2516C94.5256 55.3536 95.0386 54.3631 95.5705 53.4051C95.8808 52.9655 96.0509 52.4333 95.8942 51.786Z" fill="black"/>
</g>
</g>
</svg>
