<svg width="154" height="39" viewBox="0 0 154 39" fill="none" xmlns="http://www.w3.org/2000/svg">
<path d="M49.7266 15.2509C49.7266 12.4693 47.0402 9.515 42.3914 9.515C37.1711 9.515 31.4363 13.3709 30.5599 21.0635C29.6645 28.8328 34.4657 32.2858 39.305 32.2858C44.1443 32.2858 46.6782 30.3866 49.2693 27.8544C47.0402 25.0344 44.1633 26.3389 43.6108 26.6267C43.0011 26.9336 42.22 27.3556 40.6196 27.3556C38.7524 27.3556 36.8472 26.5116 36.8472 23.001C48.8121 21.8116 49.7266 18.0325 49.7266 15.2509ZM43.8013 15.7113C43.7251 16.5745 43.3822 18.0516 37.3235 18.8765C38.6 14.3109 41.0387 13.9656 42.1628 13.9656C43.2107 13.9656 43.8775 14.7905 43.8013 15.7113ZM23.5296 16.4594C23.5296 16.4594 20.9576 24.5932 20.748 25.2646C20.6718 24.574 18.7856 9.97541 18.7856 9.97541C14.4036 9.97541 12.0601 13.1215 10.8217 16.4402C10.8217 16.4402 7.69714 24.5932 7.43041 25.2838C7.41136 24.6508 6.9541 16.5362 6.9541 16.5362C6.68737 12.4693 2.99122 9.99459 0 9.99459L3.61994 32.1131C8.21156 32.0939 10.6884 28.967 11.9839 25.6483C11.9839 25.6483 14.7465 18.4545 14.8608 18.1284C14.8799 18.4353 16.8423 32.1131 16.8423 32.1131C21.4529 32.1131 23.9297 29.1781 25.2634 25.9744L31.7221 9.99459C27.1686 9.99459 24.768 13.1215 23.5296 16.4594ZM66.6451 9.47663C63.8063 9.47663 61.6343 11.0305 59.8053 13.3133V13.2941L61.4438 0C57.6714 0 54.604 3.29956 54.0134 8.21053L51.1555 31.9405C53.3275 31.9405 55.6328 31.3074 56.8712 29.696C57.9762 31.1348 59.6338 32.2858 62.0916 32.2858C68.455 32.2858 72.818 24.8426 72.818 17.8598C72.7799 11.4909 69.7125 9.47663 66.6451 9.47663ZM66.0544 20.8908C65.3876 24.785 63.2347 27.4324 61.158 27.4324C59.0622 27.4324 58.1668 26.4924 58.1668 26.4924C58.5669 23.0777 58.8146 20.9867 59.5766 19.1835C60.3387 17.3802 62.1487 14.5027 64.0349 14.5027C65.883 14.5027 66.7213 16.9774 66.0544 20.8908ZM88.7077 9.99459H84.2685L84.2875 9.76439C84.5924 6.8485 85.2782 5.31382 87.5455 5.06444C89.0887 4.91097 89.7746 4.10526 89.9461 3.22282C90.0794 2.53222 90.4986 0.134284 90.4986 0.134284C81.5821 0.0767339 78.7814 3.9518 78.0574 9.8603L78.0384 9.99459H77.9431C76.4951 9.99459 74.8947 11.6444 74.628 13.7354L74.5327 14.5027H77.5049L75.009 35.2592L74.2469 38.9808C74.3422 38.9808 74.4565 39 74.5518 39C78.7242 38.8465 81.3916 35.5278 81.9822 30.7127L83.9255 14.5027H85.3163C86.6881 14.5027 88.2885 13.1215 88.5743 10.8195L88.7077 9.99459ZM111.799 9.61092C106.674 9.61092 101.835 13.4092 100.349 19.3753C98.8626 25.3414 101.111 32.4009 108.655 32.4009C116.181 32.4009 120.525 25.0536 120.525 18.9341C120.525 12.8529 116.429 9.61092 111.799 9.61092ZM113.876 20.699C113.609 23.4038 112.428 27.5091 109.189 27.5091C105.931 27.5091 106.388 22.7132 106.712 20.4304C107.055 17.9941 108.408 14.5219 111.323 14.5219C113.933 14.5219 114.181 17.6488 113.876 20.699ZM145.846 16.4594C145.846 16.4594 143.274 24.5932 143.064 25.2646C142.988 24.574 141.102 9.97541 141.102 9.97541C136.72 9.97541 134.376 13.1215 133.138 16.4402C133.138 16.4402 130.013 24.5932 129.746 25.2838C129.727 24.6508 129.27 16.5362 129.27 16.5362C129.003 12.4693 125.307 9.99459 122.316 9.99459L125.917 32.1131C130.508 32.0939 132.985 28.967 134.281 25.6483C134.281 25.6483 137.043 18.4545 137.139 18.1284C137.177 18.4353 139.12 32.1131 139.12 32.1131C143.731 32.1131 146.208 29.1781 147.541 25.9744L154 9.99459C149.466 9.99459 147.065 13.1215 145.846 16.4594ZM92.8992 0.134284L89.1649 30.4634L88.4028 34.2041C88.4981 34.2041 88.6124 34.2233 88.7077 34.2233C92.7277 34.1658 95.5856 30.6168 96.119 26.1471L98.2719 8.74766C98.9197 3.43384 95.7761 0.134284 92.8992 0.134284Z" fill="black"/>
</svg>
