<svg width="142" height="31" viewBox="0 0 142 31" fill="none" xmlns="http://www.w3.org/2000/svg">
<g clip-path="url(#clip0_2_160)">
<path d="M10.2626 7.55696C10.2626 6.5633 10.6069 5.60033 11.2369 4.83181C11.8669 4.06327 12.7438 3.53666 13.7183 3.34151L22.7446 1.53835C23.3681 1.41394 24.0115 1.42935 24.6283 1.58348C25.2452 1.7376 25.8201 2.0266 26.3118 2.42965C26.8034 2.8327 27.1995 3.33976 27.4715 3.9143C27.7435 4.48884 27.8847 5.11653 27.8847 5.75219V5.80375C27.8831 6.79589 27.538 7.75689 26.9081 8.52357C26.2781 9.29021 25.4022 9.81523 24.429 10.0095L19.0728 11.0811V14.6036C19.0728 15.5973 18.7286 16.5602 18.0985 17.3288C17.4685 18.0973 16.5916 18.6239 15.6171 18.8191L4.90644 20.9606C3.93186 21.1551 3.05488 21.6814 2.42478 22.4497C1.79468 23.218 1.45044 24.1809 1.45067 25.1744V25.2179C1.45072 25.8537 1.59188 26.4816 1.86398 27.0563C2.13608 27.631 2.53233 28.1381 3.02417 28.5412C3.51601 28.9443 4.09117 29.2332 4.70824 29.3872C5.32528 29.5412 5.9688 29.5565 6.59243 29.4318L6.80517 29.3899C7.78003 29.195 8.65727 28.6686 9.2876 27.9C9.91797 27.1315 10.2625 26.1683 10.2626 25.1744V7.55696Z" stroke="white" stroke-width="2.90105" stroke-miterlimit="10"/>
<path d="M40.0669 17.4397V24.206H36.7772V6.76416H47.7379V9.8564H40.1233H40.0429V9.93699V14.2878V14.3684H40.1233H46.8964V17.3591H40.1477H40.0669V17.4397Z" fill="white" stroke="white" stroke-width="0.16117"/>
<path d="M49.3398 24.206V6.76416H52.4814V24.206H49.3398Z" fill="white" stroke="white" stroke-width="0.16117"/>
<path d="M66.7107 18.1777C66.7107 21.8834 63.9901 24.5782 60.3841 24.5782C56.7783 24.5782 54.0578 21.8834 54.0578 18.1777C54.0578 14.4721 56.7783 11.7805 60.3841 11.7805C63.9905 11.7805 66.7107 14.4498 66.7107 18.1777ZM63.5691 18.1777C63.5691 17.006 63.1903 16.1159 62.5988 15.5186C62.0078 14.9218 61.2104 14.623 60.3841 14.623C59.5581 14.623 58.7607 14.9218 58.1696 15.5186C57.5782 16.1159 57.1991 17.006 57.1991 18.1777C57.1991 19.3495 57.5782 20.2399 58.1696 20.8376C58.7607 21.4349 59.5581 21.7341 60.3841 21.7341C61.2104 21.7341 62.0078 21.4353 62.5988 20.8382C63.1903 20.2407 63.5691 19.3503 63.5691 18.1777Z" fill="white" stroke="white" stroke-width="0.16117"/>
<path d="M80.9915 19.9628L83.2313 12.1527H86.338L82.5651 24.206H79.389L76.5513 15.9182L76.4745 15.6936L76.3986 15.9186L73.6111 24.206H70.3753L66.5276 12.1527H69.8333L72.0731 19.9387L72.1443 20.1859L72.2269 19.9423L74.8694 12.1527H78.2304L80.8377 19.9661L80.9199 20.2126L80.9915 19.9628Z" fill="white" stroke="white" stroke-width="0.16117"/>
<path d="M90.4675 22.796V24.206H87.4049V6.76416H90.5045V13.4112V13.6906L90.6533 13.4541C91.1817 12.6141 92.4936 11.8288 94.2922 11.8288C96.0574 11.8288 97.4448 12.5085 98.3921 13.6317C99.3408 14.7565 99.8532 16.332 99.8532 18.1294C99.8532 19.9662 99.2872 21.5598 98.2965 22.693C97.3065 23.8252 95.8888 24.5025 94.173 24.5025C92.5077 24.5025 91.2448 23.7691 90.6167 22.7536L90.4675 22.5125V22.796ZM93.5816 14.623C92.7299 14.623 91.9448 14.9348 91.3732 15.5354C90.8011 16.1362 90.4481 17.0198 90.4481 18.1535C90.4481 19.2754 90.8011 20.1651 91.3725 20.775C91.9438 21.385 92.7288 21.7099 93.5816 21.7099C94.4467 21.7099 95.2261 21.3918 95.7893 20.7843C96.3519 20.1771 96.6925 19.2872 96.6925 18.1535C96.6925 17.0198 96.3519 16.1362 95.789 15.5353C95.2258 14.9342 94.446 14.623 93.5816 14.623Z" fill="white" stroke="white" stroke-width="0.16117"/>
<path d="M109.901 22.622L109.747 22.5892C109.241 23.7234 108.005 24.5524 106.394 24.5524C104.616 24.5524 103.142 23.8603 102.112 22.7142C101.082 21.5672 100.492 19.9613 100.492 18.1294C100.492 14.5891 102.798 11.8047 106.296 11.8047C108.448 11.8047 109.437 12.9512 109.722 13.617L109.877 13.5852V12.1527H112.919V22.079C112.919 23.0773 112.982 23.8665 113.011 24.2092H110.015C109.942 23.7346 109.904 23.2551 109.901 22.7748C109.901 22.7747 109.901 22.7747 109.901 22.7746V22.622ZM106.792 21.8598C107.673 21.8598 108.446 21.4953 108.998 20.844C109.55 20.1934 109.877 19.2613 109.877 18.1294C109.877 16.9977 109.556 16.0911 109.006 15.4661C108.456 14.8403 107.682 14.5037 106.792 14.5037C105.89 14.5037 105.103 14.8409 104.544 15.4668C103.984 16.0921 103.657 16.9989 103.657 18.1294C103.657 19.2491 103.978 20.1812 104.533 20.8349C105.089 21.4896 105.875 21.8598 106.792 21.8598Z" fill="white" stroke="white" stroke-width="0.16117"/>
<path d="M118.059 19.2675L118.059 19.2674L118.059 19.2673C116.892 19.009 116.052 18.5324 115.504 17.9153C114.956 17.299 114.695 16.5367 114.695 15.6962C114.695 13.5639 116.584 11.7805 119.184 11.7805C120.904 11.7805 122.044 12.3263 122.772 13.0269C123.475 13.7033 123.799 14.5289 123.887 15.1615L121.286 15.7469C121.223 15.396 121.062 15.0084 120.756 14.6996C120.423 14.3634 119.923 14.1267 119.208 14.1267C118.316 14.1267 117.564 14.6648 117.564 15.4238C117.564 15.7435 117.685 16.0065 117.897 16.2046C118.106 16.4008 118.401 16.5298 118.746 16.5938L120.484 16.9658L120.484 16.9659L120.485 16.9659C121.676 17.2123 122.566 17.6964 123.157 18.3333C123.748 18.9695 124.045 19.7626 124.045 20.6367C124.045 21.6087 123.669 22.5945 122.9 23.3375C122.132 24.0799 120.967 24.5847 119.382 24.5847C117.563 24.5847 116.349 23.9956 115.571 23.2419C114.818 22.5127 114.469 21.625 114.381 20.9542L117.05 20.3628C117.105 20.831 117.309 21.279 117.671 21.6166C118.057 21.9769 118.619 22.2063 119.356 22.2063C119.916 22.2063 120.339 22.06 120.624 21.8214C120.909 21.582 121.049 21.2549 121.049 20.9091C121.049 20.6157 120.948 20.3462 120.72 20.1253C120.495 19.9065 120.15 19.7405 119.67 19.6395L118.059 19.2675Z" fill="white" stroke="white" stroke-width="0.16117"/>
<path d="M136.539 18.9657H127.873H127.789L127.793 19.05C127.869 20.7097 129.275 21.9065 130.952 21.9065C131.736 21.9065 132.349 21.7107 132.818 21.3703C133.267 21.0447 133.578 20.591 133.781 20.0636L136.39 20.8439C135.754 22.8864 133.86 24.5766 130.928 24.5766C127.617 24.5766 124.7 22.2009 124.7 18.1278C124.7 14.2737 127.544 11.7789 130.63 11.7789C132.499 11.7789 133.984 12.3746 135.003 13.4477C136.022 14.5214 136.582 16.082 136.582 18.0279C136.582 18.2615 136.57 18.5013 136.558 18.6897C136.552 18.7837 136.546 18.8648 136.541 18.9258L136.541 18.9353C136.54 18.9459 136.539 18.9561 136.539 18.9657ZM133.41 16.8741H133.494L133.491 16.7902C133.465 16.1661 133.248 15.5415 132.79 15.0724C132.33 14.6022 131.635 14.2958 130.67 14.2958C128.909 14.2958 127.936 15.6235 127.859 16.7882L127.853 16.8741H127.939H133.41Z" fill="white" stroke="white" stroke-width="0.16117"/>
<path d="M137.778 5.0222H137.698V5.10279V6.60299H137.328V5.10279V5.0222H137.248H136.743V4.71121H138.276V5.0222H137.778ZM139.947 5.86442L140.41 4.71121H140.984V6.60299H140.633V5.43472L140.477 5.40471L139.996 6.60299H139.723L139.237 5.42181L139.082 5.45246V6.60299H138.731V4.71121H139.317L139.797 5.86534L139.873 6.04721L139.947 5.86442Z" fill="white" stroke="white" stroke-width="0.16117"/>
</g>
<defs>
<clipPath id="clip0_2_160">
<rect width="141.069" height="31" fill="white"/>
</clipPath>
</defs>
</svg>
