<svg width="102" height="106" viewBox="0 0 102 106" fill="none" xmlns="http://www.w3.org/2000/svg">
<path d="M51.6602 72.38C50.5726 73.0079 49.3897 73.6103 48.337 74.2986C46.2921 75.6404 45.3746 77.5397 45.8356 80.0126C46.5016 83.8173 48.3598 87.1753 50.606 90.2288C51.4594 91.4278 52.4592 92.4618 53.3382 93.5656C53.6777 94.0141 54.0776 94.4277 54.3567 94.9111C54.845 95.7569 54.736 96.5449 54.2365 97.075C53.5557 97.7098 52.8026 97.6612 52.0308 97.3012C51.6147 97.1386 51.2241 96.8808 50.894 96.588C45.8209 92.2664 42.3699 86.8472 41.2242 80.2581C40.514 76.2373 42.1005 72.985 45.3352 70.6341C46.4738 69.8156 47.8031 69.0481 49.0464 68.4109C54.503 65.5828 58.7505 61.3581 62.3284 56.3922C64.4356 53.4838 65.3898 50.1133 65.391 46.4873C65.3734 42.5499 64.8283 38.6755 64.1019 34.9056C62.6024 26.5874 61.068 18.2087 59.7242 9.88112C59.3678 7.58945 59.3484 5.18379 59.2431 2.90831C59.2057 2.28541 59.3496 1.55785 59.5632 0.951133C59.6399 0.665217 60.0883 0.325723 60.3998 0.307029C60.7112 0.288333 61.1367 0.606631 61.3111 0.908736C61.6344 1.60825 61.9577 2.30777 62.0998 3.11194C63.2541 7.76253 64.3481 12.448 65.4071 17.0731C66.6524 22.7184 67.8373 28.3987 69.0222 34.0789C69.809 37.8139 70.2844 41.5675 70.3879 45.3747C70.5942 50.8949 69.0501 55.895 65.6859 60.2542C61.7617 65.1783 57.3329 69.5076 51.6602 72.38Z" fill="black"/>
<path d="M37.8271 90.8395C38.8039 92.5313 39.7807 94.2231 40.7574 95.9149C41.4551 97.1233 41.4508 98.0925 40.6491 98.7971C39.9078 99.4667 38.7829 99.4717 37.7669 98.6887C37.3066 98.31 36.8113 97.8709 36.4718 97.4224C32.3188 91.764 28.9861 85.7126 27.5358 78.7354C26.7303 74.689 26.643 70.6308 27.7505 66.6884C29.0877 61.8883 32.1106 58.6123 36.7587 56.8955C38.7458 56.1511 40.8026 55.5275 42.685 54.6018C44.4465 53.7459 46.1383 52.7691 47.6302 51.5856C50.6742 49.1836 51.9748 45.8547 51.5854 41.9709C51.343 40.0163 50.9194 38.1662 50.5213 36.2209C48.792 28.7604 46.8814 21.4045 45.7749 13.9066C45.712 13.379 45.5886 12.8863 45.621 12.3843C45.6627 12.0379 45.8857 11.5869 46.1274 11.4474C46.3691 11.3079 46.9409 11.4611 47.1409 11.6679C47.7408 12.2883 48.2802 12.9436 48.6035 13.6431C49.6525 16.0182 50.7271 18.298 51.4298 20.6314C52.9679 25.9466 54.3502 31.2712 55.7326 36.5958C56.049 37.7021 56.2447 38.8781 56.4403 40.0541C57.5467 47.552 54.5083 53.1732 48.313 57.2335C45.6034 58.959 42.5356 59.9245 39.598 60.9761C38.9844 61.1692 38.3453 61.4576 37.7318 61.6507C35.1661 62.6487 33.5304 64.5598 32.6851 67.1424C31.7284 69.9505 31.6201 72.8327 32.0138 75.7472C32.6823 80.1144 34.0852 84.2187 36.1272 88.0346C36.6853 89.0013 37.2086 89.9076 37.8271 90.8395C37.7667 90.8744 37.7667 90.8744 37.8271 90.8395Z" fill="black"/>
</svg>
