<svg width="534" height="607" viewBox="0 0 534 607" fill="none" xmlns="http://www.w3.org/2000/svg">
<path d="M171.941 330.7C153.484 305.75 135.001 281.013 116.901 255.782C101.836 234.903 87.484 213.463 74.2958 191.3C65.2316 176.098 56.7366 160.64 50.8748 143.883C48.3821 136.796 46.3649 129.335 44.8916 121.831C42.4898 109.476 43.6311 97.2227 47.8397 85.4456C51.5901 74.7986 58.2983 66.4461 68.4064 61.1955C75.1933 57.5932 82.4062 56.7355 89.9598 57.5349C100.275 58.6659 110.055 61.5643 119.565 65.8308C138.677 74.4827 156.354 85.2249 172.69 98.1763C194.729 115.691 216.004 134.192 236.515 153.678C256.652 172.689 276.669 191.793 296.305 211.389C309.965 225.097 322.648 239.764 335.714 253.939C339.811 258.418 343.909 262.896 347.912 267.256C352.571 272.448 357.348 277.547 362.1 282.858C375.021 297.339 388.036 311.938 400.838 326.513C413.615 341.299 425.347 356.714 436.34 372.903C446.891 388.284 456.873 403.92 465.785 420.398C474.536 436.424 482.36 452.987 487.695 470.543C490.223 479.142 492.088 487.878 492.508 496.979C492.851 504.023 492.345 510.965 490.232 517.823C486.177 531.019 477.787 539.923 464.637 544.486C456.558 547.179 448.377 548.028 439.923 547.551C426.745 546.938 414.084 543.802 401.813 539.204C385.302 533.127 369.92 524.815 354.877 515.466C334.004 502.617 315.041 487.303 296.724 471.097C273.741 450.667 252.591 428.41 232.538 405.1C211.761 380.626 192.03 355.523 171.941 330.7Z" fill="#EE8DB9"/>
<mask id="mask0" mask-type="alpha" maskUnits="userSpaceOnUse" x="0" y="0" width="534" height="607">
<path d="M171.941 330.7C153.484 305.75 135.001 281.013 116.901 255.782C101.836 234.903 87.484 213.463 74.2958 191.3C65.2316 176.098 56.7366 160.64 50.8748 143.883C48.3821 136.796 46.3649 129.335 44.8916 121.831C42.4898 109.476 43.6311 97.2227 47.8397 85.4456C51.5901 74.7986 58.2983 66.4461 68.4064 61.1955C75.1933 57.5932 82.4062 56.7355 89.9598 57.5349C100.275 58.6659 110.055 61.5643 119.565 65.8308C138.677 74.4827 156.354 85.2249 172.69 98.1763C194.729 115.691 216.004 134.192 236.515 153.678C256.652 172.689 276.669 191.793 296.305 211.389C309.965 225.097 322.648 239.764 335.714 253.939C339.811 258.418 343.909 262.896 347.912 267.256C352.571 272.448 357.348 277.547 362.1 282.858C375.021 297.339 388.036 311.938 400.838 326.513C413.615 341.299 425.347 356.714 436.34 372.903C446.891 388.284 456.873 403.92 465.785 420.398C474.536 436.424 482.36 452.987 487.695 470.543C490.223 479.142 492.088 487.878 492.508 496.979C492.851 504.023 492.345 510.965 490.232 517.823C486.177 531.019 477.787 539.923 464.637 544.486C456.558 547.179 448.377 548.028 439.923 547.551C426.745 546.938 414.084 543.802 401.813 539.204C385.302 533.127 369.92 524.815 354.877 515.466C334.004 502.617 315.041 487.303 296.724 471.097C273.741 450.667 252.591 428.41 232.538 405.1C211.761 380.626 192.03 355.523 171.941 330.7Z" fill="black"/>
</mask>
<g mask="url(#mask0)">
<path fill-rule="evenodd" clip-rule="evenodd" d="M41.9022 237.778C45.3693 238.286 48.8108 238.814 52.2523 239.343L52.2535 239.343C55.6954 239.871 59.1372 240.4 62.6047 240.908C91.0772 245.062 119.418 250.314 146.998 258.818C156.706 261.784 166.237 265.214 175.746 268.636L175.759 268.641C178.002 269.448 180.244 270.255 182.487 271.055C187.035 272.621 191.232 274.796 194.93 278.024C200.973 283.391 202.439 290.53 198.793 297.708C196.744 301.64 193.844 304.914 190.703 307.881C183.58 314.641 175.511 319.989 166.98 324.538C161.866 327.281 156.702 329.887 151.531 332.498L151.528 332.499C147.972 334.295 144.412 336.092 140.862 337.936C137.794 339.519 134.968 341.409 132.119 343.482C129.147 345.818 129.111 347.671 131.982 350.058C133.761 351.478 135.644 352.818 137.775 353.63C138.481 353.917 139.186 354.205 139.89 354.492C145.01 356.583 150.078 358.652 155.292 360.093C171.565 364.549 187.962 368.742 204.3 372.65C229.255 378.582 254.278 384.372 279.278 390.156L279.279 390.156C288.195 392.219 297.108 394.281 306.013 396.349C312.597 397.973 319.056 399.861 325.596 401.852C328.906 402.899 332.092 404.209 335.175 405.6C337.284 406.595 339.349 407.957 341.107 409.56C346.22 414.165 346.396 419.665 341.952 424.982C338.702 428.864 334.587 431.435 330.23 433.699C320.019 439.221 309.188 443.016 298.39 446.8C297.744 447.026 297.098 447.253 296.452 447.48C295.415 447.852 294.381 448.221 293.349 448.59L293.349 448.59C288.2 450.431 283.095 452.256 277.904 454.264C277.686 454.353 277.464 454.441 277.24 454.528C275.66 455.148 273.995 455.802 273.072 457.399C273.973 459.179 275.555 459.925 277.056 460.57C281.216 462.275 285.376 463.98 289.704 465.056C302.688 468.283 315.591 471.407 328.722 474.188C342.991 477.151 357.318 480.028 371.644 482.905L371.646 482.905C385.972 485.782 400.297 488.659 414.565 491.622C424.078 493.597 433.628 496.041 443.155 498.668C446.971 499.712 450.799 501.287 454.568 502.839L454.568 502.839C454.973 503.006 455.377 503.172 455.781 503.338C457.465 504.004 459.084 505.219 460.417 506.493C462.578 508.609 462.271 511.172 459.832 512.923C458.317 513.948 456.537 514.849 454.721 515.282C450.782 516.388 446.659 517.473 442.5 518.089C441.265 518.265 440.032 518.443 438.8 518.621C430.509 519.819 422.261 521.011 413.941 521.631C399.452 522.632 384.94 523.526 370.415 524.42L370.412 524.42C361.286 524.982 352.154 525.544 343.019 526.134C341.328 526.303 339.658 526.288 338.091 526.193C337.512 526.124 336.911 525.941 336.341 525.767C336.009 525.666 335.688 525.568 335.389 525.498C335.411 525.315 335.432 525.132 335.557 524.868C335.791 524.85 336.031 524.786 336.271 524.722C336.511 524.658 336.75 524.594 336.985 524.575C364.607 523.427 392.258 521.262 419.835 518.159C428.004 517.227 436.225 515.856 444.378 514.496L444.378 514.496C445.34 514.336 446.3 514.175 447.259 514.016C449.443 513.666 451.548 512.927 453.684 512.178C454.14 512.018 454.598 511.858 455.058 511.701C455.72 511.523 456.316 511.161 457.114 510.676L457.114 510.676C457.471 510.459 457.869 510.217 458.331 509.957C457.931 509.68 457.56 509.407 457.207 509.147L457.206 509.147L457.206 509.147C456.27 508.458 455.465 507.866 454.625 507.563C453.705 507.194 452.781 506.807 451.853 506.418L451.852 506.418C449.116 505.271 446.344 504.109 443.522 503.355C441.847 502.925 440.174 502.495 438.502 502.064L438.488 502.061C427.936 499.344 417.432 496.641 406.803 494.406C389.576 490.785 372.333 487.287 355.074 483.785C342.479 481.23 329.876 478.672 317.262 476.064C308.902 474.342 300.668 472.152 292.385 469.949C291.061 469.597 289.735 469.245 288.408 468.894C284.71 467.986 281.077 466.53 277.445 465.073C275.497 464.283 273.673 463.228 271.952 462.094C268.268 459.517 268.319 455.994 271.885 453.357C273.422 452.149 275.201 451.248 277.061 450.449C281.232 448.849 285.432 447.285 289.605 445.73C292.442 444.674 295.267 443.621 298.062 442.566C299.308 442.095 300.557 441.629 301.807 441.162L301.814 441.159C309.926 438.128 318.077 435.082 325.733 430.931C329.314 428.946 332.938 426.595 336.035 423.995C341.593 419.461 341.262 415.243 335 411.707C331.089 409.474 326.769 407.564 322.462 406.305C312.612 403.268 302.638 400.494 292.62 398.087C275.654 394.012 258.662 389.957 241.671 385.902L241.665 385.901C224.671 381.845 207.677 377.79 190.709 373.714C178.171 370.634 165.656 367.37 153.265 363.843C147.516 362.225 142.016 360.081 136.538 357.753C133.799 356.589 131.206 354.979 128.841 353.024C124.19 349.217 124.086 344.655 128.399 340.436C132.15 336.878 136.612 334.58 141.148 332.243C141.552 332.035 141.957 331.826 142.362 331.616C144.256 330.612 146.16 329.609 148.067 328.604L148.068 328.603C154.644 325.137 161.259 321.65 167.667 318.028C175.546 313.493 182.963 308.161 189.23 301.576C190.709 300.082 191.925 298.463 192.979 296.64C196.654 290.766 195.928 285.201 190.508 280.837C187.637 278.45 184.356 276.386 180.987 275.054C172.85 271.665 164.611 268.357 156.226 265.495C130.785 256.969 104.325 250.735 77.6543 245.496L44.1725 238.978C43.9287 238.921 43.6776 238.855 43.4208 238.787L43.4189 238.787L43.4187 238.786C42.8201 238.628 42.1908 238.462 41.5508 238.386C41.5839 238.315 41.6098 238.251 41.6339 238.191L41.6342 238.19C41.7001 238.025 41.7521 237.896 41.9022 237.778ZM399.322 433.619C399.742 433.732 400.151 433.853 400.559 433.974C401.376 434.216 402.193 434.459 403.101 434.629L403.104 434.63L403.105 434.63C414.184 436.7 425.262 438.77 436.363 440.657C443.157 441.808 449.955 442.93 456.759 444.052L456.763 444.053C466.818 445.711 476.885 447.372 486.974 449.134C502.162 451.79 517.138 455.441 531.836 460.637C534.015 461.376 536.176 462.265 538.524 463.232L538.525 463.232C539.831 463.77 541.195 464.332 542.653 464.905C542.247 465.11 541.92 465.293 541.646 465.445C541.121 465.738 540.794 465.921 540.486 465.945C539.834 465.96 539.021 465.769 538.311 465.499C511.265 456.409 483.166 451.464 455.104 446.988C440.181 444.57 425.471 441.828 410.602 439.057L409.195 438.795C404.925 438.005 400.7 436.849 396.474 435.692L396.474 435.692C393.874 434.917 392.622 433.745 392.878 432.383C393.391 430.363 395.109 430.075 396.688 429.81L396.81 429.79C399.666 429.387 402.545 429.093 405.437 428.798C407.231 428.614 409.03 428.431 410.833 428.22C415.153 427.809 419.48 427.43 423.807 427.051C432.461 426.292 441.115 425.534 449.717 424.522C457.157 423.649 464.582 422.124 471.824 420.578C474.111 420.066 476.401 419.14 478.676 418.22C479.629 417.834 480.58 417.45 481.526 417.097C481.613 417.054 481.697 417.012 481.78 416.97C482.263 416.729 482.685 416.519 483.123 416.174C485.48 414.321 485.678 412.674 483.598 410.66C482.184 409.284 480.565 408.068 478.8 407.3C473.689 405.016 468.474 402.813 463.113 401.056C449.282 396.596 435.112 393.583 421.008 390.584L421.008 390.584C420.407 390.456 419.807 390.329 419.206 390.201L418.471 390.044C382.455 382.201 346.424 373.706 311.125 362.977C288.277 356.062 265.698 348.435 243.874 338.393C236.653 335.113 229.659 331.49 223.141 326.995C220.145 324.872 217.252 322.668 215.099 319.717C212.161 315.558 212.519 311.794 216.759 308.96C218.787 307.531 221.057 306.41 223.547 305.78C223.976 305.678 224.406 305.575 224.837 305.472L224.837 305.472C229.87 304.27 234.984 303.048 240.11 302.379C252.743 300.906 265.461 299.672 278.158 298.439L278.16 298.439L278.17 298.438C281.655 298.1 285.138 297.762 288.617 297.419C309.955 295.24 331.338 292.695 352.332 287.968C359.962 286.282 367.534 284.311 374.768 281.277C377.016 280.34 379.286 279.219 381.395 277.893C382.603 277.109 383.65 276.12 384.616 275.029C385.583 273.938 385.634 272.737 384.645 271.69C384.408 271.468 384.174 271.243 383.942 271.019L383.942 271.019C382.948 270.063 381.977 269.129 380.844 268.542C376.889 266.675 372.934 264.808 368.731 263.469C358.924 260.066 348.76 258.105 338.676 256.247C317.595 252.25 296.221 249.347 274.911 246.454L274.852 246.446C273.329 246.239 271.807 246.032 270.285 245.825C266.521 245.315 262.756 244.814 258.992 244.313L258.973 244.311C239.166 241.676 219.369 239.042 199.799 235.06C193.091 233.699 186.324 232.052 179.66 230.326C176.247 229.36 172.879 228.027 169.693 226.717C168.192 226.073 166.734 225.063 165.562 223.994C162.874 221.629 162.837 218.839 165.627 216.481C167.186 215.089 169.068 214.107 170.928 213.309C176.584 210.944 182.269 208.718 187.935 206.499C190.396 205.535 192.854 204.573 195.304 203.601C203.395 200.392 211.325 196.978 218.816 192.583C227.493 187.587 234.639 180.643 241.279 173.268C248.659 165.145 254.926 156.239 259.391 146.096C262.297 139.666 264.229 132.841 264.535 125.635C264.95 115.192 260.95 106.728 253.619 99.7209C251.971 98.1308 250.212 96.6276 248.453 95.1244L248.453 95.124C247.281 94.1219 246.108 93.1199 244.969 92.0921C244.991 91.909 245.033 91.7516 245.075 91.5941C245.117 91.4367 245.159 91.2792 245.181 91.0961C245.339 91.2002 245.475 91.3212 245.602 91.4338C245.751 91.5667 245.888 91.6877 246.03 91.755C247.342 92.7725 248.681 93.7494 250.016 94.7234C252.57 96.5877 255.11 98.4413 257.419 100.548C267.139 109.326 269.792 120.508 267.832 132.994C266.405 142.572 262.563 151.397 257.402 159.6C249.122 172.907 238.821 184.487 226.015 193.724C219.908 198.192 213.12 201.371 206.113 204.06C201.394 205.863 196.66 207.593 191.926 209.324L191.925 209.325C187.192 211.056 182.458 212.787 177.738 214.589C175.022 215.563 172.569 216.662 170.013 217.842C169.414 218.11 168.866 218.524 168.209 219.02C167.79 219.336 167.327 219.686 166.777 220.054C167.194 220.356 167.578 220.647 167.943 220.923C168.923 221.665 169.764 222.302 170.725 222.755C171.563 223.069 172.405 223.401 173.251 223.734L173.252 223.735C175.725 224.71 178.236 225.7 180.794 226.283C181.647 226.478 182.501 226.675 183.355 226.871C191.012 228.633 198.735 230.41 206.528 231.594C221.302 233.829 236.113 235.951 250.923 238.074C265.735 240.196 280.547 242.319 295.322 244.554C314.743 247.53 334.039 250.771 353.314 254.194C357.991 255.035 362.664 256.355 367.311 257.667C368.805 258.089 370.296 258.51 371.783 258.914C375.013 259.858 378.096 261.248 380.996 262.617C382.842 263.488 384.746 264.645 386.262 265.941C391.499 270.282 391.456 275.291 386.389 279.606C383.292 282.206 379.836 283.927 376.036 285.422C367.74 288.792 359.026 290.998 350.253 292.918C330.343 297.126 310.183 299.539 289.906 301.381C285.506 301.795 281.101 302.201 276.692 302.608L276.681 302.609L276.676 302.61C264.998 303.687 253.297 304.766 241.627 305.996C236.084 306.539 230.555 307.734 225.026 308.929C222.925 309.42 220.779 310.277 218.898 311.258C216.013 312.863 215.486 314.935 217.522 317.315C219.133 319.365 221.052 321.173 223.096 322.718C228.801 327.023 235.107 330.192 241.515 333.282C259.363 341.641 278.001 348.052 296.785 354.017C332.831 365.485 369.631 374.536 406.643 382.592C421.846 385.899 437.129 389.308 452.369 393.084C459.399 394.855 466.364 397.175 473.226 399.575C475.921 400.458 478.414 401.869 480.946 403.3L480.946 403.301C481.352 403.53 481.759 403.761 482.168 403.989C483.648 404.816 484.922 405.805 486.072 407.057C490.393 411.289 490.065 416.356 484.844 419.631C482.428 421.198 479.667 422.539 476.973 423.33C471.686 424.832 466.238 426.13 460.834 427.061C449.554 429.111 438.121 429.957 426.657 430.805L426.657 430.805C425.291 430.906 423.924 431.007 422.557 431.11C419.094 431.345 415.676 431.586 412.258 431.826L412.255 431.827C408.838 432.067 405.421 432.307 401.958 432.542C401.021 432.616 399.981 432.77 398.941 432.924C399.366 433.253 399.344 433.436 399.322 433.619ZM-20.2924 138.861C-22.403 138.681 -24.5187 138.499 -26.6388 138.296C-26.7632 138.56 -26.7045 138.845 -26.4628 139.153C-25.65 139.343 -24.7346 139.453 -23.8192 139.563C-22.9526 139.666 -22.0796 139.765 -21.2038 139.864C-18.5641 140.163 -15.8985 140.465 -13.3031 140.915C13.031 145.092 38.8602 151.157 64.4992 158.036C82.8661 162.836 101.065 168.266 118.846 174.854C122.215 176.186 125.664 177.62 128.806 179.297C130.732 180.27 132.593 181.793 134.27 183.294C136.592 185.615 136.695 187.856 134.82 190.324C133.935 191.518 132.968 192.609 131.841 193.495C127.697 197.084 122.849 199.568 117.863 201.663C107.97 205.956 97.704 208.719 87.2547 211.46L87.2543 211.46C86.0096 211.775 84.7649 212.09 83.6813 212.61C83.1907 212.83 82.8174 213.621 82.8541 214.09C82.8908 214.558 83.6379 215.298 84.004 215.342C85.2856 215.495 86.5891 215.466 87.7314 215.231C101.256 212.394 114.547 208.415 126.921 202.005C131.175 199.822 135.269 197.434 138.336 193.531C142.165 188.697 141.783 183.358 137.257 179.288C135.155 177.457 132.665 175.766 130.028 174.522C126.257 172.677 122.441 171.199 118.42 169.881C78.5004 156.649 37.922 146.588 -3.71009 140.672C-9.19509 139.813 -14.7262 139.339 -20.2924 138.861Z" fill="black"/>
</g>
</svg>
