<svg width="112" height="38" viewBox="0 0 112 38" fill="none" xmlns="http://www.w3.org/2000/svg">
<path d="M12.4976 19.0575L19.5313 9.64591H16.6016C15.2905 9.64591 14.4409 10.1098 13.7476 11.0351L10.0293 16.0107L6.44288 11.0351C5.74708 10.1098 4.89991 9.64591 3.58643 9.64591H0.656739L7.60011 19.0575L0 29.3188H2.77832C4.08936 29.3188 4.93653 28.8549 5.63233 27.9296L10.0269 22.1044L20.3272 36.3403C20.9815 37.2656 21.8701 37.727 23.1812 37.727H26.189L12.4976 19.0575ZM68.7012 29.3115H72.6734V9.64591H68.7012V29.3115ZM37.1851 29.3115H41.1597V9.64591H37.1851V29.3115ZM97.4391 36.2548L111.817 9.64591H109.656C108.345 9.64591 107.341 10.0317 106.802 11.0351L101.143 21.5649L96.2428 11.0351C95.7545 9.99259 94.6998 9.64591 93.3888 9.64591H91.3087L98.8771 25.6933L92.2853 37.727H94.4435C95.7789 37.727 96.8605 37.3046 97.4391 36.2621V36.2548ZM45.8985 9.64591V29.3188H49.8707V15.8178C51.106 14.0819 52.8809 13.0028 55.0782 13.0028C58.0079 13.0028 60.0172 14.8534 60.0172 18.5571V27.4291C60.0034 27.6776 60.0416 27.9261 60.1293 28.159C60.2169 28.3918 60.352 28.6039 60.5261 28.7817C60.7002 28.9594 60.9094 29.099 61.1404 29.1915C61.3714 29.2839 61.6191 29.3273 61.8677 29.3188H63.9893V17.8612C63.9893 12.7709 60.7496 9.2211 56.0425 9.2211C53.759 9.18172 51.5482 10.0248 49.8707 11.5746V9.64591H45.8985ZM80.0367 22.3412C80.0367 26.6235 82.6588 29.6655 87.3609 29.6655C88.3389 29.6779 89.3135 29.548 90.254 29.2797L89.4532 25.808C88.8586 25.9406 88.2509 26.0053 87.6417 26.0009C85.713 26.0009 84.0138 24.9609 84.0138 22.2607V13.186H89.5704L87.9493 9.64591H84.0138V1.73818L80.0416 3.47403V9.64591H75.8375V13.186H80.0416L80.0367 22.3412ZM24.9585 13.186V29.2992H28.9307V13.186H34.0235V9.64591H28.9307V8.18106C28.9307 4.82413 30.9375 3.70596 32.9029 3.70596C33.3599 3.70409 33.8147 3.76907 34.253 3.89883L35.0635 0.388085C34.2709 0.111226 33.4346 -0.0194732 32.5952 0.00234277C27.6587 0.00234277 24.9585 3.66446 24.9585 8.10294V9.64591H22.8736L20.3662 13.186H24.9585Z" fill="white"/>
</svg>
