<?xml version="1.0" encoding="UTF-8"?>
<svg width="120px" height="30px" viewBox="0 0 120 30" version="1.1" xmlns="http://www.w3.org/2000/svg" xmlns:xlink="http://www.w3.org/1999/xlink">
    <!-- Generator: Sketch 63.1 (92452) - https://sketch.com -->
    <title>dribbble-logo</title>
    <desc>Created with Sketch.</desc>
    <g id="Page-1" stroke="none" stroke-width="1" fill="none" fill-rule="evenodd">
        <g id="dribbble-logo" fill="#000000">
            <path d="M118.530732,20.2681171 C118.159317,19.9992878 117.864878,19.9608878 117.621659,20.4729366 C113.448293,29.4980488 106.420098,24.9919317 107.124293,25.3887805 C108.686049,24.6718829 112.782732,21.3946537 112.168098,16.850078 C111.796976,14.0721073 109.415707,12.843161 106.881073,13.2912 C102.464488,14.0593171 100.851512,18.8215317 101.670732,23.0332683 C101.811512,23.7629854 102.06761,24.3518634 102.336585,24.9407415 C97.3565854,28.9988488 95.3724878,21.3178537 95.1418537,20.3961366 C95.1292683,20.3449171 98.9953171,17.1316976 100.070634,9.46352195 C101.197171,1.43687122 98.6367805,-0.0353203902 96.0125854,0.0158862439 C91.1607805,0.105497854 89.8548293,10.2316098 91.6085854,18.6679024 C91.4678049,18.7063024 90.7764878,19.090361 89.6757073,19.128761 C88.8819512,16.632439 85.4894634,14.4433756 84.6061463,15.2882634 C82.3914146,17.4005561 85.1438049,21.5226732 87.0898537,21.842722 C85.9246829,29.0244585 78.6278049,27.2450341 79.9846829,18.2454439 C82.3530732,13.841678 84.1709268,7.27442927 83.8381463,3.31870244 C83.7228293,1.92333366 82.6858537,0.041489561 80.3432195,0.131101171 C75.8370732,0.310325854 75.3506341,10.4364293 75.8754146,17.6309854 C75.8499512,17.4517463 75.5938537,18.5014829 73.7502439,19.0263512 C73.3150244,16.6068585 69.4106341,14.1617268 68.4889756,15.3394829 C66.773561,17.5285756 69.7562927,21.4330829 71.1643902,21.7019122 C69.9995122,28.8836488 62.7026341,27.1041951 64.0595122,18.1046341 C66.4407805,13.7008683 68.2457561,7.14640976 67.925561,3.1907122 C67.8105366,1.79531707 66.773561,-0.0865270244 64.4306341,0.00308458537 C59.9244878,0.182307805 59.4380488,10.3084098 59.963122,17.5029659 C59.9373659,17.3237268 59.6812683,18.4118927 57.7609756,18.9239415 C57.6971707,15.7747317 53.7799024,14.3409366 52.8324878,15.3394829 C51.1554146,17.1316976 53.2164878,20.8057756 55.1239024,21.7019122 C53.9590244,28.8836488 46.6621463,27.1041951 48.0190244,18.1046341 C50.3874146,13.7008683 52.2052683,7.13361951 51.8724878,3.17789268 C51.7700488,1.79531707 50.7330732,-0.0865270244 48.3901463,0.00308458537 C43.884,0.182307805 43.5257561,10.8204878 44.0505366,18.0150146 C42.5654634,24.3774439 37.5857561,32.3145366 38.238439,16.4020098 C38.3025366,15.2882634 38.3666341,14.8658049 37.8160976,14.4433756 C37.3937561,14.1233268 36.4463415,14.2769268 35.9341463,14.2897463 C35.3069268,14.3153561 35.1406829,14.6865951 35.0124878,15.2370732 C34.6925854,16.670839 34.6284878,18.0662341 34.5772683,19.973678 C34.5518049,20.8697854 34.4748293,21.2794537 34.1291707,22.4956098 C33.7835122,23.7117659 31.8377561,25.9264683 30.762439,25.5552 C29.2773659,25.0431512 29.7638049,20.8569951 30.0453659,17.9766146 C30.276,15.6979317 29.5334634,14.6865951 27.6387805,14.3153561 C26.5250341,14.0849268 25.8465659,14.1233268 24.6944195,13.7520585 C23.5934634,13.4064293 23.3502439,11.3325659 21.0203415,12.0238537 C19.7401756,12.4079122 20.5594829,15.1090537 20.2522244,17.1189073 C18.7416293,26.9889951 15.605239,27.2578244 14.1458341,22.47 C20.7002927,6.3911122 16.0276976,0.0542912195 13.3009171,0.0542912195 C10.4589659,0.0542912195 7.20734634,2.01294439 8.57710244,14.5585756 C7.91142439,14.3665463 7.70660488,14.2641366 6.96409756,14.2641366 C2.82916683,14.2513463 0,17.6053756 0,21.7403122 C0,25.8752488 2.82916683,29.229278 6.97691707,29.229278 C9.42201951,29.229278 11.1374341,28.1155317 12.4432098,26.4001171 C13.2881268,27.6162732 14.3250732,29.2548878 16.2196976,29.1780878 C21.852439,28.9604488 23.4910537,17.4005561 23.6830829,16.7476683 C24.2847512,16.8372878 24.860839,17.0164976 25.4113171,17.1061171 C26.3330341,17.2469268 26.4098341,17.6181659 26.3842244,18.5398829 C26.1410049,26.4001171 27.5875902,29.152478 30.8777561,29.152478 C32.7081951,29.152478 34.3469268,27.3474439 35.4734634,26.067278 C36.318439,27.8083024 37.649561,29.1012585 39.4548293,29.152478 C43.8073171,29.2548878 45.4843902,22.3163707 45.3307317,23.2252976 C45.2154146,23.9421951 46.7388293,29.1012585 51.2323902,29.1268683 C56.7880976,29.152478 57.8250732,23.0460878 57.9403902,22.021961 C57.9658537,21.842722 57.9532683,21.8171122 57.9403902,22.021961 C57.9403902,22.0347512 57.9403902,22.060361 57.9403902,22.0859415 C59.7070244,21.7531024 60.6158049,20.8185951 60.6158049,20.8185951 C60.6158049,20.8185951 62.0367805,29.229278 67.272878,29.1396878 C72.713561,29.0372488 73.7502439,23.5197366 73.878439,22.4443902 C73.9039024,22.213961 73.8913171,22.1883805 73.878439,22.4443902 C73.878439,22.4572098 73.878439,22.47 73.878439,22.47 C75.9778537,21.7019122 76.5283902,20.9466146 76.5283902,20.9466146 C76.5283902,20.9466146 77.6549268,29.190878 83.1851707,29.267678 C88.1139512,29.3318049 89.9443902,24.2750341 89.9572683,22.1627707 C90.7893659,22.175561 92.3256585,21.6635122 92.2873171,21.6379024 C92.2873171,21.6379024 94.0922927,28.8452488 99.1360976,29.2164878 C101.504488,29.3956098 103.283707,27.8851024 104.29522,27.1938146 C106.676195,29.1268683 114.600585,31.584878 119.606049,23.097278 C120.322829,21.8939415 118.799415,20.4473561 118.530732,20.2681171 Z M6.77206829,26.4257268 C4.35257561,26.4257268 2.80356585,24.1854439 2.80356585,21.7787122 C2.80356585,19.3720098 4.2245561,17.1316976 6.64407805,17.1316976 C7.73221463,17.1316976 8.33388293,17.2469268 9.19159024,17.9894341 C9.34521951,18.5911024 9.78046829,19.9864976 9.99810732,20.6265659 C10.2797268,21.4714829 10.6253854,22.2011707 10.9582244,22.982078 C10.4589659,25.004722 8.87154146,26.4257268 6.77206829,26.4257268 Z M12.6608488,18.0534439 C12.558439,17.8870244 12.5840488,17.9894341 12.4688195,17.8358049 C12.0335707,16.632439 11.1758634,13.9440878 11.0734537,10.8844976 C10.9582244,7.42805854 11.5343122,3.36992195 13.2369073,3.36992195 C14.3890829,3.36992195 15.6180293,11.5886049 12.6608488,18.0534439 Z M46.7259512,14.4561659 C46.4572683,12.4079122 46.4443902,3.25472195 48.6336585,3.51073171 C49.8497561,3.9972 47.8653659,12.625522 46.7259512,14.4561659 Z M62.766439,14.4561659 C62.4977561,12.4079122 62.484878,3.25472195 64.6741463,3.51073171 C65.8902439,3.9972 63.9058537,12.625522 62.766439,14.4561659 Z M78.6790244,14.5841854 C78.4100488,12.5359024 78.3974634,3.3827122 80.586439,3.63875122 C81.8025366,4.11242927 79.818439,12.7535415 78.6790244,14.5841854 Z M96.2429268,2.96028293 C98.2527805,2.75544293 98.1632195,11.5245951 94.1435122,17.0548976 C93.618439,15.0578341 92.8249756,3.65157073 96.2429268,2.96028293 Z M104.692098,21.842722 C104.052,18.5783122 105.716195,16.4404098 107.43161,16.2099805 C108.033366,16.1203902 108.903805,16.5044195 109.070049,17.2341366 C109.351902,18.6038927 109.031707,20.6393561 105.178537,23.2125073 C105.191415,23.2252976 104.832878,22.5596195 104.692098,21.842722 Z M36.6,11.7806049 C37.9697561,11.7806049 39.0834146,10.6668585 39.0834146,9.29710244 C39.0834146,7.92731707 37.9697561,6.81357073 36.6,6.81357073 C35.2302439,6.81357073 34.1162927,7.92731707 34.1162927,9.29710244 C34.1162927,10.6668585 35.2302439,11.7806049 36.6,11.7806049 Z" id="Shape"></path>
        </g>
    </g>
</svg>