<svg width="97" height="141" viewBox="0 0 97 141" fill="none" xmlns="http://www.w3.org/2000/svg">
<path d="M71.7429 45.0811C79.2429 45.2811 85.5429 46.9811 90.9429 50.9811C98.9429 56.7811 102.943 64.6811 102.443 74.6811C102.243 78.4811 100.643 81.7811 98.1429 84.5811C93.8429 89.4811 88.2429 91.8811 81.7429 92.6811C81.1429 92.7811 80.6429 92.7811 80.0429 92.6811C73.5429 91.5811 67.1429 90.3811 61.3429 87.0811C53.8429 82.5811 49.9429 75.8811 50.0429 67.0811C50.2429 56.9811 58.1429 47.4811 67.7429 45.4811C69.3429 45.1811 70.9429 45.1811 71.7429 45.0811ZM72.4429 55.9811C71.0429 56.2811 69.5429 56.3811 68.2429 56.8811C62.1429 59.3811 59.3429 67.4811 62.6429 73.1811C63.7429 75.1811 65.4429 76.6811 67.4429 77.6811C71.2429 79.5811 75.3429 80.7811 79.5429 81.1811C81.5429 81.3811 83.7429 80.9811 85.6429 80.1811C90.2429 78.3811 92.1429 74.8811 91.1429 70.2811C90.2429 66.0811 88.1429 62.4811 84.5429 59.9811C81.0429 57.5811 76.9429 56.3811 72.4429 55.9811Z" fill="#EA552B"/>
<path d="M81.9473 21.0811C86.0473 21.4811 90.2473 21.5811 94.3473 22.1811C103.847 23.6811 111.547 28.5811 117.347 36.1811C124.947 45.9811 129.047 57.1811 129.447 69.6811C129.647 74.4811 128.647 79.0811 126.747 83.4811C124.947 87.5811 122.747 91.4811 119.847 94.9811C110.147 106.581 98.3473 114.781 83.0473 116.881C72.7473 118.281 62.5473 117.681 52.8473 114.081C46.1473 111.481 40.0473 107.781 34.6473 103.081C32.8473 101.481 31.3473 99.3811 30.0473 97.2811C26.5473 91.3811 24.4473 84.8811 22.5473 78.3811C21.9473 76.3811 22.0473 74.0811 22.0473 71.9811C22.0473 58.5811 26.8473 47.1811 36.8473 38.0811C48.2473 27.7811 61.5473 21.8811 77.1473 21.3811C78.7473 21.3811 80.3473 21.3811 81.9473 21.3811C81.9473 21.2811 81.9473 21.1811 81.9473 21.0811ZM81.7473 32.2811C68.6473 31.8811 57.0473 35.9811 46.8473 44.0811C42.6473 47.4811 39.0473 51.3811 36.6473 56.3811C31.1473 67.8811 32.2473 78.9811 38.6473 89.7811C39.6473 91.481 41.1473 92.8811 42.7473 94.0811C45.3473 96.0811 48.0473 97.8811 50.8473 99.5811C58.3473 104.181 66.3473 106.781 75.3473 106.381C92.7473 105.581 105.447 97.2811 114.547 82.9811C115.647 81.2811 116.447 79.4811 117.047 77.5811C117.747 75.4811 118.247 73.1811 118.347 71.0811C118.347 60.1811 114.747 50.4811 107.947 42.1811C103.547 36.8811 97.8473 33.6811 90.8473 32.9811C87.8473 32.5811 84.7473 32.4811 81.7473 32.2811Z" fill="#EE8DB9"/>
<path d="M67.0414 140.181C58.7414 140.181 51.8414 139.081 45.2414 136.381C40.9414 134.581 37.0414 132.081 33.6414 128.781C29.0414 124.281 24.2414 119.781 19.5414 115.381C19.1414 114.981 18.6414 114.681 18.2414 114.281C16.6414 112.781 14.7414 111.381 13.4414 109.581C6.74136 100.481 1.64136 90.581 0.341363 79.081C-0.758637 69.381 0.841363 60.081 4.54136 51.181C7.44136 44.081 11.1414 37.481 16.0414 31.681C21.0414 25.781 26.7414 20.981 33.5414 17.281C41.6414 13.081 49.8414 9.08102 58.4414 5.88102C70.7414 1.38102 83.5414 -0.418985 96.6414 0.0810152C101.441 0.281015 106.041 1.38102 110.241 3.68102C115.241 6.38101 120.241 9.18102 124.841 12.381C134.541 18.981 140.441 28.581 144.241 39.381C149.641 54.781 150.241 70.581 145.941 86.381C145.041 89.681 143.841 92.981 142.341 95.981C135.341 109.781 125.441 120.881 111.441 128.081C97.0414 135.481 81.9414 139.481 67.0414 140.181ZM66.8414 129.081C80.5414 128.281 94.2414 124.581 107.141 117.881C117.641 112.381 125.141 103.981 130.941 93.881C132.641 90.881 134.141 87.581 135.041 84.181C138.941 69.981 138.441 55.781 133.241 41.981C130.141 33.781 125.641 26.481 118.141 21.381C114.141 18.681 109.841 16.281 105.541 13.881C102.241 12.081 98.6414 11.281 94.9414 11.181C83.4414 10.981 72.1414 12.581 61.3414 16.681C53.7414 19.581 46.3414 23.181 39.1414 26.981C33.5414 29.981 28.8414 33.881 24.7414 38.681C20.6414 43.481 17.6414 48.881 15.1414 54.681C11.3414 63.481 10.0414 72.481 12.0414 81.881C12.9414 86.081 14.1414 89.981 17.5414 93.081C19.1414 94.581 20.3414 96.581 21.5414 98.381C22.6414 99.981 23.6414 101.581 24.5414 103.281C26.0414 105.881 27.9414 108.081 30.1414 110.081C33.6414 113.281 37.2414 116.581 40.5414 119.981C44.0414 123.481 48.1414 125.781 52.7414 127.181C57.1414 128.581 61.5414 129.081 66.8414 129.081Z" fill="#F7D046"/>
</svg>
