<svg width="260" height="395" viewBox="0 0 260 395" fill="none" xmlns="http://www.w3.org/2000/svg">
<path d="M450.024 180.032C448.924 194.732 448.024 209.632 446.724 224.432C445.524 237.932 443.524 251.432 439.324 264.432C432.424 285.732 420.924 304.432 406.624 321.532C390.324 341.032 369.824 354.432 346.124 363.332C328.824 369.732 311.124 374.632 293.324 379.132C277.424 383.132 261.324 386.032 245.224 389.232C235.524 391.132 225.924 393.032 216.124 393.732C208.724 394.332 201.324 394.932 193.824 394.032C186.224 393.032 178.924 391.332 171.924 388.232C170.224 387.432 168.424 386.632 166.724 385.832C155.024 380.832 144.724 373.932 135.324 365.432C130.624 361.132 126.124 356.732 122.324 351.632C121.524 350.532 120.624 349.532 119.924 348.332C115.524 340.632 110.824 333.032 107.224 324.932C104.524 318.832 102.624 312.532 101.924 305.832C100.724 294.732 99.6236 283.732 100.124 272.532C100.724 260.832 102.524 249.332 105.324 237.932C108.624 224.632 112.324 211.532 115.824 198.332C118.624 187.632 121.424 176.832 122.924 165.732C123.824 159.332 124.424 152.832 124.624 146.432C124.824 137.732 124.524 129.032 124.324 120.232C124.124 109.532 124.424 98.8319 126.424 88.2319C131.024 63.7319 143.324 43.732 162.424 27.932C175.424 17.132 190.324 10.032 206.724 5.83195C225.624 0.931953 244.824 -0.968047 264.124 0.531953C279.324 1.63195 294.224 4.73195 308.724 9.53195C332.424 17.432 355.524 26.832 377.624 38.432C387.524 43.632 396.824 49.732 405.424 56.732C423.824 71.832 435.824 91.032 442.524 113.732C448.424 133.532 450.924 153.732 450.024 174.432C449.924 176.232 450.024 178.132 450.024 180.032Z" fill="#EA552B"/>
<mask id="mask0" mask-type="alpha" maskUnits="userSpaceOnUse" x="100" y="0" width="351" height="395">
<path d="M450.024 180.032C448.924 194.732 448.024 209.632 446.724 224.432C445.524 237.932 443.524 251.432 439.324 264.432C432.424 285.732 420.924 304.432 406.624 321.532C390.324 341.032 369.824 354.432 346.124 363.332C328.824 369.732 311.124 374.632 293.324 379.132C277.424 383.132 261.324 386.032 245.224 389.232C235.524 391.132 225.924 393.032 216.124 393.732C208.724 394.332 201.324 394.932 193.824 394.032C186.224 393.032 178.924 391.332 171.924 388.232C170.224 387.432 168.424 386.632 166.724 385.832C155.024 380.832 144.724 373.932 135.324 365.432C130.624 361.132 126.124 356.732 122.324 351.632C121.524 350.532 120.624 349.532 119.924 348.332C115.524 340.632 110.824 333.032 107.224 324.932C104.524 318.832 102.624 312.532 101.924 305.832C100.724 294.732 99.6236 283.732 100.124 272.532C100.724 260.832 102.524 249.332 105.324 237.932C108.624 224.632 112.324 211.532 115.824 198.332C118.624 187.632 121.424 176.832 122.924 165.732C123.824 159.332 124.424 152.832 124.624 146.432C124.824 137.732 124.524 129.032 124.324 120.232C124.124 109.532 124.424 98.8319 126.424 88.2319C131.024 63.7319 143.324 43.732 162.424 27.932C175.424 17.132 190.324 10.032 206.724 5.83195C225.624 0.931953 244.824 -0.968047 264.124 0.531953C279.324 1.63195 294.224 4.73195 308.724 9.53195C332.424 17.432 355.524 26.832 377.624 38.432C387.524 43.632 396.824 49.732 405.424 56.732C423.824 71.832 435.824 91.032 442.524 113.732C448.424 133.532 450.924 153.732 450.024 174.432C449.924 176.232 450.024 178.132 450.024 180.032Z" fill="black"/>
</mask>
<g mask="url(#mask0)">
<path fill-rule="evenodd" clip-rule="evenodd" d="M217.824 60.3319C217.824 56.2319 218.624 52.7319 220.624 49.6319C221.524 48.2319 222.824 46.8319 224.224 45.8319C226.224 44.4319 229.124 44.8319 230.524 47.0319C230.824 47.5319 231.524 47.9319 232.124 48.2319C232.446 48.4162 232.79 48.558 233.125 48.6964C233.518 48.8586 233.9 49.0162 234.224 49.2319C238.824 52.3319 241.324 60.1319 239.424 65.2319C237.724 69.8319 231.724 73.6319 226.924 73.1319C224.124 72.8319 222.024 71.3319 220.424 69.0319C218.624 66.3319 217.824 63.2319 217.824 60.3319ZM300.923 59.8319C296.623 62.8319 295.123 67.2319 295.023 72.2319C295.023 74.9319 295.623 77.4319 296.723 79.9319C298.623 83.7319 302.123 85.6319 306.323 85.1319C310.623 84.6319 314.023 82.5319 316.723 79.3319C323.823 70.7319 318.423 60.0319 309.023 58.0319C306.023 57.4319 303.423 58.0319 300.923 59.8319ZM345.024 129.532C345.124 124.632 346.524 120.132 349.324 116.032C350.524 114.332 351.924 112.832 353.824 111.832C355.324 111.032 356.724 110.632 358.424 111.432C358.924 111.632 359.524 111.732 360.024 111.732C366.424 112.132 371.424 116.932 372.024 123.332C372.524 128.932 370.524 133.732 366.524 137.532C363.924 140.032 360.824 141.632 357.324 142.332C353.524 143.032 350.424 141.732 348.024 138.732C345.824 136.032 344.924 132.932 345.024 129.532ZM287.424 305.332C287.324 301.832 288.124 297.832 290.124 294.132C290.631 293.118 291.495 292.175 292.294 291.303C292.359 291.232 292.424 291.162 292.488 291.092C292.567 291.005 292.646 290.918 292.724 290.832C293.624 289.832 294.624 288.932 295.624 288.032C299.824 283.932 305.124 284.232 308.624 288.932C310.224 291.032 311.724 293.332 310.724 296.232C310.6 296.54 310.667 296.886 310.736 297.246C310.779 297.471 310.824 297.701 310.824 297.932C311.324 304.532 309.024 310.132 304.524 314.932C302.724 316.832 300.524 318.032 297.924 318.732C293.924 319.832 290.624 318.232 288.824 314.532C287.624 311.632 287.324 308.832 287.424 305.332ZM373.554 192.57C373.514 193.229 373.472 193.913 373.424 194.632C373.441 194.804 373.458 194.991 373.476 195.19L373.477 195.196C373.564 196.148 373.676 197.358 373.924 198.432C374.924 203.332 378.624 206.332 383.624 206.432C387.124 206.532 390.124 205.332 392.624 203.032C397.224 198.732 399.324 193.432 398.724 187.132C398.024 180.632 393.124 176.432 386.224 176.332C379.824 176.232 374.824 180.532 374.024 186.832C373.795 188.657 373.683 190.482 373.554 192.57L373.554 192.57ZM179.824 259.932C179.824 264.632 178.824 268.932 176.324 272.832C175.824 273.532 175.324 274.232 174.724 274.932C168.724 281.732 160.924 278.532 158.024 272.832C156.124 269.032 155.824 265.032 156.824 260.932C156.893 260.673 156.962 260.417 157.03 260.162L157.033 260.154L157.033 260.151C157.361 258.938 157.676 257.769 157.924 256.532C158.824 253.032 160.624 250.032 163.624 247.932C168.324 244.532 173.924 245.532 177.224 250.332C179.224 253.132 179.724 256.532 179.824 259.932ZM181.823 323.532C179.823 328.032 178.723 332.932 178.523 336.632C178.423 340.832 178.923 343.732 180.623 346.232C182.823 349.432 186.223 350.732 190.023 350.032C193.023 349.532 195.323 347.832 197.223 345.632C203.123 338.832 204.223 328.532 196.823 320.332C194.623 317.832 191.423 317.232 188.323 318.532C188.207 318.59 188.082 318.665 187.954 318.742L187.953 318.743C187.64 318.931 187.307 319.132 187.023 319.132C184.123 319.332 182.823 321.232 181.823 323.532ZM308.424 230.532C308.624 226.632 310.124 222.432 312.924 218.632C314.224 216.832 315.724 215.332 318.224 215.532C318.677 215.532 319.187 215.247 319.667 214.978C319.824 214.891 319.977 214.805 320.124 214.732C323.424 213.132 326.524 213.532 329.124 216.132C332.424 219.532 333.524 223.632 332.924 228.232C332.524 231.532 331.424 234.632 329.624 237.432C327.424 240.932 324.224 243.132 320.224 243.832C316.624 244.532 313.624 243.332 311.324 240.432C309.224 237.832 308.424 234.732 308.424 230.532ZM208.149 192.02C208.076 192.562 208.003 193.1 207.924 193.632C208.224 198.032 208.924 202.332 211.224 206.132C212.224 207.932 213.524 209.432 216.024 208.632C216.157 208.565 216.379 208.587 216.601 208.61C216.712 208.621 216.824 208.632 216.924 208.632C220.324 209.132 223.024 207.632 225.124 205.132C228.924 200.532 230.424 195.232 230.124 189.332C230.024 187.132 229.524 184.932 228.424 182.932C225.324 177.232 219.524 175.932 214.324 179.832C211.724 181.832 209.724 184.332 208.924 187.532C208.556 189 208.351 190.523 208.149 192.02ZM255.924 255.632C255.824 260.432 254.123 264.732 250.623 268.132C249.823 268.932 248.924 269.632 248.023 270.232C242.324 273.732 236.323 271.532 234.223 265.132C233.223 262.032 233.023 258.832 233.723 255.632C234.203 253.232 234.939 250.832 235.675 248.432C235.859 247.832 236.043 247.232 236.223 246.632C236.423 245.932 236.823 245.332 237.223 244.732C239.523 240.932 242.123 240.232 246.123 242.132C246.403 242.252 246.683 242.388 246.969 242.527L246.97 242.527L246.972 242.528L246.974 242.529L246.975 242.529L246.975 242.53C247.403 242.738 247.845 242.953 248.323 243.132C251.223 244.032 253.123 245.932 254.424 248.532C255.523 250.732 256.023 253.132 255.924 255.632ZM152.124 174.332C152.124 171.632 152.424 169.032 153.524 166.632C155.024 162.932 157.824 161.032 161.824 160.732C171.924 160.132 177.124 170.332 174.124 178.132C173.624 179.332 173.024 180.432 172.324 181.432C170.924 183.332 169.424 185.232 167.924 187.032C164.424 191.232 160.524 190.832 156.824 186.932C153.224 183.232 152.224 179.032 152.124 174.332ZM249.324 136.432C256.223 135.032 261.124 129.132 261.124 122.132C261.124 118.432 259.924 114.632 258.124 111.932C254.824 107.332 249.424 106.232 244.624 109.332C242.124 110.932 240.424 113.132 239.524 115.832C238.324 119.432 238.324 123.032 239.424 126.632C240.424 129.732 241.924 132.532 244.324 134.732C245.723 136.032 247.324 136.832 249.324 136.432ZM366.324 255.932C360.924 258.932 358.224 263.732 357.924 269.832C357.824 273.532 359.524 276.232 362.324 278.432C364.624 280.232 367.124 280.932 369.924 280.432C377.624 279.032 383.024 270.232 380.824 262.732C378.924 256.132 371.924 252.732 366.324 255.932ZM195.224 106.532C195.224 111.932 190.924 116.432 185.224 117.032C180.124 117.632 175.324 114.132 174.324 108.932C173.424 104.232 174.224 99.6319 176.824 95.5319C177.624 94.3319 178.824 93.2319 180.024 92.3319C181.524 91.3319 183.124 91.3319 184.724 92.5319C185.624 93.2319 186.574 93.9069 187.524 94.5819C188.474 95.2569 189.424 95.9319 190.324 96.6319C193.524 99.2319 195.024 102.632 195.224 106.532ZM288.523 160.232C285.923 162.932 284.823 166.132 284.823 169.832C284.823 173.932 286.523 177.832 289.023 180.032C291.923 182.532 295.623 182.732 298.123 180.132C300.023 178.232 301.623 176.032 303.023 173.732C304.723 170.932 304.823 167.732 304.123 164.632C303.323 161.132 301.324 158.532 297.723 157.532C294.223 156.632 291.023 157.632 288.523 160.232Z" fill="#FBE8DE"/>
</g>
<path d="M128.805 207.235C116.805 198.335 111.705 185.835 108.705 172.235C107.005 164.635 106.205 156.935 107.205 149.135C107.605 145.835 108.205 142.635 109.605 139.635C110.505 137.835 111.505 136.135 112.905 134.635C115.505 131.835 119.105 131.335 122.605 132.935C124.805 133.935 126.605 135.635 128.105 137.435C130.705 140.635 132.605 144.235 134.105 148.035C138.105 158.035 139.405 168.535 139.205 179.335C139.005 186.535 138.205 193.735 136.705 200.735C136.605 201.235 136.605 201.635 136.505 202.235C139.305 203.635 142.305 203.935 145.405 204.035C158.305 204.635 170.905 202.735 183.105 198.535C187.105 197.135 191.005 195.535 194.805 193.635C202.205 190.135 208.505 185.035 213.505 178.635C214.405 177.535 215.305 176.435 216.305 175.335C216.405 175.235 216.605 175.235 217.105 175.235C216.905 175.935 216.805 176.435 216.605 176.935C212.705 185.235 207.005 191.935 199.405 197.135C189.905 203.535 179.405 207.535 168.305 209.735C159.205 211.535 150.105 212.335 140.905 211.235C138.905 211.035 136.805 210.535 134.605 210.135C134.405 210.635 134.205 211.235 134.005 211.835C131.305 220.935 128.105 229.735 123.505 238.035C119.805 244.735 115.505 250.935 110.005 256.335C107.005 259.235 103.705 261.835 100.005 263.735C90.505 268.535 81.8049 267.035 74.6049 259.235C74.2049 258.835 73.8049 258.435 73.2049 257.835C72.8049 258.935 72.505 259.735 72.1049 260.635C69.505 267.835 66.6049 274.935 62.905 281.735C59.705 287.535 56.005 293.035 51.205 297.735C48.905 300.035 46.405 301.935 43.505 303.435C36.505 306.935 29.8049 306.435 23.4049 301.835C22.2049 301.035 21.2049 300.035 19.9049 299.035C19.5049 300.135 19.2049 300.935 18.9049 301.835C16.2049 309.835 12.905 317.735 8.80495 325.135C7.80495 327.035 6.60495 328.835 5.30495 330.535C4.70495 331.435 3.70495 332.035 2.80495 332.735C2.00495 333.235 1.10495 333.235 0.40495 332.435C-0.29505 331.635 0.0049504 330.835 0.60495 330.035C1.80495 328.335 2.90495 326.535 3.90495 324.735C8.90495 315.635 12.705 306.035 15.805 296.235C16.1049 295.335 16.305 294.435 15.605 293.535C9.10495 284.335 5.70495 273.935 3.60495 262.935C0.60495 247.635 0.0049504 232.135 1.80495 216.635C2.40495 211.335 3.40495 206.235 5.60495 201.335C6.40495 199.535 7.40495 197.735 8.60495 196.235C11.605 192.535 15.7049 192.335 19.3049 195.535C21.5049 197.535 23.0049 199.935 24.205 202.635C26.705 207.835 28.1049 213.435 29.0049 219.135C30.8049 230.035 30.805 240.935 29.705 251.935C28.405 265.335 25.805 278.535 22.205 291.435C21.805 292.935 21.805 294.035 23.1049 295.035C24.705 296.335 26.2049 297.835 27.9049 298.935C31.7049 301.335 35.705 301.535 39.805 299.735C42.6049 298.535 44.905 296.735 47.005 294.635C50.705 291.135 53.6049 287.035 56.305 282.735C61.9049 273.535 66.005 263.635 69.405 253.435C69.705 252.535 69.805 251.835 69.305 250.935C64.805 241.835 62.805 232.035 61.805 222.035C60.705 211.235 60.805 200.435 62.6049 189.735C63.305 185.635 64.205 181.535 65.905 177.735C66.6049 176.135 67.505 174.535 68.6049 173.235C71.3049 170.035 75.1049 170.135 77.6049 173.435C78.8049 175.035 79.705 176.835 80.405 178.735C82.305 184.035 82.905 189.635 83.305 195.235C84.305 213.135 81.305 230.635 76.305 247.735C76.105 248.335 76.005 248.935 75.7049 249.535C75.3049 250.535 75.505 251.435 76.1049 252.235C77.505 254.035 78.805 256.035 80.505 257.535C84.405 261.235 89.1049 262.135 94.1049 260.135C96.7049 259.135 99.2049 257.535 101.505 255.835C105.505 252.835 108.705 249.035 111.605 245.035C117.705 236.635 122.005 227.235 125.405 217.435C126.605 214.335 127.605 210.835 128.805 207.235ZM18.0049 288.335C18.3049 287.735 18.4049 287.535 18.5049 287.235C18.705 286.735 18.8049 286.135 19.0049 285.635C22.705 272.535 25.205 259.135 26.0049 245.535C26.6049 235.635 26.405 225.735 24.205 215.935C23.205 211.535 22.1049 207.235 19.9049 203.235C18.9049 201.535 17.7049 199.935 16.3049 198.535C15.0049 197.235 13.505 197.335 12.405 198.935C11.405 200.335 10.505 201.935 9.90495 203.535C7.70495 209.035 6.90495 214.835 6.40495 220.735C5.40495 233.635 6.10495 246.435 8.30495 259.235C9.90495 268.335 12.2049 277.235 16.4049 285.535C16.9049 286.235 17.3049 287.135 18.0049 288.335ZM130.605 198.735C130.905 197.535 131.105 196.735 131.205 196.035C131.605 193.235 132.105 190.535 132.405 187.735C133.505 177.635 133.205 167.635 130.705 157.735C129.405 152.635 127.605 147.835 124.705 143.435C123.605 141.835 122.305 140.435 120.905 139.135C119.005 137.535 117.705 137.935 116.405 140.035C115.905 140.835 115.505 141.735 115.305 142.635C114.805 144.935 114.205 147.335 114.005 149.735C113.305 158.435 114.505 166.935 116.905 175.335C119.005 182.535 122.105 189.235 127.005 195.035C128.005 196.235 129.205 197.335 130.605 198.735ZM73.505 176.535C73.305 176.535 73.005 176.535 72.805 176.635C72.305 177.535 71.6049 178.335 71.2049 179.235C70.505 181.135 69.7049 183.135 69.2049 185.135C66.8049 194.735 66.405 204.535 66.905 214.435C67.305 223.435 68.505 232.435 71.1049 241.135C71.3049 241.835 71.6049 242.535 71.905 243.235C72.505 242.435 72.905 241.635 73.005 240.835C74.2049 234.935 75.7049 229.135 76.6049 223.235C78.405 212.535 79.005 201.735 77.7049 191.035C77.3049 187.435 76.305 183.835 75.305 180.335C75.105 178.935 74.2049 177.735 73.505 176.535Z" fill="black"/>
</svg>
