<svg width="144" height="210" viewBox="0 0 144 210" fill="none" xmlns="http://www.w3.org/2000/svg">
<path d="M-60 103.798C-59.3 74.9982 -48.7 48.9982 -26.4 28.0982C-17.7 19.9982 -7.7 13.5982 2.8 8.09817C12.9 2.89817 23.8 0.49817 35.1 0.09817C52.8 -0.60183 69.7 2.39817 85.5 10.4982C115.2 25.6982 133.7 49.9982 141 82.3982C149.1 118.098 137.7 155.798 111.4 181.198C94.9 197.098 75.2 206.398 52.4 208.998C13.9 213.398 -23.6 194.698 -44.3 161.098C-54.7 143.998 -59.8 125.298 -60 103.798Z" fill="#F7D046"/>
<mask id="mask0" mask-type="alpha" maskUnits="userSpaceOnUse" x="-60" y="0" width="204" height="210">
<path d="M-60 103.798C-59.3 74.9982 -48.7 48.9982 -26.4 28.0982C-17.7 19.9982 -7.7 13.5982 2.8 8.09817C12.9 2.89817 23.8 0.49817 35.1 0.09817C52.8 -0.60183 69.7 2.39817 85.5 10.4982C115.2 25.6982 133.7 49.9982 141 82.3982C149.1 118.098 137.7 155.798 111.4 181.198C94.9 197.098 75.2 206.398 52.4 208.998C13.9 213.398 -23.6 194.698 -44.3 161.098C-54.7 143.998 -59.8 125.298 -60 103.798Z" fill="black"/>
</mask>
<g mask="url(#mask0)">
<path d="M-50.3189 178.45C-51.0189 178.85 -51.6189 179.25 -52.3189 179.65C-55.3189 181.55 -58.2189 183.45 -61.2189 185.35C-62.0189 185.85 -62.9189 186.35 -63.8189 186.55C-64.4189 186.65 -65.3189 186.35 -65.7189 185.95C-66.0189 185.45 -66.1189 184.45 -65.8189 183.95C-65.3189 183.05 -64.5189 182.35 -63.7189 181.75C-59.5189 178.55 -55.3189 175.35 -51.0189 172.35C-32.0189 159.05 -12.6189 146.35 7.38114 134.55C31.0811 120.65 54.8811 106.75 78.7811 93.2496C103.581 79.1496 129.481 67.0496 155.681 55.7496C161.581 53.1496 167.481 50.4496 173.381 47.8496C174.581 47.3496 175.681 46.7496 176.981 46.4496C180.781 45.2496 183.681 46.4496 185.381 49.9496C186.281 51.9496 186.981 54.1496 187.381 56.3496C189.481 66.6496 189.881 76.9496 189.381 87.3496C188.081 114.25 179.081 138.45 164.081 160.55C148.381 183.55 127.781 201.15 103.481 214.45C84.2811 224.95 63.8811 232.05 42.2811 235.25C29.7811 237.15 17.2811 237.65 4.78114 235.45C-5.61887 233.65 -15.3189 230.15 -24.2189 224.55C-35.6189 217.45 -43.7189 207.35 -49.6189 195.55C-51.9189 190.95 -52.2189 186.25 -50.8189 181.35C-50.6189 180.65 -50.4189 179.95 -50.3189 179.25C-50.1189 178.75 -50.2189 178.65 -50.3189 178.45Z" fill="#4CA96D"/>
<mask id="mask1" mask-type="alpha" maskUnits="userSpaceOnUse" x="-66" y="45" width="256" height="192">
<path d="M-50.3189 178.45C-51.0189 178.85 -51.6189 179.25 -52.3189 179.65C-55.3189 181.55 -58.2189 183.45 -61.2189 185.35C-62.0189 185.85 -62.9189 186.35 -63.8189 186.55C-64.4189 186.65 -65.3189 186.35 -65.7189 185.95C-66.0189 185.45 -66.1189 184.45 -65.8189 183.95C-65.3189 183.05 -64.5189 182.35 -63.7189 181.75C-59.5189 178.55 -55.3189 175.35 -51.0189 172.35C-32.0189 159.05 -12.6189 146.35 7.38114 134.55C31.0811 120.65 54.8811 106.75 78.7811 93.2496C103.581 79.1496 129.481 67.0496 155.681 55.7496C161.581 53.1496 167.481 50.4496 173.381 47.8496C174.581 47.3496 175.681 46.7496 176.981 46.4496C180.781 45.2496 183.681 46.4496 185.381 49.9496C186.281 51.9496 186.981 54.1496 187.381 56.3496C189.481 66.6496 189.881 76.9496 189.381 87.3496C188.081 114.25 179.081 138.45 164.081 160.55C148.381 183.55 127.781 201.15 103.481 214.45C84.2811 224.95 63.8811 232.05 42.2811 235.25C29.7811 237.15 17.2811 237.65 4.78114 235.45C-5.61887 233.65 -15.3189 230.15 -24.2189 224.55C-35.6189 217.45 -43.7189 207.35 -49.6189 195.55C-51.9189 190.95 -52.2189 186.25 -50.8189 181.35C-50.6189 180.65 -50.4189 179.95 -50.3189 179.25C-50.1189 178.75 -50.2189 178.65 -50.3189 178.45Z" fill="#4CA96D"/>
</mask>
<g mask="url(#mask1)">
<path d="M141.2 195.098C141.5 194.098 141.8 192.998 142 191.998C142.8 186.598 142.2 181.298 141.7 175.998C140.4 162.698 137.3 149.698 134.5 136.598C132.4 126.998 130.3 117.398 129.8 107.498C129.5 100.598 129.4 93.598 129.6 86.598C129.9 74.598 131.1 62.698 133.3 50.798C134.6 43.998 136.1 37.198 138.6 30.598C140 26.798 141.8 23.098 144.4 19.898C145.9 17.998 147.7 16.498 150.1 14.998C149.9 15.498 149.9 15.798 149.7 15.898C145 19.698 142.4 24.898 140.6 30.498C138.3 37.298 136.9 44.198 135.9 51.298C133.2 69.098 132.2 86.898 133 104.898C133.4 113.098 134.9 121.098 136.6 129.098C139 140.698 141.5 152.198 143.7 163.898C145.1 171.398 146 178.898 145.9 186.498C145.9 188.498 145.7 190.498 145.4 192.498C145.2 193.698 144.8 194.998 144.2 196.098C143 198.398 140.6 198.898 138.8 197.098C137.4 195.798 136.2 194.198 135.4 192.498C133.5 188.498 131.7 184.398 130 180.198C125.3 168.098 121.7 155.698 118.1 143.198C112.7 124.798 106.6 106.598 99.8 88.698C98.5 85.298 97 82.098 95.4 78.798C94.8 77.598 94 76.398 93.2 75.398C91.8 73.798 90.6 73.798 89.2 75.398C88.3 76.498 87.5 77.798 87 79.098C85.3 82.798 84.5 86.898 84.1 90.898C83 100.898 83.3 110.898 83.8 120.898C84.7001 138.298 87.1 155.598 89.2 172.898C90.5 183.498 91.7001 193.998 91.9 204.698C92 212.298 91.9 219.898 90.3 227.398C89.9 229.198 89.4 230.998 88.7 232.698C86.6 237.598 82.6 238.298 79 234.198C77.4 232.398 76.2 230.298 75 228.198C72.5 223.598 70.7 218.598 69.2 213.498C65.6 201.498 62.9 189.398 60.6 177.098C57 157.698 53.5 138.298 50.1 118.798C48.8 111.398 47.8 103.998 46.6 96.498C46.3 94.898 45.9 93.198 45.3 91.598C45 90.698 44.3 89.798 43.9 88.998C42.3 89.198 41.4 90.198 40.8 91.198C39.5 93.398 38.1 95.498 37 97.798C33.5 105.298 32 113.298 31.2 121.398C29.8 135.998 30.6 150.498 32.1 164.998C33.3 176.198 34.6001 187.398 35.3 198.698C36 208.998 36 219.298 33.7 229.498C33.2 231.498 32.5 233.498 31.7 235.398C31.1 236.798 30.2 237.998 29.1 239.098C26.9 241.298 24.1 241.498 21.8 239.298C20.3 237.798 18.8001 236.098 17.9001 234.198C15.9001 229.998 14 225.598 12.4001 221.198C8.30005 209.498 5.70005 197.298 3.30005 185.198C0.70005 171.798 -1.19995 158.398 -1.89995 144.798C-2.49995 134.098 -2.39995 123.398 -2.69995 112.698C-2.69995 111.098 -2.89995 109.398 -3.09995 107.298C-4.59995 108.498 -5.29995 109.798 -5.99995 110.998C-9.09995 116.698 -11.6 122.698 -13.7 128.798C-19.5 145.798 -22.8 163.198 -22.9 181.198C-23 190.298 -23.1 199.398 -23.4 208.598C-23.6 215.698 -24.3 222.798 -26.7 229.598C-27.3 231.398 -28.2 233.098 -29.1 234.798C-29.5 235.498 -30.2 236.198 -30.9 236.698C-32.1 237.498 -32.8 236.998 -33.2 235.198C-33 235.298 -32.7 235.298 -32.6 235.398C-32.4 235.498 -32.3 235.698 -32 235.898C-30.7 234.998 -30.2 233.698 -29.6 232.398C-28 228.698 -27.1 224.798 -26.7 220.798C-26.2 215.598 -25.8 210.298 -25.7 204.998C-25.5 194.998 -25.6 184.998 -25.3 174.998C-24.9 160.798 -22.1 146.898 -17.8 133.298C-15.4 125.698 -12.5 118.398 -8.79995 111.398C-7.79995 109.598 -6.69995 107.798 -5.39995 106.198C-4.69995 105.298 -3.79995 104.598 -2.49995 104.998C-1.29995 105.398 -0.899948 106.398 -0.79995 107.498C-0.49995 110.698 -0.29995 113.898 -0.199951 117.098C0.100048 125.198 4.95911e-05 133.298 0.50005 141.298C2.10005 167.698 6.50005 193.698 14.3 218.998C15.7001 223.598 17.6 227.998 19.6 232.398C20.4 234.198 21.6 235.798 23 237.298C24.5 238.998 26.1 238.898 27.5 237.198C28.5 235.898 29.6 234.398 30 232.898C31 229.198 31.9 225.498 32.4 221.698C33.3 214.198 33.4 206.698 32.7 199.198C31.5 186.398 30.1001 173.598 28.9001 160.798C27.6001 146.998 27.2001 133.198 28.8 119.398C29.7001 111.498 31.5 103.798 34.9 96.598C35.8 94.698 36.8 92.898 37.9 91.198C38.5 90.198 39.3 89.1981 40.2 88.398C42.7 86.098 45.3 86.398 46.8 89.498C47.7001 91.398 48.4 93.498 48.8 95.598C50.2001 103.598 51.4 111.498 52.7 119.498C57.3 147.598 61.7 175.698 68.6 203.398C70.2 209.698 72.2001 215.998 74.4 222.198C75.5 225.298 77.3 228.198 79 231.098C79.7 232.198 80.7001 233.198 81.8 233.998C83.3 235.198 84.4 234.898 85.4 233.298C86 232.198 86.6001 230.998 86.8 229.798C87.5 225.098 88.3 220.498 88.6 215.798C89.2 205.098 88.2 194.498 87 183.998C85.1 166.898 82.9 149.898 81.2 132.798C79.9 120.098 79.5 107.398 80.5 94.698C80.9 89.298 81.7001 83.998 83.9 79.098C84.7001 77.298 85.7 75.498 87 73.998C89.5 70.998 92.7 71.098 95.2 73.998C96.5 75.498 97.6 77.198 98.4 79.098C101.2 85.698 104 92.398 106.5 99.098C112.4 114.798 116.7 131.098 121.4 147.198C125.2 159.998 129.2 172.698 134.4 185.098C135.5 187.698 136.7 190.198 138.1 192.598C138.7 193.698 139.7 194.698 140.5 195.698C140.7 195.198 141 195.098 141.2 195.098Z" fill="black"/>
</g>
</g>
</svg>
