<svg width="143" height="188" viewBox="0 0 143 188" fill="none" xmlns="http://www.w3.org/2000/svg">
<path d="M50.3999 145.2C49.9999 146 49.6999 146.9 49.1999 147.7C48.2999 149.4 47.0999 150.7 45.0999 151.2C41.5999 152.1 38.1999 149.5 38.1999 145.6C38.1999 142.4 38.4999 139.2 38.8999 136C42.4999 110.6 54.3999 89.8998 73.8999 73.4998C79.1999 68.9998 83.8999 64.1998 88.0999 58.6998C94.1999 50.6998 100.5 42.8998 107.7 35.7998C111.8 31.6998 116.2 28.0998 121.1 24.9998C124.1 23.0998 127.3 21.6998 130.9 21.1998C136.9 20.3998 141.6 23.5998 142.5 29.5998C143.4 35.8998 142.1 41.6998 138.2 46.7998C135.2 50.6998 131.6 53.7998 127.3 55.9998C124.3 57.4998 121.3 58.9998 118.2 60.3998C96.5999 70.3998 80.9999 86.3998 71.3999 108.1C67.4999 116.9 65.1999 126.2 63.5999 135.7C62.2999 143.7 61.0999 151.7 59.7999 159.6C59.4999 161.4 58.9999 163.2 58.4999 165C55.9999 173.9 49.7999 179.2 41.4999 182.1C37.6999 183.5 33.5999 184 29.5999 184.6C28.0999 184.9 26.3999 184.7 24.7999 184.5C22.3999 184.1 20.9999 182.5 20.8999 180.6C20.8999 178.7 22.1999 177.2 24.5999 176.5C28.3999 175.4 32.2999 174.3 36.0999 173.2C39.1999 172.3 41.6999 170.6 43.8999 168.3C46.0999 166.1 47.5999 163.5 48.1999 160.4C48.9999 155.9 49.7999 151.4 50.4999 146.9C50.5999 146.4 50.4999 145.9 50.4999 145.4C50.5999 145.3 50.4999 145.3 50.3999 145.2ZM107.4 52.7998C107.8 52.7998 107.9 52.8998 108.1 52.8998C113 50.4998 117.9 48.1998 122.8 45.7998C125.6 44.3998 127.9 42.1998 129.8 39.6998C131.3 37.5998 131.9 35.1998 131.7 32.4998C125.7 33.8998 113 44.6998 107.4 52.7998Z" fill="#EE8DB9"/>
<path d="M0 152.658C0.9 142.658 1.3 132.958 3.1 123.358C4.6 115.758 5.6 108.058 6.9 100.458C7.5 96.8577 8.4 93.2576 9.3 89.6576C9.7 88.1576 10.4 86.6576 10.8 85.0576C14.2 72.8577 19.8 61.6576 27 51.2576C28.7 48.7576 30.4 46.2576 32.3 43.8576C44.9 28.4576 60.3 16.7576 78.2 8.25765C84.1 5.55765 90 2.85765 96.3 1.55765C103.4 0.0576456 110.5 -0.642354 117.7 0.757646C123.3 1.85765 128.4 4.15765 132.8 7.65765C136.4 10.5576 139.2 14.1576 141 18.4576C146 30.4576 139.2 43.8576 129.4 47.7576C122.6 50.4576 115.8 53.2576 108.9 56.0576C93.3 62.4576 80.3 72.3577 70 85.5576C64.3 92.8577 60.6 101.158 57.3 109.658C53.1 120.158 51.2 130.958 51.7 142.258C52 148.258 52.1 154.258 52.3 160.258C52.5 165.258 51.4 169.958 49.3 174.458C47.4 178.558 44.4 181.558 40.4 183.458C32.8 187.058 24.9 188.158 16.6 186.158C11.3 184.858 7.4 181.858 4.9 176.958C2.8 172.958 1.3 168.758 0.9 164.258C0.6 160.158 0.3 156.258 0 152.658Z" fill="black"/>
<mask id="mask0" mask-type="alpha" maskUnits="userSpaceOnUse" x="0" y="0" width="143" height="188">
<path d="M0 152.658C0.9 142.658 1.3 132.958 3.1 123.358C4.6 115.758 5.6 108.058 6.9 100.458C7.5 96.8577 8.4 93.2576 9.3 89.6576C9.7 88.1576 10.4 86.6576 10.8 85.0576C14.2 72.8577 19.8 61.6576 27 51.2576C28.7 48.7576 30.4 46.2576 32.3 43.8576C44.9 28.4576 60.3 16.7576 78.2 8.25765C84.1 5.55765 90 2.85765 96.3 1.55765C103.4 0.0576456 110.5 -0.642354 117.7 0.757646C123.3 1.85765 128.4 4.15765 132.8 7.65765C136.4 10.5576 139.2 14.1576 141 18.4576C146 30.4576 139.2 43.8576 129.4 47.7576C122.6 50.4576 115.8 53.2576 108.9 56.0576C93.3 62.4576 80.3 72.3577 70 85.5576C64.3 92.8577 60.6 101.158 57.3 109.658C53.1 120.158 51.2 130.958 51.7 142.258C52 148.258 52.1 154.258 52.3 160.258C52.5 165.258 51.4 169.958 49.3 174.458C47.4 178.558 44.4 181.558 40.4 183.458C32.8 187.058 24.9 188.158 16.6 186.158C11.3 184.858 7.4 181.858 4.9 176.958C2.8 172.958 1.3 168.758 0.9 164.258C0.6 160.158 0.3 156.258 0 152.658Z" fill="black"/>
</mask>
<g mask="url(#mask0)">
<path d="M-3.40005 158.7C-2.80005 159.8 -2.60005 160.7 -2.00005 161.4C-0.400049 163.1 1.09995 164.8 2.89995 166.3C15.9 177.1 30.7 183.8 47.2999 186.4C53 187.3 58.7 187.8 64.5 186.9C65.5 186.7 66.5 186.5 67.5 186.2C69.2 185.7 69.4 185.5 70.3 183.9C71.4 185 71.5 185.7 70.4 186.5C69.3 187.3 68.1 187.9 66.8 188.2C63.6 189.1 60.3999 189.3 57.0999 189.1C36.5999 187.8 18.3 180.8 2.49995 167.7C0.699951 166.2 -1.00005 164.4 -2.60005 162.7C-3.20005 162 -3.80005 161.2 -4.20005 160.3C-4.90005 158.5 -4.20005 157.2 -2.20005 157.2C-0.400049 157.2 1.49995 157.4 3.19995 157.8C11.3 159.8 19.2999 161.9 27.2999 164C32 165.2 36.7999 166.2 41.7 166.5C43.5 166.6 45.4 166.4 47.2 166.2C47.9 166.1 48.5999 165.7 49.7999 165.2C48.7 164.1 48.1 163.2 47.2 162.6C44.9 161 42.5999 159.4 40.2999 157.9C35.2 154.5 29.8999 151.3 24.9 147.8C12.7 139.2 3.79995 127.9 -2.00005 114.1C-3.00005 111.8 -3.70005 109.3 -4.40005 106.8C-4.80005 105.5 -4.80005 104.1 -4.80005 102.8C-4.80005 99.8001 -3.30005 98.7001 -0.400049 99.6001C1.19995 100.1 2.69995 100.8 4.19995 101.7C9.19995 104.7 14.1 107.8 19.1 110.9C28.6 116.9 38.1 122.7 48.4 127.2C52.1 128.8 55.8 130.3 59.8 130.9C60.5 131 61.1 131 62.4 131C61.4 129.6 60.7999 128.7 60.1 127.9C57.9 125.5 55.6 123.1 53.4 120.7C42.9 109.8 34 98.1001 27.5999 84.5001C23.9999 76.9001 21.1999 69.0001 19.9 60.7001C19.4 57.4001 18.9 54.0001 19.5 50.7001C19.5 50.5001 19.6 50.2001 19.6 50.0001C20.4 45.6001 23.1999 44.0001 27.2999 46.0001C29.2 46.9001 31 48.0001 32.5 49.3001C36.7999 53.0001 41.0999 56.7001 45.2999 60.5001C53.2 67.6001 61 74.9001 69 81.8001C72.1 84.5001 75.7 86.7001 79.2 89.0001C80.5 89.9001 82.1 90.3001 83.5 90.9001C83.7 90.8001 83.8 90.7001 84 90.5001C83.8 89.7001 83.7 88.9001 83.3 88.2001C82.2 86.0001 81 83.8001 79.9 81.6001C73.7 69.8001 68.4 57.7001 64.6 44.9001C61.7999 35.6001 60.4 26.2001 61 16.5001C61.1 14.2001 61.6 11.9001 62 9.6001C62.2 8.6001 62.6 7.6001 63.2 6.7001C64.6 4.2001 66.7 3.7001 69 5.3001C70.4 6.2001 71.7 7.4001 72.7 8.7001C75.3999 12.0001 78.1 15.5001 80.6 19.0001C87.5 28.5001 94.1 38.2001 102 47.0001C105.9 51.3001 110 55.3001 114.1 59.3001C115.2 60.3001 116.5 61.1001 117.7 62.0001C117.9 61.9001 118 61.8001 118.2 61.7001C117.8 60.4001 117.3 59.0001 116.9 57.7001C114.4 50.4001 111.6 43.1001 109.3 35.7001C106.9 27.9001 105.1 19.9001 104.4 11.8001C104.2 8.9001 104.2 6.1001 104.3 3.2001C104.3 2.3001 104.5 1.5001 104.8 0.600101C105.6 -2.0999 107.5 -2.6999 109.7 -0.999899C110.6 -0.299899 111.4 0.500101 112.1 1.4001C113.9 3.6001 115.6 5.7001 117.3 8.0001C129.7 25.0001 142.4 41.8001 155.9 57.9001C159.5 62.2001 163.3 66.3001 167.2 70.7001C166.6 70.3001 166.1 70.2001 165.8 69.8001C161.4 65.1001 156.8 60.5001 152.7 55.5001C140 40.4001 127.9 24.7001 116.3 8.7001C114.4 6.1001 112.3 3.7001 110.3 1.3001C109.6 0.500101 108.6 0.000100851 107.8 -0.699899C106.4 0.500101 106.4 1.9001 106.3 3.3001C105.9 9.3001 106.8 15.1001 108 20.9001C110.4 32.6001 114 43.9001 118.5 55.0001C119.2 56.7001 119.8 58.4001 120.3 60.2001C120.5 60.9001 120.6 61.8001 120.6 62.6001C120.5 63.9001 119.5 64.6001 118.2 64.2001C117 63.8001 115.8 63.1001 114.9 62.3001C111.7 59.5001 108.5 56.7001 105.6 53.7001C96.9 44.8001 89.6 34.8001 82.5 24.6001C79.4 20.2001 76.2999 15.9001 73.1 11.6001C71.9 10.0001 70.5 8.6001 69 7.3001C67.1 5.7001 65.7 6.1001 64.7 8.4001C63.3999 11.5001 63.2 14.8001 63.1 18.1001C62.9 25.6001 63.9 32.9001 65.8 40.2001C69.5 54.4001 75.4 67.6001 82.1 80.6001C83.2 82.8001 84.4 85.0001 85.5 87.2001C85.9 88.1001 86.2 89.2001 86.3 90.2001C86.5 92.1001 85.4 93.1001 83.5 92.8001C82.3 92.6001 81 92.2001 79.9 91.5001C76.9 89.7001 73.9 87.8001 71.1 85.7001C62.5 79.5001 55 72.3001 47.5 65.2001C43 60.9001 38.3999 56.7001 33.7999 52.5001C32.2999 51.1001 30.5 49.9001 28.7999 48.8001C27.7999 48.1001 26.7 47.6001 25.6 47.2001C23.5 46.4001 22.2 47.1001 21.6 49.2001C21.2 50.6001 21 52.0001 21 53.5001C20.9 59.5001 22.4 65.2001 24.2 70.9001C28.7 85.1001 36.2 97.7001 45.7 109.1C49.7 113.9 54 118.4 58.2 123.1C59.6 124.6 61 126.2 62.3 127.8C62.9 128.5 63.2999 129.2 63.6 130.1C64.1 131.7 63.3999 132.9 61.7 132.9C60.2999 133 58.8 132.8 57.4 132.5C52.2 131.3 47.3 129.1 42.4 126.7C33.6 122.4 25.4 117.2 17.2 111.9C12.9 109.1 8.59995 106.4 4.19995 103.7C2.59995 102.7 0.799951 101.9 -1.00005 101.2C-3.00005 100.5 -3.80005 101.1 -3.70005 103.1C-3.60005 104.8 -3.40005 106.6 -2.80005 108.3C-0.200049 117 4.49995 124.6 9.99995 131.7C15.2 138.4 21.4999 143.9 28.5999 148.6C33.2999 151.7 38 154.6 42.7 157.7C44.2999 158.7 45.9 159.8 47.5 160.9C48.2 161.4 48.7999 161.9 49.2999 162.4C50.2999 163.3 51 164.4 50.5999 165.8C50.1999 167.1 49 167.6 47.7999 167.7C45.5 167.9 43.2 168.3 40.9 168C36.9 167.5 32.8 166.9 28.9 165.9C21.1 164 13.5 161.8 5.69995 159.8C3.99995 159.4 2.29995 159 0.499951 158.7C-0.400049 158.5 -1.70005 158.7 -3.40005 158.7Z" fill="#FBE8DE"/>
</g>
</svg>
