<svg xmlns="http://www.w3.org/2000/svg" viewBox="0 0 317.58 64.59"><title>Asset 2</title><g id="Layer_2" data-name="Layer 2"><g id="Layer_1-2" data-name="Layer 1"><g id="layer1"><path id="path33" d="M13.36,0V1.59H19.3v31c0,9.31-2.58,11.94-8.34,11.94a3.89,3.89,0,0,1-4.22-4.18c0-3.39-.19-5.46-3.27-5.46S0,38,0,39c0,4.27,1.9,7.54,10.38,7.54,10.11,0,15.51-3.42,15.51-14.75V1.59H32V0H13.36M31.94,40.37A3.49,3.49,0,0,0,30.87,43,3.33,3.33,0,0,0,32,45.52a3.57,3.57,0,0,0,2.59,1,3.63,3.63,0,0,0,2.63-1A3.39,3.39,0,0,0,38.24,43a3.62,3.62,0,0,0-3.7-3.65,3.45,3.45,0,0,0-2.6,1m41.48,0a3.51,3.51,0,0,0-1,2.6,3.37,3.37,0,0,0,1,2.55,3.81,3.81,0,0,0,5.25,0A3.35,3.35,0,0,0,79.74,43a3.45,3.45,0,0,0-1.07-2.6,3.59,3.59,0,0,0-2.65-1,3.48,3.48,0,0,0-2.6,1M44.72,0V1.59h5.37V37c0,2.78-.17,3.5-.48,4.31a3.68,3.68,0,0,1-2.19,2.07,10.92,10.92,0,0,1-3.76.57v1.47H63.35V43.92a12.66,12.66,0,0,1-3.77-.53,3.78,3.78,0,0,1-2.31-2.07,6.7,6.7,0,0,1-.5-2.89V26.32l4.88,0c14.14,0,18.12-5.59,18.12-13.2S77.33,0,63,0H44.72M56.77,1.8l3.39-.05c10.91,0,13.29,4.49,13.29,11.76S69.16,24.57,60.51,24.57H56.77V1.8M130.85.11,117,34.67l-.31.2-.33-.2S101.74.53,101.57.11H88.69V1.57h5.59V36.68l-.12,3.2a4.62,4.62,0,0,1-.77,2.19,4,4,0,0,1-2.06,1.48,9.83,9.83,0,0,1-2.64.36v1.46h12.78V43.93a7,7,0,0,1-2.19-.37,4,4,0,0,1-2.11-1.44,4.79,4.79,0,0,1-.78-2.24l-.14-3.2V6.35H97s16.53,38.59,16.7,39h1.38L130.73,6.78h.4V38.05a10.37,10.37,0,0,1-.4,3.17,3.57,3.57,0,0,1-1.94,2.12,9.4,9.4,0,0,1-3.25.57v1.46h17.84V43.91a9.44,9.44,0,0,1-3.28-.6,3.59,3.59,0,0,1-2-2.17,10.2,10.2,0,0,1-.39-3.09V1.6l4.75-.05V.11H130.85M146.6,29.48c0,16.15,12.57,17.22,15.29,17.22,5.37,0,15.55-3.35,15.55-17.53,0-11-6.51-17-15.34-17-9.52,0-15.5,6.31-15.5,17.34m7.11.18c0-8.86.55-15.51,8.26-15.51,8.33,0,8.37,6.88,8.37,15,0,11.59-2,15.59-8.37,15.59-7.15,0-8.26-3.57-8.26-15m39.6-10.23-.45,0s-.82-5-1.11-6.46l-11,0v1.69h6s0,5.07,0,6.89V37a11.07,11.07,0,0,1-.72,4.71c-.61,1.11-2,1.66-4.25,1.66h-1v2H199.2v-2h-1c-2.43,0-3.47-.52-4.12-1.58s-.85-2.49-.85-4.79V25.39c0-3.92,2.95-8.39,6.49-8.39,3.7,0,3.61,5.7,7.8,3.41,2.28-1.25,1.9-7.78-5.18-7.78-5.69,0-7.47,3.37-9,6.8M251,14.64c-2.11,1.61-2.93,3.09-2.93,5.21a2.62,2.62,0,0,0,.82,2.15,2.86,2.86,0,0,0,2,.72c1.84,0,2.87-.93,3.25-3.34a6.23,6.23,0,0,1,1.56-3.75,5.83,5.83,0,0,1,4.41-1.49c2.31,0,3.95.63,4.87,1.88a8,8,0,0,1,1.29,4.73v5.44c-5.92.54-19.89,1.66-19.27,12.3a8.54,8.54,0,0,0,8.65,7.82c5.24,0,8.56-3,10.82-5.38a6.12,6.12,0,0,0,6.29,5c4.3,0,6.87-2.1,7.17-7.37h-1.11c-.29,2.29-1.71,3.52-2.87,3.52-2,0-2.61-1.1-2.75-2.93L273.07,35V21.38c0-2.93-.47-4.9-2.2-6.63s-5-2.61-9.76-2.61c-4.58,0-8,.84-10.13,2.5m2.47,22.6c0-6,8.28-9.06,12.81-9.06V38.62l-.11.26L266,39c-3.17,2.87-5.58,3.89-7.35,3.89-4.53,0-5.21-3.77-5.21-5.66m39.47-18.43-.6,0-1.15-5.9H281.12v1.69c1.89.08,5,.11,5,.11V37a13.53,13.53,0,0,1-.39,3.81,3,3,0,0,1-1.85,2.08,8.84,8.84,0,0,1-2.79.46v2h16V43.31c-1.61-.13-2.69-.56-3.27-1.38s-.9-2.39-.9-4.59V28.77c0-3.58,0-7,1.2-9.18A7.2,7.2,0,0,1,300.56,16c2.43,0,3.71.78,4.51,2.32.65,1.25,1.08,5,1.08,7.56l-.08,10.62c0,1.76.22,3.07.08,3.91a3.29,3.29,0,0,1-1.39,2.25,5.4,5.4,0,0,1-2.56.66v2.08h15.38v-2c-1.94-.13-3.22-.6-3.77-1.51A8.53,8.53,0,0,1,312.65,37l.09-14.7a11.51,11.51,0,0,0-1.08-5.43,7.93,7.93,0,0,0-3.35-3.27,10.8,10.8,0,0,0-4.88-1.08c-6.49,0-9.09,4-10.51,6.29m-51.4-8a3.12,3.12,0,0,0-1.92,2.58c-.25,1.32-.75,2.08-1.42,2.3a3.81,3.81,0,0,1-2.3-.16c-1.66-1.54-4.83-3.41-10.42-3.41-9,0-13,6.41-13,12.25,0,6.84,2.63,10.16,8.41,11.38.35.07.35.46.05.53-4.94,1-9.31,2.44-9.31,7.13a5.32,5.32,0,0,0,3.7,5.22,27.63,27.63,0,0,0,9.56,1.49,76.56,76.56,0,0,1,7.68.36A8.62,8.62,0,0,1,236.79,52a4.32,4.32,0,0,1,1.63,3.61c0,2.17-1.16,3.92-3.48,5.21a17.92,17.92,0,0,1-8.75,1.84c-3.14,0-5.71-.35-8-1.79a4.28,4.28,0,0,1-1.69-4.66c.32-1.52-.22-3.13-2-3.43A3,3,0,0,0,211.72,54a5.29,5.29,0,0,0-.71,3c0,3.86,3,5.67,5.25,6.33a27.36,27.36,0,0,0,9,1.31c4.24,0,7.68-.64,10.14-1.89a11.13,11.13,0,0,0,5.08-4.5,10.93,10.93,0,0,0,1.43-5.28,9.56,9.56,0,0,0-1.51-5.64c-3.21-4.42-7.77-3.85-18-4.34-4.94,0-5.89-.89-5.89-2.41,0-2.22,1.83-3.1,9-4.2S239,32.66,239,24.07A14.45,14.45,0,0,0,237.73,18a7.57,7.57,0,0,0,4.05-.09,4.6,4.6,0,0,0,2.88-2.14,3.59,3.59,0,0,0,.36-2.86c-.48-1.51-1.28-2.26-2.44-2.26a3.52,3.52,0,0,0-1.06.18M219,24.39c0-6,2.1-10.51,6.61-10.51,5.23,0,6.77,4.08,6.77,10.39,0,9-2.84,10.2-6.77,10.2-4.2,0-6.61-1.53-6.61-10.08"/></g></g></g></svg>