<svg width="378" height="319" viewBox="0 0 378 319" fill="none" xmlns="http://www.w3.org/2000/svg">
<path d="M457.11 125.395C457.01 137.795 455.61 151.995 452.11 165.995C445.81 191.395 434.21 213.795 416.11 232.795C406.61 242.795 396.41 251.995 384.91 259.695C370.61 269.295 355.01 275.695 338.01 278.295C324.71 280.295 311.71 279.095 299.11 274.295C286.41 269.495 278.71 260.195 274.11 247.795C272.91 244.695 272.31 241.296 271.51 238.095C267.81 222.595 263.21 207.395 256.91 192.695C251.21 179.395 247.21 165.595 244.21 151.495C242.01 141.295 239.51 131.295 237.41 121.095C235.51 111.695 234.01 102.195 232.31 92.7955C231.01 85.5955 229.21 78.3955 228.31 71.0955C227.21 61.0955 224.71 51.4955 223.31 41.4955C221.41 27.5955 221.31 13.7955 224.81 -0.00453186C228.61 -14.9045 236.11 -27.9045 245.81 -39.8045C261.61 -58.6045 281.71 -70.1045 305.71 -75.0045C317.81 -77.5045 330.01 -79.1045 342.31 -79.8045C349.11 -80.2045 355.91 -80.6045 362.71 -80.9045C368.11 -81.2045 373.41 -80.8045 378.71 -79.6045C387.51 -77.5045 394.91 -72.9045 401.01 -66.2045C403.21 -63.7045 405.41 -61.1045 407.31 -58.3045C414.01 -48.3045 420.61 -38.3045 427.01 -28.2045C438.41 -10.2045 445.01 9.59547 447.41 30.6955C448.51 40.0955 449.21 49.4955 450.41 58.7955C451.71 68.9955 453.31 79.0955 454.81 89.1955C456.51 100.495 457.51 111.995 457.11 125.395Z" fill="black"/>
<path fill-rule="evenodd" clip-rule="evenodd" d="M419.738 106.405L419.737 106.411C419.424 115.568 419.112 124.709 418.71 133.896C418.11 148.096 415.71 161.996 412.71 175.896C410.31 186.896 406.71 197.496 401.61 207.496C391.61 226.896 376.51 241.196 356.91 250.696C347.61 255.196 337.51 256.696 327.31 256.496C321.91 256.396 317.11 254.196 312.61 251.196C309.21 248.896 305.81 246.596 305.51 241.896C301.643 231.819 298.36 221.502 295.077 211.186L295.077 211.185C292.756 203.893 290.436 196.602 287.91 189.396C286.61 185.729 285.299 182.062 283.987 178.396C281.365 171.062 278.743 163.729 276.21 156.396C272.41 145.396 268.71 134.296 266.51 122.796C264.21 110.896 262.51 98.9957 261.51 86.8957C260.51 74.8957 259.71 62.7957 259.31 50.6957C258.81 34.5957 259.51 18.5957 263.41 2.79569C266.71 -10.8043 273.01 -22.9043 282.31 -33.4043C288.81 -40.7043 296.51 -46.3043 305.41 -50.1043C316.51 -54.8043 328.21 -57.2043 340.11 -58.0043C355.81 -59.0043 369.51 -53.9043 381.51 -43.9043C399.81 -28.5043 411.11 -9.10431 416.01 14.1957C418.11 24.1957 419.01 34.2957 419.71 44.3957C420.61 57.2957 421.01 70.0957 420.71 82.9957C420.71 86.2957 420.51 89.5957 420.21 92.8957C420.045 97.4071 419.891 101.908 419.738 106.405ZM414.71 90.3957H415.01V84.3957C415.41 67.4957 414.71 50.5957 413.01 33.7957C412.11 24.5957 410.61 15.5957 407.81 6.79569C402.01 -12.0043 391.41 -27.6043 376.21 -40.0043C365.31 -48.9043 352.81 -53.1043 338.81 -52.1043C330.01 -51.5043 321.41 -49.7043 313.01 -46.9043C302.11 -43.3043 292.81 -37.1043 285.31 -28.3043C277.41 -19.0043 272.11 -8.40431 269.11 3.49569C265.21 19.2957 264.51 35.3957 265.11 51.5957C265.51 60.8957 266.11 70.2957 266.71 79.5957C267.61 93.0957 269.51 106.496 271.81 119.796C273.71 130.896 277.31 141.696 280.91 152.296C282.754 157.747 284.683 163.182 286.612 168.62L286.613 168.621C289.391 176.45 292.172 184.288 294.71 192.196C298.803 204.79 302.586 217.571 306.353 230.293L306.356 230.305C307.373 233.741 308.389 237.173 309.41 240.596C309.71 241.496 310.11 242.096 310.91 242.596C311.983 243.29 313.016 244.024 314.034 244.748C314.629 245.171 315.219 245.59 315.81 245.996C319.21 248.196 322.91 249.796 326.91 249.996C332.21 250.296 337.51 249.796 342.61 248.696C352.41 246.596 361.01 241.896 369.01 235.996C383.51 225.196 393.61 211.096 400.41 194.396C403.903 185.898 405.97 177.043 408.042 168.168L408.042 168.168C408.165 167.644 408.287 167.12 408.41 166.596C411.11 154.996 412.51 143.296 412.91 131.496C413.71 117.796 414.21 104.096 414.71 90.3957ZM388.61 105.696C388.81 119.096 388.31 132.396 387.41 145.796C386.81 155.796 385.91 165.896 384.71 175.896C383.71 185.096 381.71 194.196 377.21 202.496C373.21 209.896 367.51 215.496 359.91 219.196C358.31 219.996 356.71 220.707 355.11 221.418C354.31 221.774 353.51 222.129 352.71 222.496C348.61 224.296 344.41 224.696 340.01 223.696C336.11 222.796 332.31 221.596 328.91 219.296C326.21 217.396 324.61 214.896 324.21 211.596C324.11 210.796 323.81 209.896 323.41 209.096C316.61 196.096 310.71 182.796 305.81 168.896C304.947 166.474 304.066 164.063 303.186 161.655L303.186 161.655C300.397 154.019 297.614 146.402 295.41 138.496C288.51 113.296 285.71 87.6958 286.21 61.5958C286.41 50.0958 287.01 38.5958 288.71 27.1958C289.91 19.3958 291.51 11.5958 294.51 4.19583C296.11 0.095829 298.21 -3.80417 300.71 -7.40417C302.71 -10.2042 304.91 -12.7042 307.81 -14.5042C316.21 -19.7042 325.31 -23.0042 335.21 -23.7042C344.21 -24.3042 351.81 -21.4042 358.11 -14.9042C367.11 -5.60417 373.51 5.29583 377.81 17.3958C382.11 29.2958 384.61 41.5958 385.41 54.1958C386.465 67.1562 387.179 80.0598 387.895 92.9922C388.129 97.2227 388.363 101.456 388.61 105.696ZM382.71 97.7958C382.594 95.3174 382.447 91.9093 382.277 87.9373L382.277 87.9345C382.007 81.65 381.677 73.9541 381.31 66.2958C380.81 56.3958 379.71 46.4958 377.61 36.7958C375.21 25.4958 371.51 14.5958 365.61 4.59583C362.21 -1.20417 358.21 -6.40417 353.41 -11.1042C350.01 -14.4042 346.11 -17.0042 341.31 -17.4042C338.21 -17.7042 335.11 -17.7042 332.01 -17.3042C325.81 -16.6042 320.11 -14.3042 314.51 -11.6042C310.31 -9.60417 307.01 -6.50417 304.41 -2.60417C301.11 2.39583 298.91 7.89583 297.41 13.5958C293.81 26.5958 292.81 39.9958 292.21 53.4958C291.51 68.0958 292.01 82.6958 293.51 97.2958C295.31 113.996 298.31 130.396 303.61 146.296C309.91 165.296 316.81 184.196 325.31 202.396C325.65 203.121 325.969 203.857 326.289 204.594C327.381 207.107 328.477 209.631 330.41 211.796C330.591 211.991 330.768 212.185 330.943 212.378L330.943 212.379C332.028 213.572 333.047 214.693 334.51 215.296C337.01 216.196 339.51 216.996 342.01 217.596C344.61 218.296 347.11 217.896 349.51 216.796L349.511 216.795C352.31 215.596 355.11 214.396 357.81 212.996C363.61 209.996 368.11 205.596 371.31 199.796C374.51 193.896 376.61 187.596 377.51 180.996C378.71 172.596 379.71 164.196 380.51 155.796C382.11 138.396 382.91 121.196 382.71 97.7958ZM369.01 172.996C371.71 161.796 372.11 150.396 371.71 138.896C371.01 128.996 370.21 119.096 369.41 109.296L369.386 109.002C368.294 95.5986 367.194 82.0985 365.01 68.7955C363.41 58.2955 361.31 47.8955 357.91 37.7955C355.71 31.3955 352.91 25.2955 349.11 19.6955C346.91 16.5955 344.41 13.7955 341.11 11.8955C336.11 8.89551 330.91 8.89551 325.91 11.8955C323.91 13.0955 322.11 14.5955 320.41 16.1955C314.41 21.8955 310.41 28.8955 308.41 36.8955C305.81 47.3955 305.01 58.1955 305.31 68.9955C305.41 73.2955 305.71 77.5955 306.11 81.8955C306.208 82.9962 306.304 84.0969 306.4 85.1971C306.887 90.7942 307.374 96.3797 308.21 101.896C310.41 116.696 314.61 130.995 319.81 145.096C323.01 153.696 326.31 162.196 331.11 169.996C333.51 173.996 335.81 177.896 337.41 182.296C338.51 185.096 340.21 187.696 342.31 189.896C345.61 193.196 349.41 194.196 353.91 192.696C358.61 191.096 362.01 187.996 364.61 183.896C366.71 180.496 368.11 176.796 369.01 172.996ZM364.21 106.596C365.11 117.296 365.91 127.896 366.31 133.296C366.81 149.896 366.41 161.196 363.31 172.196C362.41 175.196 361.11 177.995 359.71 180.796C358.31 183.396 356.21 185.396 353.51 186.596C350.31 188.096 348.21 187.696 346.11 184.896C344.61 182.896 343.41 180.596 342.31 178.296C341.65 176.976 341.098 175.656 340.546 174.336C340.178 173.456 339.81 172.576 339.41 171.696C338.71 170.096 337.71 168.696 336.11 167.696C335.468 167.329 335.078 166.541 334.709 165.796C334.676 165.729 334.643 165.662 334.61 165.596C330.71 157.096 327.31 148.296 324.11 139.396C319.41 126.296 315.71 112.796 313.71 98.8955C313.07 94.4955 312.686 90.0956 312.302 85.6956C312.206 84.5956 312.11 83.4955 312.01 82.3955C311.71 79.0955 311.51 75.8955 311.31 72.5955C310.51 61.7955 311.31 50.9955 313.41 40.3955C315.01 32.4955 318.41 25.5955 324.21 19.8955C325.61 18.4955 327.21 17.1955 328.91 16.1955C332.11 14.2955 335.31 14.3955 338.51 16.1955C341.11 17.6955 343.11 19.7955 344.81 22.2955C347.81 26.5955 350.01 31.2955 351.81 36.1955C355.41 45.7955 357.61 55.7955 359.41 65.8955C361.71 79.3955 363.11 92.9955 364.21 106.596Z" fill="#EE8DB9"/>
<path d="M239.299 318.9C228.799 319.1 220.099 315.8 212.499 309.7C208.399 306.3 204.499 302.5 200.699 298.8C194.899 293.2 189.399 287.3 184.499 280.8C179.499 274.3 175.999 267.1 173.999 259.2C173.199 256.2 172.499 253.1 171.999 250.1C170.699 242.3 171.699 234.6 173.599 227C175.199 220.5 177.399 214.1 179.399 207.7C181.799 200 184.199 192.3 185.599 184.3C186.499 179.3 184.999 175.1 181.499 171.7C178.499 168.7 175.499 165.8 172.299 162.9C167.699 158.8 162.099 156.4 156.299 154.4C150.299 152.3 144.999 149.2 141.399 143.7C138.099 138.6 138.599 133.4 140.599 128.1C140.999 126.9 141.499 125.6 142.099 124.6C143.299 122.7 144.599 120.7 146.099 119C147.799 117.1 150.199 116.6 152.699 117.3C156.199 118.3 157.899 121.9 156.199 125.1C155.499 126.5 154.399 127.8 153.399 129C150.799 132.1 150.799 133.1 154.099 135.3C160.899 139.8 167.499 144.5 175.399 147.2C182.399 149.7 188.799 153.6 194.999 157.8C197.499 159.5 199.099 161.8 200.199 164.5C202.499 169.9 203.099 175.6 202.799 181.4C202.299 192.2 199.899 202.6 197.599 213.1C196.199 219.6 194.799 226.1 193.899 232.6C192.799 241 195.199 248.8 199.999 255.7C205.799 264 213.399 270.5 222.699 274.7C230.699 278.3 238.699 282 246.599 285.9C249.199 287.1 251.599 288.8 253.899 290.5C259.099 294.5 261.099 299.9 259.299 306.2C257.499 312.7 253.399 317 246.599 318.1C243.999 318.6 241.299 318.7 239.299 318.9ZM182.899 242C182.699 242 182.599 242 182.399 242.1C182.499 243.8 182.399 245.6 182.699 247.3C183.199 250.4 183.899 253.4 184.599 256.4C186.199 262.9 189.199 268.8 193.299 274.1C200.499 283.7 209.199 291.8 218.099 299.8C224.699 305.8 232.499 308.5 241.499 307.5C242.899 307.3 244.399 307.3 245.699 306.9C248.999 305.8 249.899 301.6 247.299 299.4C245.699 298.1 243.999 296.9 242.099 296C234.599 292.4 227.199 288.7 219.499 285.4C208.899 280.8 200.199 273.8 192.999 264.9C187.999 258.8 184.899 251.7 183.299 244C183.299 243.4 183.099 242.7 182.899 242Z" fill="black"/>
<path d="M234.199 177.5C233.499 182.7 232.699 188.8 231.999 194.9C231.099 202.9 228.699 210.5 226.699 218.3C224.599 226.3 223.299 234.4 222.799 242.7C222.699 245.2 222.799 247.7 223.199 250.1C223.499 251.8 224.299 253.5 225.299 254.9C227.399 257.9 230.199 260.1 233.199 262.2C239.699 266.6 246.099 271.1 252.499 275.6C254.599 277.1 256.599 278.7 258.299 280.6C263.599 286.3 266.399 292.9 264.899 300.8C262.999 310.9 253.499 318.5 243.199 318.4C236.299 318.3 229.899 316.4 224.199 312.6C216.799 307.7 209.699 302.4 203.399 296C199.899 292.4 196.799 288.6 194.199 284.4C193.699 283.5 193.099 282.6 192.499 281.8C187.299 275.5 184.499 268.1 182.299 260.3C179.099 249 179.799 238 183.999 227.1C185.699 222.6 187.799 218.1 189.799 213.7C192.499 207.8 195.099 201.9 196.399 195.5C197.499 190.5 197.799 185.4 197.099 180.2C195.999 172.6 192.499 166.3 186.799 161.2C184.799 159.4 182.599 157.7 180.399 156.2C170.499 149.6 160.199 144 148.599 140.7C148.099 140.6 147.699 140.4 147.199 140.3C139.499 138.7 137.199 129.3 140.399 123.5C142.799 119.2 145.899 115.7 149.699 112.6C154.199 109 159.399 107.1 165.199 107C167.699 107 170.199 107 172.599 107.2C181.699 108.1 190.299 110.9 198.099 115.7C201.199 117.6 204.199 119.6 207.099 121.7C222.299 132.9 230.699 148.1 233.199 166.7C233.599 170 233.799 173.3 234.199 177.5Z" fill="#EA552B"/>
<mask id="mask0" mask-type="alpha" maskUnits="userSpaceOnUse" x="139" y="107" width="127" height="212">
<path d="M234.199 177.5C233.499 182.7 232.699 188.8 231.999 194.9C231.099 202.9 228.699 210.5 226.699 218.3C224.599 226.3 223.299 234.4 222.799 242.7C222.699 245.2 222.799 247.7 223.199 250.1C223.499 251.8 224.299 253.5 225.299 254.9C227.399 257.9 230.199 260.1 233.199 262.2C239.699 266.6 246.099 271.1 252.499 275.6C254.599 277.1 256.599 278.7 258.299 280.6C263.599 286.3 266.399 292.9 264.899 300.8C262.999 310.9 253.499 318.5 243.199 318.4C236.299 318.3 229.899 316.4 224.199 312.6C216.799 307.7 209.699 302.4 203.399 296C199.899 292.4 196.799 288.6 194.199 284.4C193.699 283.5 193.099 282.6 192.499 281.8C187.299 275.5 184.499 268.1 182.299 260.3C179.099 249 179.799 238 183.999 227.1C185.699 222.6 187.799 218.1 189.799 213.7C192.499 207.8 195.099 201.9 196.399 195.5C197.499 190.5 197.799 185.4 197.099 180.2C195.999 172.6 192.499 166.3 186.799 161.2C184.799 159.4 182.599 157.7 180.399 156.2C170.499 149.6 160.199 144 148.599 140.7C148.099 140.6 147.699 140.4 147.199 140.3C139.499 138.7 137.199 129.3 140.399 123.5C142.799 119.2 145.899 115.7 149.699 112.6C154.199 109 159.399 107.1 165.199 107C167.699 107 170.199 107 172.599 107.2C181.699 108.1 190.299 110.9 198.099 115.7C201.199 117.6 204.199 119.6 207.099 121.7C222.299 132.9 230.699 148.1 233.199 166.7C233.599 170 233.799 173.3 234.199 177.5Z" fill="#EA552B"/>
</mask>
<g mask="url(#mask0)">
<path fill-rule="evenodd" clip-rule="evenodd" d="M193.899 125.3C193.899 122.8 192.299 121 189.999 121C187.999 121 186.299 122.6 186.199 124.8C186.099 127.5 187.699 129.5 189.899 129.5C192.099 129.6 193.899 127.7 193.899 125.3ZM226.399 167.7C226.399 170.1 224.399 172 221.899 172C219.499 171.9 217.699 170.1 217.799 167.7C217.899 165.4 219.799 163.6 222.199 163.6C224.499 163.5 226.399 165.3 226.399 167.7ZM210.199 198.3C212.799 198.3 214.499 196.1 214.499 193C214.399 190.7 212.899 189.1 210.799 189.3C208.399 189.3 206.199 191.7 206.199 194.2C206.199 196.6 207.899 198.3 210.199 198.3ZM219.799 214C219.799 216.9 217.899 218.9 215.499 218.7C213.199 218.6 211.299 216.6 211.599 214.2C211.699 213.1 212.199 211.9 212.799 210.9C213.699 209.4 215.099 208.8 216.899 209.1C218.599 209.4 219.199 210.7 219.499 212.2L219.499 212.2C219.599 212.9 219.699 213.6 219.799 214ZM208.241 234.314C208.323 233.978 208.406 233.639 208.499 233.3C208.399 231.2 207.699 229.8 206.299 229.1C204.699 228.4 202.699 228.8 201.399 230.1C200.099 231.4 199.399 232.9 199.499 234.8C199.599 236.9 200.999 238.5 202.899 238.9C204.799 239.3 206.799 238.4 207.599 236.5C207.875 235.808 208.056 235.069 208.241 234.314ZM227.283 281.489C227.257 281.649 227.229 281.819 227.199 282C227.314 282.318 227.43 282.687 227.556 283.086L227.556 283.086C227.864 284.067 228.23 285.234 228.799 286.3C229.899 288 232.099 288.5 233.899 287.7C235.599 286.9 236.599 285 236.099 283.1C235.699 281.6 234.999 280.1 234.299 278.7C233.599 277.4 232.399 276.8 230.899 276.9C229.299 277 228.199 277.9 227.699 279.4C227.529 279.994 227.431 280.589 227.283 281.489ZM211.599 267.4C211.599 270.2 209.699 272.3 207.199 272.4C204.699 272.4 202.799 270.4 202.899 267.7C202.999 264.8 204.999 262.4 207.399 262.5C209.799 262.6 211.599 264.7 211.599 267.4ZM243.999 305.1C246.299 305.1 248.199 303.2 248.199 300.8C247.899 297.8 246.799 295.2 244.099 295.3C241.599 295.3 239.499 297.6 239.499 300.4C239.599 303 241.599 305.1 243.999 305.1ZM200.699 144C202.799 144.2 204.499 146.1 204.299 148.3C204.099 150.6 202.099 152.4 199.699 152.2C197.599 152 196.099 150.3 196.199 148.1C196.399 145.7 198.399 143.9 200.699 144ZM158.699 131.3C160.199 131.3 161.299 130 161.299 128.5C161.199 126.9 159.899 125.7 158.499 125.8C157.099 125.9 155.899 127.4 155.999 128.8C156.099 130.2 157.299 131.3 158.699 131.3Z" fill="#FBE8DE"/>
</g>
<path d="M57.0013 224.513C56.5014 224.501 56.1643 224.374 55.8621 224.467C43.9586 225.354 32.253 227.206 20.9318 231.487C15.8059 233.43 11.0639 236.082 6.49623 238.978C5.29911 239.711 3.96248 240.421 2.70721 241.072C2.24228 241.281 1.63785 241.467 1.13798 241.456C0.858975 241.41 0.405519 241.119 0.312426 240.817C0.219334 240.515 0.509811 240.061 0.753876 239.887C11.8067 232.478 23.6622 226.709 36.8788 224.391C43.6673 223.227 50.4326 222.202 57.3027 221.839C58.0234 221.816 59.0464 221.699 59.4764 221.269C65.0661 215.676 72.005 212.314 79.2814 209.94C90.5098 206.217 101.866 203.016 113.188 199.595C113.873 199.351 114.699 199.13 115.454 198.467C107.944 196.214 100.41 194.101 92.7605 191.824C93.1902 190.534 93.9573 190.232 94.8989 190.173C95.98 190.138 97.1424 190.045 98.2585 190.23C104.373 191.391 110.488 192.551 116.58 193.851C117.894 194.142 119.161 194.711 120.347 195.338C122.638 196.651 122.848 198.836 120.965 200.674C117.223 204.209 113.504 207.604 109.646 210.977C108.542 212.012 107.46 212.047 106.658 211.268C105.995 210.513 106.041 209.374 107.087 208.257C108.912 206.339 110.853 204.583 112.921 202.49C112.34 202.536 112.061 202.49 111.759 202.583C100.588 206.388 89.3601 210.111 78.2249 214.137C74.8773 215.3 71.6927 217.208 68.5545 218.836C67.2993 219.488 66.1952 220.523 64.7308 221.569C65.626 221.79 66.3235 221.906 66.8816 221.999C71.3921 222.462 75.8912 223.426 80.1115 225.203C83.8552 226.829 87.0644 229.084 89.4253 232.559C90.158 233.756 90.9489 235.034 91.4376 236.406C93.6598 242.438 91.0228 248.379 84.9207 251.02C77.4005 254.429 64.6362 253.596 57.9141 244.019C54.0763 238.649 53.6908 232.779 56.072 226.652C56.3275 225.978 56.6644 225.245 57.0013 224.513ZM87.2055 234.268C84.9145 231.235 82.2401 229.213 79.0894 227.9C74.1598 225.647 68.8586 224.765 63.546 224.383C62.3486 224.255 61.6164 224.779 60.896 225.663C57.3054 230.441 57.3774 237.765 60.971 242.449C65.867 248.783 76.1674 251.5 83.583 248.289C88.5926 246.183 90.4162 241.684 88.4501 236.697C88.0313 235.768 87.473 234.815 87.2055 234.268Z" fill="black"/>
</svg>
