<?xml version="1.0" encoding="UTF-8"?>
<svg width="438px" height="106px" viewBox="0 0 438 106" version="1.1" xmlns="http://www.w3.org/2000/svg" xmlns:xlink="http://www.w3.org/1999/xlink">
    <title>Group 7</title>
    <g id="Page-1" stroke="none" stroke-width="1" fill="none" fill-rule="evenodd">
        <g id="Group-7" fill="#000000">
            <path d="M83.3283,0.0002 L92.9903,13.5512 L141.8773,0.0002 L83.3283,0.0002 Z M79.3243,0.0002 L65.1893,12.7462 L88.9633,13.6332 L79.3243,0.0002 Z M24.3773,0.0002 L29.4533,10.4052 L57.4303,12.1482 L24.3773,0.0002 Z M39.3543,53.9502 L60.0233,15.3922 L0.0003,12.1482 L39.3543,53.9502 Z M41.7613,56.3942 L61.2853,77.3672 L82.8223,56.2562 L89.5063,16.9352 L63.2603,15.5962 L41.7613,56.3942 Z M32.5353,105.5092 L58.9803,79.6542 L43.0633,62.5742 L32.5353,105.5092 Z" id="Fill-1"></path>
            <g id="Group-6" transform="translate(101.000000, 24.509000)">
                <path d="M311.9249,14.9376 L305.6529,54.3916 C305.5299,55.1686 304.8429,55.9416 303.9969,55.9416 L293.4309,55.9416 C292.5849,55.9416 292.0039,55.1686 292.1269,54.3936 L296.2889,28.2916 L311.9259,14.9406 L311.9249,14.9376 Z M279.5029,31.5646 C280.1749,27.3376 278.8849,24.8006 275.3609,24.8006 C271.9819,24.8006 269.7479,27.3386 269.0779,31.5646 L269.0449,31.7756 L279.4699,31.7756 L279.5029,31.5646 Z M289.7729,39.2446 L267.8629,39.2446 L267.8419,39.3846 C267.2489,43.1186 268.4329,45.4416 273.5739,45.4416 C277.3079,45.4416 284.2659,45.0926 287.0479,44.8776 C288.1859,44.8056 288.5739,45.0166 288.4079,46.0736 L287.4029,52.4166 C287.2269,53.5436 286.8649,54.0356 285.6809,54.3906 C280.9409,55.8716 275.9659,56.5746 270.0499,56.5746 C260.5389,56.5746 252.5259,51.5716 254.6559,38.1166 L255.3939,33.4676 C257.3569,21.0686 265.6119,14.3046 277.1669,14.3046 C289.4919,14.3046 293.9619,22.1236 292.1639,33.4656 L291.4929,37.6956 C291.3479,38.6086 290.6129,39.2416 289.7679,39.2416 L289.7729,39.2446 Z M248.4239,55.4486 C245.9399,56.0126 242.7499,56.5746 238.5959,56.5746 C227.8169,56.5746 222.8529,49.6716 224.6829,38.1166 L225.5209,32.8336 C227.3409,21.3496 234.5149,14.3046 245.2919,14.3046 C249.4489,14.3046 252.8699,14.9366 254.7649,15.4276 C255.6459,15.6406 256.0829,15.9936 255.9379,16.9096 L254.6769,24.8716 C254.5429,25.7176 254.0209,26.3506 252.9859,26.2086 C250.6219,26.0006 248.4139,25.7166 244.9629,25.7166 C241.9349,25.7166 239.8719,27.6206 239.0459,32.8356 L238.2089,38.1156 C237.3839,43.3306 238.8559,45.1606 241.8849,45.1606 C245.3339,45.1606 247.6119,45.0206 250.0529,44.7376 C251.1329,44.5996 251.4649,45.1606 251.3219,46.0766 L250.0709,53.9686 C249.9249,54.8876 249.3749,55.2366 248.4229,55.4496 L248.4239,55.4486 Z M217.1719,55.9416 L206.6059,55.9416 C205.7599,55.9416 205.1799,55.1686 205.3019,54.3936 L209.0839,30.5086 C209.6749,26.7746 208.6679,25.5786 205.4959,25.5786 C203.8769,25.5786 201.7329,26.2096 199.9799,27.0576 L195.6519,54.3936 C195.5289,55.1686 194.8419,55.9416 193.9959,55.9416 L183.4299,55.9416 C182.5829,55.9416 182.0029,55.1686 182.1249,54.3936 L188.1489,16.3486 C188.2729,15.5726 189.0059,14.9376 189.7819,14.9376 L199.5729,14.9376 C200.3499,14.9376 200.8819,15.5706 200.7599,16.3486 L200.5029,17.9676 C204.6819,15.1486 208.7499,14.3736 212.6969,14.3736 C223.7539,14.3736 223.9379,22.1236 222.6109,30.5056 L218.8279,54.3916 C218.7039,55.1686 218.0169,55.9426 217.1719,55.9426 L217.1719,55.9416 Z M167.4849,38.9636 L164.0329,38.9636 C160.5109,38.9636 158.9239,40.0906 158.4559,43.0476 L158.3439,43.7536 C157.9639,46.1496 159.4729,46.8546 161.4449,46.8546 C163.1369,46.8546 165.1159,46.3576 166.4039,45.7986 L167.4839,38.9636 L167.4849,38.9636 Z M176.4889,55.9416 L166.6969,55.9416 C165.9239,55.9416 165.3889,55.3096 165.5119,54.5326 L165.7479,53.0536 C162.7579,55.0256 158.9909,56.5746 155.1169,56.5746 C149.5519,56.5746 143.5619,53.4756 145.0669,43.9646 L145.2009,43.1186 C146.5399,34.6646 153.4309,31.6356 165.1949,31.6356 L168.2249,31.6356 L168.5479,29.5926 C169.0949,26.1416 168.0669,25.5086 164.5459,25.5086 C160.5999,25.5086 154.2039,25.8586 152.2079,26.0016 C151.0009,26.0716 150.7499,25.4376 150.8809,24.5906 L151.9649,17.7586 C152.1329,16.7026 152.7529,16.3516 153.6429,16.0666 C156.0779,15.3636 162.2919,14.3746 166.8019,14.3746 C177.0179,14.3746 183.9039,18.0406 182.0739,29.5946 L178.1239,54.5336 C177.9999,55.3106 177.2639,55.9426 176.4899,55.9426 L176.4889,55.9416 Z M139.0499,55.9416 L128.4129,55.9416 C127.6379,55.9416 126.9879,55.1686 127.1099,54.3936 L135.2669,2.8906 C135.3889,2.1176 136.2639,1.4826 137.0379,1.4826 L147.6769,1.4826 C148.4519,1.4826 148.9849,2.1146 148.8629,2.8896 L140.7049,54.3916 C140.5829,55.1646 139.8259,55.9396 139.0519,55.9396 L139.0499,55.9416 Z M114.4839,31.5646 C115.1549,27.3376 113.8649,24.8006 110.3439,24.8006 C106.9629,24.8006 104.7279,27.3386 104.0599,31.5646 L104.0269,31.7756 L114.4499,31.7756 L114.4839,31.5646 Z M124.7519,39.2446 L102.8429,39.2446 L102.8229,39.3846 C102.2309,43.1186 103.4139,45.4416 108.5549,45.4416 C112.2899,45.4416 119.2469,45.0926 122.0299,44.8776 C123.1669,44.8056 123.5579,45.0166 123.3899,46.0736 L122.3869,52.4166 C122.2079,53.5436 121.8469,54.0356 120.6649,54.3906 C115.9219,55.8716 110.9509,56.5746 105.0329,56.5746 C95.5229,56.5746 87.5099,51.5716 89.6409,38.1166 L90.3779,33.4676 C92.3419,21.0686 100.5989,14.3046 112.1529,14.3046 C124.4809,14.3046 128.9469,22.1236 127.1519,33.4656 L126.4839,37.6956 C126.3379,38.6086 125.6019,39.2416 124.7569,39.2416 L124.7519,39.2446 Z M75.4939,31.5646 C76.1649,27.3376 74.8739,24.8006 71.3509,24.8006 C67.9699,24.8006 65.7379,27.3386 65.0689,31.5646 L65.0369,31.7756 L75.4619,31.7756 L75.4949,31.5646 L75.4939,31.5646 Z M85.7599,39.2446 L63.8509,39.2446 L63.8299,39.3846 C63.2379,43.1186 64.4209,45.4416 69.5629,45.4416 C73.2969,45.4416 80.2549,45.0926 83.0359,44.8776 C84.1739,44.8056 84.5619,45.0166 84.3929,46.0736 L83.3909,52.4166 C83.2129,53.5436 82.8509,54.0356 81.6699,54.3906 C76.9259,55.8716 71.9549,56.5746 66.0369,56.5746 C56.5269,56.5746 48.5149,51.5716 50.6459,38.1166 L51.3829,33.4676 C53.3439,21.0686 61.5999,14.3046 73.1539,14.3046 C85.4829,14.3046 89.9489,22.1236 88.1539,33.4656 L87.4829,37.6956 C87.3369,38.6086 86.5999,39.2416 85.7559,39.2416 L85.7599,39.2446 Z M50.3639,25.4356 L49.3799,25.4356 C46.3499,25.4356 43.3949,25.8586 41.0219,27.0546 L36.6919,54.3906 C36.5699,55.1676 35.8829,55.9396 35.0369,55.9396 L24.4699,55.9396 C23.6239,55.9396 23.0439,55.1676 23.1659,54.3916 L29.1909,16.3496 C29.3139,15.5726 29.8369,14.9376 30.8239,14.9376 L40.9669,14.9376 C41.9539,14.9376 42.3209,15.2906 42.1539,16.3486 L41.8859,18.0376 C45.5809,14.7266 48.1729,14.3736 51.9069,14.3736 C53.1039,14.3736 53.2699,14.6546 53.0919,15.7836 L51.7299,24.3776 C51.5979,25.2246 51.2809,25.4356 50.3649,25.4356 L50.3639,25.4356 Z M23.6419,24.9426 L18.2879,24.9426 L13.5999,54.5326 C13.4779,55.3096 12.7439,55.9416 11.9669,55.9416 L1.2599,55.9416 C0.4839,55.9416 -0.0481,55.3096 0.0739,54.5326 L6.6469,13.0346 C8.3099,2.5396 13.6079,0.2126 20.8639,0.2126 C23.1179,0.2126 25.4799,0.4256 27.3259,0.7766 C28.1489,0.9186 28.7049,1.4116 28.5809,2.1866 L27.5199,8.8816 C27.3979,9.6546 26.6739,10.2186 25.8279,10.2186 L22.8719,10.2186 C21.1109,10.2186 20.5059,10.9216 20.1729,13.0376 L19.8709,14.9376 L25.2239,14.9376 C25.9999,14.9376 26.5329,15.5706 26.4099,16.3486 L25.2729,23.5336 C25.1469,24.3096 24.4119,24.9426 23.6389,24.9426 L23.6419,24.9426 Z" id="Fill-2"></path>
                <polyline id="Fill-4" points="315.5265 14.9376 313.3615 28.4746 336.5975 14.9376"></polyline>
            </g>
        </g>
    </g>
</svg>