<?xml version="1.0" encoding="utf-8"?>
<!-- Generator: Adobe Illustrator 24.3.0, SVG Export Plug-In . SVG Version: 6.00 Build 0)  -->
<svg version="1.1" id="Layer_1" xmlns="http://www.w3.org/2000/svg" xmlns:xlink="http://www.w3.org/1999/xlink" x="0px" y="0px"
	 viewBox="0 0 539.94 120" style="enable-background:new 0 0 539.94 120;" xml:space="preserve">
<g>
	<rect x="215.6" y="11" width="23.33" height="22"/>
	<rect x="215.6" y="38.67" width="23.33" height="78"/>
	<polygon points="55.85,38.65 40.05,90.16 23.5,38.74 0,38.75 27.69,116.67 52.77,116.67 79.04,38.65 	"/>
	<polygon points="310.27,57.67 310.27,56.42 310.27,38.67 245.6,38.67 245.6,57.67 282.89,57.67 245.6,98.04 245.6,116.67 
		312.94,116.67 312.94,98.04 274.81,98.04 	"/>
	<path d="M182.94,50.84V38.67H160.1v78h22.83V81.62c0.67-20.09,17.58-21.87,17.58-21.87h7.75V38.67c0,0-7.12,0-8.42,0
		C192.63,38.67,185.8,46.89,182.94,50.84z"/>
	<path d="M114.69,36c-21.77,0-39.42,18.8-39.42,42c0,23.2,17.65,42,39.42,42c16.48,0,32.66-10.66,38.54-25.96l-21.89-0.12
		c-3.39,5.42-8.93,8.91-17.24,8.5c-8.18-0.41-15.08-7.75-17.05-18.25h31.3h6.62h18.7c0.28-2.01,0.43-4.07,0.43-6.17
		C154.1,54.8,136.46,36,114.69,36z M97.81,68.67c2.64-8.88,8.94-15.12,16.3-15.12c7.36,0,13.66,6.25,16.3,15.12H97.81z"/>
	<path d="M354.52,36c-23.29,0-42.17,18.8-42.17,42c0,23.2,18.88,42,42.17,42c23.29,0,42.17-18.8,42.17-42
		C396.69,54.8,377.81,36,354.52,36z M354.77,102.17c-9.75,0-17.66-10.78-17.66-24.08c0-13.3,7.91-24.08,17.66-24.08
		c9.76,0,17.67,10.78,17.67,24.08C372.44,91.38,364.53,102.17,354.77,102.17z"/>
	<path d="M475.6,65.54c-0.11-24.78-19.23-31.27-33.37-28c-8.4,1.94-14.47,7.98-17.38,11.45V38.67h-22.58v78h22.58V69.4
		c4.88-14.29,15.26-15.13,21.62-11.23c5.61,3.44,6.46,11.25,6.46,11.25v47.25h22.67L475.6,65.54L475.6,65.54z"/>
</g>
<polyline points="475.6,38.67 493.94,78 503.94,78 539.94,0 527.77,0 498.6,62.67 488.1,38.67 475.6,38.67 "/>
</svg>
