<svg width="264" height="492" viewBox="0 0 264 492" fill="none" xmlns="http://www.w3.org/2000/svg">
<path d="M288.908 380.7C288.908 387.1 288.508 393.5 287.408 399.8C285.707 409.5 281.708 418.1 275.608 425.7C271.108 431.3 266.007 436.2 260.607 440.8C247.107 452.2 231.907 461.1 216.007 468.7C194.107 479 171.207 485.7 147.307 489C138.307 490.2 129.207 491.4 120.107 491.6C109.407 491.8 98.8075 490.8 88.6075 487.6C85.6075 486.6 82.6075 485.4 79.7075 484C72.6075 480.4 67.1075 475 63.4075 467.9C59.8075 461 56.3075 454.1 53.8075 446.7C53.6075 446.1 53.4075 445.5 53.1075 444.9C47.7075 434 44.6075 422.3 41.6075 410.6C37.4075 394.4 31.9075 378.6 26.6075 362.8C22.5075 350.6 18.6075 338.3 16.0075 325.7C14.3075 317.2 13.1075 308.7 13.0075 300C12.9075 292.8 13.8075 285.6 15.8075 278.7C20.8075 261.2 29.3075 245.6 42.3075 232.7C47.6075 227.4 53.5075 222.9 60.2075 219.5C63.5075 217.8 66.9075 216.2 70.3075 214.6C82.3075 209 94.3075 203.6 106.207 197.9C123.207 189.9 140.607 183.3 158.807 178.7C165.907 176.9 173.207 176 180.607 176C190.907 176 200.307 178.8 208.807 184.7C221.607 193.6 232.607 204.3 241.207 217.4C248.207 228.1 253.807 239.5 258.507 251.3C269.307 278.7 277.508 306.8 283.008 335.7C285.108 346.5 286.908 357.4 288.008 368.4C288.408 372.5 288.608 376.6 288.908 380.7Z" fill="white"/>
<path fill-rule="evenodd" clip-rule="evenodd" d="M137.789 215.636C138.159 208.316 143.162 204.518 150.11 206.556C152.982 207.39 154.835 209.243 155.669 212.115C156.596 215.451 156.318 218.786 154.743 221.844C153.075 224.994 150.481 226.94 146.775 226.847C143.162 226.754 140.661 224.623 139.364 221.38C138.759 220.036 138.446 218.594 138.144 217.196C138.029 216.667 137.916 216.144 137.789 215.636ZM67.8423 396.865C67.8423 396.68 67.8423 396.124 67.9349 395.661C68.4908 394.085 68.6761 392.418 68.6761 390.657C68.6761 388.434 70.6216 386.766 72.9377 386.673C73.9568 386.673 75.0685 386.859 75.9023 387.229C78.867 388.619 81.6463 390.379 83.7771 392.881C88.1314 397.792 86.1859 405.852 80.0713 408.169C76.8288 409.466 73.4009 408.539 70.9922 405.852C69.2319 403.814 67.8423 400.108 67.8423 396.865ZM105.548 445.045C104.066 446.527 103.51 448.38 103.51 449.585C103.51 454.588 105.826 458.757 109.162 460.703C113.331 463.112 118.055 461.815 120.372 457.553C123.707 451.438 119.816 443.006 113.053 441.524C110.459 440.968 108.235 441.524 106.568 443.84C106.29 444.303 105.919 444.674 105.548 445.045ZM239.79 377.778C239.697 378.211 239.625 378.654 239.553 379.096C239.409 379.982 239.265 380.867 238.956 381.67C236.918 387.136 230.526 388.526 226.357 384.357C224.226 382.318 223.392 379.632 223.021 376.759C222.929 375.925 222.743 374.999 222.466 374.165C221.169 370.83 222.466 367.957 225.893 366.845C230.155 365.363 235.806 367.494 238.03 371.385C239.142 373.331 239.697 375.462 239.79 377.778ZM52.0162 260.004L52.0162 260.004L52.0161 260.005C51.9763 260.217 51.9404 260.408 51.9075 260.573C52.0001 264.464 52.6486 267.244 54.5942 269.467C56.6323 271.876 59.319 272.988 62.4689 272.432C65.6188 271.876 67.657 269.838 68.6761 266.78C70.529 261.314 67.5644 254.735 61.7278 253.438C61.5425 253.377 61.3572 253.325 61.1719 253.274C60.8013 253.171 60.4307 253.068 60.0602 252.882C57.4661 251.771 54.2236 252.882 52.9266 256.218C52.4696 257.589 52.2004 259.023 52.0162 260.004L52.0162 260.004ZM210.7 419.472C210.7 423.271 208.754 426.236 205.604 427.255C202.732 428.274 199.768 427.348 197.637 424.846C195.228 421.881 194.209 418.453 194.302 414.747C194.394 412.06 195.877 409.836 197.452 407.798C198.471 406.501 200.046 406.13 201.713 406.408C202.64 406.594 203.566 406.964 204.307 407.52C207.642 409.744 210.7 415.396 210.7 419.472ZM52.6487 326.634V327.561C52.7413 331.73 54.0383 335.436 57.7441 337.845C60.2455 339.513 62.9322 339.883 65.7115 338.494C68.3982 337.104 69.6026 334.695 69.6952 331.823C69.8805 326.912 67.3791 323.299 63.3028 320.704C62.9322 320.426 62.5616 320.241 62.0984 320.148C57.3735 318.666 52.9266 321.723 52.6487 326.634ZM176.144 422.808C176.288 423.132 176.404 423.47 176.519 423.806C176.7 424.334 176.879 424.856 177.163 425.309C178.46 427.44 179.479 429.571 179.571 432.166C179.664 434.945 178.645 437.076 176.144 438.373C173.642 439.671 171.233 439.207 169.103 437.54C166.601 435.687 165.397 433 164.841 429.942C164.594 428.583 164.429 427.224 164.264 425.865L164.264 425.864C164.182 425.185 164.1 424.506 164.007 423.827C163.822 422.53 164.1 421.14 165.119 420.399L165.273 420.287C166.895 419.115 168.604 417.88 170.4 417.341C173.827 416.322 176.977 419.287 176.144 422.808ZM174.476 360.638C171.975 363.417 170.492 366.66 170.585 369.81C170.492 373.053 170.955 375.092 171.882 376.759C173.364 379.261 175.958 380.465 178.645 380.095C181.98 379.632 185.037 376.852 185.686 373.516C186.427 369.718 185.501 366.29 183.184 363.232C182.907 362.862 182.653 362.516 182.399 362.169L182.397 362.166L182.395 362.164C182.141 361.817 181.887 361.471 181.61 361.101C179.757 358.414 176.699 358.229 174.476 360.638ZM113.609 408.447C119.63 407.427 124.541 414.469 123.058 420.306C121.854 425.031 117.129 427.348 112.682 425.402C108.235 423.456 105.363 417.527 106.753 412.801C107.401 410.207 109.625 407.705 113.609 408.447ZM238.586 327.746C237.011 330.248 236.177 333.027 236.27 335.992C236.27 338.216 236.733 340.254 237.845 342.107C239.512 344.887 242.199 346.277 245.071 345.813C247.85 345.443 250.166 343.219 250.63 339.976C251.463 334.88 249.61 330.433 246.275 326.727C243.959 324.132 240.439 324.781 238.586 327.746ZM95.5476 359.782L95.5476 359.782C95.7289 360.311 95.9082 360.833 96.1914 361.286C97.5811 363.695 98.2296 366.197 97.7664 368.976C97.3958 371.385 96.0988 373.239 93.69 373.98C91.1886 374.814 89.0578 373.98 87.2976 372.127C85.7226 370.366 84.8888 368.235 84.3329 366.012C84.055 364.9 83.6844 363.788 83.1286 362.769C81.9242 360.174 82.5727 357.765 84.8888 356.19C85.352 355.912 85.7921 355.588 86.2321 355.264C86.6722 354.94 87.1123 354.615 87.5755 354.337C89.3357 353.225 91.1886 353.04 93.0415 354.059C94.8018 355.079 95.5429 356.654 95.1723 358.785C95.3163 359.109 95.4323 359.447 95.5476 359.782ZM199.212 225.735C201.713 224.438 202.64 222.214 202.732 219.805C202.825 215.729 200.046 211.096 196.433 208.316C192.727 205.444 188.095 207.297 187.539 212.022C187.261 214.153 187.354 216.47 187.724 218.601C188.187 221.288 189.577 223.604 191.893 225.179C194.209 226.754 196.711 227.125 199.212 225.735ZM136.214 377.964C136.214 377.253 136.203 376.543 136.193 375.833C136.173 374.412 136.152 372.991 136.214 371.571C136.399 368.699 139.086 366.845 141.958 367.772C143.162 368.143 144.274 368.791 145.2 369.625C147.331 371.571 148.813 373.887 149.925 376.574C150.759 378.612 150.944 380.743 150.11 382.874C149.184 385.561 147.331 387.229 144.552 387.692C141.68 388.156 139.456 387.044 137.789 384.727C136.399 382.689 135.936 380.373 136.214 377.964ZM224.597 268.819C228.024 267.429 230.248 263.908 230.248 260.017C230.248 256.218 228.21 253.068 225.152 252.049C221.91 250.844 218.204 252.049 215.981 254.828C213.479 257.978 213.572 263.815 216.166 266.873C218.204 269.282 221.539 270.023 224.597 268.819ZM134.639 293.557C134.639 295.132 134.268 296.8 133.342 298.19C130.748 302.266 125.467 302.637 122.41 298.931C120.186 296.244 119.538 293.001 119.631 289.573C119.631 288.809 119.787 288.044 119.943 287.28C119.995 287.025 120.047 286.77 120.094 286.515C120.928 282.624 124.355 281.049 127.969 282.809C131.674 284.477 134.639 289.295 134.639 293.557ZM171.071 258.631C171.154 258.352 171.239 258.073 171.326 257.793C171.048 255.199 169.936 253.16 167.805 251.4C167.669 251.283 167.523 251.165 167.376 251.046C166.826 250.601 166.245 250.132 165.953 249.547C164.378 246.767 160.023 246.211 157.337 249.64C154.465 253.346 154.372 259.09 157.244 262.889C160.764 267.522 166.879 267.151 169.751 262.148C170.352 261.02 170.71 259.832 171.07 258.632L171.07 258.632L171.07 258.632L171.07 258.632L171.07 258.631L171.071 258.631L171.071 258.631ZM221.261 305.602C221.169 308.937 219.779 311.902 216.722 313.848C212.645 316.535 207.55 314.867 205.975 310.327C204.03 304.861 206.068 299.487 212.553 297.448C215.054 296.615 217.37 297.448 219.131 299.487C220.613 301.155 221.169 303.193 221.261 305.602ZM176.901 315.375C177.037 314.857 177.172 314.339 177.348 313.848C177.162 308.845 171.696 303.193 166.786 303.193C163.729 303.1 161.32 305.324 161.506 308.196C161.598 309.957 161.784 311.717 162.154 313.477C162.71 316.257 164.007 318.666 166.416 320.241C169.844 322.557 174.198 321.538 176.051 317.832C176.454 317.083 176.678 316.228 176.901 315.375ZM126.671 244.08C126.671 247.231 125.097 249.825 122.502 250.844C119.908 251.863 116.944 251.122 114.906 248.806C112.126 245.563 111.293 241.764 112.126 237.595C112.497 236.02 113.331 234.722 114.535 233.703C117.129 231.758 120.464 232.406 122.225 235.093C122.78 235.927 123.429 236.761 124.077 237.594L124.077 237.595C125.838 239.633 126.671 241.671 126.671 244.08ZM80.5075 280.394C80.4134 280.759 80.3316 281.077 80.2566 281.327C80.4419 285.404 81.2757 288.183 83.6844 290.222C87.2976 293.372 92.393 292.167 94.1532 287.813C95.265 284.94 94.8944 282.253 93.0415 279.844C92.3004 278.825 91.7445 277.899 91.4666 276.694C90.818 274.1 88.224 272.71 85.5373 273.451C83.7771 273.915 82.3874 275.119 81.6463 276.787C81.1052 278.072 80.7617 279.406 80.5075 280.394ZM137.326 329.321C137.326 331.081 136.862 332.842 135.658 334.51C133.064 337.845 128.432 338.123 125.282 335.066C122.317 332.193 121.483 327.005 123.336 323.299C124.541 320.89 126.671 319.778 129.358 320.148C129.451 320.148 129.52 320.172 129.59 320.195L129.59 320.195C129.659 320.218 129.729 320.241 129.821 320.241C134.917 320.982 137.326 323.855 137.326 329.321ZM193.375 339.328V345.165C193.375 346.925 193.931 349.241 195.784 351.094C198.842 354.152 203.659 353.225 205.327 349.334C207.179 345.072 203.844 337.011 199.583 335.251C196.433 333.954 193.375 335.992 193.375 339.328Z" fill="black"/>
<path d="M287.188 198.24C286.348 207.187 284.694 217.746 281.754 228.075C278.386 239.861 272.741 250.588 265.966 260.663C254.536 277.629 239.456 290.5 221.141 299.498C205.411 307.279 188.947 312.575 171.453 314.427C161.608 315.48 151.76 315.787 141.917 314.478C132.996 313.306 124.283 311.095 116.068 307.308C110.729 304.878 105.954 301.623 102.152 297.081C100.447 295.075 99.138 292.79 98.0238 290.398C95.7585 285.298 96.154 280.356 98.5926 275.52C100.137 272.539 102.269 269.978 104.685 267.753C109.523 263.239 114.98 259.523 120.93 256.656C126.031 254.279 131.247 252.035 136.292 249.591C146.048 244.986 155.748 240.314 165.457 235.518C170.507 233.012 175.345 230.054 180.007 226.956C189.993 220.256 198.312 211.863 205.133 201.979C210.833 193.681 214.302 184.516 216.029 174.584C218.57 159.932 216.836 145.86 211.28 132.156C210.398 129.969 209.326 127.829 208.187 125.745C201.122 113.036 192.137 101.786 181.427 91.8853C172.225 83.3531 162.168 76.1805 151.567 69.585C143.276 64.4237 135.061 59.0821 126.904 53.8075C123.356 51.5249 120.023 48.887 116.886 46.1407C116.014 45.3848 115.342 44.4587 114.994 43.3729C114.391 41.582 113.788 39.7911 113.124 37.9952C112.261 35.561 112.331 33.1416 113.089 30.6546C115.456 22.8282 120.062 16.5545 127.113 12.3481C134.95 7.64682 143.53 5.30773 152.557 4.37357C168.544 2.70776 183.499 6.18018 197.403 14.2297C208.93 20.9017 219.007 29.3818 227.72 39.3661C235.013 47.6786 241.382 56.661 247.684 65.7002C255.656 77.1779 262.981 88.9754 269.315 101.499C278.818 120.255 284.502 140.125 286.685 161.012C287.856 172.8 288.28 184.587 287.188 198.24Z" fill="#EA552B"/>
<mask id="mask0" mask-type="alpha" maskUnits="userSpaceOnUse" x="96" y="3" width="192" height="313">
<path d="M287.188 198.24C286.348 207.187 284.694 217.746 281.754 228.075C278.386 239.861 272.741 250.588 265.966 260.663C254.536 277.629 239.456 290.5 221.141 299.498C205.411 307.279 188.947 312.575 171.453 314.427C161.608 315.48 151.76 315.787 141.917 314.478C132.996 313.306 124.283 311.095 116.068 307.308C110.729 304.878 105.954 301.623 102.152 297.081C100.447 295.075 99.138 292.79 98.0238 290.398C95.7585 285.298 96.154 280.356 98.5926 275.52C100.137 272.539 102.269 269.978 104.685 267.753C109.523 263.239 114.98 259.523 120.93 256.656C126.031 254.279 131.247 252.035 136.292 249.591C146.048 244.986 155.748 240.314 165.457 235.518C170.507 233.012 175.345 230.054 180.007 226.956C189.993 220.256 198.312 211.863 205.133 201.979C210.833 193.681 214.302 184.516 216.029 174.584C218.57 159.932 216.836 145.86 211.28 132.156C210.398 129.969 209.326 127.829 208.187 125.745C201.122 113.036 192.137 101.786 181.427 91.8853C172.225 83.3531 162.168 76.1805 151.567 69.585C143.276 64.4237 135.061 59.0821 126.904 53.8075C123.356 51.5249 120.023 48.887 116.886 46.1407C116.014 45.3848 115.342 44.4587 114.994 43.3729C114.391 41.582 113.788 39.7911 113.124 37.9952C112.261 35.561 112.331 33.1416 113.089 30.6546C115.456 22.8282 120.062 16.5545 127.113 12.3481C134.95 7.64682 143.53 5.30773 152.557 4.37357C168.544 2.70776 183.499 6.18018 197.403 14.2297C208.93 20.9017 219.007 29.3818 227.72 39.3661C235.013 47.6786 241.382 56.661 247.684 65.7002C255.656 77.1779 262.981 88.9754 269.315 101.499C278.818 120.255 284.502 140.125 286.685 161.012C287.856 172.8 288.28 184.587 287.188 198.24Z" fill="black"/>
</mask>
<g mask="url(#mask0)">
<path d="M136.7 179.005C136.422 179.42 136.347 179.602 136.215 179.717C130.19 186.813 126.26 195.049 123.107 203.713C119.199 214.312 116.389 225.173 113.947 236.123C112.132 244.321 110.626 252.54 109.362 260.839C108.2 268.585 107.223 276.345 106.798 284.205C106.35 291.504 106.842 298.683 109.026 305.669C113.556 319.964 123.165 329.146 137.539 333.257C150.208 336.876 162.72 335.638 174.81 330.643C191.185 323.897 202.581 311.958 209.669 295.866C211.812 290.983 213.283 285.93 214.211 280.652C214.228 280.405 214.246 280.157 214.276 279.725C213.525 279.796 212.775 279.868 212.086 279.944C197.942 281.441 184.098 280.412 170.553 275.986C161.382 272.985 153.061 268.489 146.008 261.846C139.538 255.741 134.825 248.516 132.705 239.732C131.074 232.847 131.302 226.029 134.427 219.538C138.141 211.721 144.563 206.951 152.794 204.731C155.517 203.989 158.396 203.693 161.291 203.15C161.234 203.084 161.066 202.824 160.893 202.625C156.741 198.919 155.626 194.43 157.486 189.155C158.409 186.61 159.809 184.347 161.506 182.291C164.155 179.06 167.387 176.366 170.841 174.06C178.723 168.833 187.341 165.521 196.5 163.366C209.64 160.246 222.978 159.624 236.316 161.675C242.587 162.61 248.745 164.282 254.674 166.561C255.16 166.719 255.584 166.873 256.004 167.088C256.198 166.978 256.326 166.924 256.396 166.805C263.697 159.239 269.808 150.906 273.846 141.124C276.323 135.023 277.757 128.724 277.658 122.132C277.463 109.818 272.436 99.9614 262.644 92.5057C259.576 90.1791 256.226 88.3298 252.656 86.9621C252.356 86.8169 251.989 86.7291 251.623 86.6414C251.482 86.88 251.283 87.0526 251.204 87.2955C245.557 98.7668 237.832 108.85 228.994 117.986C219.89 127.352 209.761 135.404 198.374 141.877C192.295 145.304 185.884 148.149 179.065 149.722C174.836 150.669 170.585 151.056 166.212 150.502C164.057 150.227 161.928 149.581 160.01 148.577C155.1 145.936 152.789 141.674 152.613 136.195C152.461 132.146 153.532 128.369 155.037 124.623C157.931 117.867 162.25 112.08 167.394 106.911C176.145 98.1414 186.468 91.7804 197.857 87.0471C206.686 83.3774 215.915 81.1024 225.469 80.4032C233.271 79.8921 240.932 80.4896 248.42 82.6901C248.906 82.8483 249.334 82.9404 249.882 83.1029C250.093 82.7449 250.239 82.4445 250.384 82.144C252.909 76.2322 254.644 70.0788 254.846 63.632C255.23 49.2459 249.362 38.0883 237.159 30.4641C230.671 26.4075 223.396 24.7189 215.845 24.3155C209.901 24.0245 204.083 24.6119 198.278 25.8837C197.837 25.9772 197.396 26.0706 197.012 26.2301C196.733 28.4471 196.52 30.6066 196.245 32.7617C195.075 41.5017 192.624 49.9037 189.078 57.9806C183.837 69.853 176.878 80.5491 167.544 89.6506C162.946 94.1129 157.892 97.9842 152.041 100.806C148.317 102.534 144.438 103.816 140.341 103.778C138.725 103.789 137.06 103.611 135.474 103.189C130.354 101.776 127.226 97.6432 126.749 92.0187C126.359 87.829 127.258 83.8537 128.589 79.9087C128.906 78.9368 128.971 78.0095 128.792 77.003C127.393 68.5805 127.548 60.1424 128.947 51.667C131.318 37.2955 136.831 24.1996 145.476 12.5029C149.591 6.95074 154.281 2.06 159.967 -1.95361C164.02 -4.83876 168.405 -7.14159 173.376 -8.03679C180.611 -9.3329 186.482 -7.12103 190.849 -1.16255C193.743 2.76712 195.225 7.34364 196.133 12.1286C196.712 15.3995 197.04 18.715 196.996 22.0046C197.019 22.5653 197.047 23.0642 197.061 23.7486C197.688 23.6681 198.191 23.579 198.756 23.4943C205.121 22.1995 211.624 21.5977 218.111 22.1131C226.453 22.7581 234.307 25.0464 241.168 29.9987C253.819 39.2073 259.026 51.8098 257.448 67.2927C256.895 72.5347 255.424 77.5883 253.405 82.4793C253.185 82.9609 253.022 83.5087 252.793 84.114C253.337 84.3383 253.818 84.5583 254.3 84.7783C262.081 88.1176 268.703 92.929 273.561 99.8537C279.385 108.088 281.351 117.296 280.346 127.228C279.412 137.04 275.695 145.789 270.458 154.058C267.458 158.756 263.985 163.111 260.221 167.197C259.881 167.608 259.48 168.015 259.075 168.483C259.676 168.774 260.153 169.056 260.635 169.276C266.932 172.511 272.744 176.458 277.53 181.763C290.33 195.952 293.486 212.138 286.829 230.062C283.54 238.902 278.111 246.351 271.494 253.033C261.672 262.908 249.889 269.726 236.831 274.343C230.908 276.414 224.897 277.982 218.735 279.042C218.355 279.14 217.98 279.176 217.476 279.265C217.095 281.164 216.776 283.068 216.337 284.901C210.733 309.98 191.498 331.871 163.716 337.385C153.321 339.454 142.975 339.042 132.986 335.3C117.668 329.57 108.379 318.484 104.835 302.519C103.648 297.28 103.339 291.915 103.653 286.532C104.119 278.986 105.021 271.407 106.166 263.908C107.809 252.841 110.008 241.812 112.813 231.012C115.706 219.845 119.018 208.894 123.731 198.352C126.745 191.666 130.413 185.399 135.39 179.97C135.592 179.735 135.861 179.443 136.064 179.209C136.192 179.156 136.254 179.16 136.7 179.005ZM181.675 207.494C182.334 207.851 182.687 208.124 183.05 208.274C188.215 210.809 192.834 214.052 197.031 218.01C205.587 226.249 211.356 236.158 214.853 247.46C217.591 256.287 218.576 265.301 217.937 274.451C217.903 274.946 217.925 275.507 217.882 276.125C218.447 276.04 218.884 276.008 219.26 275.973C222.61 275.151 226.07 274.523 229.367 273.573C243.19 269.568 255.76 263.054 266.448 253.239C273.15 247.122 278.737 240.058 282.548 231.751C285.844 224.588 287.484 217.124 286.854 209.252C286.152 200.63 282.89 193.071 277.519 186.359C272.091 179.581 265.164 174.686 257.41 170.976C257.229 170.901 257.043 170.888 256.858 170.875C256.73 170.929 256.602 170.982 256.535 171.039C256.337 171.212 256.073 171.442 255.874 171.614C243.49 183.485 229.312 192.558 213.56 199.285C204.977 202.972 196.089 205.706 186.805 206.983C185.242 207.122 183.618 207.257 181.675 207.494ZM214.735 276.713C214.849 275.975 214.954 275.361 214.931 274.8C215.023 271.701 215.181 268.543 215.088 265.431C214.52 252.22 210.523 240.075 202.952 229.296C194.703 217.537 184.032 209.336 169.558 206.648C163.057 205.448 156.761 205.754 150.574 208.055C140.111 211.983 134.014 221 134.164 232.193C134.252 238.039 135.863 243.432 138.613 248.532C141.917 254.603 146.477 259.58 151.967 263.692C161.003 270.411 171.301 274.175 182.338 276.251C190.924 277.844 199.535 278.198 208.223 277.438C210.351 277.214 212.483 276.928 214.735 276.713ZM248.835 85.639C248.292 85.4146 248.053 85.2737 247.748 85.1903C242.271 83.5651 236.604 82.8586 230.891 82.8321C223.376 82.804 215.968 83.9017 208.739 86.0058C193.393 90.4627 179.885 97.9678 168.59 109.355C164.314 113.653 160.683 118.494 158.003 123.96C156.33 127.446 155.148 131.029 154.938 134.928C154.629 141.119 157.674 145.556 163.572 147.397C167.344 148.531 171.199 148.489 175.03 147.887C181.374 146.902 187.252 144.579 192.921 141.683C202.133 136.983 210.442 130.979 218.124 124.185C228.587 114.914 237.768 104.435 245.009 92.3917C246.4 90.2525 247.554 87.9723 248.835 85.639ZM253.676 169.286C253.194 169.066 252.775 168.851 252.412 168.701C247.027 166.647 241.479 165.142 235.764 164.245C222.616 162.146 209.582 162.851 196.69 165.988C188.092 168.121 179.857 171.273 172.434 176.159C168.786 178.576 165.421 181.385 162.755 184.864C161.394 186.57 160.328 188.484 159.682 190.613C158.32 194.991 159.664 198.874 163.465 201.376C164.716 202.147 166.095 202.865 167.495 203.273C171.263 204.468 175.145 204.926 179.066 204.827C184.603 204.717 190.006 203.852 195.324 202.422C217.238 196.436 236.331 185.469 252.935 170.104C253.134 169.932 253.341 169.636 253.676 169.286ZM130.066 83.6772C128.985 87.5777 128.462 91.5171 130.053 95.4178C131.267 98.4847 133.694 100.207 136.817 100.86C137.797 101.053 138.906 101.193 139.899 101.2C143.127 101.239 146.168 100.396 149.111 99.1723C153.912 97.147 158.151 94.2748 162.115 90.8865C169.387 84.6229 175.309 77.2091 180.233 68.9799C186.984 57.7101 191.673 45.737 193.578 32.6996C193.835 30.7918 194.031 28.8796 194.227 26.9674C193.979 26.9501 193.86 26.8797 193.798 26.8753C193.167 27.0176 192.536 27.1599 191.962 27.3683C171.003 33.918 153.766 45.884 140.313 63.2708C136.625 68.0452 133.586 73.2998 131.387 78.9859C131.08 79.8342 130.957 80.6954 131.206 81.5825C131.695 83.4804 132.117 85.4357 132.54 87.3911C132.637 87.7707 132.616 88.0798 132.713 88.4594C131.122 87.23 130.942 85.3537 130.066 83.6772ZM194.28 24.424C194.302 24.1149 194.381 23.8719 194.398 23.6246C194.499 17.7299 193.974 11.9156 192.062 6.37714C191.029 3.38508 189.541 0.671888 187.405 -1.65174C184.225 -5.04228 180.288 -6.49769 175.604 -6.14161C172.231 -5.88029 169.111 -4.79367 166.146 -3.26133C161.959 -1.13102 158.281 1.71823 154.944 5.02615C147.211 12.562 141.493 21.4813 137.199 31.3697C131.497 44.5144 128.865 58.1843 129.916 72.4843C129.983 73.2966 130.051 74.1089 130.18 74.9256C136.607 62.08 145.779 51.7248 156.946 43.0621C168.116 34.3375 180.545 28.0615 194.28 24.424Z" fill="black"/>
</g>
<path d="M16.0111 59.111C15.9111 57.511 15.8111 55.911 15.6111 54.311C15.1111 51.011 13.7111 48.211 11.1111 46.111C8.41107 43.911 5.81107 41.611 2.31107 40.911C1.81107 40.811 1.21107 40.511 0.911067 40.111C0.511067 39.511 -0.0889328 38.711 0.0110672 38.111C0.111067 37.511 0.911067 36.711 1.61107 36.611C10.8111 34.911 15.1111 28.511 17.6111 20.311C18.2111 18.311 18.5111 16.111 18.9111 14.011C19.2111 13.311 19.1111 12.611 19.4111 12.011C19.7111 11.511 20.3111 10.911 20.7111 11.011C21.1111 11.011 21.6111 11.711 21.9111 12.211C22.1111 12.611 22.0111 13.111 22.0111 13.611C21.9111 15.711 21.8111 17.711 21.7111 19.811C21.6111 22.111 21.4111 24.411 21.4111 26.711C21.3111 30.511 23.7111 32.811 26.7111 34.311C28.6111 35.211 30.7111 35.711 33.0111 35.411C34.4111 35.211 35.8111 35.611 37.3111 35.811C37.8111 35.911 38.3111 36.011 38.6111 36.311C39.0111 36.811 39.5111 37.511 39.5111 38.011C39.5111 38.911 38.6111 39.011 37.8111 38.911C36.5111 38.811 35.3111 38.711 34.0111 38.511C31.6111 38.211 29.4111 38.811 27.2111 39.611C26.2111 40.011 25.2111 40.811 24.7111 41.711C23.6111 43.411 22.5111 45.111 22.0111 47.011C20.8111 51.411 20.0111 55.911 19.0111 60.311C18.8111 61.211 18.8111 62.111 18.4111 62.911C18.2111 63.411 17.5111 64.011 17.1111 64.011C16.7111 64.011 16.0111 63.311 16.0111 62.811C15.9111 61.611 16.0111 60.311 16.0111 59.111Z" fill="black"/>
</svg>
