<svg width="167" height="107" viewBox="0 0 167 107" fill="none" xmlns="http://www.w3.org/2000/svg">
<path fill-rule="evenodd" clip-rule="evenodd" d="M87.1133 1.04286L87.1128 1.04337C86.6896 1.55271 86.2787 2.04727 85.826 2.5C84.8049 3.40765 83.7919 4.32334 82.78 5.23795L82.7799 5.23803L82.7798 5.23811L82.7797 5.23823C80.2242 7.54807 77.6764 9.85101 75.026 12C61.626 22.5 48.226 33 34.926 43.5L9.12601 63.9L9.12589 63.9001C8.72593 64.2001 8.32598 64.5 8.02602 64.8C7.32602 65.4 6.52602 65.8 5.62602 65C4.82602 64.3 5.02602 63.3 5.52602 62.6C6.12602 61.6 6.92601 60.6 7.72602 59.8C8.20938 59.3606 8.69274 58.919 9.17674 58.4769L9.17682 58.4768L9.17689 58.4767L9.17701 58.4766C11.9972 55.9003 14.8388 53.3044 17.826 51C39.426 34.4 61.126 17.9 83.626 2.5C84.826 1.6 86.126 0.8 87.426 0C87.426 0 87.526 0.1 87.826 0.2C87.5789 0.482421 87.3442 0.764841 87.1133 1.04286ZM166.026 21.9C165.676 22.1 165.326 22.325 164.976 22.55C164.626 22.775 164.276 23 163.926 23.2C149.326 31.8 134.926 40.7 120.826 50.2C99.2261 64.6 77.8261 79.4 57.4261 95.4C53.6261 98.4 49.9261 101.4 46.2261 104.4C45.6261 104.9 45.1261 105.3 44.5261 105.7C43.7261 106.3 42.9261 106.6 42.1261 105.9C41.3261 105.2 41.5261 104.2 42.0261 103.5C42.6261 102.5 43.3261 101.5 44.2261 100.7L44.3459 100.59C46.8092 98.3235 49.3692 95.9681 52.0261 94C82.4261 71 113.626 49.5 146.926 31C150.726 28.8667 154.615 26.9111 158.504 24.9556C160.448 23.9778 162.393 23 164.326 22C164.826 21.8 165.326 21.6 165.726 21.4C165.826 21.5 165.926 21.7 166.026 21.9ZM99.926 8.5C100.626 8 101.226 7.4 101.826 6.8C101.726 6.7 101.626 6.6 101.326 6.5C100.626 7 99.926 7.525 99.226 8.05C98.526 8.575 97.826 9.1 97.126 9.6C93.0918 12.5088 89.0545 15.4176 85.0158 18.3275L85.0151 18.328C65.7284 32.224 46.4088 46.1436 27.226 60.2C21.8311 64.1042 16.7385 68.3108 11.6263 72.5336L11.6262 72.5336C9.53676 74.2595 7.44401 75.9882 5.32601 77.7C3.82601 78.9 2.52601 80.3 1.22601 81.7C0.726013 82.2 0.226013 82.8 0.026013 83.5C-0.073987 84 0.126013 84.7 0.426013 85C0.726013 85.3 1.52601 85.4 1.92601 85.2C2.72601 84.8 3.42601 84.3 4.12601 83.7C6.54336 81.7156 8.93467 79.7052 11.3234 77.6969C15.5554 74.139 19.7794 70.5878 24.126 67.2C34.7347 58.9552 45.3766 50.8101 56.0135 42.669L56.0143 42.6684L56.015 42.6678C63.8265 36.6891 71.6352 30.7125 79.426 24.7C86.3253 19.3005 93.1247 13.9011 99.924 8.50163L99.926 8.5ZM100.426 22C99.3259 23 98.2259 24 97.0259 24.9C93.6955 27.4851 90.3597 30.0703 87.0223 32.6567L87.0149 32.6624C76.0245 41.1795 65.0164 49.7104 54.1259 58.3C47.6803 63.3921 41.3177 68.5672 34.9847 73.7183C31.4925 76.5588 28.0092 79.3921 24.5259 82.2L24.5258 82.2001C23.7259 82.9 22.9259 83.6 22.0259 84.1C21.5259 84.4 20.4259 84.4 20.1259 84.1C19.7259 83.7 19.6259 82.7 19.9259 82.2C20.3259 81.4 20.9259 80.6 21.6259 79.9C22.3147 79.2686 22.9952 78.629 23.677 77.9883L23.6771 77.9882C25.3708 76.3963 27.0721 74.7973 28.9259 73.3C48.9259 57.5 69.1259 42 90.2259 27.7C92.521 26.1427 94.9504 24.5853 97.294 23.083L97.2942 23.0828C97.8097 22.7524 98.3211 22.4246 98.8259 22.1C99.2259 21.9 99.6259 21.7 100.026 21.4C100.102 21.5146 100.164 21.6 100.217 21.6729L100.217 21.673C100.302 21.791 100.364 21.8764 100.426 22ZM107.356 35.4442C107.542 35.2315 107.732 35.0157 107.926 34.8C107.626 34.6 107.526 34.5 107.526 34.5L107.526 34.5001C106.026 35.6001 104.526 36.7 103.026 37.7C86.3261 48.8 70.2261 60.7 54.3261 72.8C49.6262 76.2999 45.0262 79.8999 40.4263 83.4998L40.4261 83.5C39.5261 84.2 38.7261 85 38.0261 85.8C37.4261 86.5 37.1261 87.4 37.8261 88.2C38.5261 89.1 39.4261 89 40.2261 88.5C41.3261 87.9 42.4261 87.2 43.4261 86.4C45.1761 85 46.9011 83.575 48.6261 82.15C50.3511 80.725 52.0761 79.3 53.8261 77.9C65.9261 68.4 78.1261 58.9 90.3261 49.5L105.326 37.5C106.032 36.951 106.676 36.2175 107.356 35.4442Z" fill="black"/>
</svg>
